<svg width="100" height="100" viewBox="0 0 100 100" fill="none" xmlns="http://www.w3.org/2000/svg">
<path d="M100 50C100 77.6142 77.6142 100 50 100C22.3858 100 0 77.6142 0 50C0 22.3858 22.3858 0 50 0C77.6142 0 100 22.3858 100 50Z" fill="#163760"/>
<path d="M45.3808 24.5283L32.1235 37.7837L18.8682 24.5283H45.3808Z" fill="#A8C7E5"/>
<path d="M45.3804 51.0411L32.123 37.7837L45.3804 24.5283V51.0411Z" fill="#8BB4DA"/>
<path d="M45.3809 51.0411L58.6361 37.7837L45.3809 24.5283V51.0411Z" fill="#65A0CC"/>
<path d="M71.8935 51.0411L58.6361 37.7838L45.3809 51.0411H71.8935Z" fill="#4291C4"/>
<path d="M71.8933 51.0411V37.7838H58.6357L71.8933 51.0411Z" fill="#65A0CC"/>
<path d="M58.6357 37.7837H71.8933V24.5283L58.6357 37.7837Z" fill="#8BB4DA"/>
<path d="M71.8936 24.5283V37.7837H85.1488L71.8936 24.5283Z" fill="#A8C7E5"/>
<path d="M45.3809 51.0411L58.6361 64.2963L71.8935 51.0411H45.3809Z" fill="#288AC1"/>
<path d="M45.3809 77.5537L58.6361 64.2963L45.3809 51.0411V77.5537Z" fill="#4291C4"/>
<path d="M32.123 77.5536H45.3804V64.2963L32.123 77.5536Z" fill="#8BB4DA"/>
<path d="M38.7517 77.5538H32.123V84.1806L38.7517 77.5538Z" fill="#A8C7E5"/>
</svg>
