<svg width="100" height="100" viewBox="0 0 100 100" fill="none" xmlns="http://www.w3.org/2000/svg">
<path d="M59.325 85.9879C58.0722 83.3004 56.8918 80.7597 55.4163 78.3647C52.5056 73.6376 48.4226 70.124 43.2772 67.9213C38.1371 65.7204 32.254 65.8163 26.5667 65.9101C26.0248 65.9193 25.4855 65.9276 24.9517 65.9355C18.6071 66.0198 11.5329 65.5044 7.95417 58.3226C7.07156 56.5502 6.49211 54.6895 5.93142 52.8898C5.12125 50.288 4.35403 47.8303 2.79538 46.0577C1.96107 45.1096 0.984547 44.5248 0 44.1761V64.5334C0.0938941 64.7053 0.193139 64.8777 0.287033 65.0477C1.75715 67.6597 3.27557 70.3599 5.0998 72.0769C9.87498 76.5726 16.4181 76.5688 23.267 76.1529C28.9677 75.804 38.51 75.2208 43.9505 82.0227C47.7653 86.7925 48.6184 93.8154 49.0449 100H67.7835C66.3644 98.3471 64.9104 96.4329 63.4054 93.9608C61.8253 91.3623 60.5537 88.6305 59.325 85.9879Z" fill="#EFA20F"/>
<path d="M23.5835 81.3554C16.2061 81.8073 7.81202 81.7918 1.52379 75.8716C0.981887 75.3616 0.477519 74.8054 0 74.2238V83.0423C0.716278 83.7285 1.46205 84.3596 2.25881 84.9044C5.2366 86.9376 9.45112 87.65 14.7897 87.023C15.5113 86.9376 16.2947 86.8033 17.1209 86.6595C20.9089 86.0063 26.0972 85.1095 29.7644 89.1094C32.7771 92.3928 32.2057 96.5753 31.2184 99.9987H43.8164C43.4301 94.6537 42.6816 88.7837 39.8782 85.2793C36.4175 80.9511 29.9308 80.9684 23.5835 81.3554Z" fill="#8AB4C5"/>
<path d="M25.9228 92.6354C24.2971 90.863 21.8478 91.1368 18.0089 91.7997C17.1477 91.9492 16.2598 92.1027 15.3987 92.204C9.13994 92.9392 3.96502 92.0781 0 89.6477V99.9999H25.7511C26.8054 96.7974 27.3822 94.2232 25.9228 92.6354Z" fill="#C1DAE1"/>
<path d="M78.273 16.2997L77.4574 16.4283C74.5628 16.8814 71.8318 17.3094 69.5461 18.5876C67.2042 19.8999 65.3343 22.0389 64.4195 24.4565C62.7804 28.7961 64.1137 34.258 67.7354 38.0497C69.9996 40.4188 72.5588 42.4431 75.2684 44.5851C77.1543 46.0756 79.1046 47.6164 80.9476 49.2855C84.1614 52.201 86.3559 55.7436 88.4779 59.1713C89.4678 60.7691 90.4014 62.2798 91.4342 63.7322C93.5563 66.7177 96.5287 68.9349 100 70.1754V0H93.3872C92.9365 3.92289 91.5684 7.48885 89.3498 10.4607C87.0266 13.571 83.4049 15.4806 78.273 16.2997Z" fill="#192947"/>
<path d="M28.3723 35.084C27.7472 34.1156 27.1034 33.1143 26.5212 32.0735C23.7581 27.134 24.0397 21.6243 24.2651 17.1974L24.2865 16.7607C24.3804 15.0361 24.4878 13.0807 23.6025 12.2915C23.4227 12.1293 23.192 12.0647 22.9452 12.0647C22.4247 12.0647 21.8292 12.3532 21.4509 12.6603C21.0512 12.9859 20.6971 13.3912 20.4047 13.8642C19.5006 15.3198 19.1197 17.2224 18.7173 19.2367C18.5912 19.8671 18.4651 20.4926 18.3256 21.1035L18.1861 21.71C17.4537 24.8858 16.7643 27.8853 16.547 30.9457C16.3806 33.2835 16.5738 35.3575 17.1264 37.1093C17.6442 38.7579 18.6582 40.2964 20.1418 41.6837L20.1445 41.6842C21.4644 42.9185 23.0471 43.9379 24.8472 44.7141C27.1302 45.6984 30.0999 46.4902 31.2857 44.6711C31.6613 44.0963 31.782 43.385 31.68 42.365C31.4279 39.8262 29.9443 37.5228 28.3723 35.084Z" fill="#192947"/>
<path d="M87.1823 66.754C86.0529 65.1643 85.0308 63.5125 84.0435 61.9147C82.0208 58.6524 80.1161 55.5717 77.4468 53.1489C75.7326 51.5984 73.9378 50.1798 72.0358 48.6769C69.3048 46.5175 66.48 44.2841 63.9636 41.6523C58.9067 36.3593 57.171 28.885 59.5425 22.6124C60.8839 19.0649 63.6014 15.94 66.9977 14.038C70.0989 12.302 73.4308 11.7806 76.6501 11.2766L77.4522 11.1502C81.1757 10.5557 83.7001 9.30948 85.1703 7.34067C86.7209 5.26562 87.7081 2.76737 88.1159 0H66.7107C65.7798 2.03547 64.5484 3.88497 63.0354 5.46145C60.9724 7.60871 58.6143 8.93838 56.3313 10.2241C55.5856 10.6451 54.813 11.0808 54.0779 11.5316C48.8976 14.7156 45.6945 19.7811 45.2948 25.4281C45.0641 28.6875 45.6542 32.1927 47.0519 35.8474C48.9969 40.9375 53.5467 44.5738 58.1663 47.7453L58.228 47.7877C63.69 51.5381 69.3424 55.4139 73.8144 60.7391C76.2825 63.6795 77.9109 67.0369 79.483 70.2857C80.7036 72.8029 81.8545 75.1801 83.3487 77.313C86.9033 82.3836 92.773 85.9788 100 87.5664V75.6404C94.777 74.2145 90.2862 71.1195 87.1823 66.754Z" fill="#192947"/>
<path d="M35.6556 47.522C34.6738 49.0255 32.6859 50.9897 29.0079 50.9911C27.3125 50.9911 25.2602 50.5754 22.7814 49.506C20.426 48.4912 18.3416 47.1418 16.579 45.4956C14.4329 43.4876 12.9413 41.1936 12.1526 38.6781C11.4014 36.2976 11.1305 33.5731 11.3424 30.5789C11.5919 27.114 12.3592 23.7736 13.1023 20.5434L13.2418 19.9397C13.3705 19.3766 13.4859 18.7994 13.6013 18.2172C14.0573 15.9457 14.5724 13.3721 15.9754 11.1136C16.5737 10.15 17.3087 9.31089 18.1565 8.62021C20.933 6.35907 24.6834 6.26947 27.0764 8.40425C29.8315 10.864 29.6276 14.584 29.4962 17.0465L29.4721 17.4647C29.2709 21.4208 29.0428 25.903 31.0736 29.532C31.5753 30.4298 32.1467 31.32 32.7557 32.2624C34.5101 34.9815 36.4926 38.0619 36.8709 41.8528C37.0909 44.0738 36.6938 45.9288 35.6556 47.522ZM79.0777 80.3077C77.3446 77.8332 76.0462 75.1533 74.7907 72.5618C73.2884 69.4649 71.8719 66.5383 69.8197 64.0959C65.8064 59.3145 60.6905 55.8063 55.2768 52.0899L55.2151 52.0478C49.898 48.3987 44.6373 44.1362 42.1826 37.713C40.5113 33.3426 39.8085 29.0852 40.0928 25.0622C40.6133 17.7171 44.7151 11.1668 51.3494 7.09193C52.1649 6.5896 52.9805 6.12891 53.7719 5.68409C55.8134 4.53344 57.7422 3.4457 59.274 1.85133C59.8186 1.28441 60.3095 0.662627 60.7575 0.00292969H0V38.7778C2.64781 39.3153 4.96031 40.6234 6.70943 42.613C9.00313 45.2191 9.97154 48.3298 10.9078 51.3381C11.4336 53.015 11.9272 54.599 12.6221 55.9963C14.6555 60.0758 18.5052 60.8109 24.8819 60.7204C25.4158 60.7134 25.947 60.7034 26.4808 60.6961C32.7181 60.5966 39.1673 60.4872 45.3294 63.1265C51.4862 65.7613 56.3741 69.9684 59.8589 75.6295C61.4899 78.284 62.7937 81.082 64.0546 83.7873C65.2779 86.4158 66.4315 88.8979 67.8613 91.2513C70.2355 95.1519 72.4461 97.4613 74.788 99.9071C74.8176 99.9369 74.8444 99.9679 74.8765 99.9993H100V92.8885C90.9807 91.1634 83.5765 86.7255 79.0777 80.3077Z" fill="#8AB4C5"/>
</svg>
