<svg width="100" height="100" viewBox="0 0 100 100" fill="none" xmlns="http://www.w3.org/2000/svg">
<path fill-rule="evenodd" clip-rule="evenodd" d="M13.4781 55.6085C13.4781 58.5217 12.4949 59.8758 10.3238 59.8758C8.15246 59.8758 6.92342 58.6448 6.92342 56.4702C6.92342 56.4702 6.92342 54.3775 6.92342 53.9262C6.39082 53.9262 0.532619 53.9262 0 53.9262C0 54.2955 0 54.952 0 54.952C0 62.6249 3.31843 66.1535 10.4466 66.1535C17.4519 66.1535 20.8931 62.8711 20.8931 56.1009C20.8931 56.1009 20.8931 37.3084 20.8931 36.7339C20.3605 36.7339 14.0107 36.7339 13.4781 36.7339C13.4781 37.3084 13.4781 55.6085 13.4781 55.6085Z" fill="black"/>
<path fill-rule="evenodd" clip-rule="evenodd" d="M29.005 56.4703C29.1279 59.5064 30.8895 61.5171 34.0029 61.5171C35.7235 61.5171 37.4442 60.6964 38.1407 59.0961H44.9821C43.6301 64.2252 38.878 66.4819 33.88 66.4819C26.6288 66.4819 21.7129 62.0915 21.7129 54.6238C21.7129 47.7715 27.1614 42.8888 33.7162 42.8888C41.7047 42.8888 45.6785 48.8794 45.3508 56.4703L29.005 56.4703ZM38.0587 52.367C37.9358 49.8642 36.1742 47.8126 33.7161 47.8126C31.1353 47.8126 29.4556 49.659 29.0049 52.367H38.0587Z" fill="black"/>
<path fill-rule="evenodd" clip-rule="evenodd" d="M59.8526 48.2637H55.3871V60.4911C56.8756 60.4911 58.3641 60.4911 59.8526 60.4911V65.8252C58.5007 65.8662 57.1897 66.0303 55.8378 66.0303C49.6108 66.0303 48.054 64.225 48.054 58.1933V48.2637H44.3262V43.5041H48.054V36.7338H55.3871V43.5041H59.8526L59.8526 48.2637Z" fill="black"/>
<path fill-rule="evenodd" clip-rule="evenodd" d="M84.8013 33L85.4567 43.545H100L86.0711 52.7772L89.1438 67.9999L77.3043 57.7009L61.3682 65.9894L70.8724 52.9413L61.8596 43.545H76.4439L84.8013 33Z" fill="#FE5815"/>
</svg>
