<svg width="100" height="100" viewBox="0 0 100 100" fill="none" xmlns="http://www.w3.org/2000/svg">
<path fill-rule="evenodd" clip-rule="evenodd" d="M26.078 40.9249L37.1702 37.7532C37.1702 37.7532 37.0513 37.0117 36.6537 36.6477C36.2559 36.2836 35.5405 36.0585 35.5405 36.0585L20.1235 30.4529C20.1235 30.4529 19.6341 30.2883 19.2765 30.4865C18.9189 30.6845 18.9315 31.1995 18.9315 31.1995V38.3762C18.9315 38.3762 18.8931 39.0633 19.8873 40.6035C20.8816 42.1434 23.2366 41.7512 23.2366 41.7512L26.078 40.9249ZM70.235 23.6091L80.5532 17.8224C80.5532 17.8224 80.7085 16.8226 80.3108 16.4585C79.913 16.0945 79.4396 15.9824 79.4396 15.9824L34.8778 0.0641594C34.8778 0.0641594 34.3883 -0.100492 34.0307 0.0977353C33.6732 0.295801 33.6857 0.8109 33.6857 0.8109V6.99871C33.6857 6.99871 33.6796 8.43246 34.6738 9.97259C35.6681 11.5126 37.2813 11.9113 37.2813 11.9113L70.235 23.6091ZM70.235 41.6206L80.5532 36.2698C80.5532 36.2698 80.773 34.9148 80.3753 34.5508C79.9775 34.1868 79.4396 33.994 79.4396 33.994L20.1227 12.4264C20.1227 12.4264 19.6333 12.2617 19.2756 12.46C18.9181 12.6582 18.9307 13.1734 18.9307 13.1734V19.3611C18.9307 19.3611 18.9246 20.7948 19.9187 22.335C20.9131 23.8751 22.5263 24.2738 22.5263 24.2738L70.235 41.6206Z" fill="#ED1651"/>
<path fill-rule="evenodd" clip-rule="evenodd" d="M79.5088 15.9975C79.5088 15.9975 80.1111 16.089 80.6219 16.5867C81.1328 17.0843 81.1384 17.6923 81.1384 17.6923V25.8851C81.1384 25.8851 81.1139 27.0044 80.6553 28.011C80.1965 29.0177 79.5249 29.2558 79.5249 29.2558L78.1273 29.7639L33.5945 45.9562C33.5945 45.9562 33.3803 46.0224 33.1019 46.0224C32.8232 46.0224 32.6091 45.9562 32.6091 45.9562L20.2014 41.4446C20.2014 41.4446 19.8936 41.373 19.4569 40.688C18.9651 39.9197 19.0006 38.3942 19.0006 38.3942C19.0006 38.3942 19.0776 39.1765 19.5192 39.5477C19.9607 39.919 21.1377 39.5116 21.1377 39.5116L78.1276 18.7898C78.1276 18.7898 80.3905 17.8658 80.3905 16.927C80.3905 16.2785 79.5089 16.0002 79.5089 16.0002L79.5088 15.9975ZM79.5088 34.009C79.5088 34.009 80.1111 34.1005 80.6219 34.5982C81.1328 35.0959 81.1384 35.7038 81.1384 35.7038V43.8966C81.1384 43.8966 81.1139 45.0159 80.6553 46.0226C80.1965 47.0292 79.5249 47.2673 79.5249 47.2673L78.1273 47.7755L33.5945 63.9677V52.991L78.1273 36.7987C78.1273 36.7987 80.3902 35.8747 80.3902 34.9359C80.3902 34.2875 79.5088 34.009 79.5088 34.009ZM57.402 62.8455C57.8282 63.2722 57.8282 64.2112 57.8282 64.2112V70.3376C57.8282 70.3376 57.8037 71.4569 57.3451 72.4636C56.8863 73.4702 56.2147 73.7081 56.2147 73.7081L54.8171 74.2166L33.594 81.9336V70.9569L54.8171 63.2397C54.8171 63.2397 56.9758 62.4189 57.402 62.8455ZM43.7113 85.7546C44.1375 86.1813 44.1375 87.1203 44.1375 87.1203V93.2467C44.1375 93.2467 44.113 94.366 43.6544 95.3727C43.1956 96.3793 42.524 96.6172 42.524 96.6172L41.1263 97.1256L33.594 100V89.0233L41.1263 86.1488C41.1263 86.1488 43.2851 85.328 43.7113 85.7546Z" fill="#2A0088"/>
</svg>
