<svg width="100" height="100" viewBox="0 0 100 100" fill="none" xmlns="http://www.w3.org/2000/svg">
<path d="M8.19142 14.4969C2.75901 19.5202 0 25.904 0 33.477C0 39.7467 1.8552 45.6833 5.50851 51.1252C8.61954 55.7109 14.1756 61.6095 22.4812 69.1444L35.382 81.246C37.7509 82.9966 41.0808 82.6541 43.0026 80.5135C45.0005 78.2872 44.8863 74.7766 42.6981 72.636C36.0004 66.5852 37.0279 67.4795 30.3396 61.4192C23.3755 55.1781 18.5044 49.9074 15.8405 45.7689C13.3289 41.8492 12.054 37.8439 12.054 33.8481C12.054 29.1482 13.6524 25.4188 16.9346 22.4505C20.293 19.4156 24.2222 17.9409 28.9506 17.9409C33.679 17.9409 37.9127 19.1587 41.566 21.5657C43.8588 23.145 46.1992 25.3712 48.5777 28.2159C48.5587 28.2159 48.5491 28.2159 48.5301 28.2159C49.1866 29.0721 50.3377 30.7941 50.7754 33.2677C51.3557 36.5024 50.3663 39.0712 49.9286 40.0606C51.7934 40.0606 54.4001 39.1853 56.5027 36.8925C58.6243 34.5806 61.2501 25.8755 55.5038 19.1397C55.5038 19.1397 55.4942 19.1302 55.4847 19.1206C54.0101 17.4082 52.545 15.3722 48.0734 12.3944C42.622 8.81715 35.9814 7.00952 28.3322 7.00952C20.6831 7.00952 13.5858 9.53069 8.20093 14.4969" fill="white"/>
<path d="M8.19142 14.4969C2.75901 19.5202 0 25.904 0 33.477C0 39.7467 1.8552 45.6833 5.50851 51.1252C8.61954 55.7109 14.1756 61.6095 22.4812 69.1444L35.382 81.246C37.7509 82.9966 41.0808 82.6541 43.0026 80.5135C45.0005 78.2872 44.8863 74.7766 42.6981 72.636C36.0004 66.5852 37.0279 67.4795 30.3396 61.4192C23.3755 55.1781 18.5044 49.9074 15.8405 45.7689C13.3289 41.8492 12.054 37.8439 12.054 33.8481C12.054 29.1482 13.6524 25.4188 16.9346 22.4505C20.293 19.4156 24.2222 17.9409 28.9506 17.9409C33.679 17.9409 37.9127 19.1587 41.566 21.5657C43.8588 23.145 46.1992 25.3712 48.5777 28.2159C48.5587 28.2159 48.5491 28.2159 48.5301 28.2159C49.1866 29.0721 50.3377 30.7941 50.7754 33.2677C51.3557 36.5024 50.3663 39.0712 49.9286 40.0606C51.7934 40.0606 54.4001 39.1853 56.5027 36.8925C58.6243 34.5806 61.2501 25.8755 55.5038 19.1397C55.5038 19.1397 55.4942 19.1302 55.4847 19.1206C54.0101 17.4082 52.545 15.3722 48.0734 12.3944C42.622 8.81715 35.9814 7.00952 28.3322 7.00952C20.6831 7.00952 13.5858 9.53069 8.20093 14.4969" fill="url(#paint0_linear_526_2076)"/>
<path d="M8.19142 14.4969C2.75901 19.5202 0 25.904 0 33.477C0 36.217 0.352012 38.8999 1.05604 41.4972C1.29388 38.624 2.14061 33.7815 5.42289 29.0912C13.1767 17.979 27.3999 17.9219 28.9411 17.9409C33.6505 17.9409 37.9031 19.1587 41.5565 21.5657C43.8493 23.145 46.1897 25.3712 48.5682 28.2159C48.5491 28.2159 48.5396 28.2159 48.5206 28.2159C49.177 29.0721 50.3282 30.7941 50.7659 33.2677C51.3462 36.5024 50.3568 39.0712 49.9191 40.0606C51.7838 40.0606 54.3906 39.1853 56.4932 36.8925C58.6148 34.5806 61.2406 25.8755 55.4942 19.1397C55.4942 19.1397 55.4847 19.1302 55.4752 19.1206C54.0006 17.4082 52.5354 15.3722 48.0639 12.3944C42.6125 8.81715 35.9718 7.00952 28.3227 7.00952C20.6736 7.00952 13.5763 9.53069 8.19142 14.4969Z" fill="white"/>
<path d="M8.19142 14.4969C2.75901 19.5202 0 25.904 0 33.477C0 36.217 0.352012 38.8999 1.05604 41.4972C1.29388 38.624 2.14061 33.7815 5.42289 29.0912C13.1767 17.979 27.3999 17.9219 28.9411 17.9409C33.6505 17.9409 37.9031 19.1587 41.5565 21.5657C43.8493 23.145 46.1897 25.3712 48.5682 28.2159C48.5491 28.2159 48.5396 28.2159 48.5206 28.2159C49.177 29.0721 50.3282 30.7941 50.7659 33.2677C51.3462 36.5024 50.3568 39.0712 49.9191 40.0606C51.7838 40.0606 54.3906 39.1853 56.4932 36.8925C58.6148 34.5806 61.2406 25.8755 55.4942 19.1397C55.4942 19.1397 55.4847 19.1302 55.4752 19.1206C54.0006 17.4082 52.5354 15.3722 48.0639 12.3944C42.6125 8.81715 35.9718 7.00952 28.3227 7.00952C20.6736 7.00952 13.5763 9.53069 8.19142 14.4969Z" fill="url(#paint1_linear_526_2076)"/>
<path d="M71.6397 7C63.9906 7 57.3499 8.80763 51.8985 12.3848C49.0422 14.3006 46.7131 16.5308 44.4777 19.1206C44.4777 19.1206 44.4682 19.1397 44.4586 19.1397C38.7218 25.8755 41.3476 34.5806 43.4597 36.8925C45.5623 39.1853 48.169 40.0606 50.0338 40.0606C48.3101 36.1636 48.8412 31.5955 51.4323 28.2159C53.8012 25.3807 56.1512 23.1545 58.4345 21.5752C62.0878 19.1682 66.331 17.9504 71.0498 17.9504C75.7687 17.9504 79.7074 19.4251 83.0658 22.46C86.3481 25.4283 87.9464 29.1482 87.9464 33.8576C87.9464 37.8534 86.6716 41.8682 84.1599 45.7784C81.496 49.9265 76.6249 55.1876 69.6608 61.4287L46.3804 84.6044C45.3364 85.6483 44.7346 87.0729 44.7346 88.5526C44.7346 91.6256 47.2272 94.1087 50.2906 94.1087C51.7815 94.1087 53.2068 93.4949 54.2579 92.4438L77.5193 69.1444C85.8248 61.5999 91.3714 55.7109 94.4919 51.1252C98.1453 45.6833 100 39.7466 100 33.477C100 25.9135 97.2414 19.5297 91.809 14.4969C86.4242 9.52117 79.6599 7.00951 71.6777 7.00951H71.6492" fill="url(#paint2_linear_526_2076)"/>
<defs>
<linearGradient id="paint0_linear_526_2076" x1="-0.927103" y1="43.1743" x2="55.9663" y2="43.1743" gradientUnits="userSpaceOnUse">
<stop stop-color="#88171A"/>
<stop offset="0.45" stop-color="#DA1F28"/>
<stop offset="1" stop-color="#F1564C"/>
</linearGradient>
<linearGradient id="paint1_linear_526_2076" x1="-0.926953" y1="22.0779" x2="55.9572" y2="22.0779" gradientUnits="userSpaceOnUse">
<stop stop-color="#F1564C"/>
<stop offset="0.55" stop-color="#DA1F28"/>
<stop offset="1" stop-color="#88171A"/>
</linearGradient>
<linearGradient id="paint2_linear_526_2076" x1="64.2081" y1="21.4986" x2="86.878" y2="67.0168" gradientUnits="userSpaceOnUse">
<stop stop-color="#EA2026"/>
<stop offset="0.13" stop-color="#EA2026"/>
<stop offset="0.27" stop-color="#A12F3F"/>
<stop offset="0.57" stop-color="#055075"/>
<stop offset="1" stop-color="#055075"/>
</linearGradient>
</defs>
</svg>
