<svg width="100" height="100" viewBox="0 0 100 100" fill="none" xmlns="http://www.w3.org/2000/svg">
<path d="M34.8433 0.130989C35.5783 -0.132428 36.3973 0.00795485 37.0025 0.501106C38.1999 1.47685 37.6972 3.26197 37.6529 4.60462C37.6084 5.95409 37.6331 7.85726 37.9127 10.0451C38.4751 14.4454 40.0442 19.8332 43.9732 24.2472C48.2932 29.0997 50.6009 34.825 51.8424 39.5001C61.2721 40.8553 69.2746 46.1953 74.064 53.6115C75.2647 54.0486 76.5408 54.712 77.6724 55.7238C80.1993 55.5228 82.7991 55.1934 85.3248 55.4972C87.3818 55.7446 92.9218 56.4115 97.5689 61.6437C98.3373 62.509 98.3149 63.8181 97.5182 64.6574C96.7225 65.4953 95.419 65.5864 94.5152 64.8673L94.5123 64.8654C93.5979 64.1573 92.5818 63.5651 91.5484 63.0519C89.6652 62.1166 87.2616 61.2955 84.8248 61.3927C82.3735 61.4903 80.222 62.4547 78.232 63.7501C78.7331 66.1712 78.9371 68.6893 78.8033 71.2648C77.9317 88.0378 63.1372 100.884 45.7594 99.9523C34.4911 99.3522 24.9042 93.1043 19.7906 84.213C19.7533 84.2123 19.7156 84.2129 19.6783 84.212C17.3 84.1554 14.7426 83.6405 12.817 82.1564C11.9728 82.002 10.4844 81.6623 8.83065 80.9367C6.38337 79.8627 3.31851 77.8118 1.99373 74.0197C1.7495 73.3203 1.86885 72.5449 2.31209 71.9513C3.09364 70.9048 4.30508 71.0635 5.44881 71.1173C7.91533 71.2316 10.3832 71.3552 12.8531 71.337C13.4726 71.3073 14.5377 71.2469 15.8707 71.0988C15.8113 70.0436 15.8073 68.9756 15.8629 67.8976C16.2399 60.6843 19.1906 54.198 23.8131 49.2208C22.9594 47.7027 22.2448 45.7502 22.317 43.5089C22.3317 43.0525 22.4849 42.623 22.7418 42.2697C20.8465 39.5831 19.1336 36.3775 18.7379 33.381C18.6483 32.7029 18.8756 32.042 19.3199 31.5665C18.8478 30.4267 18.5024 29.2012 18.4566 27.9738C18.4174 26.9182 19.1562 25.9569 20.1832 25.7199C19.4103 23.5806 18.8872 21.2686 19.0035 19.0441C19.0498 18.1588 19.6168 17.3846 20.4469 17.0734C21.5973 16.6421 22.5465 17.3118 23.3082 18.1085C22.7259 14.796 22.2625 11.0596 22.5484 8.4679C22.6708 7.35884 23.5951 6.51122 24.7105 6.4845C25.4373 6.46713 26.0994 6.80184 26.5211 7.34193C26.4792 5.96431 26.5906 4.60562 26.9078 3.30677C27.1503 2.31387 28.0371 1.61268 29.0592 1.60658C30.0811 1.60054 30.9767 2.29057 31.231 3.2804L31.9556 6.10169C32.2976 4.47312 32.5799 2.50951 33.567 1.12708C33.7203 0.912419 34.1226 0.389326 34.8433 0.130989Z" fill="white"/>
<path d="M17.413 67.8881C16.5858 83.9543 29.3807 97.7053 45.9949 98.5917C62.6091 99.4839 76.7535 87.1792 77.5865 71.113C78.4196 55.041 65.6186 41.3016 49.0044 40.4094C48.4417 40.3794 47.8784 40.3639 47.3149 40.3627C31.4399 40.3627 18.2225 52.3701 17.413 67.8881Z" fill="url(#paint0_linear_526_2078)"/>
<path d="M52.4278 52.4217C52.8164 54.1776 53.5529 55.5207 54.7523 55.8524C57.069 56.6193 59.1408 55.7117 61.2994 54.8222C64.5609 53.4841 68.4002 53.2833 71.8236 54.1221C73.4978 54.5322 75.6089 55.3443 77.2294 56.9794C78.1808 56.9037 79.1322 56.8289 80.0845 56.7663C81.7682 56.6555 83.4951 56.5005 85.177 56.7053C87.1818 56.9494 92.3206 57.5751 96.6582 62.4511C97.0079 62.8442 96.9984 63.4395 96.6365 63.8213C96.251 64.2279 95.6475 64.2088 95.224 63.8807C94.981 63.694 93.8 62.8155 92.0853 61.9644C87.4248 59.6509 82.2559 59.581 77.8317 62.5242C75.0168 64.5127 71.7332 66.4491 69.514 69.1102C68.7568 70.0181 67.422 71.6188 65.0729 73.3503C62.3508 75.3568 58.2902 77.5291 52.1462 79.1543C47.6688 80.332 42.0009 80.8564 37.4972 81.09C33.5586 81.2943 30.4602 81.2788 29.7162 81.2713C28.6559 81.5949 27.5908 81.895 26.5106 82.1464C24.5698 82.5982 22.0145 83.0531 19.7082 82.9983C17.5208 82.9464 15.0387 82.4924 13.3287 81.0086C11.9488 80.7396 10.6071 80.3896 9.31328 79.8225C7.01986 78.8171 4.30497 76.963 3.14008 73.6191C2.90796 72.9528 3.44057 72.2402 4.14535 72.2742L4.15103 72.2744C5.48571 72.3373 6.82041 72.3993 8.15535 72.4564C9.73583 72.524 11.3238 72.6278 12.9059 72.5525C13.9269 72.5039 16.1594 72.3759 18.8235 71.9065C22.4047 71.2756 26.6442 70.0477 29.7792 67.6692C32.7408 65.4216 34.1449 63.6226 34.809 62.4489C35.2949 61.5901 35.3881 61.065 35.4067 60.9159C35.3212 60.3821 35.1407 59.8625 34.8992 59.38C34.4448 58.4723 33.6076 57.3991 32.0376 56.7324C30.04 55.8844 28.0002 54.5 27.5557 52.0166C27.1401 51.6326 26.4002 50.8931 25.6631 49.8675C24.5802 48.3609 23.4481 46.1542 23.5311 43.5491C23.5473 43.0405 23.9582 42.6124 24.4619 42.5717C24.3359 42.4055 24.211 42.238 24.0874 42.0691C22.0851 39.3327 20.3178 36.1065 19.937 33.2229C19.8607 32.6451 20.3112 32.1093 20.8872 32.0787C20.2221 30.7367 19.7227 29.3031 19.6715 27.9299C19.6545 27.4749 19.9432 27.0646 20.3771 26.9267C21.2005 26.6652 21.6382 27.5141 22.0439 28.0658C22.3453 28.4758 22.7676 29.0242 23.2836 29.6276C21.6685 26.6259 20.0271 22.6829 20.2114 19.1091C20.2359 18.6331 20.589 18.2386 21.0595 18.1616C21.5296 18.0848 21.9898 18.3459 22.1649 18.7888C22.3468 19.2449 22.5658 19.6879 22.7878 20.1253C23.6839 21.8916 25.5884 25.1544 28.7456 28.407C28.4813 27.9236 28.214 27.414 27.9477 26.88C25.6746 22.321 23.4453 15.9206 23.7524 8.67211C23.7744 8.15225 24.1868 7.73364 24.7062 7.70376C25.2255 7.67389 25.683 8.04216 25.7647 8.55577L25.7654 8.56013C25.8852 9.27229 26.0644 9.97638 26.2557 10.672C27.094 13.72 29.1876 19.5463 33.8095 24.9001C33.2249 23.8547 32.6202 22.7188 32.0293 21.5225C30.6619 18.754 29.3561 15.6371 28.5494 12.5513C27.7463 9.47934 27.4137 6.34857 28.0873 3.59702C28.2047 3.11754 28.6506 2.7925 29.143 2.82752C29.9099 2.88206 30.051 3.60141 30.1423 4.21714C30.1908 4.54459 30.2718 5.03268 30.4003 5.66007C30.6572 6.91503 31.1035 8.72606 31.8583 10.9228C32.3443 12.337 32.9578 13.9104 33.7307 15.5979C32.9483 11.8495 32.83 7.60973 34.2945 3.39497C34.4651 2.90427 34.9791 2.6221 35.4846 2.74175C36.0608 2.87811 36.2996 3.43132 36.2428 3.97321C36.2166 4.22276 36.1593 4.86734 36.1481 5.80862C36.1331 7.06469 36.2001 8.84426 36.5296 10.9199C37.1892 15.0746 38.8933 20.3755 43.0576 25.0577C47.5406 30.0914 49.796 36.1346 50.935 40.8776C51.5059 43.255 51.8002 45.322 51.952 46.798C52.1442 48.6676 52.0202 50.5798 52.4278 52.4217Z" fill="black"/>
<path d="M7.39453 75.1537C7.39453 75.1537 14.6966 75.5437 17.5493 74.843C20.4089 74.1423 24.8583 73.1741 26.5821 72.1646C26.5821 72.1646 21.6665 78.7226 14.8984 78.3602C8.1303 78.003 7.39453 75.1537 7.39453 75.1537" fill="#009450"/>
<path d="M41.3965 64.6097C41.3965 64.6097 45.4963 62.38 52.7671 62.9461C54.8892 63.1117 57.1365 68.0786 63.014 68.6516C65.4753 68.8897 66.8929 68.6032 66.8929 68.6032C66.8929 68.6032 62.1791 73.9187 58.2167 74.1258C54.056 74.3381 49.0969 73.8876 43.7412 68.3047C42.4888 66.9948 41.3965 64.6097 41.3965 64.6097" fill="white"/>
<path d="M57.9439 75.4039L54.8427 74.9311C49.0846 74.0534 45.4217 71.5558 43.1985 69.3074C42.0827 68.179 41.3246 67.1079 40.8475 66.3259C40.3851 65.568 40.21 64.502 39.1402 64.502C37.0279 64.8218 34.6413 66.1941 32.7253 67.5828C30.8079 68.9724 29.1479 70.5371 28.5311 71.4286C27.7439 72.5629 26.3557 73.9335 25.1127 75.0553C23.9237 76.1282 22.6727 77.1201 21.418 78.1142C29.5298 80.4361 38.989 80.2087 47.268 78.8549C49.9215 78.4209 52.5872 77.821 55.0729 76.7731L57.9439 75.4039Z" fill="#20407E"/>
<path d="M32.2302 78.6104C32.1502 78.5983 34.9228 77.7216 36.4205 75.0794C36.4205 75.0794 38.6974 77.9235 41.4335 78.6173C41.47 78.6242 35.6969 79.1782 32.2302 78.6104ZM65.8758 59.171C62.6718 61.4318 58.9355 62.0824 58.9355 62.0824C58.9355 62.0824 63.8442 61.8925 65.641 61.0711C70.5931 58.8189 76.9124 57.9474 76.9124 57.9474C76.0671 57.1017 74.0302 56.6565 74.0302 56.6565C74.0916 57.0566 74.2259 57.2431 74.0242 57.6514C73.7719 58.1621 73.1967 58.4916 72.6247 58.453C71.8365 58.421 71.1951 57.7415 71.2263 56.9498C71.2384 56.8032 71.3845 56.5184 71.3237 56.5184C70.5583 56.5046 69.0711 56.9188 65.8741 59.171" fill="white"/>
<path d="M79.0368 59.1958C79.0368 59.1958 71.392 63.2394 68.1219 66.9964C68.0958 67.031 67.5253 67.1725 66.0781 67.0931C64.624 67.0206 61.9296 67.257 59.8249 66.1612C57.7202 65.0773 55.8799 63.2273 55.8799 63.2273C55.8799 63.2273 59.2109 63.6829 62.5193 63.4637C64.9858 63.2946 69.2508 61.6447 69.4039 61.5774C72.9749 59.8343 79.0368 59.1958 79.0368 59.1958" fill="#E4292F"/>
<path d="M31.0566 25.9727C31.0566 25.9727 38.3831 34.4602 42.1889 37.1093C49.3727 42.1141 49.5084 48.3045 49.3727 50.8501C49.3727 50.8501 44.2119 43.3429 41.7088 40.6575C39.1989 37.9739 33.0204 31.7938 31.0566 25.9727" fill="white"/>
<path d="M36.1244 64.584C36.1244 64.584 39.3388 61.4603 36.5036 57.2235C36.4792 57.182 38.156 57.7533 39.7685 57.8931C39.8119 57.9 39.8432 57.1337 39.8485 57.0302C36.3018 55.9947 31.2644 54.174 30.3686 51.9632C30.3686 51.9632 36.2166 54.7521 40.0328 55.0386L40.3338 54.0894C36.5418 53.1506 28.6379 50.8138 27.0481 47.2328C27.0481 47.2328 35.3068 51.6957 40.8365 52.3532C40.8799 52.3532 41.2417 51.3971 41.2417 51.3971C37.7003 50.3876 30.1599 46.6978 26.5332 40.4625C26.5332 40.4625 35.4112 47.7505 42.1254 49.6938C42.1132 49.6869 42.8177 48.7446 42.8246 48.7308C38.904 46.6788 29.5337 42.6422 27.4968 35.9892C27.4586 35.8597 36.1539 44.1039 38.1177 43.6966C38.1177 43.6966 28.3857 35.7752 27.4847 31.1362C27.4847 31.1362 43.837 47.238 45.4633 48.2562C46.2548 48.7618 47.3541 50.9105 47.3541 50.9105C47.3541 50.9105 50.9547 59.7379 57.2809 61.8641C57.4114 61.9056 49.017 60.7424 45.5433 61.6329C41.7688 62.5941 36.1244 64.584 36.1244 64.584" fill="#009450"/>
<defs>
<linearGradient id="paint0_linear_526_2078" x1="85.2329" y1="42.302" x2="82.202" y2="100.482" gradientUnits="userSpaceOnUse">
<stop stop-color="#FFE0A9"/>
<stop offset="1" stop-color="#C7822A"/>
</linearGradient>
</defs>
</svg>
