<svg width="100" height="100" viewBox="0 0 100 100" fill="none" xmlns="http://www.w3.org/2000/svg">
<path d="M24.6878 39.5081H8.90207C7.87065 39.5082 7.00499 40.3681 7.00488 41.4008V64.4274C7.00499 65.4602 7.87065 66.3201 8.90207 66.3202H11.3235C12.3549 66.3201 13.2206 65.4602 13.2207 64.4274V56.0147H21.2338C22.2652 56.0145 23.1308 55.1546 23.131 54.1219V51.7065C23.1309 50.6738 22.2652 49.8139 21.2338 49.8138H13.2207V45.7088H24.6877C25.7191 45.7088 26.5848 44.8489 26.5849 43.8161V41.4008C26.5848 40.3681 25.7192 39.5082 24.6878 39.5081Z" fill="#0094D9"/>
<path d="M44.9953 60.1514H34.0448V41.4008C34.0447 40.3681 33.1792 39.5082 32.1478 39.5081H29.7263C28.6949 39.5082 27.8292 40.3681 27.8291 41.4008V64.4274C27.8292 65.4602 28.6949 66.3201 29.7263 66.3202H44.9953C46.0268 66.3201 46.8924 65.4602 46.8926 64.4274V62.0441C46.8924 61.0114 46.0267 60.1515 44.9953 60.1514Z" fill="#0094D9"/>
<path d="M64.7031 40.5447C64.3858 39.921 63.7117 39.5081 63.0106 39.5081H60.0083C59.4105 39.5082 58.8273 39.804 58.4751 40.2859L53.0636 47.6925L47.6256 40.2828C47.2733 39.8028 46.6915 39.5083 46.0951 39.5082H43.0928C42.3919 39.5084 41.7181 39.9214 41.4011 40.5451C41.0842 41.1688 41.1485 41.9552 41.5625 42.5194L49.9443 53.9358V64.4277C49.9444 65.4604 50.8101 66.3203 51.8414 66.3205H54.262C55.2935 66.3204 56.1591 65.4605 56.1593 64.4277V53.9358L64.5411 42.5194C64.9552 41.955 65.0197 41.1687 64.7031 40.5447Z" fill="#0094D9"/>
<path d="M56.8617 80.5489C56.9029 80.5081 56.9287 80.4544 56.9348 80.3968C56.9408 80.3392 56.9267 80.2813 56.8949 80.2329C56.8631 80.1844 56.8155 80.1485 56.7601 80.1311C56.7048 80.1137 56.6451 80.1159 56.5912 80.1373C47.1304 83.8123 36.8121 84.7054 26.8583 82.7109C16.9045 80.7163 7.73216 75.9176 0.427497 68.883C0.382509 68.8398 0.323079 68.8148 0.260677 68.8128C0.198275 68.8107 0.13733 68.8319 0.0896179 68.872C0.041906 68.9122 0.0108119 68.9686 0.0023373 69.0303C-0.00613726 69.092 0.00860795 69.1547 0.0437307 69.2062C4.12875 75.2231 9.41005 80.3379 15.5597 84.233C21.7093 88.128 28.5959 90.7202 35.7918 91.8485C36.7499 91.9908 38.096 92.2253 38.6121 92.0177C46.9469 88.6653 52.6948 84.5551 56.8617 80.5489Z" fill="#0094D9"/>
<path d="M96.6 47.7546C97.8513 42.4042 99.5789 35.5989 99.942 23.5303C100.136 17.079 99.796 10.5558 99.6454 8.10901C99.6386 8.00231 99.6046 7.89912 99.5465 7.80927C99.4885 7.71942 99.4083 7.6459 99.3137 7.59571C99.2191 7.54553 99.1131 7.52036 99.006 7.5226C98.8989 7.52484 98.7941 7.55441 98.7017 7.6085L62.1405 28.8003C62.0356 28.861 61.9506 28.9507 61.8957 29.0585C61.8407 29.1663 61.8182 29.2877 61.8308 29.408C61.8433 29.5282 61.8905 29.6424 61.9665 29.7365C62.0425 29.8307 62.1443 29.901 62.2594 29.9389L73.1163 33.5109C73.2802 33.5635 73.4279 33.6572 73.5451 33.7829C73.6624 33.9087 73.7454 34.0624 73.7862 34.2293C74.519 37.4993 74.888 40.8401 74.8864 44.1909C74.9009 55.999 70.9471 67.4712 63.657 76.7736C58.602 83.2414 52.1179 88.4569 44.7103 92.0136C44.6552 92.0395 44.6106 92.0834 44.5838 92.138C44.5571 92.1926 44.5498 92.2547 44.5632 92.314C44.5766 92.3733 44.6099 92.4263 44.6575 92.4642C44.7052 92.5021 44.7643 92.5227 44.8253 92.5225C70.9948 92.1784 90.5315 73.7014 96.6 47.7546Z" fill="#224099"/>
</svg>
