<svg width="100" height="100" viewBox="0 0 100 100" fill="none" xmlns="http://www.w3.org/2000/svg">
<path d="M76.5801 19.7694C77.0458 19.6633 77.8494 19.5333 78.3859 19.7388C81.0493 20.7587 88.4975 24.6058 88.4975 24.6058L96.8245 19.0789C96.8245 19.0789 98.4544 18.2276 99.0008 18.9515C99.5471 19.6754 98.2814 21.0093 98.2814 21.0093L90.6828 27.5014C90.6828 27.5014 92.3398 35.7191 92.5902 38.5601C92.6406 39.1324 92.2954 39.8695 92.0655 40.2883C91.9854 40.4343 91.7809 40.4206 91.7118 40.2691L87.2454 30.4743L84.6503 32.0541L84.8282 33.016C84.8698 33.2412 84.7807 33.4706 84.5979 33.6086L82.2005 35.4179C82.0725 35.5145 81.9113 35.5563 81.7525 35.5341L79.4601 35.2136L77.0065 36.7377C76.7794 36.8788 76.6719 37.1523 76.7422 37.4102L77.4115 39.8669C77.455 40.0265 77.4312 40.197 77.3456 40.3386L76.7933 41.2521C76.7289 41.3585 76.5707 41.346 76.5239 41.2308L74.8709 37.1621L71.4116 34.4567C71.3136 34.3801 71.3449 34.2245 71.465 34.1918L72.4948 33.9112C72.6545 33.8677 72.825 33.8916 72.9666 33.9772L75.1455 35.2945C75.3743 35.4329 75.6668 35.4045 75.8647 35.2248L78.0033 33.2832L78.3238 30.9908C78.346 30.832 78.4303 30.6885 78.5583 30.5919L80.9558 28.7826C81.1385 28.6447 81.3836 28.6218 81.5887 28.7236L82.465 29.1585L84.6959 27.0961L76.5015 20.1149C76.3748 20.0069 76.4177 19.8065 76.5801 19.7694Z" fill="black"/>
<path d="M70.7959 42.3989C71.841 41.7841 74.1157 40.0013 73.1935 38.3415C71.7355 36.8834 70.3121 37.8178 68.9986 38.68L68.9516 38.7109C52.3135 49.6292 31.1152 61.6878 -1.22415e-06 71.6739L-1.17134e-06 73.5234C16.7433 68.6906 36.8118 63.9222 70.7959 42.3989Z" fill="black"/>
<path d="M61.8976 38.4315C59.3676 40.032 56.7315 41.6497 53.9724 43.275L48.0454 26.5375L39.2691 51.3208C35.8808 53.0347 32.3245 54.7383 28.5811 56.4215L42.1678 18.0543L54.6817 18.0543L61.8976 38.4315Z" fill="#BD1F32"/>
<path d="M27.6677 84.0807L18.7861 84.0807L23.5759 70.5541C26.8119 69.4098 30.228 68.1096 33.8591 66.5961L27.6677 84.0807Z" fill="#133C8C"/>
<path d="M78.0621 84.0807L68.422 84.0807L58.0344 54.7471C60.6099 53.306 63.2735 51.7624 66.0312 50.1064L78.0621 84.0807Z" fill="#133C8C"/>
</svg>
