<svg width="100" height="100" viewBox="0 0 100 100" fill="none" xmlns="http://www.w3.org/2000/svg">
<path d="M100 50C100 77.6142 77.6142 100 50 100C22.3858 100 0 77.6142 0 50C0 22.3858 22.3858 0 50 0C77.6142 0 100 22.3858 100 50Z" fill="#C4D92E"/>
<path d="M77.8234 44.6211C80.7775 46.5911 82.4441 50.5658 81.0998 55.8253C78.5202 66.1482 70.3907 75.018 65.5551 78.6313C56.8058 85.3424 45.1444 87.2645 38.908 86.6286C32.0008 85.926 26.3146 82.622 23.0947 78.7561C28.6387 82.7221 35.1858 81.1529 41.1421 78.8897C48.4586 76.1111 52.6946 72.0145 56.4037 66.1395C61.0186 58.8303 61.3235 50.6689 64.5346 46.9409C68.5659 42.2578 74.0345 42.1649 77.8234 44.6211ZM73.9154 25.1293C72.4637 31.2482 66.3405 35.7368 60.242 35.1576C54.1463 34.5769 50.3763 29.1476 51.8309 23.0302C53.2797 16.9113 59.4014 12.4198 65.5 13.0005C71.5985 13.5811 75.3671 19.0104 73.9154 25.1293Z" fill="white"/>
<path d="M19.4927 47.2719C18.3183 43.8039 20.2055 39.742 23.7128 38.1974C27.2186 36.6514 31.0119 38.2067 32.1877 41.6699C33.3622 45.1365 31.4735 49.1998 27.9662 50.7458C24.4604 52.2919 20.6686 50.7354 19.4927 47.2719ZM29.6778 66.6099C28.7327 63.9039 26.127 63.0532 23.9973 63.2681C20.3405 63.6397 18.1731 67.2747 18.9948 70.5585C19.8165 73.8306 21.3335 76.641 23.0987 78.7591C28.6427 82.7207 35.1913 81.1805 41.2869 78.8374C34.0038 77.7777 30.7317 69.6221 29.6778 66.6099Z" fill="#6DB327"/>
</svg>
