<svg width="100" height="100" viewBox="0 0 100 100" fill="none" xmlns="http://www.w3.org/2000/svg">
<circle cx="50" cy="50" r="50" fill="url(#paint0_linear_526_2088)"/>
<path d="M71.7568 36.9638C77.7469 34.7632 74.06 31.4856 74.06 31.4856C74.06 31.4856 76.7911 34.7539 72.303 34.6518C72.303 34.6518 74.1784 35.6546 71.7568 36.9638Z" fill="white"/>
<path d="M72.0117 37.0659C76.4724 35.9889 78.3295 31.1328 81.5886 30C81.3155 30.1021 80.7511 29.74 76.2904 32.0613C75.4346 32.4977 74.6335 31.8849 74.3968 31.662C74.8793 32.1541 77.4738 35.0511 72.0117 37.0659Z" fill="white"/>
<path d="M26.3303 45.7567L26.9675 42.5905H14.341L11 59.6379H14.8872L16.1071 53.4262H23.8177L24.464 50.26H16.7079L17.5909 45.7567H26.3303Z" fill="white"/>
<path d="M33.3213 49.7493H35.3058L34.2772 55.0325C34.1952 55.4689 34.1588 55.8496 34.1588 56.1746C34.1588 57.3073 34.5229 58.208 35.2603 58.8487C35.9886 59.4986 36.9627 59.8236 38.1734 59.8236C39.4752 59.8236 40.5403 59.5636 41.3688 59.0436L40.8226 56.3417C40.3128 56.6481 39.8121 56.8059 39.3205 56.8059C38.4101 56.8059 37.9641 56.3881 37.9641 55.5432C37.9641 55.3203 37.9823 55.1346 38.0096 55.0046L39.0383 49.7493H42.2245L42.798 46.8245H39.6027L40.2217 43.6305H36.4984L35.8794 46.8245H33.8948L33.3213 49.7493Z" fill="white"/>
<path d="M32.7023 44.6966C33.8775 44.2001 34.4356 42.8259 33.9488 41.6272C33.462 40.4286 32.1146 39.8594 30.9394 40.3559C29.7642 40.8524 29.2062 42.2266 29.693 43.4253C30.1797 44.6239 31.5271 45.1931 32.7023 44.6966Z" fill="white"/>
<path d="M85.2026 38.7651L85.5121 37.2052H81.98L79.4219 50.3064H83.1452L84.3833 43.974C84.62 42.7762 85.0751 41.8849 85.7579 41.3185C86.4316 40.7521 87.3328 40.4643 88.4707 40.4643C88.5982 40.4643 88.8804 40.4828 89.3265 40.5107L89.991 37.0009C88.22 37.0321 86.4454 37.4157 85.2026 38.7651Z" fill="white"/>
<path d="M77.8109 37.1402C75.8883 40.372 73.9068 43.5246 71.7571 46.5088L68.5709 33.2776H64.7474L55.6349 47.6323C54.1171 46.7035 52.3375 46.3417 50.5733 46.3417C48.6434 46.3417 47.0958 46.7502 45.9032 47.558C44.7198 48.3658 44.1281 49.4986 44.1281 50.9471C44.1281 52.373 44.994 53.4753 46.3311 53.9369C47.6446 54.4037 49.0844 54.4603 50.373 54.9861C51.1938 55.3209 50.9785 56.2606 50.3002 56.6295C49.8906 56.8524 49.2533 56.9545 48.4158 56.9545C46.8844 56.9545 45.2396 56.5694 43.9551 55.7103L42.5258 58.4587C43.0812 58.8672 43.8549 59.1922 44.8563 59.4429C45.8486 59.6936 46.9046 59.8236 48.0152 59.8236C49.927 59.8236 51.4837 59.4243 52.6853 58.6258C54.2677 57.5743 55.2799 54.9067 53.8415 53.3148C52.8859 52.2572 51.4245 52.0018 50.0908 51.727C49.4297 51.5907 47.7057 51.4569 47.7057 50.4828C47.7057 49.3405 49.3849 49.1922 50.191 49.1922C51.5836 49.1922 52.7522 49.5801 53.9507 50.2786V50.2878H53.9598H58.0655L60.2412 46.6388H68.0247L68.8167 50.2878H68.8258C67.118 52.3506 65.2922 54.2988 63.3091 56.1003C59.8954 59.1502 55.9977 61.7247 51.5929 63.0826C48.6959 63.9539 45.7832 64.1689 42.7716 64.1318C40.5169 64.0622 38.3081 63.7872 36.4265 63.0641C34.637 62.3763 33.0318 61.2698 32.0113 59.61C30.4768 57.1354 30.2952 53.9718 30.491 51.1421C30.5824 49.558 30.8348 47.9793 31.1556 46.4253H29.08C28.3568 47.716 27.8497 49.1524 27.4323 50.5664C26.3706 54.2283 26.1836 58.3337 27.8055 61.8663C28.6517 63.78 30.0615 65.4385 31.7473 66.6667C34.1016 68.3856 36.9626 69.3094 39.8312 69.6936C44.2993 70.3316 49.0027 69.9965 53.2771 68.5051C58.4008 66.7631 62.9077 63.5224 66.6045 59.61C70.1785 55.7991 73.0814 51.4022 75.3894 46.7224C76.9097 43.6397 78.3025 40.3621 79.313 37.1031H77.8109V37.1402ZM62.0255 43.6676L65.9673 37.0938L67.3783 43.6676H62.0255Z" fill="white"/>
<defs>
<linearGradient id="paint0_linear_526_2088" x1="0" y1="0" x2="100" y2="100" gradientUnits="userSpaceOnUse">
<stop stop-color="#230D58"/>
<stop offset="0.4975" stop-color="#5B1645"/>
<stop offset="1" stop-color="#A4032D"/>
</linearGradient>
</defs>
</svg>
