<svg width="100" height="100" viewBox="0 0 100 100" fill="none" xmlns="http://www.w3.org/2000/svg">
<path d="M100 92C100 96.4183 96.4183 100 92 100H8C3.58172 100 0 96.4183 0 92V72.3975L100 26.8252V92Z" fill="#0A3371"/>
<path d="M100 26.8252L0 72.3975V8C0 3.58172 3.58172 0 8 0H92C96.4183 0 100 3.58172 100 8V26.8252Z" fill="#F78C2A"/>
<path d="M79.898 39.5939C82.3175 38.4777 83.3512 35.598 82.2046 33.1676C81.1381 30.8001 78.1069 29.7121 75.7783 30.861L61.5028 37.5L30.0913 19.2709L24.2528 22L47.0028 45.5L29.3166 55.0649L19.641 49.6295L15.2528 51.75L24.2528 61.25L26.106 73.799L30.5028 71.75L32.0028 60.25L50.5028 53L54.4337 85.5203L60.2528 82.75L66.0028 45.5L79.898 39.5939Z" fill="white"/>
</svg>
