<svg width="101" height="100" viewBox="0 0 101 100" fill="none" xmlns="http://www.w3.org/2000/svg">
<path fill-rule="evenodd" clip-rule="evenodd" d="M44.2895 12C53.7967 12 63.0141 12 72.5214 12C75.1881 27.9768 78.1446 44.1843 81.0431 60.161C74.7243 60.161 68.4054 61.1416 62.0866 62.1221C54.0286 63.564 45.7967 65.2944 37.7388 67.7169C29.6808 69.9086 21.4489 72.5618 13.6228 75.4457C9.50689 77.1183 5.56486 78.618 1.68081 80.2906C15.8257 57.5079 30.2025 34.7828 44.2895 12ZM54.4924 32.0719C49.6228 41.3004 44.7533 50.7019 39.8837 59.9303C45.7388 59.9303 51.5938 59.9303 57.3909 59.9303C56.4054 50.7019 55.4199 41.3004 54.7243 32.0719H54.4924ZM86.3764 59.4689C87.8257 60.9109 89.275 62.1221 90.7822 63.3333C90.0286 65.2944 89.1011 67.1977 88.3475 68.9281C92.2315 66.5056 96.1156 63.8524 100.058 61.1992C95.4199 60.6801 91.0141 60.161 86.3764 59.4689ZM73.275 61.3723C75.9417 61.1416 78.3765 60.9109 81.0431 60.9109C81.275 62.1221 81.5069 63.1026 81.5069 64.0831C76.1736 64.833 70.5504 65.7558 65.217 67.2554C53.0431 70.1393 41.1011 74.2921 29.6808 78.9064C22.3765 82.0786 15.0721 85.1933 8.2895 88.827C8.05762 88.827 8.05762 89.0577 7.82573 89.0577C5.15907 88.827 2.72428 89.0577 0.0576172 88.827C6.14457 85.6547 12.2315 82.5401 18.3185 79.5985C25.8547 76.1955 33.1591 73.0809 40.9272 70.1393C47.7678 67.4861 55.0141 65.0637 62.0866 63.3333C65.6808 62.5835 69.6228 61.8914 73.275 61.3723ZM78.1446 65.2944C79.362 65.0637 80.5794 65.0637 81.7967 65.0637C82.0286 66.5056 82.2605 68.236 82.7822 69.6779C78.1446 70.4277 73.7967 71.1198 69.3909 72.1004C64.0576 73.3116 58.6663 74.7536 53.5649 76.4839C50.6663 76.4839 47.7098 76.4839 45.0431 76.4839C50.6663 73.6 56.7533 71.1775 62.7823 69.2165C67.8837 67.4285 72.9851 65.9865 78.1446 65.2944ZM73.275 72.0427C76.4634 71.2929 79.5938 70.8315 82.7822 70.6007C83.9996 76.6569 84.9852 82.7131 85.9707 89C77.4489 89 68.9272 89 60.1736 89C59.9417 84.6165 59.4199 80.5213 58.9562 76.4262C63.7678 74.6959 68.4054 73.2539 73.275 72.0427ZM20.9272 89C22.6083 87.7888 24.3475 86.8082 26.2605 85.8277C25.5069 86.8082 25.0431 87.7888 24.5794 89C23.362 88.7693 22.1446 89 20.9272 89Z" fill="#CD171A"/>
</svg>
