<svg width="100" height="101" viewBox="0 0 100 101" fill="none" xmlns="http://www.w3.org/2000/svg">
<path fill-rule="evenodd" clip-rule="evenodd" d="M57.3916 66.0999H70.2481V74.0333H74.8095V77.325H57.3916V66.0999Z" fill="#98017E"/>
<path fill-rule="evenodd" clip-rule="evenodd" d="M39.7012 59.0769H57.9492V73.6377H50.6098V77.325H39.7012V59.0769Z" fill="#C53296"/>
<path fill-rule="evenodd" clip-rule="evenodd" d="M63.7023 89.3074H59.1396V85.1416H52.3955V82.1664H63.7023V89.3074Z" fill="#8FADCB"/>
<path fill-rule="evenodd" clip-rule="evenodd" d="M66.8756 82.1664H50.6094V73.6377H57.9488V77.325H66.8756V82.1664Z" fill="#66C3B7"/>
<path fill-rule="evenodd" clip-rule="evenodd" d="M44.2627 85.1416H59.1399V100.019H44.2627V85.1416Z" fill="#FF4D00"/>
<path fill-rule="evenodd" clip-rule="evenodd" d="M83.7363 72.6455H70.2393V66.0998H57.9492V63.1246H67.0745V52.0163H83.7363V72.6455Z" fill="#F9A518"/>
<path fill-rule="evenodd" clip-rule="evenodd" d="M74.8095 74.0333H70.2393V66.0999H57.9492V77.325H74.8095V74.0333Z" fill="#98017E"/>
<path fill-rule="evenodd" clip-rule="evenodd" d="M74.8094 72.6455H70.248V74.0333H74.8094V72.6455ZM74.8094 77.3249H66.876V78.3799H74.8094V77.3249Z" fill="#FF0000"/>
<path fill-rule="evenodd" clip-rule="evenodd" d="M83.7364 75.1196H74.8096V72.6455H83.7364V75.1196Z" fill="#8FADCB"/>
<path fill-rule="evenodd" clip-rule="evenodd" d="M86.9414 60.4484H83.7363V70.1689H86.9414V60.4484Z" fill="#C4D4DA"/>
<path fill-rule="evenodd" clip-rule="evenodd" d="M89.7051 62.5645V46.9476H88.5409V42.9287H89.7051V38.6129H70.3154L70.3179 52.0163H83.7358V60.4484H86.9409V62.5645H89.7051Z" fill="#0480B7"/>
<path fill-rule="evenodd" clip-rule="evenodd" d="M57.9492 48.0597V63.1247H67.0745V52.0163H70.3184V48.0597H57.9492Z" fill="#0F499E"/>
<path fill-rule="evenodd" clip-rule="evenodd" d="M57.9489 35.6823H36.266V48.0979H35.1357V59.0769H57.9489V35.6823Z" fill="#CCEBDD"/>
<path fill-rule="evenodd" clip-rule="evenodd" d="M36.2665 48.0979H21.0615V42.0157H21.967V35.6823H36.2665V48.0979Z" fill="#357579"/>
<path fill-rule="evenodd" clip-rule="evenodd" d="M21.9667 42.0157H0V33.9736H21.9667V42.0157Z" fill="#FFB300"/>
<path fill-rule="evenodd" clip-rule="evenodd" d="M7.67383 9.02795H41.4383V35.6823H21.9671V33.9736H7.67383V9.02795Z" fill="#4EBDD7"/>
<path fill-rule="evenodd" clip-rule="evenodd" d="M51.9502 7.29669H36.3672V9.02793H41.4385V35.6822H57.9496V26.2939H67.5333V14.5934H51.9502V7.29669Z" fill="#4F53A2"/>
<path fill-rule="evenodd" clip-rule="evenodd" d="M36.367 0H24.6182V14.4697H36.367V0Z" fill="#4DAC26"/>
<path fill-rule="evenodd" clip-rule="evenodd" d="M51.9502 0.617889H60.5304V14.5934H51.9502V0.617889Z" fill="#CCE968"/>
<path fill-rule="evenodd" clip-rule="evenodd" d="M57.9492 48.0597H70.3184V33.1447H67.5329V26.2939H57.9492V48.0597Z" fill="#B3E0AC"/>
<path fill-rule="evenodd" clip-rule="evenodd" d="M67.5332 14.5934H79.5307V33.1447H67.5332V14.5934Z" fill="#8DD2C4"/>
<path fill-rule="evenodd" clip-rule="evenodd" d="M62.3506 8.66187H67.5324V13.0418H62.3506V8.66187Z" fill="#4F53A2"/>
<path fill-rule="evenodd" clip-rule="evenodd" d="M95.5526 46.9476H88.541V42.9287H95.5526V46.9476Z" fill="#F90033"/>
<path fill-rule="evenodd" clip-rule="evenodd" d="M89.7051 42.9287H98.3745V37.2854H89.7051V42.9287Z" fill="#96D38C"/>
<path fill-rule="evenodd" clip-rule="evenodd" d="M84.2666 38.6129H89.7058V37.2854H98.3752V38.6129H100V35.0625H90.2522V33.1812H84.2666V38.6129Z" fill="#8DC3D5"/>
<path fill-rule="evenodd" clip-rule="evenodd" d="M100 35.0625H90.252V29.8462H100V35.0625Z" fill="#FFD900"/>
<path fill-rule="evenodd" clip-rule="evenodd" d="M86.4038 18.0465H79.5303V33.1448H70.3184V38.6129H84.2662V33.1812H86.4038V18.0465Z" fill="#FFFF1A"/>
<path fill-rule="evenodd" clip-rule="evenodd" d="M86.4033 20.8678H94.0994V24.6305H92.3889V29.8462H90.2514V33.1812H86.4033V20.8678Z" fill="#F64F95"/>
<path fill-rule="evenodd" clip-rule="evenodd" d="M92.3896 24.6305H99.2305V29.8462H92.3896V24.6305Z" fill="#73147A"/>
</svg>
