<svg width="100" height="100" viewBox="0 0 100 100" fill="none" xmlns="http://www.w3.org/2000/svg">
<path d="M0 25C0 11.1929 11.1929 0 25 0H75C88.8072 0 100 11.1929 100 25V75C100 88.8072 88.8072 100 75 100H25C11.1929 100 0 88.8072 0 75V25Z" fill="#DA0E29"/>
<path d="M80.2165 60.8498C80.8596 56.0905 79.7016 51.9742 78.736 49.273C78.0615 47.3758 77.5153 45.8644 77.0318 44.5137C74.8456 38.3717 74.4277 37.2461 72.916 31.1041L72.4011 29.0781L70.4074 28.4349C64.362 26.4734 63.301 25.991 57.3197 23.322C56.0021 22.7431 54.5216 22.0678 52.6891 21.2639C50.5341 20.3313 47.254 19.045 43.2994 18.9163C37.2211 18.6913 31.4011 21.1673 25.9661 26.2482L26.0631 26.2162C24.6797 27.4381 23.265 28.8531 21.8174 30.493C21.8174 30.493 21.8502 30.5896 22.1711 30.3323C24.0693 28.7888 30.2759 23.0004 47.1586 30.5896C55.4543 34.3198 63.4293 37.632 63.4293 37.632C63.4293 37.632 66.0349 45.8321 69.0255 54.4504C75.1022 71.9119 68.8002 77.6038 67.0959 79.3403C66.8377 79.6298 66.9348 79.6619 66.9348 79.6619C69.3792 77.8932 71.3401 76.1246 72.9802 74.388C77.096 70.2398 79.5404 65.7055 80.2165 60.8498Z" fill="url(#paint0_linear_526_2049)"/>
<path d="M72.4324 29.0138L70.4386 28.3706C64.3933 26.4091 63.3322 25.9266 57.351 23.2576C56.0317 22.6787 54.5529 22.0034 52.7203 21.1995C50.5654 20.267 47.2853 18.9806 43.3291 18.852C37.2524 18.6269 31.4308 21.103 25.9973 26.1839L26.0928 26.1518C24.7109 27.3737 23.2962 28.7887 21.8486 30.4286C21.8486 30.4286 21.88 30.5252 22.2023 30.2679C24.099 28.7244 30.3056 22.936 47.1882 30.5252C55.4856 34.2554 63.4605 37.5676 63.4605 37.5676L72.4324 29.0138Z" fill="#FED9A0"/>
<defs>
<linearGradient id="paint0_linear_526_2049" x1="103.083" y1="105.846" x2="39.0913" y2="18.7958" gradientUnits="userSpaceOnUse">
<stop offset="0.1805" stop-color="#FED9A0"/>
<stop offset="0.3124" stop-color="#ECC890"/>
<stop offset="0.5738" stop-color="#BF9A66"/>
<stop offset="0.7464" stop-color="#9E7947"/>
</linearGradient>
</defs>
</svg>
