<svg width="100" height="100" viewBox="0 0 100 100" fill="none" xmlns="http://www.w3.org/2000/svg">
<path d="M100 50C100 77.6142 77.6142 100 50 100C22.3858 100 0 77.6142 0 50C0 22.3858 22.3858 0 50 0C77.6142 0 100 22.3858 100 50Z" fill="#ED1C24"/>
<path d="M97.6675 40.9841C97.6675 40.9841 72.8611 58.6515 72.1712 58.9665C71.2264 59.4014 69.3816 59.5814 68.6018 59.3114C68.3018 59.2064 66.607 58.1716 64.8223 57.0168C61.7028 54.9921 61.5378 54.9171 60.488 54.8571C59.6331 54.7971 59.2731 54.8721 58.6732 55.202C58.2533 55.442 54.6088 57.9916 50.5594 60.9012C46.51 63.8108 42.7606 66.4054 42.2356 66.6603C40.3459 67.6202 39.941 67.6502 26.8779 67.6502C15.1046 67.6502 14.8647 67.6502 15.1946 67.3202C24.562 60.5938 31.446 55.5872 39.2698 49.7128L2.31152 49.6678L8.95554 44.7486C8.95554 44.7486 41.6404 44.7036 57.9833 44.7036C59.873 44.9435 60.6079 45.4385 64.4474 49.1879C66.4121 51.0926 68.2418 52.7724 68.5568 52.9224C69.2916 53.2973 70.6565 53.2823 71.5413 52.8774C72.4862 52.4424 84.1395 43.8487 84.1395 43.8487L79.2352 40.9241L97.6675 40.9841Z" fill="white"/>
</svg>
