<svg width="100" height="100" viewBox="0 0 100 100" fill="none" xmlns="http://www.w3.org/2000/svg">
<path d="M100 15.4775L16.4658 100.001H0V83.958L82.9756 0H100V15.4775Z" fill="#FFEA00"/>
<path fill-rule="evenodd" clip-rule="evenodd" d="M27.0756 18.6432H15.2324V71.0025H20.3149V48.9464C23.1517 48.9464 26.0168 49.0693 28.8455 48.8031L48.6043 85.0513H54.4061L34.076 47.7951C39.4924 46.121 44.7205 42.1487 44.7205 33.0276C44.7205 18.1157 28.6099 18.6432 27.0756 18.6432ZM20.4108 45.3982H26.3084C26.3084 45.3982 39.1585 45.6896 39.1585 34.1784C39.3983 21.6639 28.6099 22.0954 26.4043 22.0954H20.4108V45.3982Z" fill="#231512"/>
<path fill-rule="evenodd" clip-rule="evenodd" d="M63.0764 67.789C69.2663 67.7415 78.8237 67.6682 79.1571 56.8099C79.4841 45.8296 69.3844 45.5039 67.715 45.45C67.6713 45.4486 67.6334 45.4474 67.6016 45.4462H58.5394V67.79H62.9506L63.0764 67.789ZM58.5873 21.9037C58.5873 21.9037 58.5394 21.9516 58.5394 22.0954V41.9939H66.1152C69.04 41.9939 77.1433 41.1308 77.2871 31.3974C77.4789 21.6639 67.0742 21.9037 67.0742 21.9037H58.5873ZM83.0409 31.1097C83.4245 40.8431 74.65 43.4803 74.65 43.4803C74.65 43.4803 85.9178 44.5351 84.9588 57.8168C84.0478 71.1463 69.5195 71.0025 69.5195 71.0025H53.0253V18.4993H66.6426C75.2733 18.4993 82.6573 21.3762 83.0409 31.1097Z" fill="#231512"/>
</svg>
