<svg width="100" height="100" viewBox="0 0 100 100" fill="none" xmlns="http://www.w3.org/2000/svg">
<path d="M86.6416 67.4271C76.3174 77.5788 65.9195 87.656 55.5299 97.7407C53.4484 99.7655 50.9582 100.359 48.1718 99.8009C41.3729 98.443 35.9896 92.4365 34.089 85.94C30.3877 73.311 26.6952 60.6792 22.9199 48.071C22.0553 45.1852 23.9178 42.6054 26.2155 42.0829C27.172 41.8663 28.0573 41.9852 28.9486 42.3682C47.7217 50.4618 66.549 58.4294 85.3152 66.5393C85.7536 66.7295 86.2658 66.8243 86.6416 67.421V67.4271Z" fill="#10ADE4"/>
<path d="M32.7539 32.3593C34.572 31.3055 36.2716 30.314 37.9742 29.3282C44.7582 25.4035 51.5566 21.5056 58.3106 17.5336C59.8563 16.6222 61.3933 16.3224 63.1105 16.732C65.6303 17.3347 67.7891 18.4865 69.3938 20.6004C76.2013 29.56 83.0295 38.5047 89.8518 47.4552C90.4233 48.2034 90.9594 48.9783 91.2376 49.8867C92.4801 53.9528 87.4609 54.0024 84.9275 53.0574C81.9754 51.9559 79.0471 50.7922 76.1156 49.6372C62.098 44.1156 48.0804 38.5907 34.0656 33.0601C33.6659 32.9028 33.2188 32.8344 32.7539 32.3593Z" fill="#525254"/>
<path d="M49.6429 10.5627C40.6133 15.3378 31.535 20.0205 22.4693 24.7266C19.4254 26.3058 16.1889 24.958 15.1881 21.6271C13.4411 15.8233 11.7414 10.0045 10.0418 4.18584C9.51174 2.36899 10.0684 1.22601 11.8332 0.5343C13.5891 -0.154444 15.4279 -0.14255 17.2046 0.371027C27.5588 3.35537 37.8159 6.71155 48.1062 9.90659C48.562 10.0491 49.0446 10.1233 49.6429 10.5627Z" fill="#10ADE4"/>
</svg>
