<svg width="100" height="100" viewBox="0 0 100 100" fill="none" xmlns="http://www.w3.org/2000/svg">
<path d="M49.194 76.7286C37.9198 76.7286 28.0291 69.7734 24.1402 59.3219V59.3124L52.2322 23.4144H52.2389C65.6352 24.9382 75.9466 36.3339 75.9466 49.9826C75.9466 64.7251 63.9338 76.7285 49.1914 76.7285L49.194 76.7286ZM59.5308 12L0 88.0775H73.5066L100 12H59.5308Z" fill="#00A64F"/>
<path d="M71.1156 62.2482C69.1618 61.1825 67.1426 60.2663 65.0672 59.5091C66.0675 56.6392 66.6378 53.5822 66.6845 50.4131H74.3128C74.245 54.704 73.0882 58.7332 71.1156 62.2482ZM62.1598 71.4938C61.4026 70.4655 60.552 69.5306 59.6078 68.7267C61.814 66.2494 63.5622 63.4168 64.7775 60.3131C66.7968 61.061 68.788 61.949 70.6951 62.9961C68.5729 66.4643 65.6375 69.3998 62.1598 71.4938V71.4938ZM51.5774 74.9808C54.4007 73.5037 56.9248 71.6154 59.0376 69.3717C59.9163 70.1196 60.7109 70.9796 61.4026 71.9238C58.4392 73.5691 55.1205 74.6536 51.5774 74.9808ZM54.9148 66.8477C56.1488 67.3524 57.308 68.0162 58.3644 68.8295C56.1582 71.1572 53.5126 73.1204 50.5211 74.5695C52.2693 72.1389 53.7369 69.5493 54.9148 66.8477V66.8477ZM49.6143 65.7445C51.1662 65.7913 52.6806 66.0624 54.1109 66.5485C52.9143 69.2876 51.4093 71.9051 49.6143 74.3638V65.7445ZM48.7542 74.3451C46.9687 71.8958 45.4729 69.2876 44.2763 66.5578C45.7066 66.0623 47.2118 65.7913 48.7542 65.7445V74.3451ZM40.0322 68.8388C41.0885 68.0255 42.2477 67.3618 43.4723 66.8477C44.6596 69.5493 46.118 72.1389 47.8568 74.5695C44.8746 73.1204 42.2384 71.1572 40.0322 68.8388V68.8388ZM36.9845 71.9519C37.6857 70.9983 38.4803 70.1383 39.359 69.381C41.4718 71.6153 43.9772 73.5037 46.7911 74.9714C43.2854 74.6536 39.9667 73.5878 36.9845 71.9519ZM33.6192 60.3224C34.8345 63.4261 36.592 66.268 38.7795 68.736C37.8447 69.5587 36.9846 70.4841 36.2367 71.5312C32.7685 69.4371 29.8237 66.5392 27.6922 63.0148C29.5993 61.9678 31.5906 61.0703 33.6192 60.3224V60.3224ZM32.5627 50.4131H40.0135C40.0339 52.8157 40.2475 55.1621 40.6586 57.4711C38.4431 57.8918 36.2648 58.4808 34.1428 59.2193C33.1612 56.4522 32.6097 53.4888 32.5629 50.4131H32.5627ZM41.5093 42.6165C43.9025 43.0278 46.3237 43.2522 48.7543 43.2803V49.5531H40.8643C40.8914 47.216 41.1072 44.8975 41.5095 42.6165H41.5093ZM43.9775 34.2029C45.5106 34.7358 47.1186 35.0349 48.7545 35.0817V42.4108C46.3707 42.3919 44.0055 42.1678 41.6684 41.7751C42.1921 39.195 42.9678 36.6615 43.9775 34.2029V34.2029ZM54.429 34.2307C55.4387 36.6613 56.2052 39.1948 56.7194 41.7749C54.3823 42.1676 51.9984 42.3919 49.6145 42.4106V35.0908C51.2785 35.0535 52.9052 34.7543 54.429 34.2307V34.2307ZM58.9069 31.8282C61.0291 34.2307 62.7304 36.9792 63.9083 39.952C61.8517 40.6625 59.7202 41.2327 57.5702 41.6347C57.0369 38.9984 56.2613 36.4183 55.2423 33.9316C56.5512 33.3987 57.7851 32.6882 58.9069 31.8282V31.8282ZM51.5497 24.9758C55.1114 25.303 58.4582 26.3968 61.431 28.0421C60.7205 29.0143 59.8978 29.8931 59.0004 30.6503C56.8783 28.3973 54.3729 26.4622 51.5497 24.9758ZM70.6765 36.9605C68.7601 38.0075 66.7596 38.905 64.703 39.6528C63.497 36.5865 61.7582 33.7633 59.58 31.286C60.5429 30.4633 61.4123 29.5192 62.1789 28.4815C65.6565 30.5849 68.5731 33.4922 70.6765 36.9605V36.9605ZM58.3834 49.5528C58.363 47.1596 58.1215 44.7945 57.7199 42.4854C59.9262 42.0648 62.0949 41.4945 64.2171 40.7466C65.2267 43.5418 65.7876 46.5146 65.8344 49.5528H58.3834ZM57.7383 57.4709C58.1405 55.1619 58.3644 52.8061 58.3834 50.4129H65.8341C65.7866 53.4885 65.2358 56.4332 64.2542 59.2004C62.1228 58.4712 59.9445 57.8916 57.7384 57.4709H57.7383ZM57.5702 58.3123C59.739 58.7143 61.889 59.2939 63.9737 60.0137C62.7958 63.0332 61.0851 65.791 58.9443 68.1936C57.8132 67.3148 56.5698 66.595 55.2423 66.0528C56.2706 63.5567 57.0466 60.9766 57.5702 58.3123ZM49.6146 57.527C51.9985 57.5643 54.3822 57.7794 56.7287 58.172C56.205 60.7709 55.4386 63.3043 54.4383 65.7536C52.9052 65.2207 51.2785 64.9216 49.6145 64.8842L49.6146 57.527ZM43.1454 66.0621C41.818 66.6137 40.584 67.3242 39.4529 68.2029C37.3121 65.791 35.6013 63.0332 34.4234 60.0231C36.5081 59.3032 38.6395 58.733 40.8083 58.3123C41.3415 60.9859 42.1265 63.5661 43.1454 66.0621V66.0621ZM41.6591 58.1814C43.9962 57.7887 46.3707 57.5644 48.7545 57.5364V64.8842C47.0999 64.931 45.4733 65.2301 43.9495 65.7629C42.9399 63.323 42.1732 60.7803 41.6591 58.1814V58.1814ZM57.5234 50.4129C57.4962 52.75 57.2806 55.0777 56.8878 57.3307C54.4852 56.9287 52.064 56.695 49.6147 56.6763V50.4129H57.5234ZM49.6146 43.28C52.0452 43.2522 54.4851 43.0276 56.8783 42.6163C57.2711 44.8879 57.495 47.2157 57.5235 49.5528H49.6147L49.6146 43.28ZM40.8644 50.4129H48.7545V56.6763C46.3146 56.7041 43.8934 56.938 41.5095 57.34C41.0984 55.0777 40.8834 52.7593 40.8644 50.4129V50.4129ZM74.3131 49.5528H66.6847C66.6372 46.4023 66.0586 43.3454 65.0207 40.4568C67.1148 39.6902 69.1433 38.7741 71.1065 37.7083C73.0884 41.2233 74.2477 45.2712 74.3131 49.5528V49.5528ZM52.2414 23.4146L51.6431 24.1718L51.1662 24.7888L51.0448 24.9384L50.6336 25.4619C53.5597 26.9296 56.1492 28.8647 58.3368 31.1925C57.271 31.9871 56.1211 32.6508 54.9058 33.1463C53.7467 30.482 52.307 27.9205 50.5869 25.5086L50.0354 26.2285C51.6433 28.5095 52.9989 30.9307 54.0926 33.4361C52.6716 33.9223 51.1572 34.1934 49.6147 34.2307V26.7709L48.7546 27.8647V34.2216C47.2682 34.1748 45.7912 33.9131 44.3983 33.4364C44.3643 33.4364 42.3603 36.0446 42.3603 36.0446C41.7246 37.8768 41.2011 39.7372 40.8271 41.6349C40.0138 41.4947 39.2099 41.2984 38.3965 41.1021L37.8172 41.8499C38.7614 42.093 39.715 42.2987 40.6686 42.4856C40.2575 44.804 40.0329 47.1599 40.0139 49.5531H32.5539L32.5946 48.5247L31.1176 50.4131H31.7064C31.7606 53.5916 32.3325 56.6485 33.3517 59.5091C31.267 60.285 29.2384 61.1918 27.2846 62.2576C26.4993 60.8646 25.8449 59.3783 25.3308 57.8171L24.742 58.5649L24.1436 59.3222C28.0325 69.7737 37.9232 76.7289 49.1975 76.7289C63.9492 76.7289 75.9526 64.7255 75.9526 49.9831C75.9526 36.3344 65.6506 24.9387 52.2449 23.4149" fill="#F0451C"/>
<path d="M49.2126 33.0154L51.3253 44.8598L56.9998 42.1768L54.3169 47.8513L62.8239 49.9734L54.3169 52.0955L56.9062 57.6578L51.3253 55.1057L49.1751 66.8473L47.0811 55.1057L41.5001 57.6672L44.071 52.0955L35.5732 49.9734L44.071 47.8513L41.4161 42.1768L47.0811 44.8318L49.2126 33.0154Z" fill="#00A64F"/>
</svg>
