<svg width="100" height="100" viewBox="0 0 100 100" fill="none" xmlns="http://www.w3.org/2000/svg">
<path d="M0 25C0 11.1929 11.1929 0 25 0H75C88.8072 0 100 11.1929 100 25V75C100 88.8072 88.8072 100 75 100H25C11.1929 100 0 88.8072 0 75V25Z" fill="#BFD730"/>
<path d="M15.8223 61.3179H19.816V44.5599H15.8223V61.3179ZM15.8223 42.9937H19.816V39H15.8223V42.9937Z" fill="#11175E"/>
<path d="M25.6109 61.3178H21.6172V44.5598H25.5326V47.6922C26.7856 45.8911 28.5866 44.2466 31.0142 44.2466C31.4841 44.2466 31.719 44.2466 31.9539 44.3249V48.0837C31.6407 48.0054 31.0142 48.0054 30.7793 48.0054C28.9782 48.0054 25.6892 49.7282 25.6892 53.0954V61.3178H25.6109Z" fill="#11175E"/>
<path d="M32.9717 61.3179V39H40.1761C42.0555 39 48.4768 39 48.4768 44.4816C48.4768 48.2404 45.5794 49.2584 44.0132 49.7283C45.736 50.1981 48.9466 51.0595 48.9466 55.2099C48.9466 58.5771 46.3624 61.3179 40.6459 61.3179H32.9717ZM37.2003 48.0838H40.1761C44.0132 48.0838 44.3264 45.8128 44.3264 45.0298C44.3264 42.2106 41.429 42.2106 40.5676 42.2106H37.2786V48.0838H37.2003ZM37.2003 58.029H39.8628C42.6819 58.029 44.718 57.0893 44.718 54.74C44.718 53.1738 43.8566 51.3727 40.1761 51.3727H37.2786V58.029H37.2003Z" fill="#11175E"/>
<path d="M60.3015 61.3178L59.8317 59.5167C58.8137 60.3781 57.2475 61.6311 54.7416 61.6311C51.7659 61.6311 49.5732 59.6734 49.5732 57.0109C49.5732 55.2881 50.1997 53.2521 53.8802 51.9991L58.7353 50.3546C59.4401 50.1197 59.4401 50.1197 59.4401 49.6499V48.9451C59.4401 47.5355 58.1872 47.144 56.621 47.144C53.9585 47.144 51.531 48.7885 50.5913 49.4149V45.9694C51.6876 45.3429 53.7236 44.2466 57.2475 44.2466C62.4942 44.2466 63.5122 46.8308 63.5122 50.0414V61.3962H60.3015V61.3178ZM55.9162 54.1918C54.1935 54.8182 53.6453 55.6013 53.6453 56.7759C53.6453 58.4204 55.1331 58.812 55.8379 58.812C56.4644 58.812 57.874 58.577 59.5184 56.9326V52.7822C59.2835 52.9388 59.2052 53.0171 58.5004 53.2521L55.9162 54.1918Z" fill="#11175E"/>
<path d="M10.7322 61.3179L10.2623 59.5951C9.24431 60.4565 7.67814 61.7094 5.17227 61.7094C2.19655 61.7094 0.00390625 59.7517 0.00390625 57.0892C0.00390625 55.3665 0.630375 53.3304 4.31088 52.0775L9.166 50.433C9.87078 50.1981 9.94909 50.1981 9.94909 49.7282V49.0235C9.94909 47.6139 8.69616 47.2224 7.05168 47.2224C4.38919 47.2224 1.96162 48.8668 1.02192 49.4933V46.0477C2.11824 45.4213 4.15426 44.325 7.67814 44.325C12.9248 44.325 13.9428 46.9091 13.9428 50.1198V61.4745H10.7322V61.3179ZM6.3469 54.1918C4.62411 54.8183 4.07595 55.6014 4.07595 56.776C4.07595 58.4205 5.56381 58.812 6.26859 58.812C6.89506 58.812 8.30461 58.5771 9.94909 56.9326V52.7823C9.71416 52.9389 9.63586 53.0172 8.93108 53.2521L6.3469 54.1918Z" fill="#11175E"/>
<path d="M65.0781 39H69.0719V61.3179H65.0781V39Z" fill="#11175E"/>
<path d="M72.5957 47.6139H70.0898V44.5599H72.5957V39H76.5894V44.5599H79.6435V47.6139H76.5894V56.3062C76.5894 57.5591 76.7461 58.6554 78.6255 58.6554C79.0953 58.6554 79.4869 58.5771 79.8001 58.4988V61.5529C79.2519 61.6312 78.7038 61.7095 77.9207 61.7095C73.4571 61.7095 72.5957 59.4385 72.5957 56.5411V47.6139Z" fill="#11175E"/>
<path d="M81.21 39H85.2037V42.9937H81.21V39ZM81.21 44.5599H85.2037V61.3962H81.21V44.5599Z" fill="#11175E"/>
<path d="M99.6904 49.1019C98.9073 48.3971 97.5761 47.3791 95.3051 47.3791C91.8595 47.3791 90.45 50.2765 90.45 53.0173C90.45 54.1919 90.7632 58.6555 95.1485 58.6555C97.4194 58.6555 98.9073 57.6375 100.004 56.8544V60.3783C99.2205 60.7699 97.4194 61.7096 94.522 61.7096C88.8055 61.7096 86.3779 57.4026 86.3779 52.939C86.3779 48.2405 88.9621 44.1685 94.6786 44.1685C97.4194 44.1685 98.9073 45.0298 99.6121 45.4214V49.1019H99.6904Z" fill="#11175E"/>
</svg>
