<svg width="100" height="100" viewBox="0 0 100 100" fill="none" xmlns="http://www.w3.org/2000/svg">
<path d="M0 25C0 11.1929 11.1929 0 25 0H75C88.8072 0 100 11.1929 100 25V75C100 88.8072 88.8072 100 75 100H25C11.1929 100 0 88.8072 0 75V25Z" fill="#120B7C"/>
<path d="M94.208 9.00012C95.3925 10.4205 96.423 11.9735 97.2725 13.6349C93.1636 14.6828 89.0899 15.8275 85.1553 17.3488C69.5159 23.4474 60.4505 34.9704 57.7412 51.4562C57.6558 52.0411 57.6632 52.5868 57.3496 53.0831C56.8312 45.9907 58.2326 39.4402 61.1328 32.9601C60.4662 33.1696 59.9755 33.3407 59.4541 33.4611C52.4512 35.5211 44.9894 33.6704 37.832 34.2365C33.8144 34.5876 30.2897 36.2875 27.502 39.3907C27.0555 39.873 26.7238 40.4682 26.4854 41.0763C26.6378 41.1128 26.7495 41.1789 26.873 41.1681C31.8498 40.7583 36.1489 42.4858 40.0479 45.38C43.6437 48.0002 46.4425 51.376 48.9961 55.1017C48.7929 55.0963 48.6671 55.1033 48.5908 55.0851C42.8776 52.2443 37.0184 52.4005 31.1699 54.4064C24.1169 56.8219 18.3694 61.144 13.3496 66.5441C9.05797 71.0704 5.45571 76.1416 0.499023 79.9923C0.214743 78.5896 0.0465091 77.1444 0.0078125 75.6671C5.29689 70.3527 9.37084 63.7995 15.2549 59.088C21.2564 54.2107 28.0864 51.5365 35.8262 51.2159C37.8468 51.1657 39.9095 51.2899 41.9375 51.3654L41.9561 51.2892C38.4582 48.6089 34.804 46.22 30.4512 45.0558C26.2217 43.8808 22.0873 44.3677 18.123 46.2072C16.6422 46.9167 15.1996 47.8035 13.6992 48.5948C13.4596 48.7419 13.2089 48.7656 12.9854 48.8331C12.9326 48.5353 12.7567 48.2482 12.8125 48.0138C13.2548 45.8255 14.3765 44.2052 16.5059 43.3624C17.634 42.9346 18.6991 42.4113 19.8271 41.9835C21.0498 41.4976 21.9887 40.655 22.8857 39.6388C24.4529 37.8807 26.0227 36.1261 27.8135 34.6261C30.9014 32.0038 34.6518 30.8908 38.6426 30.8214C45.8129 30.6995 53.2611 32.1588 60.0654 29.1779C62.4981 28.0791 64.6999 26.5965 66.4961 24.5675C73.8941 16.1388 83.2144 11.0505 94.208 9.00012Z" fill="white"/>
</svg>
