<svg width="100" height="100" viewBox="0 0 100 100" fill="none" xmlns="http://www.w3.org/2000/svg">
<path d="M0 25C0 11.1929 11.1929 0 25 0H75C88.8072 0 100 11.1929 100 25V75C100 88.8072 88.8072 100 75 100H25C11.1929 100 0 88.8072 0 75V25Z" fill="#D9252A"/>
<path d="M48.5129 13.7189C51.0497 13.4374 52.057 16.196 52.882 20.1798C53.8209 24.767 53.6907 31.2187 55.924 35.172C57.1261 36.7784 59.3957 37.3554 62.1389 37.3507C65.3846 37.3341 69.2135 36.5039 72.6584 35.4913C76.9616 34.2185 80.7173 33.0641 83.093 33.2794C84.481 33.4042 85.8119 34.2762 85.7893 35.7804C85.2789 38.2667 80.9614 41.1649 75.4162 44.5099C68.4338 48.6997 59.597 52.4637 56.0051 56.7482C55.384 57.5737 55.0212 58.4772 54.8742 59.4376C53.8713 63.644 57.3094 69.1499 61.2404 73.6212C65.0194 77.8888 68.5233 81.539 68.3742 83.9308C67.9674 85.2247 66.4682 85.7366 65.2375 85.6964C62.0984 85.5899 57.4437 82.6182 52.3059 78.8566C45.8617 74.1344 39.7898 67.7068 34.9318 65.7267C34.4815 65.5801 34.0408 65.492 33.6047 65.4825C30.0198 65.3713 26.8756 69.661 24.884 73.8556C23.0632 77.721 21.7308 81.0633 20.1779 80.7677C18.0944 80.3233 18.1055 76.8016 18.1623 75.2677C18.2714 73.1314 18.7318 70.5665 19.3459 67.756C20.5124 62.4804 22.6934 56.734 23.7414 52.0616C23.9951 51.0065 24.1964 50.0053 24.3078 49.0685C24.8103 44.6398 21.5596 42.5963 18.5344 41.8321C15.8958 41.1887 13.7028 40.8805 14.3283 38.8321C15.443 36.2655 18.4729 35.3302 20.9553 34.6681C24.6771 33.7097 28.5126 33.4392 32.2883 32.7687C33.8057 32.499 35.2855 32.1651 36.6535 31.6896C41.0247 29.7764 43.3125 24.8185 44.4133 20.4161C45.0178 18.003 45.4406 14.144 48.5129 13.7189ZM76.3205 13.0714C80.5075 12.5155 84.4265 15.2642 85.0715 19.5675C85.778 24.3157 81.3302 28.3024 76.8586 28.7921C76.8398 28.7944 76.8256 28.7873 76.8068 28.7872C76.7974 28.7872 76.7854 28.794 76.7736 28.7941C73.2599 28.8911 69.7788 27.2068 69.0178 23.5587C68.5626 21.3634 68.757 19.007 69.8664 17.0245C71.0803 14.8551 73.9211 13.3908 76.3205 13.0714Z" fill="white"/>
</svg>
