<svg width="100" height="100" viewBox="0 0 100 100" fill="none" xmlns="http://www.w3.org/2000/svg">
<path fill-rule="evenodd" clip-rule="evenodd" d="M54.5729 8.4582C57.0829 8.6782 57.9029 10.5482 60.5229 10.5082C65.2429 10.0982 67.3729 16.4882 68.0729 20.0082C68.5729 22.0182 66.9229 26.5082 69.2729 26.9282C75.7729 25.7682 81.6329 27.0282 88.1929 28.8982C92.4629 32.1782 99.0129 34.8782 96.5929 41.1882C95.6629 44.1782 95.1329 48.3782 92.4129 50.1182C89.1929 52.4982 88.4329 56.8482 84.9029 58.9682C83.5229 59.8282 81.9229 60.0382 80.3229 60.0382C79.6429 60.3682 80.3629 61.8782 80.8829 62.7782C82.9229 66.3682 85.0829 71.4882 83.4529 75.6382C83.1629 76.4282 82.3429 76.9282 81.9229 77.6482C81.5329 78.5282 81.6429 79.6682 81.0029 80.5582C78.4529 83.7882 73.2129 85.3782 69.2329 86.3782C64.6429 84.3582 58.5929 84.7982 54.3729 81.8682C47.8429 89.2282 32.2729 93.0882 24.9229 84.8582C16.8929 79.6782 21.4329 76.9882 23.1529 70.3982C20.2229 69.5982 19.1629 64.2782 16.4829 62.4482C10.0629 58.8882 4.27288 54.1882 2.90288 46.5582C2.55288 39.2082 7.59288 30.9482 15.3229 30.9082C15.9329 31.0982 16.5329 31.0882 17.0929 30.7482C19.1829 29.6382 23.5029 32.8582 25.6129 32.9582C28.2629 32.4982 28.4029 28.3882 28.9029 26.1982C29.0429 23.7482 30.3429 21.8782 30.8329 19.3982C31.6929 14.0882 34.3829 12.6282 39.2329 12.0282C42.1329 9.2482 45.6229 8.5182 49.5629 9.1182C51.0929 9.1782 53.1429 8.2982 54.5829 8.4582H54.5729Z" fill="#DE5365"/>
<path d="M57.9427 10.2582C54.2227 7.59823 50.8327 10.2682 46.7727 9.47823C43.8727 9.07823 41.6927 10.9382 39.5027 12.5482C37.8927 13.4082 36.0927 12.7982 34.5227 13.7782C31.4227 16.1882 27.6027 29.9582 28.6127 33.8482C29.4327 35.4482 31.6227 35.2082 31.3427 38.3582C36.4827 48.6082 51.1027 41.6282 56.7727 36.5082C69.4327 30.1982 69.0827 15.3482 57.8927 10.3282L57.9327 10.2482L57.9427 10.2582Z" fill="url(#paint0_radial_526_2020)"/>
<path d="M59.7127 11.3682C55.9027 8.92818 53.4127 10.7182 49.6627 10.5482C46.0927 9.83818 42.9327 11.2182 40.3027 13.5782C34.4427 14.2782 32.1927 16.0982 31.0227 23.8582C30.8227 25.3382 31.8227 26.7682 31.6227 28.4882C30.7827 35.7782 32.7927 34.1382 34.3127 37.0882C37.1627 42.6182 36.8827 44.2982 35.4827 44.0082C37.0527 45.9282 38.5327 48.4282 37.3327 49.9882C49.8627 52.2982 57.5127 44.1182 61.6427 34.1782C68.4027 27.1282 69.5027 14.5682 59.7127 11.3582V11.3682Z" fill="url(#paint1_radial_526_2020)"/>
<path d="M31.5427 64.0082C26.5927 69.3882 20.0927 74.2682 23.0627 81.4582C26.3627 88.1782 34.6727 90.3082 40.9827 88.2582C47.1327 86.8682 54.6427 85.0582 55.4827 76.7482C56.7427 71.5482 57.0027 53.6882 48.0527 55.7782C40.7227 56.1282 33.3627 57.2082 30.9727 65.3182" fill="url(#paint2_radial_526_2020)"/>
<path fill-rule="evenodd" clip-rule="evenodd" d="M77.5832 55.4482C76.6632 54.5882 75.5432 52.7882 74.7732 51.7982C73.6432 50.3182 74.3732 48.2782 72.7232 47.4182C71.4732 46.7682 70.7932 48.3182 68.0232 46.5582C59.3032 52.8682 66.7032 43.3582 66.1332 41.0282C65.0932 37.9582 62.7232 37.0582 65.1732 30.4582C63.6132 31.4782 63.4832 33.5182 61.5532 34.4282C60.6732 34.9182 59.9832 35.1682 59.3832 35.9082C57.7832 38.9282 55.1432 40.5082 51.6332 40.0482C44.6132 44.3382 44.7132 41.6482 39.4232 39.2282C38.0132 39.4282 40.2232 40.1682 39.1032 41.3982C37.0132 43.6882 34.2032 38.9782 34.0432 39.0182C33.7632 39.0982 34.0832 39.9182 34.0432 40.2882C34.0032 41.0682 33.2832 41.5582 33.2032 42.3782C33.0132 44.0182 33.6832 44.3082 33.6432 45.9482C33.9032 49.4482 32.6832 51.6982 31.6332 54.9982C30.9132 57.9882 33.9632 59.5882 30.3132 65.1582C29.1032 67.0382 23.6032 69.6282 23.9632 71.8382C25.5332 71.5482 26.3732 69.7882 27.4932 68.6782C30.1032 65.9682 37.2932 63.1482 41.5132 62.9382C45.9332 62.7382 41.7132 67.6882 42.9232 68.6782C44.0932 69.6182 41.7132 72.2382 43.0832 71.5882C44.4932 70.8882 46.4132 64.3782 47.1832 62.7782C47.7032 61.7082 54.6532 45.2882 54.8232 70.1082C54.8232 72.4882 56.2232 73.6282 55.5832 75.8782C55.2632 76.9482 51.2032 82.9282 57.9132 82.2682C58.8032 77.0982 54.9832 73.4182 56.9532 70.8782C57.9932 69.5282 61.7332 69.2782 61.6532 67.5182C61.4132 61.2882 66.1132 65.3482 67.1932 63.0882C69.0032 59.3582 68.2332 62.1482 68.0732 60.5082C67.9132 58.7882 69.3932 58.7882 68.7132 57.1482C70.3232 57.5182 70.7632 55.9182 72.0932 55.5482C76.7132 54.4282 77.9032 57.2682 79.4832 59.3582C80.0032 58.5782 78.7632 56.6182 77.5932 55.5482V55.4282L77.5832 55.4482Z" fill="url(#paint3_radial_526_2020)"/>
<path fill-rule="evenodd" clip-rule="evenodd" d="M37.4926 62.1682C35.4126 60.4682 41.1826 55.6982 40.9126 54.6282C40.4726 54.4182 38.5826 54.8282 38.0226 54.6282C37.4626 54.4182 41.2726 52.8682 41.7226 52.6182C42.1626 52.4182 38.9926 51.5182 37.8226 51.3482C36.6526 51.1882 34.2826 51.5582 34.4826 51.0682C37.0426 48.7082 36.8326 50.1982 34.4026 47.6682C33.6926 46.0482 43.6126 47.9382 43.7626 48.3182C44.1226 48.5682 44.4026 47.7482 44.6826 47.8682C46.2626 48.8782 45.8126 46.9982 44.8426 46.1482C43.4326 44.8982 41.4326 42.1782 44.4426 42.3782C44.7226 42.2582 45.2826 41.4382 46.0426 41.7682C49.2226 43.8782 47.7826 42.0282 50.1026 42.3382C54.0526 45.5682 55.2126 41.7082 56.8126 38.8982C57.2126 38.4882 58.1726 37.7082 58.0126 38.0382C57.6426 38.6082 55.4426 44.6082 58.2926 43.3582C62.1026 41.5582 54.1726 46.3482 55.4726 48.1082C56.1026 48.9382 59.2926 47.9082 59.6526 48.8082C59.4926 49.1382 57.1126 50.7382 57.1126 51.0182C58.4226 52.3882 62.9326 51.6382 64.3426 52.9482C66.0826 55.4082 56.6726 50.9082 55.3026 53.1482C54.9826 53.7982 56.3426 54.2082 56.6226 54.4982C58.3426 56.0982 57.2326 56.5582 55.8226 55.5982C54.6026 55.1682 53.5226 53.4882 52.2126 53.0982C50.7226 53.0582 48.8826 54.3182 48.0726 55.5182C45.4026 57.0082 40.7026 63.0782 37.5026 62.1582H37.4626L37.4926 62.1682Z" fill="white"/>
<path fill-rule="evenodd" clip-rule="evenodd" d="M47.9431 40.3682C47.3031 38.8382 48.9631 35.4182 51.3231 35.5782C55.1931 37.5582 51.0631 43.9682 47.9131 40.3682H47.9531H47.9431ZM40.4231 43.8982C40.8631 43.8182 41.4631 43.2482 41.5931 42.7982C41.7131 42.1782 42.9131 42.1382 42.9531 41.8982C42.9931 41.6482 41.7531 38.4582 41.0731 38.1682C40.2331 37.7982 39.9831 38.3682 39.2631 38.3382C38.7031 38.2982 38.1731 38.0482 37.8131 38.7082C35.7031 40.8782 37.6131 44.1982 40.4631 43.9082M58.3431 46.4382C58.1431 46.6882 57.6631 46.8482 57.3831 46.5582C58.3431 45.4082 59.1131 44.9582 60.2731 44.0582C60.6731 43.6082 60.3531 41.6782 60.5531 41.0282C60.7531 40.3782 62.7231 39.0182 63.5731 39.4682C65.8431 40.3582 65.2231 43.1882 64.5331 44.8782C63.6531 46.3382 61.4331 44.9182 60.1931 45.4482C59.7931 45.6982 58.6631 46.0282 58.3431 46.3982V46.4382ZM49.6731 49.1382C49.7231 48.3182 50.1031 46.7782 49.5131 46.1882C49.3931 46.9882 48.9731 48.7982 49.6731 49.1782V49.1382ZM31.9931 51.7582C33.0031 50.2482 34.1231 49.7482 35.4431 49.4982C35.4431 49.3382 35.0831 49.1682 34.9231 49.1682C32.3631 48.7882 31.9831 44.7682 29.1031 45.8082C25.2131 47.3782 28.1231 56.1082 31.9531 51.7482H31.9931V51.7582ZM73.4931 51.2282C72.1731 57.3782 69.3531 54.4982 65.9831 52.0082C64.3331 51.5582 62.5331 52.0082 60.9231 51.3582C62.7731 50.4182 64.8631 51.4382 66.7931 51.3182C67.6331 51.2382 68.2031 49.7582 70.8531 49.2682C72.8631 48.4882 74.5131 49.5182 73.5031 51.2382L73.4931 51.2282ZM60.8731 51.3082C60.3531 51.0182 59.7931 51.0182 59.4231 51.2682C59.7831 51.3482 60.5431 51.4782 60.8731 51.3082ZM36.0431 57.2882C33.3931 55.0282 29.8931 59.8382 28.9331 60.7282C28.6931 61.6282 30.7031 62.8182 31.3431 63.1882C32.1531 63.6782 32.8731 64.9082 33.9931 64.0482C35.1231 63.1882 35.2031 62.3682 35.5231 61.0582C35.8331 58.3782 38.2331 57.1982 39.8231 55.3982C38.0531 55.2382 37.3331 56.7482 36.0431 57.3282M63.5331 47.6182C63.1731 46.1882 60.6831 47.6982 60.0831 47.5782C60.8631 47.5382 62.8931 48.2382 63.5831 47.6582L63.5431 47.6182H63.5331ZM52.8031 55.8582C53.5231 56.2682 53.7631 57.2482 54.4531 57.6982C55.4431 58.2882 57.8431 59.2882 56.7431 60.7282C55.9331 61.1382 55.6531 59.5382 55.2531 60.8482C54.8531 62.1582 53.2831 62.7782 52.9631 64.2082C52.6831 65.3682 51.7131 67.6082 53.4831 67.9782C54.2031 68.0582 54.3231 68.0182 54.9631 68.4282C56.4531 69.6182 58.6031 68.5382 58.9431 66.7882C57.7931 60.3882 60.2431 62.9982 55.7631 57.2882C53.9931 55.0082 51.9031 52.3982 49.6131 55.4082C48.9731 56.2282 48.0431 56.6782 47.3631 57.3282C46.4831 58.8982 46.1031 60.9682 45.3931 62.6482C46.5331 61.7282 46.8031 59.9282 48.2831 59.3682C49.5631 57.7382 49.9431 54.6382 52.7431 55.8082M69.6331 64.7482C69.6031 62.7782 69.2331 58.9082 66.5031 59.0982C66.1431 59.2582 65.7831 59.7082 65.3331 59.4682C64.2231 58.2382 62.4331 58.0082 60.8331 57.7482C61.2331 58.6082 62.6431 59.1382 63.3231 59.7182C65.3531 61.4082 63.3131 63.6782 64.1631 65.6982C65.8631 66.7982 69.2331 67.8382 69.5431 64.7982M53.0431 79.4982C55.7131 80.8582 61.9931 80.6282 60.1931 85.3182C59.7531 86.1782 58.9431 87.2882 59.3531 89.1282C59.7531 90.9682 60.5231 91.6682 59.1931 91.5482C56.6631 90.9082 55.4431 91.0182 53.4531 89.3382C52.2231 88.1682 47.7631 86.4682 49.1931 84.2182C50.7331 82.7482 52.5031 81.0082 53.0531 79.4682V79.5082L53.0431 79.4982ZM80.0031 68.5982C80.0031 68.1882 80.9631 67.4982 81.0431 67.2482C81.4731 66.4382 80.3331 63.5882 81.1631 62.8282C83.4231 61.1782 91.2231 64.7582 89.6431 67.9482C88.9131 69.9182 88.0531 69.9782 86.6731 71.5482C85.9431 74.1682 81.9531 76.5882 82.0131 72.4882C84.4331 69.2782 80.9531 70.2982 79.9231 68.6382L80.0031 68.5982ZM16.5231 74.8182C15.2431 73.7982 16.5831 73.0382 16.6831 71.7082C16.7531 69.0982 16.2531 64.5882 20.1431 65.8082C22.2231 65.7982 22.8731 67.8182 23.7231 69.0482C25.1231 70.0682 26.3231 69.6682 24.8431 71.5482C23.5731 76.6082 25.6131 79.8582 19.1831 75.8482C18.3831 74.0882 17.8631 75.3682 16.5331 74.8682V74.8282L16.5231 74.8182ZM46.0931 66.7082C48.1031 69.9882 43.3431 73.8882 41.1531 70.1882C39.7931 66.8482 42.8131 66.0882 44.9731 64.2082C44.5631 65.4482 44.9631 66.1882 46.0931 66.7482V66.7082ZM58.5031 54.0982C57.8231 54.0182 57.4931 53.7682 56.7731 53.7682C57.4231 54.5882 59.0731 54.2382 59.7931 55.0782C61.8531 55.7982 62.3031 57.0782 64.4131 56.7982C66.8431 55.7082 62.6131 55.0982 61.9631 54.7482C61.0631 53.8982 59.7531 54.1382 58.5431 54.0482L58.5031 54.0882V54.0982ZM50.3531 43.0782C50.2931 43.8482 49.7831 45.1982 50.3531 46.3982C50.6731 45.9382 50.6631 43.5282 50.3531 43.0782Z" fill="#B6002A"/>
<path fill-rule="evenodd" clip-rule="evenodd" d="M47.2928 52.7082C47.5628 54.1682 46.4828 54.1282 45.3228 55.5782C43.7728 57.0082 43.3529 58.4082 42.1929 59.0182C41.6229 56.4482 50.3328 51.8082 43.4328 54.2282C42.1228 54.3882 43.8028 52.9582 44.0728 53.0782C44.3528 53.0382 45.1129 52.9982 45.2829 52.8282C45.6429 52.2882 45.3028 51.7682 44.6428 52.0082C42.9528 51.8382 39.8328 51.1082 38.0928 50.6582C36.9428 49.9182 40.5328 50.5682 40.7428 50.5382C42.0328 50.2182 46.3029 51.5982 45.4429 49.1082C44.6029 48.7382 43.4928 46.8682 42.9528 46.2382C42.6728 46.0782 42.1428 45.9882 41.9128 45.6682C41.7128 45.3782 41.5928 44.5182 41.9528 44.6882C43.1128 45.1682 43.6429 45.7082 44.2829 46.7782C45.0329 47.7682 46.1728 48.1182 46.8128 49.1082C48.2528 49.1582 49.6729 48.9982 50.7129 49.3582C50.9129 49.4782 51.6728 49.8082 51.9228 49.5582C52.5828 48.2582 53.9628 46.3382 54.8928 45.1382C55.2228 44.4982 57.8029 42.6182 56.6229 44.3982C54.9029 45.8882 53.4628 47.9782 52.6028 49.7682C53.3328 50.1582 54.7628 50.7782 54.1728 51.8982C52.6528 52.2782 52.3328 49.9382 50.4728 49.8082C48.1428 49.1082 44.8328 49.7582 47.4228 52.6382L47.3028 52.7182L47.2928 52.7082Z" fill="#B6002A"/>
<path fill-rule="evenodd" clip-rule="evenodd" d="M48.5033 48.2382C47.2133 47.6882 46.3733 45.2882 45.6533 44.0982C45.4533 43.9382 44.6133 42.8682 44.8533 42.7482C45.5733 42.6382 49.0433 47.6482 48.5533 48.1982L48.5133 48.2482L48.5033 48.2382Z" fill="#B6002A"/>
<defs>
<radialGradient id="paint0_radial_526_2020" cx="0" cy="0" r="1" gradientUnits="userSpaceOnUse" gradientTransform="translate(1622.41 559.632) scale(3277.59 3277.61)">
<stop offset="0.21" stop-color="#DE5365"/>
<stop offset="0.3" stop-color="#DF5B6D"/>
<stop offset="0.44" stop-color="#E47382"/>
<stop offset="0.62" stop-color="#EC9AA6"/>
<stop offset="0.82" stop-color="#F7D0D7"/>
<stop offset="0.87" stop-color="#FADEE4"/>
</radialGradient>
<radialGradient id="paint1_radial_526_2020" cx="0" cy="0" r="1" gradientUnits="userSpaceOnUse" gradientTransform="translate(1944.82 959.598) scale(3688.1 3688.33)">
<stop stop-color="#DE5365"/>
<stop offset="0.09" stop-color="#DF596A"/>
<stop offset="0.2" stop-color="#E26A7A"/>
<stop offset="0.34" stop-color="#E88795"/>
<stop offset="0.49" stop-color="#F0AFB9"/>
<stop offset="0.64" stop-color="#FADEE4"/>
<stop offset="0.77" stop-color="#FBE5EA"/>
<stop offset="0.96" stop-color="#FEF9FA"/>
<stop offset="1" stop-color="white"/>
</radialGradient>
<radialGradient id="paint2_radial_526_2020" cx="0" cy="0" r="1" gradientUnits="userSpaceOnUse" gradientTransform="translate(1346.95 699.618) scale(2394.58 2394.47)">
<stop stop-color="white"/>
<stop offset="0.41" stop-color="#FADEE4"/>
<stop offset="1" stop-color="#DE5365"/>
</radialGradient>
<radialGradient id="paint3_radial_526_2020" cx="0" cy="0" r="1" gradientUnits="userSpaceOnUse" gradientTransform="translate(2808.39 3158.64) rotate(0.1) scale(3319.7 3897.2)">
<stop stop-color="white"/>
<stop offset="0.37" stop-color="#FADEE4"/>
<stop offset="0.47" stop-color="#F2B7C0"/>
<stop offset="0.59" stop-color="#E98C99"/>
<stop offset="0.7" stop-color="#E36C7C"/>
<stop offset="0.79" stop-color="#DF596B"/>
<stop offset="1" stop-color="#DE5365"/>
</radialGradient>
</defs>
</svg>
