<svg width="100" height="100" viewBox="0 0 100 100" fill="none" xmlns="http://www.w3.org/2000/svg">
<path d="M39.3296 48.1C39.0796 48.13 38.2796 47.45 38.3096 46.95C38.8896 47.01 39.5396 47.91 39.3296 48.1ZM31.4596 43.72C30.8896 43.93 29.9296 41.99 29.6796 41.65C27.3396 37.36 31.6396 43.15 31.4596 43.72ZM29.1996 43.64C28.7396 43.49 28.2296 42.93 28.3896 42.37C28.8196 42.43 29.5096 43.27 29.1996 43.64ZM21.7096 45.16C20.6196 44.87 19.9696 42.68 19.3496 41.63C17.9396 37.65 21.8696 44.13 21.7096 45.16ZM19.2096 31.84C19.6096 31.93 20.6896 34.03 20.8596 35.58C20.0496 35.1 19.3396 32.89 19.2096 31.84ZM91.5696 66.52C91.1496 64.99 86.6796 65.65 82.9996 65.31C66.3096 63.38 49.9096 55.3 38.3596 43.07C33.7496 38.69 42.5596 48.61 43.6496 49.36C45.8896 51.9 43.3296 50.28 42.5296 49.25C37.3296 45.06 33.7696 39.32 30.1696 33.97C31.2896 36.97 33.4896 39.86 35.2396 42.65C39.2496 47.76 38.0996 47.36 34.5496 42.95C30.7796 38.44 28.2796 32.75 25.4896 27.78C26.2696 31.11 28.3596 34.45 29.9896 37.54C30.4596 39.3 40.7596 52.75 35.2796 46.42C28.5196 38.71 24.0696 27.54 20.5996 19.08C22.1496 26.33 26.0196 33.16 28.8896 39.79C23.2096 32.87 20.9296 23.07 17.8596 14.86C19.2796 24.3 24.2096 33.37 28.1596 41.91C21.7096 32.97 18.2196 21.66 15.4196 10.99C15.6896 19.59 21.3996 31.07 24.8796 39.77C21.5696 34.96 19.3596 28.9 17.3396 23.33C14.9996 17.09 14.1896 10.13 12.3596 3.91C13.0696 13.16 16.3196 22.49 19.0396 31.3C15.7296 25.58 14.4696 19.32 12.7296 12.68C11.5296 8.16 11.5196 4.11 10.1496 0C10.3696 6.37 12.2096 13.08 13.6696 19.42C15.2796 26.33 18.1996 33.02 20.7496 39.48C18.8696 38.24 18.6496 35.72 17.3696 33.02C13.3196 22.82 10.6596 12.42 9.0196 1.74C8.7396 8.91 12.0496 19.07 14.1896 27.05C14.6296 28.96 21.5196 45.46 17.1196 36.84C13.7096 30.38 12.0096 20.89 9.5596 15.26C14.2796 38.54 25.7196 62.11 46.4496 75.11C49.6596 77.39 51.7496 77.18 50.9396 78.06L17.5596 99.43C40.3596 92.64 87.1396 75.44 91.5696 66.52Z" fill="#005D63"/>
</svg>
