<svg width="100" height="100" viewBox="0 0 100 100" fill="none" xmlns="http://www.w3.org/2000/svg">
<path d="M0 85.3252H71.3808L100 14H71.3808L0 85.3252Z" fill="#0093D0"/>
<path d="M66.5368 41.4498C65.4232 40.893 64.6993 39.7794 64.6993 38.4988C64.6993 36.7171 66.147 35.2137 67.9844 35.2137C69.7662 35.2137 71.2695 36.6614 71.2695 38.4988C71.2695 39.7794 70.49 40.9487 69.3764 41.4498V42.3964C70.3786 42.5077 71.6036 42.8975 72.3831 43.2872C72.7172 43.2316 73.1626 43.2316 73.608 43.2316C77.7283 43.2316 80.6236 45.9598 80.6236 49.6904C80.6236 52.0289 78.5635 54.1447 76.2249 54.1447C73.8864 54.1447 71.7706 51.8618 72.216 49.5233C72.216 49.5233 71.9933 50.3028 71.9933 51.3051C71.9933 51.9175 71.9933 63.1091 71.9933 63.1091C71.882 64.4454 70.1002 71.8507 61.7483 71.8507C53.3964 71.8507 51.6147 64.4454 51.5034 63.1091C51.5034 63.1091 51.5034 51.9175 51.5034 51.3051C51.5034 50.3585 51.225 49.5233 51.225 49.5233C51.6704 51.7505 49.4989 54.1447 47.216 54.1447C44.8775 54.1447 42.8174 52.0289 42.8174 49.6904C42.8174 45.9598 45.7127 43.2316 49.833 43.2316C50.2784 43.2316 50.7238 43.2316 51.0579 43.2872C51.7817 42.8975 53.0624 42.4521 54.0646 42.3964V41.4498C52.951 40.893 52.2272 39.7794 52.2272 38.4988C52.2272 36.7171 53.6748 35.2137 55.5123 35.2137C57.3497 35.2137 58.7973 36.6614 58.7973 38.4988C58.7973 39.7794 58.0178 40.9487 56.9042 41.4498V42.6748C57.1826 42.7861 57.461 42.8418 57.7394 43.0088C58.2405 41.8953 59.2428 41.0601 60.412 40.6703V39.6681C59.2985 39.167 58.5189 37.9977 58.5189 36.7171C58.5189 34.9353 59.9666 33.432 61.804 33.432C63.5858 33.432 65.0891 34.8797 65.0891 36.7171C65.0891 37.9977 64.3096 39.167 63.2517 39.6681V40.6703C64.4209 41.0601 65.4232 41.8953 65.9243 43.0088C66.2027 42.8975 66.4811 42.7861 66.7595 42.6748L66.5368 41.4498Z" fill="white"/>
<path d="M79.2319 49.746C79.2319 46.6837 77.1718 44.2338 72.8845 44.2338C70.0449 44.2338 66.7041 46.628 66.7041 52.697C66.7041 57.4298 66.7041 61.7171 66.7041 61.7171C67.929 60.8819 69.6551 60.158 70.546 60.158C70.546 57.4854 70.546 52.1959 70.546 51.7505C70.546 48.5211 72.8845 47.5745 73.9424 47.5745C73.3299 48.1313 72.9402 48.7995 72.9402 49.746C72.9402 51.4721 74.3322 52.8641 76.0582 52.8641C77.84 52.8641 79.1763 51.5834 79.2319 49.746Z" fill="#ED1B2F"/>
<path d="M43.9863 49.746C43.9863 46.6837 46.0465 44.2338 50.3338 44.2338C53.1734 44.2338 56.5698 46.628 56.5698 52.697C56.5698 57.4298 56.5698 61.7171 56.5698 61.7171C55.3449 60.8819 53.6188 60.158 52.728 60.158C52.728 57.4854 52.728 52.1959 52.728 51.7505C52.728 48.5211 50.3894 47.5745 49.3315 47.5745C49.944 48.1313 50.3338 48.7995 50.3338 49.746C50.3338 51.4721 48.8861 52.8641 47.2157 52.8641C45.3783 52.8641 44.042 51.5834 43.9863 49.746Z" fill="#ED1B2F"/>
<path d="M61.6372 70.5701C68.7642 70.5701 70.3789 64.6125 70.6016 63.0534C70.6016 63.0534 70.6016 61.3831 70.6016 61.049C68.3744 61.6058 66.4256 62.775 65.0893 64.5568C64.6439 62.4966 63.3076 60.7706 61.6372 59.6013C59.9668 60.7149 58.6862 62.4966 58.1851 64.5568C56.8488 62.775 54.9 61.6058 52.6729 61.049C52.6729 61.3831 52.6729 63.0534 52.6729 63.0534C52.8399 64.6125 54.4546 70.5701 61.6372 70.5701Z" fill="#ED1B2F"/>
<path d="M62.1377 38.9999V41.5055C63.3627 41.6725 64.4206 42.5077 64.8103 43.5099C63.3627 44.4565 62.1934 45.9041 61.6366 47.6859C61.0798 45.9041 59.9106 44.4565 58.4629 43.5099C58.9083 42.5077 59.9106 41.6725 61.1355 41.5055V38.9999C60.1333 38.7772 59.3538 37.8306 59.3538 36.7727C59.3538 35.4921 60.4117 34.4899 61.6366 34.4899C62.9172 34.4899 63.9195 35.4921 63.9195 36.7727C63.9195 37.8306 63.1399 38.7772 62.1377 38.9999Z" fill="#ED1B2F"/>
<path d="M55.8466 40.7816V43.3986C58.9646 44.011 61.1918 47.2961 61.1918 50.3585C61.1918 53.5879 61.1918 58.8217 61.1918 58.8217C59.7442 59.6569 58.2965 61.383 57.8511 62.775C57.7397 62.6636 57.6283 62.4966 57.4613 62.3852C57.4613 62.3852 57.4613 56.2048 57.4613 51.4721C57.4613 48.187 55.6796 44.8462 52.5615 43.7883C52.5615 43.7883 53.5637 43.3429 54.8444 43.3429V40.726C53.8421 40.5032 53.0626 39.6124 53.0626 38.4988C53.0626 37.2182 54.0649 36.2159 55.3455 36.2159C56.6261 36.2159 57.6283 37.2182 57.6283 38.4988C57.6283 39.6124 56.8488 40.5032 55.8466 40.7816Z" fill="#ED1B2F"/>
<path d="M68.4295 40.7816V43.3429C69.7101 43.3429 70.7123 43.7883 70.7123 43.7883C67.5386 44.9019 65.8125 48.2427 65.8125 51.4721C65.8125 56.2048 65.8125 62.3852 65.8125 62.3852C65.6455 62.5522 65.5341 62.6636 65.4228 62.775C64.9774 61.3273 63.5297 59.6012 62.082 58.8217C62.082 58.8217 62.082 53.5879 62.082 50.3585C62.082 47.2961 64.3092 44.011 67.4272 43.3986V40.726C66.425 40.5032 65.6455 39.6124 65.6455 38.4988C65.6455 37.2182 66.6477 36.2159 67.9284 36.2159C69.209 36.2159 70.2112 37.2182 70.2112 38.4988C70.2669 39.6124 69.4874 40.5589 68.4295 40.7816Z" fill="#ED1B2F"/>
</svg>
