<svg width="100" height="100" viewBox="0 0 100 100" fill="none" xmlns="http://www.w3.org/2000/svg">
<path d="M1.29199 49.5689C1.29199 22.9102 22.9101 1.28772 49.573 1.28772C76.2316 1.28772 97.854 22.9102 97.854 49.5689C97.854 76.2356 76.2316 97.8497 49.573 97.8497C22.9101 97.8497 1.29199 76.2356 1.29199 49.5689Z" fill="white"/>
<path d="M49.5773 2.58377C23.6587 2.58377 2.58419 23.6608 2.58419 49.5689C2.58419 75.477 23.6587 96.5536 49.5773 96.5536C75.4795 96.5536 96.5622 75.477 96.5622 49.5689C96.5622 23.6608 75.4795 2.58377 49.5773 2.58377ZM49.5773 99.1413C22.2355 99.1413 0 76.908 0 49.5689C0 22.2413 22.2355 0 49.5773 0C76.9151 0 99.1463 22.2413 99.1463 49.5689C99.1463 76.908 76.9151 99.1413 49.5773 99.1413Z" fill="#231F20"/>
<path d="M29.8208 55.3467C26.6804 55.3801 21.6525 55.8824 19.1193 55.9541C16.575 56.0312 14.6487 53.6855 15.4655 51.2849C16.2988 48.8837 19.0972 40.8809 28.4798 31.9839C38.8008 22.1933 48.4648 19.2957 50.0432 18.8817C51.644 18.4619 53.9066 18.9922 55.5239 20.2723C68.1848 30.3944 66.2752 40.1635 74.8189 48.2439C80.7521 53.851 77.5839 61.8376 72.7436 65.4526C65.5964 70.8063 42.46 80.0289 35.9415 81.3257C31.0295 82.2969 27.6406 81.4529 26.8017 78.759C26.2277 76.8554 28.2699 70.0334 28.794 65.7119C29.3074 61.5892 29.7157 56.0366 29.8208 55.3467Z" fill="#231F20"/>
<path fill-rule="evenodd" clip-rule="evenodd" d="M53.0953 65.9107C55.1319 64.553 56.8261 64.0339 56.804 63.0848C56.7819 62.1297 54.7729 58.3272 49.9767 59.652C45.1809 60.9709 41.6648 63.1953 39.3194 66.3467C39.3194 66.3467 40.7378 63.3996 42.6309 61.567C44.5238 59.7458 45.1367 59.3647 45.1367 59.3647C45.1367 59.3647 41.7699 57.8195 39.0435 59.7458C36.3281 61.6608 34.7661 63.6917 34.0708 67.8478C33.3809 71.9926 34.4074 73.6758 35.3897 73.9081C36.3666 74.134 38.8006 73.1298 40.0646 72.5003C41.3339 71.888 51.0698 67.2792 53.0953 65.9107Z" fill="#EA2227"/>
<path fill-rule="evenodd" clip-rule="evenodd" d="M31.8743 55.2085C31.8743 55.2085 31.7805 59.9387 30.7926 65.557C29.8103 71.1921 27.5969 77.9752 29.3632 79.1125C32.4095 81.0771 40.2469 78.3234 50.463 73.9738C60.701 69.6194 69.587 66.3687 72.7053 62.4994C75.1062 59.5247 76.2596 56.39 75.1393 52.7249C74.3225 50.0591 69.8904 46.7864 68.8418 45.0201C67.7933 43.2598 60.9552 29.1638 57.4669 25.786C53.9842 22.4249 52.9523 20.4436 48.9011 21.8234C44.8722 23.2086 34.9762 28.0044 28.331 35.395C21.6916 42.7683 19.3845 47.1675 17.5522 52.256C17.2431 53.1168 18.6724 54.4583 21.5371 54.0276C24.4126 53.5916 38.216 52.9459 45.8658 54.2594C53.5043 55.595 65.6079 56.5555 68.6211 55.7993C71.6017 55.0377 72.943 54.4308 71.0937 56.2574C68.2735 59.0445 64.1839 62.9467 48.9784 70.4586C45.7499 72.0588 34.4741 77.8097 32.2939 75.8613C30.6602 74.4044 32.0678 70.817 33.0886 64.5141C33.8669 59.7123 34.2865 55.1811 34.2865 55.1811L31.8743 55.2085Z" fill="#FFCC08"/>
<path fill-rule="evenodd" clip-rule="evenodd" d="M47.6762 36.3608C48.0184 35.6984 49.5028 33.5516 50.833 33.2315C52.185 32.9221 53.3994 33.6729 52.2128 34.6388C51.0152 35.5992 50.0272 35.7372 49.3152 36.1894C48.6032 36.6476 47.3282 37.0286 47.6762 36.3608Z" fill="#231F20"/>
</svg>
