<svg width="100" height="100" viewBox="0 0 100 100" fill="none" xmlns="http://www.w3.org/2000/svg">
<path d="M21.3474 19.5681C21.3474 19.5681 20.9541 33.806 39.9905 36.5593C39.9905 36.5593 15.3691 45.2907 25.4379 68.339C25.4379 68.339 -4.13927 42.7736 21.3474 19.5681Z" fill="#422A76"/>
<path d="M88.8003 31.3282C88.8003 31.3282 73.9331 1.35779 43.7269 5.36959C43.7269 5.36959 31.5113 6.59449 26.3792 15.3437C25.1008 17.5229 24.6485 20.1035 25.2371 22.5604C25.9355 25.4753 28.154 28.734 34.6208 28.5484C34.7911 28.5434 34.9621 28.5419 35.1326 28.5405C36.0562 28.5328 40.4535 28.0899 44.7887 20.7482C44.7887 20.7482 55.0934 3.83566 88.8003 31.3282Z" fill="#422A76"/>
<path d="M56.5095 28.4571C56.5095 30.9331 54.502 32.9407 52.0259 32.9407C49.5495 32.9407 47.542 30.9331 47.542 28.4571C47.542 25.9807 49.5495 23.9731 52.0259 23.9731C54.502 23.9731 56.5095 25.9807 56.5095 28.4571Z" fill="#172536"/>
<path d="M43.176 37.7C43.176 37.7 53.2446 39.5089 49.0756 57.5229C49.0756 57.5229 36.4503 63.0686 26.1455 58.6633C26.1455 58.6633 24.4149 44.9761 43.176 37.7Z" fill="#7249A8"/>
<path d="M51.7505 40.3743C51.7505 40.3743 62.9992 51.859 59.2234 72.154C55.4477 92.4491 36.9618 93.3142 35.5459 93.2356C35.5459 93.2356 59.9706 79.0762 51.7505 40.3743Z" fill="#81D070"/>
<path d="M57.0207 35.0254C57.0207 35.0254 73.225 49.1058 73.4611 65.8612C73.6971 82.6163 59.1839 93.4605 56.1748 95C56.1748 95 75.5061 70.2662 57.0207 35.0254Z" fill="#F14D31"/>
<path d="M57.8857 28.1032C57.8857 28.1032 77.709 34.2386 83.7658 54.0616C83.7658 54.0616 88.4855 68.1423 76.2143 87.7291C76.2143 87.7291 85.0244 53.6291 57.8857 28.1032Z" fill="#FABD1C"/>
<path d="M53.166 21.3382C53.166 21.3382 94.3065 16.7757 88.8001 58.0931C88.8001 58.0931 85.0243 31.7215 53.166 21.3382Z" fill="#66CCD9"/>
</svg>
