<svg width="100" height="100" viewBox="0 0 100 100" fill="none" xmlns="http://www.w3.org/2000/svg">
<path d="M0 25C0 11.1929 11.1929 0 25 0H75C88.8072 0 100 11.1929 100 25V75C100 88.8072 88.8072 100 75 100H25C11.1929 100 0 88.8072 0 75V25Z" fill="#7C2045"/>
<path d="M64.6074 46.2582C69.6541 42.305 72.1217 40.6226 77.3086 41.6039L86 43.1743L66.9062 58.9594L54.4863 68.8285C50.9256 71.464 45.3458 71.9681 41.5889 70.1176L37.6641 68.0151L51.6826 56.6879L64.6074 46.2582ZM50.0273 37.2299C54.7096 33.6131 60.3174 34.9594 60.3174 34.9594L68.3359 36.4174L53.3643 48.1928L41.6445 57.4731C38.0839 60.1085 32.8693 60.7248 29.1123 58.8744L25.1592 56.7719L25.2705 56.6879L38.3643 46.2866L44.0273 41.8002C46.5709 39.8157 50.0062 37.2457 50.0273 37.2299ZM28.9717 34.9594C33.3455 31.7632 36.5143 28.2863 42.7666 29.1274L50.1963 30.3051L38.1396 39.894L35.7285 41.8002L29.3926 46.8471C25.8599 49.4826 20.6447 50.0989 16.8877 48.2485H16.8594L14 46.7348L28.9717 34.9594Z" fill="white"/>
</svg>
