<svg width="100" height="100" viewBox="0 0 100 100" fill="none" xmlns="http://www.w3.org/2000/svg">
<path d="M56.0299 35.2645L55.9633 35.1979L54.7641 33.9987L53.4316 35.3311L54.7641 36.6635L56.0299 35.2645Z" fill="#BD8B13"/>
<path d="M58.6944 35.2645L58.4945 35.1979L57.2953 33.9987L55.9629 35.3311L57.2953 36.6635L58.6944 35.2645Z" fill="#BD8B13"/>
<path d="M40.5725 34.998C40.5725 35.2645 40.839 35.3977 41.0388 35.4644C41.3053 35.531 41.5718 35.7308 41.5718 36.1306V46.3904H52.8976V46.5903C52.8976 46.6569 52.8976 46.6569 52.8976 46.8568C52.8976 47.7228 53.1641 48.2558 53.6304 48.4557C53.6304 48.4557 53.8969 48.6556 54.2967 48.6556C54.5632 48.6556 54.8296 48.5889 55.1628 48.3891L55.3626 48.3225L55.1628 48.1226C54.8963 47.8561 54.6964 47.0566 54.6964 46.5903V46.5236H58.8936V37.0633C58.8936 37.0633 58.3606 38.2625 56.2953 39.7948C56.2953 39.7948 56.362 40.1945 56.7617 40.3944C57.2947 40.6609 57.228 40.994 57.228 40.994V44.7915H54.6298V44.5916V44.3917C54.6298 43.459 54.3633 41.1939 51.8316 41.1939H51.765C51.0322 41.1939 50.2993 41.1939 49.6997 41.1939H49.4999C48.0342 41.1939 47.2347 40.994 46.9682 40.5943L46.9016 40.3944L46.835 40.461C46.5685 40.6609 46.3686 40.994 46.3686 41.3937C46.3686 41.9933 46.7684 42.7262 47.3013 42.7262C47.7011 42.7262 48.234 42.7262 48.767 42.7262C49.6997 42.7262 50.7657 42.7262 50.7657 42.7262C52.831 42.7262 52.8976 43.6589 52.8976 44.0586V44.525H43.2374V32C43.2374 32 42.1048 33.5323 40.5059 34.6649V34.7315V34.998H40.5725Z" fill="#BD8B13"/>
<path d="M33.9773 47.9226C33.9773 47.9226 33.7775 49.4549 36.9087 49.4549C39.4404 49.4549 39.507 47.856 39.507 47.856V41.9933C39.507 41.5935 39.4404 40.5942 38.3744 40.5942H29.5803V39.928C29.5803 39.7281 29.6469 39.7281 29.8468 39.6615C30.3131 39.395 30.3797 39.0619 30.3131 38.9286C29.3138 38.329 28.3145 36.9966 28.3145 36.9966V42.1265H37.1086H37.1752C37.4417 42.1265 37.8414 42.1931 37.8414 42.7927V46.9233C37.8414 46.9233 37.8414 47.7894 36.9753 47.7894C35.5763 47.7894 35.6429 47.0565 35.6429 47.0565V44.7914H28.3145V46.5902H34.1106V47.9226H33.9773Z" fill="#BD8B13"/>
<path d="M70.8191 36.1307C70.8191 35.6643 71.0856 35.5311 71.2855 35.4644C71.4853 35.3978 71.6852 35.2646 71.7518 34.8648V34.7982C71.7518 34.5984 71.6852 34.5984 71.4853 34.5317C71.2855 34.4651 71.019 34.2652 70.486 33.7989C69.5533 33.066 69.3534 32.6663 69.3534 32.6663L69.0869 32.2V46.5237H70.8857C70.8191 46.4571 70.8191 36.3972 70.8191 36.1307Z" fill="#BD8B13"/>
<path d="M64.8229 48.3225L63.6237 49.5217L62.4244 48.3225L63.6237 47.1233L64.8229 48.3225ZM60.7589 48.3225L63.6903 51.2539L66.6217 48.3225L64.8229 46.5237L66.9548 44.2586V32.2C66.9548 32.2 66.0887 33.9988 64.6896 34.9315V34.9981C64.6896 35.2646 64.8895 35.3978 65.0893 35.4644C65.2892 35.5311 65.4891 35.7309 65.4891 36.1307C65.4891 36.5304 65.4891 43.3925 65.4891 43.3925L63.6903 45.2579L61.8915 43.3925C61.8915 43.3259 61.8915 36.3972 61.8915 36.1307C61.8915 35.6643 62.0913 35.5311 62.2912 35.4644C62.4911 35.3978 62.5577 35.2646 62.6909 34.9981V34.9315C61.3585 33.9988 60.4258 32.2 60.4258 32.2V44.4584L62.5577 46.657L60.7589 48.3225Z" fill="#BD8B13"/>
<path d="M55.6295 54.6516L56.0958 54.9181C56.1624 54.9847 56.1624 54.9847 56.1624 55.1179V58.9154H48.0345L46.1691 61.2472V55.1179V55.0513L46.2357 54.9847L46.6355 54.7182V54.3185H42.5049V54.7182L42.9046 54.9847L42.9712 55.0513V66.3105V66.5104L42.9046 66.577L42.5049 66.8435V67.2432H46.6355V66.8435L46.1691 66.577L46.1025 66.5104V61.3804L46.5688 61.4471L47.1018 61.1806L47.3683 61.114C47.3683 61.114 47.4349 61.114 47.5682 61.114H56.0958V65.1113L59.1604 61.7802V55.2512L59.2271 55.1846L59.6934 54.9847V54.585H55.6295V54.6516Z" fill="#BD8B13"/>
<path d="M99.6674 59.2484C99.2011 57.7161 98.0685 56.5169 96.4029 55.5842C94.9373 54.7181 92.7387 54.385 89.874 54.385H78.748V54.7847L79.2144 55.0512V56.3837H89.8073C91.9393 56.3837 93.5382 56.6502 94.4709 57.2498C95.9366 58.1159 96.7361 59.3151 96.7361 60.7141C96.7361 61.447 96.5362 62.1132 96.2031 62.7794C95.8033 63.379 95.2037 63.912 94.4043 64.3117C93.4049 64.9113 91.806 65.1778 89.7407 65.1778H84.2111V57.2498H81.2131V66.2438V66.3104L81.1465 66.377L80.7467 66.5769V66.9766H89.8073C91.6061 66.9766 92.872 66.91 93.9379 66.7101C95.2704 66.4436 96.4696 65.9773 97.4023 65.3111C98.4016 64.6448 99.2011 63.7787 99.5342 62.9793C99.8007 62.3131 100.001 61.6468 100.001 60.914C99.8673 60.3144 99.7341 59.7148 99.6674 59.2484V59.2484Z" fill="#BD8B13"/>
<path d="M65.4892 56.6501L55.5625 66.9766H60.1594V66.5102H59.9596H59.7597H59.5598L67.1548 58.5156L65.4892 56.6501Z" fill="#BD8B13"/>
<path d="M75.4836 66.6435V67.1099H79.9473L67.9552 54.385L66.1564 56.2504L68.1551 58.3157L70.2204 60.381H66.756L64.8906 62.3797L65.2904 62.6462L65.7567 62.3797H65.8233C65.8233 62.3797 66.0232 62.3797 66.0898 62.3797H71.886L75.8833 66.7101C75.8833 66.7101 75.8167 66.7767 75.4836 66.7767H75.4169V66.6435H75.4836Z" fill="#BD8B13"/>
<path d="M40.7734 54.9181L41.1731 54.6516V54.2518H37.1758V54.6516L37.5755 54.9181L37.7754 55.1179V66.1772V66.3771L37.7088 66.4437L37.2424 66.6436V67.0433H41.2397V66.6436L40.84 66.4437L40.7734 66.3771V55.1179V55.0513V54.9181Z" fill="#BD8B13"/>
<path d="M20.7195 64.5782H20.5197H20.0533L19.5203 64.8447C19.4537 64.9113 19.3205 64.9113 19.2538 64.9113H10.1266C8.06129 64.9113 6.46236 64.6448 5.46302 64.0452C3.86409 63.1792 3.13125 62.0466 3.13125 60.4476C3.13125 59.7814 3.33111 59.0486 3.79747 58.449C4.53031 57.3164 5.66289 56.4503 7.32845 56.1838C7.7948 56.1172 8.19454 56.1172 8.46103 56.1172H13.1246C13.3911 56.1172 13.3911 56.1838 13.3911 56.1838L13.3245 56.5836H13.6576L15.6562 54.1185H10.06C8.72752 54.1185 7.72818 54.1185 7.06196 54.1852C6.66223 54.1852 6.32911 54.2518 6.06263 54.385C5.12991 54.5849 4.26382 54.9846 3.46436 55.451C1.99867 56.2504 0.999334 57.2498 0.466356 58.3824C0.199867 59.0486 0 59.7814 0 60.6475C0 62.7128 1.13258 64.3117 3.26449 65.5776C4.1972 66.1772 5.32978 66.5103 6.52898 66.7101C7.46169 66.91 8.66089 66.91 10.1932 66.91H18.6542L20.7195 64.5782Z" fill="#BD8B13"/>
<path d="M16.1229 61.5136L18.1215 59.0486H4.8637L3.53125 61.0473H15.4566C15.6565 61.0473 15.7231 61.1139 15.7231 61.1139L15.6565 61.5136H16.1229Z" fill="#BD8B13"/>
<path d="M17.1223 54.2518L15.2568 56.5836L15.6566 56.6502H15.7232L16.2562 56.3837C16.456 56.3171 16.5227 56.1839 16.7225 56.1839H24.051V66.1106V66.1772L23.9844 66.2438L23.5846 66.5103V66.9101H27.7152V66.5103L27.3155 66.2438L27.2488 66.1772V66.1106V56.2505H33.7112C33.9777 56.2505 33.9777 56.3171 33.9777 56.3171V56.7169H34.3774L36.3761 54.2518H17.1223Z" fill="#BD8B13"/>
</svg>
