<svg width="100" height="100" viewBox="0 0 100 100" fill="none" xmlns="http://www.w3.org/2000/svg">
<path d="M49.6328 9.03516C49.6528 8.98059 52.1953 2.04757 52.8271 0.0800781C51.8914 0.027914 50.9488 4.53347e-06 50 0C47.2944 0 44.6389 0.216224 42.0498 0.629883C44.4503 3.36337 49.6328 9.03516 49.6328 9.03516Z" fill="#473729"/>
<path d="M47.8047 17.1631C47.8592 17.1611 53.2894 16.9588 53.9854 17.1016C55.8722 12.6038 59.815 2.73678 60.4688 1.09961C59.47 0.886828 58.4603 0.703919 57.4404 0.551758L50.9541 16.2334C46.7777 11.3451 40.8599 6.78256 36.8389 1.75098C35.6373 2.07796 34.4538 2.44879 33.29 2.86133C37.5386 7.56792 43.7776 13.4327 47.8047 17.1631Z" fill="#473729"/>
<path d="M61.1992 19.0156C64.669 14.5357 68.2469 9.50357 71.5039 4.85059C70.032 4.14828 68.5207 3.51534 66.9736 2.95703C63.8513 8.03346 60.7089 13.0846 57.6904 18.0703C58.865 18.3525 60.0436 18.6765 61.1992 19.0156Z" fill="#473729"/>
<path d="M37.9541 18.1133C38.6257 17.9483 39.8453 17.5948 40.7471 17.3984C37.1554 13.5308 31.4985 8.83885 27.6396 5.27051C26.6599 5.76125 25.6986 6.28304 24.7568 6.83496C28.9594 10.579 33.8958 14.84 37.9541 18.1133Z" fill="#473729"/>
<path d="M66.0078 20.6592C69.9059 19.3131 72.687 18.2505 74.8906 17.0869L74.96 16.9961C75.0672 15.9506 75.7822 8.40673 75.7822 7.24609C74.9688 8.34419 66.8735 19.4211 66.0078 20.6592Z" fill="#473729"/>
<path d="M79.0029 18.7373C81.6539 18.3899 85.2781 17.8488 87.9795 17.4844C85.5544 14.6544 82.82 12.0978 79.8262 9.86914C79.5616 12.6521 79.1253 17.0612 79.0029 18.7373Z" fill="#473729"/>
<path d="M34.9785 20.623C33.8494 19.7437 22.5312 10.8517 21.3682 10.0068C21.5781 11.586 22.7407 17.6256 22.9053 18.6338C26.8764 19.1856 30.7976 19.9537 34.9785 20.623Z" fill="#473729"/>
<path d="M8.74707 21.7451C12.3983 20.963 15.9215 20.5758 19.3955 19.7588L17.7705 11.7773C14.3355 14.6766 11.2969 18.0294 8.74707 21.7451Z" fill="#473729"/>
<path d="M89.2969 20.0625L79.1973 22.2295L78.6836 31.5957L89.2969 20.0625Z" fill="#473729"/>
<path d="M75.3164 21.8477L68.6758 23.3975C68.6758 23.3975 73.2149 27.2867 75.0703 28.8926L75.3164 21.8477Z" fill="#473729"/>
<path d="M23.3936 30.8838C25.7339 28.6413 28.2342 26.1256 31.4688 23.5635C27.0311 22.735 25.019 22.4882 22.1699 22.5088C22.5155 25.4533 22.9996 28.2507 23.3936 30.8838Z" fill="#473729"/>
<path d="M94.167 26.5537C93.5303 25.3568 92.8508 24.1864 92.1221 23.0498L80.1494 35.9307L81.0176 39.9023L94.167 26.5537Z" fill="#473729"/>
<path d="M20.7422 35.7773C19.9999 32.5006 17.9531 25.6568 17.6357 24.792C13.9375 25.5161 9.49996 26.3759 5.39941 27.8457C10.2187 30.657 15.875 33.6171 20.7422 35.7773Z" fill="#473729"/>
<path d="M49.9229 38.5615C51.2652 35.9296 51.0147 32.5075 51.0117 32.4678C50.9607 30.6873 50.7811 28.7271 49.8076 26.9824C48.9062 29.6569 48.8209 30.0962 48.7588 32.1572C48.6822 34.6981 48.8359 35.6957 49.9229 38.5615Z" fill="#473729"/>
<path d="M99.5938 56.3975C99.7636 55.0677 99.8801 53.7216 99.9434 52.3613C97.9548 51.2764 85.4322 47.4778 84.1787 46.7959C86.1089 44.89 95.0671 37.6419 97.9512 35.793C97.5293 34.3668 97.0445 32.9676 96.502 31.5977C91.8121 35.8306 87.0483 39.9502 82.1289 43.915C82.3813 45.8844 82.485 47.897 82.1543 49.8672C87.7842 51.3425 94.0745 54.4758 99.5938 56.3975Z" fill="#473729"/>
<path d="M53.291 39.8203C54.9531 37.9383 55.3577 37.3328 55.7119 36.4121C56.215 35.1043 56.4933 33.7569 56.7002 32.3711C55.6499 33.2003 54.4607 34.5115 53.9092 35.7285C53.5623 36.4941 53.2189 37.2584 53.291 39.8203Z" fill="#473729"/>
<path d="M45.832 40.2061C45.9771 38.9788 45.6257 37.8231 45.0723 36.4209C44.3807 34.6688 43.4972 33.5825 42.3535 32.4365C42.5232 34.4458 42.8597 35.4623 43.7324 37.1846C44.3818 38.466 45.0173 39.3527 45.832 40.2061Z" fill="#473729"/>
<path d="M18.9346 40.3418C13.8684 38.0347 8.6404 35.7377 2.86035 33.292C2.52821 34.229 2.22319 35.1789 1.94629 36.1406C6.92156 38.0449 13.092 40.7442 18.4395 43.0547L18.9346 40.3418Z" fill="#473729"/>
<path d="M44.041 43.0908C43.8572 41.2817 42.6025 40.0755 41.4756 38.793C41.0642 38.3198 39.7493 37.2744 37.5352 36.6846C37.8477 37.9097 38.6989 39.2503 39.5635 40.1719C40.7528 41.4716 42.4676 42.367 44.041 43.0908Z" fill="#473729"/>
<path d="M56.1182 42.377C57.3744 42.4283 58.3512 41.4505 59.4287 40.3984C60.4625 39.389 60.961 38.6569 61.4326 37.2881C59.9298 37.7819 59.374 38.1698 58.3408 39.1191C57.2068 40.1611 56.3607 41.5017 56.1182 42.377Z" fill="#473729"/>
<path d="M3.31641 67.9443C8.60174 63.7549 12.859 59.1846 17.6377 54.1494C17.6012 53.0085 17.5254 49.8752 17.5254 48.3574C12.2341 45.5257 6.83325 41.5494 1.03711 39.8203C0.782784 41.0499 0.573351 42.2959 0.411133 43.5566C5.70719 45.7813 16.002 51.2021 16.002 51.2021C16.002 51.2021 7.95642 59.4457 2.0127 64.0918C2.39594 65.399 2.83162 66.6839 3.31641 67.9443Z" fill="#473729"/>
<path d="M99.9824 48.7061C99.907 45.7387 99.5737 42.8357 99.0029 40.0186C97.865 40.6062 91.3799 45.7236 91.3799 45.7236C91.3799 45.7236 96.8623 47.4864 99.9824 48.7061Z" fill="#473729"/>
<path d="M57.9512 45.8164C59.2338 45.6413 60.2221 45.3075 61.4717 44.5508C62.8657 43.7066 63.6292 42.7741 64.4756 41.6533C62.9144 41.7576 61.8182 42.1527 60.4414 43.1055C59.2594 43.9234 58.8186 44.0944 57.9512 45.8164Z" fill="#473729"/>
<path d="M42.416 45.7393C40.9293 44.3364 39.9767 43.7075 38.1123 43.0137C36.6878 42.4835 35.8591 42.25 34.2959 42.25C35.1404 43.3054 35.7523 43.7317 36.8887 44.3877C38.8133 45.4986 41.1558 45.805 42.416 45.7393Z" fill="#473729"/>
<path d="M50.1045 55.3369C51.0665 54.1612 53.1715 51.1725 54.0791 49.4854C52.4292 46.6257 51.3499 45.1335 50.1113 43.4893C48.8772 45.5034 47.5718 47.4165 46.1328 49.2871L46.1299 49.291C47.4928 51.2877 48.6676 53.374 50.1045 55.3369Z" fill="#473729"/>
<path d="M64.0283 50.3311C67.0231 50.3311 68.8934 50.1464 71.2754 49.3271C68.5939 47.7192 67.1101 47.4814 64.3066 47.582C61.9791 47.6656 60.1555 48.1728 58.5557 49.1641C60.9774 50.2587 61.8432 50.3311 64.0283 50.3311Z" fill="#473729"/>
<path d="M29.0605 50.2812C32.1717 51.0627 32.946 51.142 35.4502 50.9736C37.8945 50.8092 39.5103 50.0557 41.5469 49.4951C38.6872 48.4618 38.2134 48.3409 36.0029 48.3516C33.189 48.3652 31.0388 49.3284 29.0605 50.2812Z" fill="#473729"/>
<path d="M0.667969 58.1963C4.29531 55.7883 9.13071 51.8503 9.15918 51.8271C9.09792 51.8053 3.13367 49.6776 0.0136719 48.8115C0.00445338 49.2066 3.79632e-06 49.6027 0 50C0 52.7912 0.22825 55.5296 0.667969 58.1963Z" fill="#473729"/>
<path d="M62.7285 55.0889C64.4155 55.7005 65.7286 55.7811 67.2832 55.6992C66.1719 54.5783 65.4029 54.3346 64.0283 53.8203C62.3021 53.1744 61.1405 52.8988 59.3613 53.1172C60.3438 54.2346 61.296 54.5694 62.7285 55.0889Z" fill="#473729"/>
<path d="M33.6621 56.4092C35.4804 56.4729 37.0676 56.2116 38.9365 55.2314C39.9845 54.6819 40.6558 54.438 41.3857 53.4473C40.0387 53.1959 38.7302 53.5478 37.1768 54.1514C35.6562 54.7422 34.5271 55.2236 33.6621 56.4092Z" fill="#473729"/>
<path d="M97.2129 66.5C97.6498 65.2498 98.0378 63.9769 98.376 62.6836C92.9869 59.7454 86.9764 56.8011 81.5312 53.9883C81.5312 55.0944 81.4765 56.3448 81.5312 57.5322C86.3964 60.7396 92.6531 63.9744 97.2129 66.5Z" fill="#473729"/>
<path d="M37.9717 61.6113C38.8044 61.454 40.1074 60.5338 41.1807 59.4795C42.5668 58.1178 43.7703 56.4696 43.7705 55.2314C42.5152 55.5791 41.6074 56.3721 40.5225 57.4639C39.1823 58.8125 38.156 60.2977 37.9717 61.6113Z" fill="#473729"/>
<path d="M62.6504 62.1025C62.4297 60.9359 61.5733 60.0291 60.5742 58.9414C59.3311 57.588 58.3749 56.8987 56.7607 56.1836C57.0702 57.5392 57.667 58.4408 58.6885 59.5674C59.9223 60.9281 61.4157 61.6442 62.6504 62.1025Z" fill="#473729"/>
<path d="M56.6777 66.1543C56.5704 63.4616 56.6347 62.7226 55.6455 60.8652C54.9499 59.5592 54.4998 58.9925 53.2148 57.958C53.0623 59.3831 53.4327 60.5363 54.0225 62.0576C54.7116 63.8352 55.6842 65.0426 56.6777 66.1543Z" fill="#473729"/>
<path d="M42.6943 65.7314C43.9164 65.2835 45.015 63.5554 45.6416 61.7129C46.1155 60.3193 46.3595 59.2191 46.0137 57.9619C44.8595 58.8441 44.3263 59.6283 43.6641 60.96C42.8174 62.6625 42.5012 64.0933 42.6943 65.7314Z" fill="#473729"/>
<path d="M6.97168 75.4785C11.2599 71.4896 16.1638 66.6418 19.8594 62.1367C19.5133 60.9514 19.0361 59.8087 18.7471 58.6055C15.1624 63.9636 9.87348 68.0459 5.38672 72.5977C5.88384 73.5772 6.41325 74.5375 6.97168 75.4785Z" fill="#473729"/>
<path d="M49.792 70.4512C50.6636 68.2894 51.1385 66.8603 51.1104 64.4678C51.0832 62.168 50.414 60.3911 49.7598 58.7354C49.0891 60.4341 48.3865 62.0185 48.3291 64.2383C48.2647 66.73 49.0801 68.608 49.792 70.4512Z" fill="#473729"/>
<path d="M80.626 72.5752C84.4081 72.2883 87.7188 72.0626 92.7461 71.2295C88.9999 68.0939 84.2486 64.8878 79.8867 61.8633C79.7969 63.0706 80.5863 71.5965 80.626 72.5752Z" fill="#473729"/>
<path d="M9.65625 79.5166C12.7632 78.5424 17.0531 78.3633 19.8867 76.8203C20.0165 76.6905 21.2042 67.2549 21.2666 66.1553C19.82 67.795 10.5078 78.4893 9.65625 79.5166Z" fill="#473729"/>
<path d="M69.0547 75.0049C70.6558 75.1409 74.6873 74.8599 76.7207 74.5186C76.7207 72.235 76.5921 69.8818 76.4697 67.752C75.7838 68.3391 69.0518 74.9379 69.0547 75.0049Z" fill="#473729"/>
<path d="M24.0615 76.416C24.4605 76.4534 28.1087 76.4167 30.0771 76.3057C27.9553 73.878 25.6341 71.7783 23.6592 69.166C23.6592 69.166 24.0229 76.1095 24.0615 76.416Z" fill="#473729"/>
<path d="M80.2031 89.8477C85.1844 86.0661 89.4354 81.3733 92.7061 76.0156C91.0999 76.2725 79.7471 77.4619 79.7471 77.4619C79.7471 77.4619 80.2874 84.9752 80.2031 89.8477Z" fill="#473729"/>
<path d="M76.665 90.5107C76.4848 85.9769 75.1647 78.8656 75.1602 78.8408C75.131 78.8396 67.8468 78.5249 64.2178 78.8486C66.1309 80.7251 73.2816 87.2192 76.665 90.5107Z" fill="#473729"/>
<path d="M24.7031 93.126C27.8573 88.4547 31.0313 83.5165 34.0273 78.8457C31.4626 78.8457 26.6711 79.6725 23.4863 80.2676C23.7023 84.3913 23.9577 89.0689 24.7031 93.126Z" fill="#473729"/>
<path d="M31.4102 96.4287C34.7452 91.7066 37.0433 85.9597 39.4023 81.0508C38.8594 80.6253 37.2637 79.7578 37.2637 79.7578C37.2145 79.8445 31.1292 90.5556 27.957 94.8887C29.085 95.4436 30.2363 95.9583 31.4102 96.4287Z" fill="#473729"/>
<path d="M70.0693 95.8057C71.0466 95.3769 72.0078 94.919 72.9512 94.4307C69.3279 89.5427 59.7861 80.2666 59.7861 80.2666L57.2344 80.9971C57.2843 81.0519 68.3986 93.2775 70.0693 95.8057Z" fill="#473729"/>
<path d="M20.2617 90.1982C20.2617 89.0032 20.2597 83.9756 20.0195 81.6279C19.8409 81.6316 13.3017 82.1855 12.0381 82.541C14.4823 85.3897 17.2413 87.9601 20.2617 90.1982Z" fill="#473729"/>
<path d="M60.5703 98.8809C61.9404 98.586 63.2894 98.2347 64.6152 97.8301C59.8148 92.6441 54.309 86.1397 49.5352 81.8838C48.7636 81.8755 45.5708 81.8031 44.3262 81.6279C41.1521 86.3067 37.3715 92.5097 35.5928 97.8936C36.8239 98.2634 38.0747 98.5878 39.3438 98.8633C40.6199 93.7606 47.46 83.2725 47.46 83.2725C51.8238 87.7819 56.2619 93.6227 60.5703 98.8809Z" fill="#473729"/>
<path d="M50 100.001C52.1735 100.001 54.3147 99.8618 56.415 99.5928C53.6984 96.3493 50.0956 91.8472 48.123 89.8486C46.7666 92.097 44.1615 96.8527 43.2998 99.5547C45.4914 99.8482 47.7281 100.001 50 100.001Z" fill="#473729"/>
</svg>
