<svg width="100" height="100" viewBox="0 0 100 100" fill="none" xmlns="http://www.w3.org/2000/svg">
<path d="M71.4968 54.3313C71.4968 54.3313 65.1701 54.7864 59.2953 57.0619C32.6328 68.4397 31.729 93.4707 33.9885 95.7462C36.7 98.0218 38.5076 96.2013 40.3152 96.2013C46.6419 96.2013 52.9686 91.6502 57.4877 87.5542C63.8144 81.6378 67.8815 74.8112 70.1411 66.1641C71.0449 62.5232 71.4968 53.8761 71.4968 54.3313Z" fill="#F89921"/>
<path d="M71.4982 41.5878C65.1715 27.9345 54.3258 18.3772 42.1243 10.1852C34.8938 5.17904 27.2114 1.08305 18.1733 0.172834C5.97178 -1.19249 -0.354921 5.63415 2.80843 17.0119C4.16414 21.563 6.42367 25.659 9.13511 29.7549C10.4908 31.5754 13.2023 35.2163 14.558 37.0367C17.7213 41.1327 16.8175 37.0367 13.2023 31.1203C10.4908 26.5692 5.97177 20.1976 5.06796 13.371C4.16414 6.99947 7.77939 2.90349 14.558 3.3586C19.0771 3.3586 23.5961 4.72393 27.6633 6.99947C38.509 12.0057 48.451 19.2874 56.5853 27.9345C62.4601 34.306 67.4311 41.1327 69.2387 49.7798C70.1425 54.3308 70.1425 57.9717 69.2387 62.0677C67.4311 70.7148 63.8158 78.9068 57.4891 85.7334C53.422 90.2845 46.1915 93.9254 41.6724 94.3805C38.509 94.8356 37.1533 94.3805 37.1533 95.7458C37.1533 97.5662 38.0571 98.0213 39.8648 98.0213C44.3838 98.0213 48.451 96.656 52.5182 94.8356C66.9792 86.6436 80.5364 60.7024 71.4982 41.5878Z" fill="#2B3B4C"/>
<path d="M31.7283 84.8241C30.8245 93.4712 34.8916 101.208 33.5359 99.8427C30.3725 95.7467 29.4687 91.1956 29.9206 85.7343C30.3725 73.4464 37.1511 64.3442 45.7374 57.0624C51.6122 52.9664 54.3236 50.2358 62.9098 47.9602C65.6212 47.5051 68.7846 45.6847 67.4289 49.3256C66.977 50.6909 66.5251 51.146 63.8136 52.0562C50.7083 55.242 42.1221 62.5237 35.3435 73.9015C33.5359 77.0872 32.1802 80.7281 31.7283 84.8241Z" fill="#2B3B4C"/>
<path d="M97.2566 33.3947C96.3528 29.7538 88.6704 31.5742 87.7666 31.5742C81.8918 32.4845 77.3727 39.7662 78.7284 43.4071C80.536 44.7724 82.3437 48.8684 86.4109 48.4133C90.9299 47.9582 94.0932 44.3173 94.5452 40.2213C94.5452 38.4009 93.6414 36.1253 94.9971 34.3049C95.9009 32.9396 96.8047 32.9396 97.2566 33.3947Z" fill="#F89921"/>
<path d="M44.8359 69.3501C49.355 72.5359 53.4222 76.6318 58.3931 79.8176C59.297 80.2727 59.7489 81.1829 58.8451 82.0932C57.9413 83.4585 57.0374 82.5483 56.1336 82.0932C51.6145 78.4523 47.5474 74.8114 44.8359 69.3501Z" fill="#2B3B4C"/>
<path d="M54.3252 60.7026C57.9404 62.9782 61.1038 66.164 64.719 68.4395C65.1709 68.8946 66.0748 69.3497 65.6229 70.2599C65.171 71.1702 63.8152 71.1702 63.3633 70.715C59.2962 67.9844 56.1328 65.2537 54.3252 60.7026Z" fill="#2B3B4C"/>
<path d="M38.0547 80.271C41.6699 82.5465 44.8333 85.7323 48.4486 88.0078C48.9005 88.463 49.8043 88.9181 49.3524 89.8283C48.9004 90.7385 47.5447 90.7385 47.0928 90.2834C43.0257 87.5527 39.8623 84.367 38.0547 80.271Z" fill="#2B3B4C"/>
</svg>
