<svg width="100" height="100" viewBox="0 0 100 100" fill="none" xmlns="http://www.w3.org/2000/svg">
<path d="M0 25C0 11.1929 11.1929 0 25 0H75C88.8072 0 100 11.1929 100 25V75C100 88.8072 88.8072 100 75 100H25C11.1929 100 0 88.8072 0 75V25Z" fill="#1A361F"/>
<path d="M91 27.0799V27.3999C89.1376 28.8431 87.408 30.4287 85.6432 31.9871C79.3632 29.1359 72.7328 29.6399 66.5728 32.4815C66.3648 32.5759 64.096 33.6495 64.28 33.7855C65.5136 33.6335 66.7056 33.1391 67.9264 32.8751C71.32 32.1423 75.9104 31.8815 79.1584 33.2303C80.1616 33.6479 80.936 34.2655 81.88 34.7471C81.9392 34.9919 81.8416 35.0031 81.7104 35.1343C79.4352 37.3999 76.3168 39.8639 73.72 41.7711C69.6272 44.7775 64.632 47.6911 59.48 48.6367C57.6807 48.9673 55.5289 49.2297 53.72 48.7983C54.392 51.0639 55.1792 53.4623 55.5936 55.7887C55.9728 57.9231 56.1216 59.7807 55.96 61.8895C55.4655 68.3976 53.4 73.1748 46.68 76.5807C44.5746 77.6478 43.0057 78.3769 41.08 78.8548C41.928 77.7124 42.7536 76.2959 43.32 74.9839C44.8288 71.4911 44.8368 67.3871 44.6 63.6463C45.8944 65.1295 46.4336 67.3727 46.528 69.3087C46.576 70.3103 46.3664 71.2799 46.44 72.2687C50.1824 67.5663 46.2544 61.6303 43.4512 57.5279C41.648 54.8895 39.0832 52.2351 37.4944 49.5807C36.3792 47.7215 36.2448 46.6191 36.8784 44.5231C37.784 41.5311 40.0848 39.3199 42.2 37.1407C37.9776 37.4957 35.9595 41.4164 34.3616 44.8031C33.32 38.8548 31.8113 29.1303 26.4688 26.2543C21.8512 23.7679 15.944 23.8052 11 22.2148V21.9695C11.7776 21.7487 12.6688 21.7695 13.4784 21.8111C18.2688 22.0623 23.896 23.4831 28.5376 23.3903C30.096 23.3599 30.6608 22.7519 31.9248 22.3327C34.504 21.4783 37.6 21.1887 39.8768 22.9327C42.9456 25.2815 41.864 28.3823 43.0448 31.5855C44.6752 36.0063 48.1952 36.0671 52.3392 35.6815C61.2848 33.4319 69.3728 28.3983 78.2896 25.9711C82.256 24.8927 87.9328 23.5983 91 27.0799Z" fill="white"/>
<path d="M56.0153 59.5996C56.0963 60.6393 56.1739 61.8017 56.2788 63.0095C56.2755 67.9886 55.7026 73.1694 52.4355 77.1341C50.2595 79.7757 46.781 81.6958 43.4034 82.3326C43.1587 82.1598 43.562 82.1886 43.6916 81.971C44.4439 80.7077 45.0214 78.9237 44.9244 77.4432C45.478 77.1838 46.0556 76.8973 46.6803 76.5807C53.4003 73.1748 55.4658 68.3976 55.9603 61.8895C56.0208 61.1002 56.0376 60.3462 56.0153 59.5996Z" fill="#F7D502"/>
<path d="M44.6003 63.6465C44.8371 67.3873 44.829 71.4912 43.3203 74.984C43.3075 75.0135 43.294 75.0428 43.2811 75.0724C42.3829 75.3718 40.4314 76.0105 38.2803 75.8149C41.0003 73.1749 43.4798 66.4142 44.6003 63.6465Z" fill="#008D96"/>
<path d="M73.4991 41.9316C74.5933 42.9009 76.4666 43.1273 78.8395 43.4149C76.3435 45.1013 75.5595 46.113 71.3195 47.7349C66.4442 49.5998 59.5649 50.3271 55.2285 49.007C56.6523 49.0843 58.1606 48.8792 59.4795 48.6368C64.5395 47.7081 69.448 44.8805 73.4991 41.9316Z" fill="#7BC043"/>
</svg>
