<svg width="100" height="100" viewBox="0 0 100 100" fill="none" xmlns="http://www.w3.org/2000/svg">
<path d="M0 25C0 11.1929 11.1929 0 25 0H75C88.8072 0 100 11.1929 100 25V75C100 88.8072 88.8072 100 75 100H25C11.1929 100 0 88.8072 0 75V25Z" fill="#701D75"/>
<path d="M51.918 37.7842V62.5096H58.6278V37.7842H51.918Z" fill="white"/>
<path d="M34.9551 37.6926L44.1738 50.1011L34.9551 62.5095H42.6565L51.8732 50.1011L42.6565 37.6926H34.9551Z" fill="#26D702"/>
<path d="M69.7775 62.5096V53.891L60.7178 37.7842H67.9599L73.2481 47.4704L78.5362 37.7842H85.7784L76.7187 53.891V62.5096H69.7775Z" fill="white"/>
<path d="M33.9577 55.1779C33.96 51.6052 31.7512 48.4504 26.001 47.2001C21.7786 46.282 21.2322 45.4443 21.2322 44.4769C21.2322 42.8903 23.485 42.7271 24.804 42.7271C28.1695 42.7271 30.2905 43.9965 32.2891 45.1746V39.2105C29.9355 37.7875 27.1982 37.3548 24.3015 37.3333C15.8972 37.8161 14.667 42.1353 14.667 44.9686C14.667 49.563 17.2814 51.0936 22.1288 52.6184C24.0133 53.2111 27.2588 53.516 27.2768 55.4961C27.2868 56.5891 26.2663 57.4082 23.4589 57.4986C19.8424 57.615 17.5713 56.1734 15.2224 54.8911V60.8936C17.7906 62.193 20.4836 62.9072 23.5459 62.9072C30.2461 62.9072 33.9547 59.7911 33.9577 55.1779Z" fill="white"/>
</svg>
