<svg width="100" height="100" viewBox="0 0 100 100" fill="none" xmlns="http://www.w3.org/2000/svg">
<path d="M40.9043 27.3304C40.6994 27.2686 35.2831 26.0801 33.4871 26.1984C31.6928 26.3132 30.1458 27.3604 29.201 28.4394C28.6888 29.024 28.4575 29.6156 28.3692 30.1154C28.2897 30.9825 28.9113 31.3922 29.6442 31.1591C30.1793 30.9878 30.5714 30.6063 31.1241 29.7851C31.4632 29.2801 31.6681 28.639 32.1908 28.307C33.0544 27.7613 34.5378 27.6235 36.9608 27.6871C38.8133 27.7366 40.3091 27.8284 40.6747 27.8443C41.3493 27.8743 41.1957 27.4204 40.9043 27.3304Z" fill="#413691"/>
<path d="M37.7724 32.3609C36.7605 31.7623 35.3989 31.7958 35.1323 31.7464C34.8656 31.6969 34.8144 31.4267 35.2153 31.2325C35.7627 30.9658 36.7888 31.1883 36.8259 31.0152C36.8594 30.8651 36.6263 30.4819 35.8457 30.1852C35.4254 30.0228 34.6254 29.915 34.0462 29.9751C32.3826 30.1499 31.496 31.1848 31.3089 31.3755C31.1217 31.5645 30.8391 31.8506 30.7667 32.2885C30.6696 32.8678 31.0404 33.3146 31.3936 33.8885C31.5738 34.1782 31.7327 34.3901 31.791 34.6091C31.874 34.9217 31.8192 35.0488 31.5596 35.2519C31.2682 35.4797 31.4395 35.8806 32.0258 35.7181C32.6881 35.5309 33.0501 35.3437 33.5499 34.9217C34.2634 34.323 34.251 33.938 34.749 33.44C35.247 32.942 36.8153 32.9455 37.6223 33.0585C38.5707 33.191 38.7861 32.9579 37.7724 32.3609Z" fill="#413691"/>
<path d="M88.2017 40.0811C88.184 38.2409 87.6666 34.5676 87.5836 33.7623C87.3593 31.5372 86.826 28.4414 85.1165 24.1641C83.2516 19.5036 81.7434 16.2153 77.1801 11.7138C71.8043 6.41223 65.4697 4.21533 63.9403 3.7597C63.7143 3.69082 63.5871 3.65903 63.573 3.65549L63.5695 3.65373C60.6803 2.88022 58.252 2.67889 55.7037 2.64181C46.5982 2.50583 39.9174 6.33099 37.5721 8.85815C36.479 10.0361 35.6807 11.2458 35.0838 12.3884C33.2489 15.3235 33.0211 18.4723 32.8887 18.8732L32.894 18.8679C33.037 18.7442 35.2216 16.3266 37.6904 15.6008C38.2979 16.5915 39.5571 17.9442 42.086 19.237C44.6679 20.5579 47.5094 21.2908 47.5094 21.2908C47.5094 21.2908 51.0573 22.3098 54.6494 23.5955C57.5156 24.6215 60.5019 28.3389 60.5019 29.1054C60.5019 30.6913 58.9443 32.1712 57.4043 36.9906C55.7584 42.142 55.1827 47.0039 55.7213 52.7027C55.7231 52.7098 55.7231 52.7186 55.7249 52.7257C55.7266 52.7398 55.7266 52.7557 55.7284 52.7699C56.0569 56.1818 56.7827 59.8957 57.9183 64.1518H57.92C58.8401 67.6043 59.1386 71.0409 59.0167 74.3345C58.2202 82.7955 53.0812 89.1584 46.9072 92.7222C46.9037 92.7204 46.9019 92.7169 46.8984 92.7151C46.8984 92.7186 46.8984 92.7222 46.8984 92.7257C45.7258 93.4003 44.5178 93.9778 43.294 94.4476C43.4723 94.4529 45.4979 94.4758 45.7116 94.4723C50.8966 94.4122 58.2344 93.4109 64.5196 86.8202C66.69 84.5456 68.3907 82.1668 69.4644 79.9239C69.9041 78.9862 71.7743 75.6573 72.8322 69.0489C72.9717 68.1659 73.4379 65.3261 73.4379 65.3261C73.4379 65.3261 73.7311 67.3482 73.7681 69.1531C73.8158 71.629 73.9077 74.7407 72.4366 79.4595C72.9364 79.35 75.3858 77.5257 78.2874 73.5981C79.3487 72.1641 80.3253 70.6665 81.2189 69.1213C85.3867 62.5959 88.3465 54.8202 88.2017 40.0811Z" fill="#413691"/>
<path d="M65.7031 25.6357C65.6749 25.9165 65.772 26.0207 66.0299 25.8141C67.1583 24.9046 69.0321 23.513 71.5839 23.0556C74.6356 22.5099 76.3645 21.0194 77.161 19.3328C77.636 18.3191 78.0228 16.4966 79.508 15.4052C79.9813 15.0573 79.4992 14.9337 79.1054 15.0061C78.7345 15.0732 76.7177 15.6172 75.4056 17.0547C74.5314 16.1187 74.595 14.8348 74.7186 14.0913C74.7751 13.8706 74.602 13.7116 74.3089 13.9518C73.3093 14.7571 72.6418 15.8238 72.4246 16.5938C72.4246 16.5938 71.6281 16.0216 72.0378 14.5823C72.1067 14.3421 71.9407 14.4322 71.8541 14.4922C70.4184 15.5412 70.542 17.1077 70.5296 17.3196C70.5296 17.3196 69.0797 16.5161 66.8599 16.2105C66.4749 14.7324 64.1067 14.3439 63.7182 15.8591C63.3667 17.2331 65.6519 18.2785 66.6232 17.1377C66.6232 17.1377 69.7526 17.4662 72.5323 20.2476C72.8149 20.5302 72.9067 20.7562 72.7318 20.9187C72.6029 21.0388 72.202 20.7933 71.7129 20.456C71.1619 20.0728 67.3756 17.6339 64.1014 19.3099C63.9354 19.3946 63.923 19.5377 64.0784 19.573C64.6965 19.7531 66.0722 20.2282 66.4201 21.1289C65.546 21.3567 64.1455 21.89 63.1407 23.9598C62.8793 24.4966 63.2184 24.5708 63.5027 24.3518C63.8435 24.094 65.8868 22.9761 66.6515 23.0556C66.6515 23.0556 65.9592 24.0693 65.7031 25.6357ZM91.8118 10.0366C91.6828 11.0838 92.0078 14.0313 92.8131 16.7757C93.659 19.6737 92.1561 22.2326 89.5513 23.7355C88.7354 22.471 87.0912 21.8388 85.629 21.7858C84.7725 21.754 85.0073 22.1019 85.4294 22.2785C91.4921 24.818 89.3535 31.8856 88.5711 33.3867C87.7711 34.9196 87.9619 36.9434 87.9619 36.9434C86.0775 36.3924 84.3486 36.7562 82.8281 36.9964C79.8171 37.475 77.8109 36.9399 76.2444 36.2229C74.9994 35.6525 73.0409 34.3562 72.7424 31.8803C72.6859 31.4282 72.3945 31.1156 72.2162 31.9545C71.9124 33.3867 72.1243 35.135 73.1504 36.2353C72.029 41.754 61.2016 41.3514 61.2016 41.3514C60.4828 38.969 55.561 38.245 54.4484 34.7818C53.9204 33.1395 54.353 31.4247 54.353 31.4247C57.1839 32.1063 58.8228 30.743 59.7411 29.6004C60.2762 28.9328 59.8488 28.9028 59.4674 29.1465C55.8806 31.4123 52.5446 29.1483 51.8471 25.9536C50.9164 22.4587 47.5098 21.2913 47.5098 21.2913C49.991 19.7284 49.2917 17.0282 50.5844 14.743C53.9875 8.72091 58.8281 10.524 58.8281 10.524C59.2961 11.9527 60.723 12.9858 62.1252 13.4097C62.9429 13.6569 62.814 13.2507 62.4431 12.984C59.0047 10.5081 59.8541 6.56462 62.5614 4.72444C67.2837 1.50855 68.0926 0.116936 68.0926 0.116936C68.9597 0.77389 71.259 1.34431 73.6802 1.55799C79.1018 2.04011 80.3786 4.86396 80.4881 5.94122C79.8488 6.27853 78.7575 7.29398 78.2488 8.91517C77.9945 9.73107 78.4043 9.60391 78.6745 9.23658C80.7848 6.34563 83.3844 6.88957 85.8232 8.00745C87.3632 8.71561 89.5954 10.5169 91.8118 10.0366" fill="#EF3138"/>
<path d="M6 41.3457C6 61.7448 20.6084 78.6931 39.8243 82.0768C39.6689 83.5585 39.4834 84.9395 39.2592 86.045C37.9399 92.5739 33.4684 98.5766 31.049 100C37.5161 99.4402 42.657 97.5064 45.7192 94.4742H45.7121C45.4967 94.4759 43.4728 94.4512 43.2945 94.4477C44.5166 93.9779 45.7245 93.4022 46.8954 92.7276C46.8971 92.7276 46.8971 92.7258 46.8971 92.7258C46.8971 92.7223 46.8989 92.7188 46.8989 92.7152C46.9007 92.717 46.9042 92.7188 46.906 92.7205C47.351 88.9166 47.2132 84.3744 46.2102 78.8274C44.9033 71.5921 42.1748 69.1974 41.7863 68.7152C41.7616 68.6834 41.7351 68.657 41.7475 68.6252C41.7563 68.5987 41.8269 68.5686 41.8517 68.5528C44.1298 67.1258 46.1219 65.404 47.0561 64.6093C47.7713 64 47.4887 63.7263 46.7735 64.0547C44.8627 64.9307 41.6733 66.0486 37.6292 66.5501C34.0759 66.9881 29.864 66.9351 25.2812 66.0468C25.2812 66.0468 22.0724 65.5735 22.5457 62.3064C22.6746 61.3916 23.1355 60.4539 23.5029 59.5444C23.6194 59.2583 23.9267 58.3717 23.7607 57.6547C23.7201 57.4746 23.4923 57.1444 23.3581 56.9395C23.1214 56.5775 23.0366 56.0777 23.2821 55.4931C23.4905 55.0004 24.3347 54.2764 25.5249 54.1616C26.1113 54.1068 26.7594 54.1104 27.4093 54.1174C28.2534 54.1245 29.1029 54.1316 29.8269 54.0026C31.6883 53.6742 32.8009 52.4115 32.5819 51.9982C32.4336 51.7227 30.7735 52.0565 30.2084 52.1695C29.3784 52.3355 27.8667 51.6627 27.0755 51.4066C25.8463 51.0057 25.2071 50.6861 24.1422 51.1399C23.4799 51.4243 22.9572 52.7611 22.77 52.1395C22.6852 51.8516 22.8477 51.5373 23.0773 51.1982C23.2927 50.8786 23.7254 50.2764 23.7872 49.9338C23.8525 49.5488 23.9461 49.0013 22.8759 48.2437C22.1166 47.7051 21.5938 47.2706 21.2724 46.9422C20.2464 45.909 20.068 44.8371 22.0371 43.1611C23.4411 41.9655 26.5439 38.762 27.4887 36.8053C27.6371 36.498 28.3876 35.2742 27.5647 34.0486C26.9307 33.1055 26.8159 32.9236 26.6499 32.6022C26.1943 31.7227 26.5192 30.9404 27.268 29.7695C27.6336 29.1973 27.9196 28.5033 28.702 26.0574C29.5709 23.3342 30.9748 20.9236 32.8927 18.8715H32.8874C33.0199 18.4724 33.2477 15.3236 35.0826 12.3885C35.6795 11.2459 36.4795 10.0362 37.5709 8.85826C38.3055 8.06886 39.4605 7.1523 40.9828 6.26929C42.5051 5.38629 44.3894 4.53684 46.5828 3.88342C49.2159 3.09755 52.2887 2.59071 55.7024 2.64192C58.2525 2.67901 60.6808 2.88035 63.5682 3.65386C63.5682 3.65386 63.5718 3.65562 63.5735 3.65562C63.5859 3.65915 63.7077 3.69095 63.9179 3.75276C58.7329 1.3457 52.9669 0 46.8883 0C24.3064 0 6 18.5095 6 41.3457V41.3457ZM22.3214 46.4388C22.2684 46.5748 22.3956 46.6437 22.5528 46.7196C23.3086 47.0711 23.6583 47.2512 25.0163 48.0653C26.604 49.0172 27.2945 48.2296 27.6336 47.6221C27.7289 47.4578 27.8702 46.7832 27.7148 46.5448C27.5594 46.3064 27.268 46.46 26.9607 46.7603C26.6146 47.0976 25.7704 46.9157 25.4879 46.8857C25.2088 46.8539 23.9126 46.5271 23.0684 46.3505C22.9112 46.317 22.7823 46.3046 22.6764 46.3046C22.4609 46.3046 22.3497 46.3629 22.3214 46.4388" fill="url(#paint0_linear_526_1965)"/>
<defs>
<linearGradient id="paint0_linear_526_1965" x1="36.5795" y1="9.75398" x2="34.3151" y2="66.1337" gradientUnits="userSpaceOnUse">
<stop stop-color="#D2068A"/>
<stop offset="0.736963" stop-color="#413691"/>
<stop offset="1" stop-color="#413691"/>
</linearGradient>
</defs>
</svg>
