<svg width="100" height="100" viewBox="0 0 100 100" fill="none" xmlns="http://www.w3.org/2000/svg">
<path d="M32.573 49.8757V49.8794L32.4328 49.8503C31.4502 49.6851 30.4779 49.4634 29.5209 49.1861C29.3783 49.1465 29.2363 49.1047 29.095 49.0606C28.4435 49.9815 27.7429 50.8659 26.9876 51.7049C27.3506 51.7137 27.7156 51.718 28.074 51.6939C30.147 51.5957 32.1562 51.1771 34.1034 50.5382L34.2982 50.4746L34.3455 50.4637C33.6466 50.2907 32.5111 49.8485 32.573 49.8757ZM29.6799 48.2136C29.6799 48.2136 29.6799 48.21 29.6744 48.2081L29.6799 48.2045L29.6872 48.1916C23.9507 43.8165 21.5302 35.3519 13.4315 32.4528C19.6047 30.1888 25.6505 31.976 30.7704 34.9243C32.4338 34.2528 33.8461 33.3591 35.1892 32.3854C32.685 29.1986 29.3873 26.971 25.9075 25.4568H0.046875C0.0905536 25.4732 0.645563 25.6698 0.665655 25.6788C0.831185 25.7373 0.995044 25.8004 1.15704 25.8681C1.50647 26.0119 1.8559 26.1775 2.19251 26.3558C2.35995 26.4396 2.52564 26.5342 2.69846 26.6288C2.84405 26.7108 2.9879 26.7999 3.13714 26.8855C3.29365 26.9765 3.40824 27.0457 3.42469 27.0602C3.43765 27.0687 3.41581 27.0559 3.34476 27.0141C5.12655 28.1187 6.94824 29.7166 8.54979 31.9151C12.3772 37.1819 18.8766 45.9275 29.0948 49.0633C29.2893 48.7791 29.4943 48.5038 29.6799 48.2136ZM37.0096 39.338C37.5483 39.7876 38.2927 40.2662 39.0788 40.7267C38.7531 39.2562 38.3018 37.8966 37.7466 36.6445C37.37 36.7682 37.0041 36.8884 36.6437 36.9957C35.9813 37.2014 35.3334 37.3778 34.7163 37.5344C35.5171 38.1277 36.2816 38.7338 37.0096 39.338ZM64.0218 28.5246C63.1584 28.0721 62.2686 27.6716 61.3574 27.3254C59.188 26.5102 56.9278 26.0023 54.5182 25.7222C54.5019 25.7222 54.4837 25.7222 54.4672 25.7203C52.7419 25.5492 51.0039 25.482 49.266 25.4601H49.0238C42.2901 26.1699 39.0378 29.5933 35.1868 32.3887C36.0513 33.4843 36.8174 34.7037 37.4636 36.0376C37.5619 36.2415 37.6529 36.438 37.7494 36.6472C39.0651 36.2087 40.481 35.6754 42.0209 35.053C50.8384 31.4696 57.3506 30.3447 62.1261 30.3447C64.4283 30.3447 66.321 30.6031 67.8771 30.9799C66.6505 30.0409 65.3666 29.2235 64.0218 28.5246Z" fill="#D93722"/>
<path d="M69.7213 32.5033C69.7213 32.5033 69.716 32.5014 69.714 32.4978H69.7159C62.8327 35.0076 59.7097 40.5601 55.9043 45.9671H55.9116C57.5115 45.8489 59.6989 46.0891 61.0894 47.4777C64.3707 46.9939 66.0359 46.8405 67.4683 46.715C69.0769 43.3249 71.0365 39.4606 74.5973 37.7682C73.0798 35.9043 71.446 34.1796 69.7213 32.5033ZM82.0053 48.9504C78.2143 47.3889 73.923 46.6572 69.5479 46.6572C68.8582 46.6572 68.1647 46.6773 67.4695 46.7155C66.6706 48.3954 65.9444 50.1096 65.1927 51.8077C64.4617 53.4333 63.9297 54.6953 62.7668 56.7106C63.584 55.7679 64.3938 54.9125 65.2383 54.2445C69.6061 50.8303 75.6592 46.9883 82.0385 49.0013C82.0276 48.9868 82.0162 48.9668 82.0053 48.9504ZM82.2276 49.3103C77.3557 51.1994 75.0879 55.2086 72.34 59.1161H72.3436C73.5156 59.027 75.1208 59.209 76.1419 60.2227L76.2547 60.2609C77.254 60.6412 78.3731 60.9761 79.3906 61.5148C80.1168 61.8934 80.8101 62.2811 81.4762 62.6687C84.2462 61.524 86.8068 60.7031 88.9289 60.3282C86.6657 56.6736 84.4585 52.9846 82.2276 49.3103Z" fill="#C0D83C"/>
<path d="M76.2552 60.263L76.1406 60.223C76.1443 60.2249 76.1462 60.2287 76.1498 60.2287C73.1377 60.8256 71.7036 62.2287 69.589 63.7084C67.1066 65.4464 63.6269 67.472 59.4427 68.382C54.8019 69.3884 49.7606 68.615 45.5037 65.956L45.471 65.9504H45.4654H45.4946C45.4819 65.945 45.4708 65.9341 45.4582 65.9286C50.8561 66.4746 54.465 64.8567 57.2458 62.5856C57.2367 62.5838 57.2276 62.58 57.2131 62.5746C57.2022 62.5746 57.1912 62.5746 57.1784 62.5729L57.0692 62.6239C54.1865 64.0543 50.3775 64.7423 46.2043 64.7423C37.4376 64.7423 27.0658 61.6993 20.332 56.0447C20.5213 56.3449 20.7251 56.6652 20.9416 56.9928C29.3771 65.5283 44.7989 70.1311 57.5298 70.1311C63.5647 70.1311 68.9954 69.0973 72.7911 66.9534C75.7449 65.2846 78.7132 63.8214 81.4776 62.6712C80.8134 62.2836 80.1199 61.8959 79.3919 61.5192C78.3764 60.9842 77.2553 60.642 76.2543 60.2635" fill="#8DC643"/>
<path d="M67.4691 46.7107C59.2188 47.3438 57.8555 48.0956 53.8159 50.9766C56.9298 52.7699 58.3281 54.9375 62.7682 56.7095C64.8663 53.772 65.9329 49.9623 67.4691 46.7107ZM20.9419 56.9948C21.7408 58.2105 22.7237 59.6447 23.8866 61.2153C32.04 72.2459 39.7725 74.5429 50.0443 74.5429H99.9995C99.9831 74.5319 99.9685 74.5156 99.9558 74.5101C96.6799 73.389 93.111 70.5298 87.4964 66.6098C85.7201 65.3703 83.7618 64.0054 81.4779 62.6697C78.7132 63.8163 75.7487 65.2887 72.7912 66.952C68.995 69.0958 63.5678 70.1296 57.5299 70.1296C44.7995 70.1296 29.3777 65.5267 20.9419 56.9948ZM52.5054 60.303L52.4923 60.2827C50.7562 58.7757 49.4149 56.7648 47.9425 54.8284C46.9597 55.3797 44.0389 56.9014 40.9887 57.8731C34.147 60.0473 26.7862 59.2616 20.4785 55.9075C30.5469 61.6875 36.5781 64.1719 52.4957 60.3026C52.4901 60.3026 52.4901 60.2934 52.4848 60.2934L52.5066 60.3026L52.5054 60.303Z" fill="#A5CE42"/>
<path d="M82.0492 49.0181C79.6995 45.1744 77.3864 41.3073 74.5982 37.7693C73.8158 38.135 73.1005 38.6337 72.4564 39.2015C70.7346 40.7339 69.497 42.7523 68.436 44.7761C68.1012 45.4148 67.7791 46.0609 67.4697 46.7125C68.1649 46.6761 68.8619 46.6579 69.5517 46.6579C73.9232 46.6579 78.2183 47.3876 82.0057 48.951C82.022 48.9692 82.0329 48.9966 82.0494 49.0183L82.0492 49.0181ZM81.4785 62.6693C83.7626 64.0051 85.7208 65.3701 87.4971 66.6094C93.1116 70.5259 96.6805 73.3886 99.9564 74.5097C99.971 74.5206 99.9837 74.5315 100 74.5425C96.7696 72.3767 93.4466 67.6158 88.9312 60.3306C86.8073 60.7038 84.2486 61.5245 81.4785 62.6692" fill="#DAE34C"/>
<path d="M35.3858 50.6817C35.0039 50.6055 34.6579 50.5341 34.3267 50.4579C34.3369 50.46 34.1465 50.5238 34.1028 50.538C31.8198 51.2847 29.3983 51.768 26.987 51.7045C24.3906 54.3828 22.7723 55.5946 19.7727 55.155C19.7946 55.1932 19.8182 55.2278 19.8419 55.2678C26.9088 55.8703 31.6935 53.6973 35.3858 50.6817ZM49.2178 25.4587H25.9094C29.3855 26.9693 32.6832 29.195 35.1911 32.3873C39.0385 29.5936 42.2872 26.1685 49.0244 25.4587H49.2178ZM0.0283911 25.4587H0C0.00727977 25.4587 0.0145595 25.4606 0.0164523 25.4643C0.0200922 25.4675 0.0218393 25.4675 0.0254792 25.4675H0.0291191C0.0331014 25.4699 0.0374188 25.4717 0.0419315 25.4729C2.80999 26.6867 4.74641 29.3001 6.35713 31.7496C8.84317 35.5406 10.9143 39.6062 13.0854 43.5756C13.2145 43.8141 13.3456 44.0524 13.4785 44.2909C17.2948 48.3731 21.7902 51.536 26.9861 51.7054C27.7413 50.8699 28.4421 49.9818 29.0917 49.0646C18.8753 45.927 12.3803 37.1816 8.55111 31.9163C6.56788 29.1876 3.63281 26.5938 0.317107 25.5604C0.216937 25.5257 0.124338 25.493 0.0276631 25.4602L0.0283911 25.4587ZM42.8837 42.6907C47.4219 37.5 60.6436 29.2638 69.5535 32.3572C69.0675 31.944 68.3068 31.3107 67.8792 30.9813C66.3213 30.6045 64.4286 30.3461 62.1264 30.3461C57.3509 30.3461 50.8391 31.4745 42.0226 35.0543C40.4793 35.6768 39.0634 36.2101 37.7457 36.6469C38.3008 37.899 38.7503 39.2586 39.0779 40.7291C39.0797 40.7308 39.0852 40.7308 39.0852 40.7308C40.3147 41.4528 41.5896 42.0933 42.8837 42.6907Z" fill="#E24D25"/>
<path d="M26.9853 51.706C21.789 51.5357 17.3003 48.3762 13.4798 44.2908C13.3809 44.1069 13.2802 43.9239 13.1777 43.7419C13.2342 43.8439 13.2906 43.9439 13.3471 44.0494C15.4072 47.7968 17.5475 51.593 19.8042 55.2184C19.8079 55.2184 19.8079 55.2184 19.8098 55.222C19.7988 55.1965 19.7825 55.1783 19.7734 55.1528C23.3979 55.8516 25.0329 53.873 26.9853 51.706Z" fill="#F26D20"/>
<path d="M57.0691 62.6217L57.1801 62.5708C55.2638 62.2341 53.7787 61.4006 52.5048 60.3012C52.4902 60.3012 52.472 60.3067 52.4502 60.3121H52.4447C47.3762 61.2549 42.5823 62.0648 38.5876 62.0648C37.7305 62.0648 36.9115 62.032 36.1343 61.9447C30.1486 61.3223 24.4011 58.2538 21.4743 56.4357C21.0193 56.2082 20.5571 55.9515 20.1094 55.6931C20.1494 55.755 20.286 55.9734 20.3241 56.0335C20.326 56.0408 20.3278 56.0408 20.3314 56.0427C27.0652 61.6954 37.4403 64.7403 46.2066 64.7403C50.3779 64.7403 54.1852 64.0523 57.068 62.6219" fill="#7CBE42"/>
<path d="M29.5924 48.3441C29.4267 48.5843 29.2648 48.8265 29.0938 49.063C30.1885 49.399 31.304 49.6629 32.4333 49.8529L32.5735 49.8801V49.8765C31.5143 49.4361 30.5606 48.861 29.6871 48.1949L29.5924 48.3441V48.3441ZM37.4677 36.0407C36.8407 34.7446 36.0774 33.5189 35.1907 32.3845C33.8439 33.3636 32.4226 34.2572 30.7556 34.9324C32.1443 35.7315 33.4693 36.6231 34.7069 37.5386C35.3562 37.3741 36.0012 37.1933 36.6414 36.9963C37.0019 36.8889 37.3694 36.7688 37.7462 36.6451C37.6552 36.4394 37.5606 36.2411 37.4677 36.0409" fill="#C81B21"/>
</svg>
