<svg width="100" height="100" viewBox="0 0 100 100" fill="none" xmlns="http://www.w3.org/2000/svg">
<path fill-rule="evenodd" clip-rule="evenodd" d="M50.0001 0C77.6094 0 100 22.3899 100 49.9996C100 77.61 77.6094 100 50.0001 100C22.3905 100 0 77.61 0 49.9996C0 22.3899 22.3905 0 50.0001 0Z" fill="#F8DA55"/>
<path fill-rule="evenodd" clip-rule="evenodd" d="M49.9999 0C77.6098 0 100 22.3903 100 50C100 77.6096 77.6098 99.9998 49.9999 99.9998C22.3901 99.9998 0 77.6096 0 50C0 22.3903 22.3901 0 49.9999 0ZM49.9999 4.09016C75.3516 4.09016 95.9107 24.6492 95.9107 50C95.9107 75.3516 75.3516 95.9106 49.9999 95.9106C24.6498 95.9106 4.09019 75.3516 4.09019 50C4.09019 24.6492 24.6498 4.09016 49.9999 4.09016Z" fill="#E03538"/>
<path fill-rule="evenodd" clip-rule="evenodd" d="M42.3929 47.6964C42.3612 47.7196 42.353 47.734 42.2791 47.734C42.205 47.734 42.0879 47.6205 42.0879 47.5428C42.0879 47.4652 42.1067 47.4483 42.1374 47.4144L52.1012 29.8587C53.2405 27.8501 55.053 27.0447 57.3314 27.0401L74.7983 26.9385L76.0278 26.9395L76.0409 26.9393L76.099 26.9395C78.2989 26.9409 80.0022 26.3589 81.6575 24.8425L81.6585 24.8435C81.6815 24.8239 81.7096 24.811 81.7415 24.811C81.8111 24.811 81.8658 24.8667 81.8658 24.9361C81.8658 24.9583 81.8608 24.9789 81.8511 24.9963L81.8382 25.0129L81.8367 25.0141L71.6827 38.1899C70.9425 39.1505 68.8839 40.1238 67.0597 40.1238H53.1594C51.5717 40.1238 50.0669 40.5954 48.8975 41.6774L42.3941 47.6974L42.3929 47.6964Z" fill="#0C9050"/>
<path fill-rule="evenodd" clip-rule="evenodd" d="M81.3618 62.3388C79.7064 63.8552 78.0031 64.4367 75.8032 64.4355C66.3809 64.4272 56.5257 64.4181 47.1351 64.4109H47.1077C46.1424 64.4109 45.3604 63.6287 45.3604 62.6633C45.3604 61.718 46.1107 60.9476 47.0485 60.9169L47.0632 60.9161H47.1077H47.1599C51.7741 60.9007 59.1038 60.9161 64.2626 60.9161C65.7889 60.8355 67.0925 60.4305 68.0408 59.0968L81.3705 41.8014L81.3703 41.8012L81.4317 41.7212L81.4325 41.7208L81.447 41.7017C81.4561 41.6849 81.4608 41.6645 81.4608 41.6431C81.4608 41.5737 81.4062 41.5181 81.3366 41.5181C81.3051 41.5181 81.2766 41.5309 81.2536 41.5506L81.2528 41.5496C79.5974 43.0659 77.8941 43.6479 75.694 43.6465H75.6603H75.653L75.3397 43.6461L75.2511 43.6465C68.8511 43.6465 60.0243 43.6465 53.6245 43.6465C51.6346 43.6465 49.6987 44.3051 48.3969 46.0579C47.9644 46.6075 47.5205 47.136 47.1967 47.7082L39.6491 61.0326L39.6467 61.0356C38.3786 63.2669 35.9803 64.772 33.2301 64.772C29.1566 64.772 25.8543 61.4699 25.8543 57.3963C25.8543 53.3227 29.1566 50.0203 33.2301 50.0203C33.6324 50.0203 34.0269 50.0532 34.4114 50.1152C34.5198 50.0839 34.5989 49.9852 34.5989 49.8668C34.5989 49.8129 34.5826 49.7621 34.5543 49.7201L30.3447 44.2528C29.3338 42.9399 27.7837 42.3092 26.1815 42.9243L26.1789 42.9203L26.1337 42.9433C25.8671 43.0503 25.6075 43.1926 25.3551 43.3725C20.5018 46.2126 17.1426 51.2831 17.1426 57.3129C17.1426 66.3573 24.1765 73.4894 33.2206 73.4894L33.3928 73.4882C33.5384 73.5031 33.6805 73.5199 33.828 73.534H72.6961H72.7123H72.7149C72.9547 73.534 73.1689 73.4175 73.3007 73.2381L73.3066 73.2356L81.5409 62.5104L81.5451 62.5076C81.5613 62.488 81.57 62.4614 81.57 62.4323C81.57 62.363 81.5153 62.3073 81.4458 62.3073C81.4141 62.3073 81.3857 62.3202 81.3628 62.3396L81.3618 62.3388Z" fill="#0C9050"/>
</svg>
