<svg width="100" height="100" viewBox="0 0 100 100" fill="none" xmlns="http://www.w3.org/2000/svg">
<path d="M0 25C0 11.1929 11.1929 0 25 0H75C88.8072 0 100 11.1929 100 25V75C100 88.8072 88.8072 100 75 100H25C11.1929 100 0 88.8072 0 75V25Z" fill="#12470D"/>
<path d="M36.3811 34.193C55.3949 31.2239 75.6622 33.4412 94.3645 37.4137C92.452 37.3685 90.547 37.143 88.6344 37.0904C80.3528 36.707 72.0216 37.149 63.8497 38.5789C62.7145 38.7608 61.6154 39.1097 60.5088 39.4104C57.3949 40.308 54.2901 41.3109 51.3942 42.7814C49.9733 43.5392 48.5344 44.3947 47.5421 45.6923C47.2504 46.1133 46.8745 46.617 47.0459 47.1582C47.2925 47.7552 47.939 48.0288 48.5013 48.2483C50.28 48.8678 52.176 49.0212 54.039 49.1971C59.9269 49.785 65.8103 50.4059 71.6863 51.1066C75.7594 51.6163 79.8416 52.0944 83.8741 52.8778C84.7688 53.0928 85.7295 53.2026 86.5144 53.7243C84.4545 54.0867 82.3601 54.2385 80.2836 54.4896C70.9044 55.482 61.4966 56.1706 52.0873 56.7856C51.1792 56.8803 50.2244 57.0036 49.4396 57.5073C48.8938 57.8486 48.572 58.5853 48.8441 59.1988C49.1013 59.7656 49.641 60.1385 50.1718 60.4302C51.5024 61.1369 52.9789 61.4992 54.4389 61.8375C57.5287 62.5036 60.6742 62.8675 63.8166 63.1727C67.9815 63.5696 72.1614 63.7907 76.3398 63.9891C75.9248 64.4387 75.3159 64.6086 74.7535 64.7935C73.0665 65.2837 71.3209 65.5258 69.5843 65.7618C64.7233 66.3678 59.8307 66.6775 54.9411 66.9496C51.3822 67.0338 47.8157 67.0353 44.2628 66.7722C41.7579 66.5647 39.2334 66.279 36.8337 65.4972C35.098 64.8999 32.7602 63.7342 33.0462 61.5293C33.341 59.1103 35.2908 57.4983 37.3825 56.6006C29.1054 56.321 20.8192 56.0819 12.5692 55.3151C10.8596 55.1422 9.14709 54.9572 7.4661 54.5934C6.81205 54.4265 6.06328 54.2972 5.63477 53.7168C6.38805 53.0597 7.38792 52.8492 8.32765 52.6072C10.5078 52.0974 12.7226 51.7667 14.9358 51.4449C19.8013 50.7578 24.6909 50.2541 29.576 49.7414C26.9914 48.7009 24.3737 47.683 22.0071 46.1884C20.4782 45.197 17.8692 43.3169 18.9338 41.1545C19.3909 40.1983 20.2689 39.5397 21.141 38.9834C25.6449 36.2364 31.2892 35.2053 36.3811 34.193Z" fill="white"/>
</svg>
