<svg width="100" height="100" viewBox="0 0 100 100" fill="none" xmlns="http://www.w3.org/2000/svg">
<path d="M27.6068 28.9934C27.6068 46.0667 46.3668 58.28 35.9335 74.8134C28.4135 86.7334 12.6001 72.0667 21.7668 62.8334C23.0601 61.5334 25.1868 59.8933 27.1668 59.7333C26.6201 58.2133 22.8401 47.96 22.5868 46.8733C15.0068 47.04 -4.07987 65.1667 12.2135 86.02C15.1068 89.72 21.0735 93.0867 27.6001 93.0867C54.2801 93.0867 50.6068 60.6067 72.5068 60.6067C81.2335 60.6067 85.6735 72.46 76.4268 78.6934C71.2801 81.6734 67.6468 78.0134 65.0935 76.3L55.9401 86.1133C59.6201 91.6067 78.8801 100.513 91.0401 83.72C97.6668 74.5667 96.2001 62.5134 88.6735 53.1667C78.8001 40.9 57.3268 51.0067 44.7668 38C37.5801 30.56 42.0535 19.8467 50.4935 19.8467C55.3201 19.8467 60.6001 25.3467 59.2001 31.3867C59.0401 32.08 58.8401 32.3867 58.7735 33.14C61.0935 33.72 70.1735 36.1933 71.8535 36.1933C78.8868 0.633348 29.8268 -5.57999 27.6068 29V28.9934Z" fill="#009846"/>
</svg>
