<svg width="100" height="100" viewBox="0 0 100 100" fill="none" xmlns="http://www.w3.org/2000/svg">
<path d="M34.5457 68.0286C34.5457 67.413 34.6513 66.7094 34.8741 65.9648L5.0957 71.3647C5.17779 72.4669 5.31264 73.5282 5.49439 74.5542L34.6689 69.2657C34.5868 68.8201 34.5457 68.4039 34.5457 68.0286Z" fill="#CD2586"/>
<path d="M48.3767 100C53.9583 100 60.2259 99.2905 66.3059 98.1883L95.5448 92.8822V75.4456L14.3828 90.1618C23.1305 97.5844 36.5627 100 48.3767 100Z" fill="#009989"/>
<path d="M50.5814 79.3151C42.1855 79.3151 37.7707 75.7915 35.8241 72.3557L6.2334 77.7204C7.35324 81.5079 9.18837 84.6974 11.5453 87.3768L59.3525 78.7112C57.1128 79.0689 54.2399 79.3151 50.5814 79.3151Z" fill="#F7A807"/>
<path d="M5.00195 68.0755L37.0376 62.2652C39.4473 59.6268 43.8328 57.3696 51.2144 57.3696C55.5355 57.3696 58.6546 57.6158 60.8884 57.9442L95.5448 51.6648V40.6365L7.82208 56.5429C6.11593 59.7793 5.08404 63.5903 5.00195 68.0755Z" fill="#70B62E"/>
<path d="M46.8109 39.1885C37.1369 39.1885 19.2018 41.7096 10.2959 52.7907L66.2996 42.6301C66.3055 42.6359 60.0144 39.1885 46.8109 39.1885Z" fill="#00873B"/>
<path d="M74.3496 4.77832L10.1494 16.4223L21.0253 32.2936C26.689 28.8402 38.0047 23.8273 47.7549 23.8273C57.5051 23.8273 66.3056 29.1568 66.3056 36.6791V42.636L94.5889 37.5117L95.5211 37.3416C95.1224 22.1329 87.4184 10.7703 74.3496 4.77832Z" fill="#A61A80"/>
<path d="M49.9538 0C21.9696 0 8.13867 13.4791 8.13867 13.4791L68.44 2.54456C62.958 0.885317 56.7667 0 49.9538 0Z" fill="#E64314"/>
<path d="M66.2998 77.4509L95.5388 72.1507V61.5327L66.2998 66.8329V77.4509Z" fill="#169CD8"/>
<path d="M66.2998 63.5259L95.5388 58.2257V54.9658L66.2998 60.266V63.5259Z" fill="#8E7A3B"/>
</svg>
