<svg width="100" height="100" viewBox="0 0 100 100" fill="none" xmlns="http://www.w3.org/2000/svg">
<path d="M7.60645 65.9998C12.2204 61.3476 17.8443 57.6126 26.9169 57.8622C38.4926 58.1806 47.6796 62.1321 57.8409 64.5746C55.8781 64.9871 54.3803 65.511 51.0094 65.5401C42.4674 65.6137 33.013 60.1943 24.0932 60.3908C17.281 60.2669 12.5435 63.2843 7.60645 65.9998Z" fill="#151398" stroke="black" stroke-width="0.321136"/>
<path d="M5.3877 60.5924C11.142 55.0366 18.1558 50.5762 29.4708 50.8742C43.9075 51.2545 55.3651 55.9735 68.0378 58.8903C65.5898 59.3829 63.722 60.0086 59.5179 60.0433C48.8647 60.1312 37.0735 53.6593 25.9492 53.894C17.4534 53.7459 11.5449 57.3495 5.3877 60.5924Z" fill="#0398F9"/>
<path d="M2.56055 55.9442C9.8391 48.6684 18.7108 42.8269 33.023 43.2172C51.2838 43.7152 65.7764 49.8952 81.806 53.7152C78.7096 54.3603 76.3469 55.1797 71.0292 55.2251C57.5541 55.3402 42.6396 46.8646 28.5686 47.1719C17.8223 46.978 10.3487 51.6973 2.56055 55.9442Z" fill="#8CD701"/>
<path d="M0 51.0458C9.18483 41.886 20.3801 34.5319 38.4406 35.0233C61.484 35.6502 79.7722 43.4305 100 48.2396C96.0926 49.0518 93.1112 50.0834 86.4008 50.1406C69.3965 50.2855 50.5759 39.6152 32.8196 40.002C19.2588 39.7579 9.82793 45.6992 0 51.0458Z" fill="#E40098"/>
</svg>
