<svg width="100" height="100" viewBox="0 0 100 100" fill="none" xmlns="http://www.w3.org/2000/svg">
<path d="M43.238 49.9958C48.5526 42.5274 54.7214 44.0127 61.9917 44.8518C60.0631 42.7907 59.1128 40.1902 59.1128 37.3979C59.1128 30.9656 64.4486 25.7495 71.0335 25.7495C84.7852 25.7495 83.0867 41.3163 77.1217 41.3163C75.7825 41.3163 74.7065 40.3762 74.416 39.2611C74.1765 38.3414 74.4075 37.2603 74.0899 36.3881C73.6432 35.172 72.4084 34.2794 71.0276 34.2794C70.1785 34.2776 69.3622 34.6066 68.7516 35.1966C66.8994 36.9817 68.0553 40.5554 69.2629 42.383C70.9444 44.918 73.8946 46.5537 77.2797 46.5206L77.8317 46.5036C87.2599 45.4429 90.0343 37.4166 87.6403 30.1333C86.6009 26.9699 82.9729 22.3142 78.8864 20.3635C86.4115 16.0085 88.7214 5.96178 88.4547 0L7.52344 49.9975L88.4556 100C88.7214 94.0348 86.4115 83.9898 78.8864 79.6365C82.9729 77.6832 86.6009 73.0276 87.6403 69.8633C90.0343 62.58 87.2599 54.5537 77.8317 53.4904L77.2797 53.4735C73.8946 53.4395 70.9444 55.076 69.2629 57.611C68.0561 59.4386 66.8994 63.0123 68.7508 64.7983C69.3614 65.3887 70.1782 65.7177 71.0276 65.7155C72.4093 65.7155 73.6432 64.8255 74.0899 63.6059C74.4075 62.7338 74.1765 61.6552 74.416 60.7329C74.7065 59.6178 75.7825 58.6777 77.1217 58.6777C83.0867 58.6777 84.7852 74.2446 71.0335 74.2446C64.4486 74.2446 59.1128 69.0284 59.1128 62.5962C59.1128 59.8038 60.0631 57.2034 61.9917 55.1423C54.7214 55.9839 48.5526 57.4701 43.238 49.9958" fill="#9B804D"/>
</svg>
