<svg width="100" height="100" viewBox="0 0 100 100" fill="none" xmlns="http://www.w3.org/2000/svg">
<path d="M100 50C100 77.6142 77.6142 100 50 100C22.3858 100 0 77.6142 0 50C0 22.3858 22.3858 0 50 0C77.6142 0 100 22.3858 100 50Z" fill="url(#paint0_linear_526_1927)"/>
<path fill-rule="evenodd" clip-rule="evenodd" d="M32.4117 54.7323H44.0685C44.9041 54.7323 45.5814 55.4097 45.5814 56.2452C45.5814 57.0808 44.9041 57.7581 44.0685 57.7581H32.6279C30.1212 57.7581 28.0892 55.7261 28.0892 53.2194V49.4526C28.0892 46.281 30.6603 43.7098 33.832 43.7098H43.9746C46.3021 43.7098 48.189 45.5967 48.189 47.9243C48.189 50.2519 46.3021 52.1388 43.9746 52.1388H31.115V53.4356C31.115 54.1517 31.6956 54.7323 32.4117 54.7323ZM44.9471 47.9243C44.9471 48.5808 44.4149 49.113 43.7584 49.113H31.115V47.9931C31.115 47.2986 31.678 46.7356 32.3725 46.7356H43.7584C44.4149 46.7356 44.9471 47.2678 44.9471 47.9243Z" fill="white"/>
<path fill-rule="evenodd" clip-rule="evenodd" d="M64.6147 46.7356H52.9579C52.1224 46.7356 51.445 46.0583 51.445 45.2227C51.445 44.3872 52.1224 43.7098 52.9579 43.7098H64.3986C66.9052 43.7098 68.9372 45.7419 68.9372 48.2485V52.0153C68.9372 55.187 66.3661 57.7581 63.1944 57.7581H53.0519C50.7243 57.7581 48.8374 55.8712 48.8374 53.5436C48.8374 51.216 50.7243 49.3291 53.0519 49.3291H65.9115V48.0324C65.9115 47.3162 65.3309 46.7356 64.6147 46.7356ZM52.0793 53.5436C52.0793 52.8871 52.6115 52.3549 53.268 52.3549H65.9115V53.4749C65.9115 54.1693 65.3485 54.7323 64.654 54.7323H53.268C52.6115 54.7323 52.0793 54.2001 52.0793 53.5436Z" fill="white"/>
<path d="M9.28613 45.0066C9.28613 44.1711 9.96348 43.4937 10.799 43.4937C11.6346 43.4937 12.3119 44.1711 12.3119 45.0066V52.8592C12.3119 53.8937 13.1505 54.7323 14.185 54.7323L25.2795 54.7323C26.1151 54.7323 26.7924 55.4097 26.7924 56.2452C26.7924 57.0808 26.1151 57.7581 25.2795 57.7581H13.6447C11.2375 57.7581 9.28613 55.8067 9.28613 53.3995V45.0066Z" fill="white"/>
<path d="M93.8082 43.7885C94.4666 44.303 94.5834 45.2537 94.069 45.9122L86.3149 55.8367C85.3675 57.0494 83.9143 57.7581 82.3755 57.7581C80.8366 57.7581 79.3834 57.0494 78.436 55.8367L70.6821 45.9122C70.1677 45.2537 70.2844 44.303 70.9429 43.7886C71.6013 43.2741 72.5521 43.3909 73.0665 44.0493L80.2884 53.2929C81.3488 54.6502 83.4023 54.6502 84.4627 53.2929L91.6846 44.0493C92.1991 43.3909 93.1498 43.2741 93.8082 43.7885Z" fill="white"/>
<defs>
<linearGradient id="paint0_linear_526_1927" x1="50" y1="0" x2="50" y2="100" gradientUnits="userSpaceOnUse">
<stop stop-color="#664495"/>
<stop offset="0.485577" stop-color="#BF4678"/>
<stop offset="1" stop-color="#DE754B"/>
</linearGradient>
</defs>
</svg>
