<svg width="100" height="100" viewBox="0 0 100 100" fill="none" xmlns="http://www.w3.org/2000/svg">
<path d="M72.7969 10.3857C72.7969 10.3857 58.4691 1.36634 39.6317 6.67147C39.6317 6.67147 14.2838 13.966 5.52586 34.3927C5.52586 34.3927 -6.2671 53.3657 4.60294 74.3265C4.60294 74.3265 11.1182 89.0076 28.4841 93.1671C28.4841 93.1671 50.6905 99.1419 66.9657 86.8165C66.9657 86.8165 91.5391 73.8505 92.1635 46.4681C92.1635 46.4681 94.545 22.3239 72.7969 10.3857V10.3857ZM84.727 58.14C80.2189 70.3444 60.06 83.8783 60.06 83.8783C23.976 101.92 9.89356 75.7625 9.89356 75.7625C1.93908 58.7806 11.6716 42.5876 11.6716 42.5876C20.9588 24.2794 38.5652 17.0187 38.5652 17.0187C63.2402 6.40686 77.3049 18.3466 77.3049 18.3466C97.204 33.2052 84.727 58.14 84.727 58.14" fill="#EC2227"/>
<path d="M33.2409 32.0728C33.2409 32.0728 23.5487 54.7358 23.4131 56.1024C23.4131 56.1024 19.9942 66.7514 21.6351 77.1277L38.8106 77.6327C38.8106 77.6327 34.0589 75.3497 37.06 63.1985C37.06 63.1985 39.1107 55.962 40.6113 55.4167C40.6113 55.4167 41.0195 54.7358 41.2954 55.962C41.2954 55.962 44.7031 68.2471 53.858 77.5359C53.858 77.5359 59.5842 85.4533 73.7845 90.9117C73.7845 90.9117 86.2099 94.1935 93.5835 88.0526C93.5835 88.0526 99.8648 84.2303 99.9972 73.1634C99.9972 73.1634 100.104 72.042 99.0452 72.8955C99.0452 72.8955 94.4 78.0797 82.5263 77.1277C82.5263 77.1277 78.9799 77.8086 69.1522 70.3027L48.2592 53.1013C48.2592 53.1013 47.3056 52.4172 48.6674 52.2768C48.6674 52.2768 60.8169 50.0938 64.3714 47.225C64.3714 47.225 75.2996 41.8553 76.7904 33.8508C76.7904 33.8508 79.0541 25.0783 75.5609 19.9249C75.5609 19.9249 74.3347 19.1036 73.9265 20.0604C73.9265 20.0604 67.6791 26.5046 62.29 29.9623L46.2068 40.4016C46.2068 40.4016 44.9725 41.2212 45.9374 39.3109L50.5777 27.0226C50.5777 27.0226 53.1722 22.7904 46.0745 23.3374C46.0745 23.3374 35.3755 24.4168 29.4621 31.7049C29.4621 31.7049 29.0039 31.9372 29.8251 32.2099L33.2409 32.0728V32.0728Z" fill="#EC2227"/>
</svg>
