<svg width="100" height="100" viewBox="0 0 100 100" fill="none" xmlns="http://www.w3.org/2000/svg">
<path d="M23.3162 41.8727L8.88643 59.1783C8.88643 59.1783 5.6859 62.6024 9.78882 66.7053L11.7454 68.1348L17.6152 61.662L18.8549 62.9017L13.2845 69.0751L17.9483 73.0642L14.752 77.2388C14.752 77.2388 12.0153 80.6586 14.0899 83.6356L6.47023 93.271C6.47023 93.271 6.24672 94.1776 7.22502 93.874L16.9531 85.7356C20.4826 86.7434 23.8602 83.0369 23.8602 83.0369L29.8059 76.4924V84.4663H41.3936L53.9595 93.8698L56.7426 94.3969L31.6612 75.4846C31.5713 75.4151 31.4958 75.3286 31.4393 75.2299C31.3827 75.1313 31.3462 75.0225 31.3317 74.9097C31.3172 74.7969 31.3251 74.6824 31.3549 74.5727C31.3846 74.463 31.4357 74.3602 31.5052 74.2702C31.5747 74.1802 31.6613 74.1048 31.7599 74.0482C31.8585 73.9917 31.9673 73.9551 32.0801 73.9407C32.1929 73.9262 32.3074 73.934 32.4171 73.9638C32.5269 73.9936 32.6297 74.0447 32.7196 74.1142L41.1616 80.4773L36.6581 41.8643" fill="#1A3B73"/>
<path d="M29.8057 86.5706V93.8698H35.1483V91.9174C35.1483 91.9174 37.7037 94.1776 41.3217 94.1776H46.3607V91.5379C46.3607 91.5379 40.7946 90.9349 40.7946 86.5706H29.8057Z" fill="#B01842"/>
<path d="M36.658 41.8685L35.9749 35.9988L34.4738 24.8623C34.4738 24.8623 33.8708 21.6997 29.81 21.6997H10.6954C10.6954 21.6997 7.68457 24.0274 7.68457 31.2591H11.1465C11.1465 31.2591 11.4881 34.7591 14.6465 34.7591H21.1572C21.1572 34.7591 23.3204 34.738 23.3204 36.9223V41.8728L36.658 41.8685ZM17.9524 73.0643C18.8533 73.8784 20.0406 74.3014 21.2533 74.2401C22.466 74.1788 23.6047 73.6383 24.4189 72.7375C25.233 71.8366 25.656 70.6492 25.5947 69.4366C25.5334 68.2239 24.9929 67.0852 24.092 66.271L17.9524 73.0643ZM47.3602 59.988L40.5628 60.7597L39.5381 52.0352L46.3313 51.2677L50.2656 55.2399L47.3602 59.988ZM48.6758 71.1245L41.8742 71.892L40.8453 63.1675L47.647 62.4L51.577 66.3764L48.6758 71.1245ZM48.2289 45.5329L46.0741 49.075L39.2767 49.8467L38.3996 42.3914C38.3996 42.3956 43.0971 42.2734 48.2289 45.5329ZM43.0465 81.8309L42.1609 74.3124L48.9584 73.545L51.8975 76.522C51.8975 76.5178 48.5915 80.2496 43.0465 81.8309ZM57.3835 64.5927L53.698 65.0102L49.768 61.0338L52.6691 56.2857L56.3715 55.8682C56.3757 55.8682 57.9485 59.3555 57.3835 64.5927ZM53.4282 74.7046L51.0499 72.3137L53.951 67.5656L56.9829 67.224C56.9745 67.224 56.4263 70.8041 53.4282 74.7046ZM55.3257 53.4605L52.4288 53.7894L48.4987 49.813L50.215 47.0004C50.215 47.0004 53.6559 49.7708 55.3131 53.3846" fill="#27824D"/>
<path d="M35.2033 45.1578L36.0298 43.1843H23.8644L24.6867 45.1578H35.2033ZM33.8033 48.5059L34.6551 46.465H25.2348L26.0866 48.5059H33.8033ZM32.4202 51.8203L33.272 49.7836H26.618L27.4697 51.8203H32.4202ZM28.8191 53.916C27.7428 53.9885 26.6985 54.3128 25.7705 54.8629C24.8425 55.413 24.0567 56.1734 23.4764 57.0828C22.8881 58.001 22.5282 59.0467 22.4269 60.1325C22.3257 61.2183 22.486 62.3125 22.8945 63.3236L28.8191 53.916ZM30.9654 53.916C33.0654 54.072 35.0979 55.1642 36.3081 57.0828C37.5352 59.031 37.6996 61.3418 36.89 63.3236L30.9654 53.916Z" fill="#B01842"/>
<path d="M17.2483 26.14C17.2483 25.5188 17.0015 24.923 16.5622 24.4837C16.1229 24.0444 15.5271 23.7976 14.9059 23.7976C14.2846 23.7976 13.6888 24.0444 13.2495 24.4837C12.8103 24.923 12.5635 25.5188 12.5635 26.14H17.2483Z" fill="#1A3B73"/>
<path d="M11.8669 21.5059C11.8669 21.5059 8.46401 24.1624 8.46401 30.7069H11.5971C11.5971 30.7069 11.9049 34.1309 14.7639 34.1309H21.0848C21.0848 34.1309 23.9775 34.0128 23.9775 37.1543V41.8687L23.3155 41.8729V36.9224C23.3155 34.7381 21.1523 34.7592 21.1523 34.7592H14.6416C11.4832 34.7592 11.1417 31.2593 11.1417 31.2593H7.67969C7.67969 24.0275 10.6905 21.6998 10.6905 21.6998L11.8669 21.5059Z" fill="#1A3B73"/>
<path d="M3.61523 15.83C3.61523 15.83 13.2464 7.10132 24.8341 7.10132C36.426 7.10132 41.0897 14.624 42.1439 17.483C43.1981 20.342 44.1005 21.2486 47.5625 21.2486L35.9748 35.9989L34.4736 24.8624C34.4736 24.8624 33.8706 21.6998 29.8099 21.6998H10.6952L3.61523 15.83Z" fill="#B01842"/>
<path d="M11.1426 30.7068H20.04C20.04 30.7068 21.1532 30.6266 21.6044 29.1255C21.6044 29.1255 21.8321 28.6996 22.1695 28.9104C22.511 29.1255 22.1526 29.6779 22.1526 29.6779C21.7014 31.1832 20.0442 31.2592 20.0442 31.2592H11.6908" fill="#1A3B73"/>
<path d="M36.2029 41.8686C46.7575 41.8686 51.0965 39.2711 52.526 36.703C53.9513 34.135 56.806 34.135 56.806 34.135L65.3661 34.7043C74.4954 34.7043 76.2074 32.1363 78.2062 27.8562C80.2049 23.5762 83.0555 26.7135 83.0555 26.7135L87.3355 28.143C95.3263 30.1417 92.1848 20.1522 91.6197 15.0162C91.0463 9.88013 96.469 5.6001 96.469 5.6001C83.6289 5.6001 78.2062 11.0187 76.4942 13.3041C74.7864 15.5854 71.6449 15.3029 71.6449 15.3029C67.3648 15.3029 67.0823 22.1509 67.0823 22.1509C67.0823 26.7177 60.5168 26.7177 60.5168 26.7177H50.5315C45.9647 26.7177 43.5063 32.4188 42.0811 34.991C40.6558 37.559 36.1438 37.2428 36.1438 37.2428H23.3164V41.8728L36.2029 41.8686Z" fill="#B01842"/>
</svg>
