<svg width="100" height="100" viewBox="0 0 100 100" fill="none" xmlns="http://www.w3.org/2000/svg">
<path fill-rule="evenodd" clip-rule="evenodd" d="M59.2867 10.9273L13.2887 66.2402C12.8218 66.7674 12.6411 67.3849 12.852 67.8669C13.0779 68.4015 13.5522 68.7404 14.1847 68.7404H85.2637C85.8962 68.7404 86.3479 68.1831 86.3479 67.5882C86.3479 66.9707 86.0467 66.5866 85.4444 66.4436C82.8617 65.8637 68.9245 62.8439 58.8651 59.794C52.6682 57.9113 50.2513 52.557 51.8626 45.4329C53.6471 37.5333 61.2218 12.1925 61.267 12.0946C61.4402 11.5674 61.3046 10.9424 60.7776 10.6638C60.1601 10.355 59.6406 10.5131 59.2867 10.9424" fill="#0090B8"/>
<path fill-rule="evenodd" clip-rule="evenodd" d="M50.0866 6.09233C38.4196 6.09632 27.2315 10.7335 18.9817 18.9846C10.7319 27.2356 6.0954 38.4254 6.09141 50.0941C6.30469 61.6232 11.0336 72.608 19.2611 80.6858C27.4886 88.7637 38.5573 93.2894 50.0866 93.2894C61.6159 93.2894 72.6846 88.7637 80.9121 80.6858C89.1396 72.608 93.8685 61.6232 94.0818 50.0941C94.0947 44.3121 92.9655 38.5845 90.7591 33.2401C88.5527 27.8957 85.3126 23.0399 81.2247 18.9514C77.1368 14.8629 72.2816 11.6222 66.9381 9.41548C61.5945 7.20875 55.8677 6.07942 50.0866 6.09233ZM50.0866 0C77.5996 0 100 22.4038 100 50.0941C100 77.5887 77.5996 100 50.0791 100C22.408 100 2.26814e-06 77.5887 2.26814e-06 50.0866C-0.00197766 43.5083 1.29231 36.9941 3.80888 30.9163C6.32545 24.8386 10.015 19.3165 14.6665 14.6656C19.3181 10.0147 24.8405 6.32634 30.9181 3.81122C36.9957 1.29609 43.5093 -0.00395836 50.0866 0Z" fill="#0090B8"/>
</svg>
