<svg width="100" height="100" viewBox="0 0 100 100" fill="none" xmlns="http://www.w3.org/2000/svg">
<path d="M56.4899 55.1995L62.2067 57.5316L64.5446 58.4319L76.4909 63.3538C78.61 65.2876 80.257 67.6807 81.3054 70.348C81.3192 70.4456 81.3642 70.5362 81.4343 70.6058C81.4343 70.7347 81.4348 70.7346 81.5642 70.8636C81.6935 71.1216 81.6928 71.3829 81.822 71.6409C81.9542 71.973 82.0412 72.3219 82.0808 72.6771C82.3829 74.082 82.4272 75.5299 82.2106 76.9505C82.0831 78.2718 81.6871 79.5536 81.0466 80.7171C79.6996 83.5521 77.3522 85.7929 74.4538 87.011C71.5552 88.2291 68.3075 88.3395 65.3327 87.3206H65.2038C65.0744 87.3206 64.9445 87.1917 64.8151 87.1917C64.7982 87.1921 64.7811 87.1892 64.7653 87.1829C64.7495 87.1766 64.7354 87.1666 64.7233 87.1546C64.7113 87.1426 64.7014 87.1284 64.695 87.1126C64.6887 87.0968 64.6858 87.0798 64.6862 87.0628C64.0363 86.8047 63.3861 86.5436 62.8806 86.2855C58.238 83.8376 54.7082 79.7132 53.0114 74.7562L56.7751 75.4046L58.2048 75.6634V73.721L56.7517 72.8148L51.6872 69.4476L51.5583 69.3177L51.6872 68.2825L52.4665 62.4534L52.5964 61.9349L53.7634 54.0345L56.4899 55.1995ZM47.2731 61.9349L47.403 62.4534L48.1823 68.2825L48.3112 69.3177L48.1823 69.4476L43.1179 72.8148L41.9597 73.721V75.6634L43.3884 75.4046L47.111 74.7444C45.4143 79.7015 41.8834 83.825 37.2409 86.2728C36.7354 86.5309 36.0852 86.792 35.4352 87.0501C35.4357 87.0672 35.4328 87.085 35.4265 87.1009C35.4201 87.1165 35.411 87.131 35.3991 87.1429C35.387 87.1549 35.372 87.1639 35.3561 87.1702C35.3403 87.1766 35.3234 87.1804 35.3063 87.18C35.1771 87.18 35.0479 87.3086 34.9186 87.3089H34.7888C31.814 88.3278 28.5672 88.2173 25.6686 86.9993C22.77 85.7812 20.4229 83.5405 19.0759 80.7054C18.4357 79.5456 18.038 78.2681 17.9079 76.9505C17.6913 75.53 17.7357 74.082 18.0378 72.6771C18.0773 72.3219 18.1644 71.973 18.2966 71.6409C18.4258 71.3829 18.426 71.1216 18.5554 70.8636C18.6845 70.7348 18.6843 70.7346 18.6843 70.6058C18.7544 70.5362 18.8003 70.4456 18.8142 70.348C19.8625 67.6807 21.5095 65.2876 23.6286 63.3538L35.3151 58.4319L37.653 57.5316L43.3708 55.1995L46.0964 54.0345L47.2731 61.9349ZM8.44209 13.014C11.758 13.1498 15.0379 13.7561 18.1823 14.8148C18.3116 14.815 18.4408 14.9436 18.57 14.9437C18.8227 15.0727 19.2136 15.2023 19.4724 15.3314C28.9929 18.8217 37.9592 23.6639 46.0935 29.7083C46.5559 29.9642 46.9914 30.2658 47.3933 30.6087C47.264 30.9958 47.2638 31.3858 47.1345 31.6439C47.1345 31.8959 47.0056 32.2861 47.0056 32.5442C46.3777 35.6997 46.0746 38.9113 46.1022 42.1282V44.4485L39.8708 48.722L37.7946 50.2767L22.5837 61.0609C18.3795 60.685 14.3485 59.2114 10.8972 56.7874C6.36357 53.6288 3.13386 48.9354 1.80732 43.5804V43.3226C0.608669 38.2724 0.00254025 33.1002 0.00165621 27.9105C-0.0190752 25.1813 0.154842 22.4538 0.522164 19.7493C0.62553 19.597 0.670896 19.4127 0.65107 19.2298C0.937695 17.4828 1.84228 15.8962 3.1999 14.7562C4.55747 13.6162 6.27889 12.998 8.05341 13.014H8.44209ZM91.945 13.014C93.7195 12.998 95.4409 13.6162 96.7985 14.7562C98.1561 15.8962 99.0607 17.4828 99.3474 19.2298C99.3275 19.4127 99.3729 19.597 99.4763 19.7493C99.8436 22.4538 100.018 25.1813 99.9968 27.9105C99.9959 33.1002 99.3898 38.2724 98.1911 43.3226V43.5804C96.8646 48.9354 93.6349 53.6288 89.1013 56.7874C85.6499 59.2114 81.619 60.685 77.4147 61.0609L62.2038 50.2767L60.1276 48.722L53.8962 44.4485V42.1282C53.9238 38.9113 53.6207 35.6997 52.9929 32.5442C52.9928 32.2861 52.864 31.8959 52.864 31.6439C52.7346 31.3858 52.7345 30.9958 52.6052 30.6087C53.0071 30.2658 53.4425 29.9642 53.905 29.7083C62.0392 23.6639 71.0055 18.8217 80.5261 15.3314C80.7848 15.2023 81.1757 15.0727 81.4284 14.9437C81.5576 14.9436 81.6869 14.815 81.8161 14.8148C84.9605 13.7561 88.2405 13.1498 91.5563 13.014H91.945Z" fill="#BED600"/>
</svg>
