<svg width="100" height="100" viewBox="0 0 100 100" fill="none" xmlns="http://www.w3.org/2000/svg">
<path fill-rule="evenodd" clip-rule="evenodd" d="M98.5265 38.6126H45.8859L45.8756 38.6489C45.5384 38.6229 45.2167 38.6229 44.8795 38.6229C31.993 38.6229 25.9077 47.7483 25.9077 55.7219C25.9077 57.8956 26.2916 60.1523 27.1061 62.2897H16.2636L22.6083 38.6229H10.7905L1.61328 72.8572H13.4311V72.8313H44.8691V72.8572L44.8951 72.8313H45.5799C58.9592 72.5304 63.3273 63.5503 63.8565 55.7219C64.0121 53.5482 63.3533 51.3019 62.1289 49.1542H73.2464L66.8965 72.8572H78.7143L85.0642 49.1542H95.777L98.5265 38.6126ZM51.8519 55.7219C51.7948 56.4742 51.6859 57.2212 51.4576 57.989C50.1244 61.6412 47.5305 62.4194 43.9924 62.2897C41.0302 61.968 39.4064 60.2509 38.6749 58.2691C38.4103 57.4754 38.2443 56.5001 38.2443 55.7219C38.2443 52.8635 40.0601 49.6366 44.0443 49.1542H46.0623C46.2515 49.1769 46.4361 49.2056 46.6161 49.24L43.1209 56.609C41.7305 57.0656 40.1949 57.5584 38.6075 57.9786L38.6801 58.1602L43.3024 58.1498L47.131 62.0407C47.5149 61.5115 47.4682 60.1523 46.7004 59.6024L44.672 58.1498H51.3746L51.5043 57.8126C51.4605 57.8044 51.4066 57.828 51.3532 57.8513C51.3055 57.8722 51.2582 57.8929 51.219 57.8904C51.0089 57.9285 50.9758 57.833 50.9273 57.6927C50.8369 57.4311 50.6926 57.0137 49.2476 57.0137C49.0291 57.0137 49.0305 57.141 49.0322 57.2867C49.034 57.4454 49.036 57.6259 48.7548 57.6881C48.2412 57.7971 47.3282 57.8334 46.991 57.6051C46.8799 57.5275 46.7709 57.3646 46.6426 57.1729C46.2738 56.6218 45.746 55.833 44.5527 56.1525L47.2659 51.8674C47.8123 51.0026 47.3728 50.3732 46.9653 49.7894C46.8358 49.6039 46.7095 49.423 46.6191 49.2406C50.2681 49.9408 52.0348 52.9985 51.8519 55.7219Z" fill="#243973"/>
</svg>
