<svg width="100" height="100" viewBox="0 0 100 100" fill="none" xmlns="http://www.w3.org/2000/svg">
<path d="M10.3853 50.2627L10.0337 51.6137C10.0337 51.6137 14.4678 51.5405 16.2549 51.5405C20.3479 51.5364 22.8401 51.9108 23.1142 54.4033C23.3569 56.0819 22.5785 57.6955 22.1286 59.2805C21.6955 60.8187 21.3021 62.2939 20.8752 63.8118C20.4253 65.4131 19.9398 66.8252 19.084 67.9056C18.1088 69.1326 16.8638 69.9465 15.5894 70.2578C13.8338 70.6871 6.65639 70.4328 4.65801 70.4328C4.4341 70.9964 4.30018 71.6516 4.12022 72.2599C9.93957 72.557 15.5476 72.1663 21.503 72.3474C23.4344 72.4064 25.3511 72.6119 27.0565 72.2599C29.6555 71.7289 31.5346 69.9404 32.3423 67.5557C33.1416 65.2076 33.8657 62.4709 34.5834 59.9784C34.9768 58.6131 35.2279 57.3231 35.8368 56.2325C36.4165 55.1928 37.1823 54.383 38.1658 53.6179C39.9696 52.2201 42.9076 51.044 45.6927 52.3991C47.0654 53.0665 47.8627 54.1754 47.8438 56.2325C47.8272 58.0027 47.2328 59.4596 46.7683 61.1097C45.3809 66.0378 44.1568 70.2252 42.8259 75.0495C42.3886 76.6325 42.0517 78.3295 41.4825 79.6663C40.3777 82.2626 37.9461 84.3868 34.7634 84.8935C32.0954 85.3167 29.0612 84.981 26.2509 84.981H0.627775C0.627775 84.981 0.190429 86.2405 0 86.8977C11.2453 87.0564 22.8359 86.9831 33.7778 86.9831C36.7576 86.9831 39.5176 87.0625 42.1103 86.8102C49.543 86.0858 56.1219 84.0002 61.5521 81.0601C70.5793 76.1727 77.673 69.3503 82.875 60.5888C85.8716 55.5407 90.8811 51.6951 99.1173 51.6951C99.3538 51.0684 99.4731 50.7958 99.6677 50.2627H10.3853V50.2627Z" fill="#0D4689"/>
<path d="M100 49.3489C93.691 49.4893 88.9723 46.7831 88.5203 41.0737C88.4283 39.922 88.5293 38.8457 88.4303 37.8507C88.1206 34.6949 87.4405 32.2084 86.3691 29.7485C82.2572 20.3054 74.1445 15.1047 61.1038 14.0669H20.6068C20.5294 14.775 20.2135 15.2511 20.159 15.9836H46.32C49.1763 15.9836 52.3465 15.595 54.7424 16.2441C56.2888 16.6632 58.1763 18.055 58.057 20.7734C57.9964 22.1671 57.3455 23.6504 56.8915 25.2172C55.638 29.5531 54.5625 33.8484 53.309 38.1986C52.4929 41.0249 51.9133 44.0362 50.1723 46.1259C48.5946 48.0202 45.734 49.8738 42.2876 48.9134C41.0342 48.5635 40.2495 48.1219 39.6908 47.2592C38.339 45.1757 39.582 41.971 40.2286 39.6799C40.5822 38.4225 40.9693 37.2566 41.3021 36.107C41.6222 35.0021 42.1704 33.6755 42.1976 32.361C42.2437 30.3406 40.9568 29.2988 39.6908 28.8756C38.1884 28.3771 36.0205 28.6151 34.0451 28.6151C28.2781 28.6151 22.057 28.5439 16.4845 28.7026C16.3652 29.311 16.1351 29.8136 16.0367 30.4444C21.0546 30.4444 29.1172 29.8156 29.1172 33.9298C29.13 34.8902 28.7824 35.9645 28.4894 36.9778C27.9558 38.8335 27.3971 40.6708 26.8782 42.555C26.6145 43.5092 26.4346 44.494 26.0726 45.3425C25.1184 47.5787 24.1097 49.3489 20.4269 49.3489H10.6191L10.3848 50.2625H99.6672C99.8053 49.8555 99.8806 49.6561 99.9999 49.3489" fill="#0D4689"/>
</svg>
