<svg width="100" height="100" viewBox="0 0 100 100" fill="none" xmlns="http://www.w3.org/2000/svg">
<path d="M0 25C0 11.1929 11.1929 0 25 0H75C88.8072 0 100 11.1929 100 25V75C100 88.8072 88.8072 100 75 100H25C11.1929 100 0 88.8072 0 75V25Z" fill="#141E41"/>
<path fill-rule="evenodd" clip-rule="evenodd" d="M79.3542 66.1288C78.8321 65.2218 78.3923 64.3149 77.8701 63.3805C75.4242 59.423 73.0882 55.3281 70.7797 51.2607C69.1216 48.2407 67.394 45.2553 65.6678 42.2738C65.3284 41.4864 64.8329 40.7759 64.2113 40.1851C63.5616 39.7886 62.7899 39.6421 62.0402 39.7729C60.4462 40.1852 60.034 41.5318 59.2919 42.796C58.0552 44.8297 56.9009 47.0008 55.6367 49.0895C53.9053 51.8378 52.2838 54.9433 50.5524 57.8015C49.4531 59.6154 48.6012 61.6491 47.3645 63.2981C45.6951 65.6255 43.4114 67.4429 40.7686 68.5472C37.2243 69.9963 33.3228 70.3318 29.5832 69.5091C27.681 69.0379 25.8374 68.3558 24.0866 67.4754C20.4087 65.2916 17.5634 61.9443 16.0006 57.9626C14.4378 53.9809 14.2465 49.5919 15.4571 45.4893C16.0221 43.5968 16.8849 41.8063 18.013 40.1851C19.8905 37.6822 22.3159 35.6422 25.1035 34.2214C26.5173 33.5775 27.9898 33.0713 29.5007 32.7099C31.6907 32.2694 34.0314 32.1831 36.2615 32.3251C38.1342 32.6165 40.0648 33.1927 41.703 34.1665V31.8029C40.4906 31.321 39.252 30.9081 37.9929 30.5662C35.8345 30.1151 33.6224 29.9762 31.4245 30.154C29.6099 30.2502 27.7672 30.7908 26.0654 31.3907C21.6624 33.0461 17.9514 36.1467 15.5395 40.1851C14.5205 41.9769 13.7267 43.8877 13.176 45.8741C12.2749 49.7383 12.4364 53.7743 13.6432 57.5542C14.9662 61.3802 17.2254 64.8521 20.4314 67.3655C23.4098 69.6416 26.9016 71.1516 30.6 71.7627C34.1078 72.3643 37.8539 71.8608 41.1534 70.581C42.756 69.908 44.2697 69.0403 45.6605 67.9976C47.3162 66.7414 48.7152 65.0899 49.8379 63.353C52.3651 59.6771 54.4421 55.5591 56.6261 51.6729C58.0552 49.1445 59.3743 46.5336 60.8859 44.0877L62.1226 41.999C62.3425 41.6142 63.0845 41.6967 63.3868 41.999C64.0464 42.796 71.824 57.032 76.3861 64.5073C77.3755 66.1013 78.1725 67.7777 79.1344 69.3442C79.3543 69.674 79.8489 70.6359 80.1237 71.1856H82.5422C82.13 70.526 81.7177 69.5916 81.5528 69.3168C80.9207 68.19 80.2062 67.0357 79.5466 65.9089M91.9963 68.4923C91.3916 67.4754 90.8145 66.4036 90.2373 65.3593C89.3579 63.7927 88.5059 62.2812 87.4891 60.7147C84.0263 54.9983 80.8383 48.9796 77.4304 43.2082C74.0226 37.4369 72.3736 31.9129 65.5854 30.2914C64.0829 30.0014 62.5468 29.9273 61.0233 30.0715C58.4769 30.4001 56.119 31.6403 54.2626 33.3969C52.188 35.8761 50.4081 38.5875 48.9584 41.4768C47.0896 44.4999 45.2483 47.7154 43.4619 50.8484C43.1046 51.453 42.7473 52.0577 42.4175 52.6623C41.5233 54.4252 40.5229 56.1322 39.4219 57.774C38.7896 58.6354 37.9612 59.3339 37.0055 59.8118C35.25 60.6896 33.0722 60.717 31.1771 60.3299C29.7834 59.9757 28.4858 59.316 27.3784 58.3987C25.2201 56.6109 23.9719 53.9846 24.0106 51.1783C24.0472 48.5252 25.2328 45.96 27.2299 44.213C29.285 42.4154 32.043 41.6084 34.7399 42.0705C36.7081 42.4077 38.5048 43.3722 39.8067 44.8847C41.016 46.4512 41.1533 47.3856 41.5656 47.3856V43.538C39.8845 41.9277 37.8606 40.7317 35.6019 40.1302C33.531 39.7503 31.3961 39.9306 29.4183 40.6524C27.3965 41.379 25.6267 42.6725 24.3206 44.3783C23.0144 46.0841 22.2272 48.13 22.0529 50.2713C21.9755 51.7282 22.0956 53.1889 22.4102 54.6135C22.9822 56.4236 24.0033 58.0593 25.3783 59.368C26.2996 60.3057 27.4033 61.0447 28.6213 61.5392C31.2994 62.8734 34.7818 63.0147 37.5498 61.8437C38.7821 61.3223 39.8888 60.5439 40.7961 59.5604C41.5389 58.5625 42.1832 57.4948 42.7199 56.3724C45.4682 51.9477 47.8866 47.2207 50.5799 42.796C51.8166 40.7623 52.806 38.5362 54.1801 36.6674C54.9464 35.6519 55.875 34.7698 56.9284 34.0565C58.5585 33.0797 60.4106 32.5343 62.3099 32.4718C64.2093 32.4093 66.0933 32.8317 67.7841 33.6992C71.082 35.5131 72.4561 39.4156 74.3799 42.6036C78.2 48.8972 81.6902 55.493 85.5103 61.8415C86.8844 64.1225 88.0662 66.4586 89.4129 68.6847C89.7152 69.1519 90.6496 70.9108 90.9794 71.5703H93.3979L91.8314 68.8221M84.9607 66.3761C84.3286 65.3043 83.7789 64.1775 83.1468 63.1057C81.6078 60.6048 80.1237 58.0489 78.6672 55.493C76.606 51.8928 74.4623 48.2925 72.4561 44.6648C71.6041 43.1258 70.7247 41.6142 69.9277 40.1851C69.3818 38.9591 68.5633 37.8737 67.5346 37.0117C65.8132 35.5692 63.9742 35.087 61.7929 35.2108C60.0946 35.2726 58.4069 36.2554 57.2032 37.4094C55.7726 39.2253 54.5381 41.1875 53.5206 43.2632C50.9097 47.523 48.5462 52.0577 45.9628 56.3449C45.1658 57.6091 44.6162 58.9008 43.8741 60.0551C42.9467 61.5648 41.6872 62.843 40.1915 63.7927C38.3883 64.7031 36.4218 65.2449 34.4069 65.3865C32.392 65.528 30.369 65.2665 28.4564 64.6172C26.493 63.8822 24.7163 62.7227 23.253 61.2214C21.7898 59.7201 20.6762 57.9142 19.9917 55.9327C19.3203 53.0156 19.1713 50.0136 20.0192 47.1108C20.6304 45.3183 21.5616 43.6516 22.7675 42.1914C23.4864 41.2983 24.3285 40.5118 25.2684 39.8554C27.6674 38.1302 30.5586 37.2242 33.5132 37.272C34.7257 37.2596 35.9351 37.3981 37.1134 37.6842C38.2815 38.0677 39.4128 38.5552 40.4938 39.1408C40.906 39.3882 41.3182 39.7729 41.7305 40.0752V37.4919C40.9432 37.009 40.1157 36.5952 39.2571 36.2551C36.9191 35.2851 34.3678 35.0948 31.8642 35.2658C30.1318 35.2824 28.5651 35.7987 26.9723 36.4475C24.9071 37.3364 23.0561 38.6571 21.5439 40.321C20.0317 41.9849 18.8933 43.9534 18.2053 46.0939C17.855 47.7453 17.3741 49.3631 17.4633 51.0683C17.4656 53.2955 17.9433 55.528 18.7275 57.6091C19.4866 59.6502 20.6888 61.4976 22.2475 63.0182C23.8062 64.5389 25.6827 65.6951 27.7418 66.4036C30.6954 67.3709 33.6818 67.6488 36.7561 67.283C38.4622 66.9371 40.0976 66.3053 41.5931 65.4142C43.4758 64.1401 45.0374 62.4468 46.1552 60.4673C46.8423 59.3406 47.4194 58.0764 48.1889 56.8396C50.36 53.2669 52.3938 49.5018 54.5649 45.8466C55.4718 44.3625 56.4887 42.1639 57.5605 40.4875C58.0746 39.3592 58.9052 38.4045 59.9515 37.7392C61.8877 36.5133 64.8558 36.7801 66.4924 38.3988C68.024 40.2436 69.2997 42.2865 70.285 44.4724C73.9127 50.5461 77.2381 56.8671 80.9483 62.8858C82.185 64.9195 83.2293 67.0357 84.4385 69.0145C84.6859 69.3992 85.4828 70.9108 85.6752 71.268H87.9838C87.9838 71.0756 87.2417 69.8664 86.3898 68.2724C86.005 67.5579 85.5378 66.8708 85.1256 66.1563" fill="#EDBC4C"/>
<path d="M68.636 58.7634C68.4795 58.2133 68.3601 57.6532 68.2787 57.087C67.784 57.6092 66.6023 58.8184 65.8053 59.5879C65.2007 59.5879 65.0633 59.368 65.1457 58.9558C65.4481 58.0489 66.0526 55.7129 66.3 54.641C65.393 54.9708 65.0358 55.2182 64.3212 54.9158C63.7166 53.7341 63.112 52.6073 62.6173 51.508C61.8203 52.9921 61.6279 53.4318 60.8584 54.8609C60.3362 55.3006 59.5393 54.8609 58.9622 54.7235C59.1545 56.29 60.0064 57.8565 60.0889 59.3955C59.9936 59.5525 59.8034 59.642 59.6217 59.6154C58.4125 58.9833 58.0002 57.829 56.8734 57.1969C56.8734 57.9939 56.8734 58.626 56.3238 58.7909C55.5473 58.8739 54.7642 58.8739 53.9877 58.7909C54.29 59.8627 54.8122 60.0551 54.8122 61.1544C54.3427 61.4833 53.823 61.7339 53.2732 61.8964C53.9052 62.4839 54.5854 63.0172 55.3069 63.4904L56.5162 64.3699C56.9284 64.7272 57.8628 65.1394 58.1101 65.6341C58.3575 66.1288 57.7529 66.7059 57.6705 67.2281C57.7576 67.2281 57.8078 67.2281 57.8903 67.2281C58.2859 67.1062 58.6901 67.0144 59.0995 66.9533C60.2263 66.7334 62.0402 66.4036 62.1226 66.7059C62.1226 67.6678 62.1226 69.4542 61.9027 71.1581H63.002C63.002 69.674 63.002 68.1625 62.8371 66.6784C62.8371 66.5135 63.3319 66.6784 63.6617 66.6784L67.2619 67.283V67.0632C67.0994 66.8663 66.9809 66.6369 66.9146 66.3904C66.8482 66.1438 66.8354 65.886 66.8771 65.6341C67.257 65.2144 67.6809 64.8366 68.1413 64.5073C68.6635 64.0951 69.2406 63.7378 69.7902 63.353C69.7902 63.353 71.027 62.4461 71.824 61.814C71.4118 61.5392 70.5598 61.5392 70.3399 61.0994C70.1328 60.6852 70.8525 59.2954 71.1664 58.7911C70.3254 58.8884 69.4752 58.8792 68.636 58.7634Z" fill="#EDBC4C"/>
</svg>
