<svg width="100" height="100" viewBox="0 0 100 100" fill="none" xmlns="http://www.w3.org/2000/svg">
<path d="M0 25C0 11.1929 11.1929 0 25 0H75C88.8072 0 100 11.1929 100 25V75C100 88.8072 88.8072 100 75 100H25C11.1929 100 0 88.8072 0 75V25Z" fill="#FFE700"/>
<path d="M82.2395 41.3736H85.4478L86.5027 36.4074H92.6269L91.5686 41.3736H95.6147L94.7541 45.4145H90.7105L89.3706 51.7127C89.0711 53.1281 89.375 53.3276 91.0223 53.3276C91.7712 53.3276 92.3863 53.2996 93.2022 53.2714L92.3907 57.0836C91.1118 57.2558 89.469 57.3722 87.6774 57.3722C83.6916 57.3722 82.2531 56.3922 82.972 53.0117L84.5896 45.4145H81.3816L82.2395 41.3736Z" fill="#231F20"/>
<path d="M73.9254 41.3736H80.0476L76.7215 57.0274H70.5993L73.9254 41.3736Z" fill="#231F20"/>
<path d="M75.0913 35.8845H81.2142L80.4275 39.5817H74.305L75.0913 35.8845Z" fill="#231F20"/>
<path d="M57.7062 41.3737L54.3783 57.0277L60.3356 57.0277L63.6642 41.3735L57.7062 41.3737Z" fill="#231F20"/>
<path d="M70.7106 40.6777C67.9769 40.6777 63.6255 43.371 62.4783 48.1666L62.1838 49.2471H62.2866C63.156 47.1658 65.335 46.0517 68.2703 46.0517C69.061 46.0517 69.9604 46.1599 70.6838 46.3226L71.8735 40.7329C71.4841 40.6981 71.0776 40.6777 70.7106 40.6777Z" fill="#231F20"/>
<path d="M49.0643 41.3736H55.1855L51.859 57.0274H45.7368L49.0643 41.3736Z" fill="#231F20"/>
<path d="M50.2288 35.8845H56.352L55.5674 39.5817H49.4438L50.2288 35.8845Z" fill="#231F20"/>
<path d="M33.9302 53.2131C36.7338 53.2131 38.5587 51.827 39.1095 49.2287C39.6623 46.6263 38.4266 45.2429 35.6265 45.2429C32.7667 45.2429 30.933 46.8006 30.4183 49.2287C29.9022 51.6544 31.0715 53.2131 33.9302 53.2131ZM25.9637 41.3735H31.9127L31.4722 43.452H31.5294C33.1674 41.8634 35.5237 40.9688 38.0079 40.9688C43.5528 40.9688 46.5113 44.028 45.3573 49.4588C44.3929 53.9937 40.2614 57.6588 34.5161 57.6588C31.8013 57.6588 29.9138 56.7642 29.1176 55.6103H29.0607L27.5544 62.6869H21.4333L25.9637 41.3735Z" fill="#231F20"/>
<path d="M8.79471 52.1463C8.75965 52.7229 8.89241 53.1852 9.3785 53.4766C9.86052 53.7942 10.6611 53.9644 11.9897 53.9644C13.3466 53.9644 14.8464 53.705 15.0861 52.579C15.2638 51.7419 14.7055 51.5094 13.2414 51.3368L7.92191 50.6727C4.43481 50.239 2.88494 48.969 3.45138 46.3107C4.35107 42.0666 8.27389 40.7383 14.1363 40.7383C18.2957 40.7383 23.3916 41.4876 22.7935 45.9353H15.9214C16.0041 45.2712 15.662 44.8392 15.1051 44.607C14.5537 44.3493 13.7646 44.2601 12.9834 44.2601C11.2218 44.2601 10.0971 44.6649 9.86903 45.7338C9.7652 46.2253 10.0777 46.6573 11.6 46.8316L16.7629 47.4086C20.8804 47.8712 22.6832 49.1705 22.0337 52.2314C21.2474 55.9275 17.3566 57.6585 10.8589 57.6585C6.52523 57.6585 0.826855 56.8824 1.69012 52.1463H8.79471Z" fill="#231F20"/>
<path d="M97.4355 42.6061C97.508 42.6061 97.5658 42.5891 97.6087 42.5551C97.6509 42.521 97.6724 42.4737 97.6724 42.4141C97.6724 42.3586 97.6544 42.3127 97.6179 42.2766C97.5818 42.2402 97.5233 42.2221 97.4423 42.2221H97.2884V42.6061H97.4355ZM96.9684 41.9788H97.4995C97.6404 41.9788 97.7609 42.0108 97.8613 42.0747C97.9614 42.1387 98.0118 42.2456 98.0118 42.3947C98.0118 42.4676 97.9917 42.5357 97.9512 42.5997C97.9103 42.6636 97.8518 42.7127 97.7749 42.747L98.0564 43.2529H97.7173L97.5059 42.8366H97.2884V43.2529H96.9684V41.9788ZM97.461 43.6304C97.5934 43.6304 97.7173 43.6062 97.8324 43.5569C97.9478 43.5079 98.0472 43.4394 98.1302 43.3519C98.2133 43.2645 98.2787 43.1596 98.3253 43.0384C98.3723 42.9166 98.3958 42.7811 98.3958 42.6316C98.3958 42.4822 98.3723 42.3457 98.3253 42.2221C98.2787 42.0982 98.2133 41.9917 98.1302 41.9022C98.0472 41.8123 97.9478 41.7429 97.8324 41.6938C97.7173 41.6448 97.5934 41.6203 97.461 41.6203C97.3245 41.6203 97.1999 41.6448 97.0869 41.6938C96.9735 41.7429 96.8752 41.8123 96.7921 41.9022C96.7091 41.9917 96.644 42.0982 96.597 42.2221C96.5497 42.3457 96.5266 42.4822 96.5266 42.6316C96.5266 42.7811 96.5497 42.9166 96.597 43.0384C96.644 43.1596 96.7091 43.2645 96.7921 43.3519C96.8752 43.4394 96.9735 43.5079 97.0869 43.5569C97.1999 43.6062 97.3245 43.6304 97.461 43.6304ZM97.461 43.9058C97.2905 43.9058 97.1305 43.8748 96.981 43.8129C96.8319 43.7509 96.7005 43.6634 96.5875 43.5504C96.4742 43.4374 96.3857 43.3029 96.322 43.147C96.2577 42.9915 96.2257 42.8196 96.2257 42.6316C96.2257 42.4441 96.2577 42.2712 96.322 42.1132C96.3857 41.9553 96.4742 41.8198 96.5875 41.7068C96.7005 41.5934 96.8319 41.5059 96.981 41.444C97.1305 41.3824 97.2905 41.3514 97.461 41.3514C97.6319 41.3514 97.7919 41.3824 97.9413 41.444C98.0908 41.5059 98.2222 41.5934 98.3352 41.7068C98.4482 41.8198 98.5367 41.9553 98.6007 42.1132C98.6647 42.2712 98.6967 42.4441 98.6967 42.6316C98.6967 42.8196 98.6647 42.9915 98.6007 43.147C98.5367 43.3029 98.4482 43.4374 98.3352 43.5504C98.2222 43.6634 98.0908 43.7509 97.9413 43.8129C97.7919 43.8748 97.6319 43.9058 97.461 43.9058Z" fill="#231F20"/>
</svg>
