<svg width="100" height="100" viewBox="0 0 100 100" fill="none" xmlns="http://www.w3.org/2000/svg">
<path d="M0 25C0 11.1929 11.1929 0 25 0H75C88.8072 0 100 11.1929 100 25V75C100 88.8072 88.8072 100 75 100H25C11.1929 100 0 88.8072 0 75V25Z" fill="#E21F1D"/>
<path d="M35.758 32.2459C28.788 32.7518 23.4855 33.4825 16.1781 34.9814C11.7188 35.8808 9.93877 36.3305 9.86383 36.5553C9.82635 36.6677 12.6181 36.7427 17.2649 36.7427C27.6263 36.7614 33.8282 37.2486 38.5311 38.4477C42.9155 39.5532 45.3887 40.9397 47.4123 43.4317C48.218 44.4248 48.574 44.7058 49.6607 45.1555C51.9841 46.1485 55.6003 48.0972 56.8744 49.0527C59.9847 51.4323 60.247 53.6432 57.6426 55.6106C56.3123 56.6224 53.1645 58.0651 50.1666 59.0582C42.8593 61.4565 35.3458 62.487 22.736 62.8243C17.752 62.9554 17.5459 62.9742 19.7381 63.1053C23.4855 63.3114 26.3897 64.0609 26.933 64.979C27.289 65.5786 26.8393 66.2906 25.7339 66.8527C24.2162 67.6209 21.3307 68.0331 12.6743 68.7076C11.1005 68.8388 9.80762 69.0074 9.80762 69.1198C9.80762 69.2135 10.1074 69.251 10.5196 69.176C10.8943 69.1198 13.6674 69.0261 16.6465 68.9512C22.0053 68.8388 24.4972 68.9137 39.2243 69.7007C55.5441 70.5813 64.3878 69.5695 71.7326 65.9908C75.2926 64.2483 76.9602 62.9554 81.7568 58.29C86.0475 54.1117 87.3216 53.1186 89.4951 52.2942C90.6193 51.8633 90.5069 51.7321 88.2585 50.6266C85.1669 49.1277 82.881 48.6405 78.965 48.6405C75.836 48.6405 75.5175 48.4532 73.981 45.7176C72.5758 43.1881 71.5453 41.8203 69.7653 40.134C65.8868 36.4804 59.891 33.9322 52.5275 32.808C49.7169 32.3958 44.021 31.9648 41.3791 32.0023C40.1424 32.0023 37.613 32.1147 35.758 32.2459Z" fill="white"/>
</svg>
