<svg width="100" height="100" viewBox="0 0 100 100" fill="none" xmlns="http://www.w3.org/2000/svg">
<path d="M0 25C0 11.1929 11.1929 0 25 0H75C88.8072 0 100 11.1929 100 25V75C100 88.8072 88.8072 100 75 100H25C11.1929 100 0 88.8072 0 75V25Z" fill="#0F1248"/>
<path fill-rule="evenodd" clip-rule="evenodd" d="M42.6895 14.527C37.6354 14.527 33.5331 18.7413 33.5331 23.9408C33.5331 29.136 37.6354 33.3501 42.6895 33.3501C47.7444 33.3501 51.8441 29.136 51.8441 23.9408C51.8441 18.7413 47.7444 14.527 42.6895 14.527ZM42.6892 10C50.1771 10 56.2479 16.242 56.2479 23.9408C56.2479 31.636 50.1771 37.8781 42.6892 37.8781C35.2004 37.8781 29.1279 31.636 29.1279 23.9408C29.1279 16.242 35.2004 10 42.6892 10Z" fill="#FFDD00"/>
<path fill-rule="evenodd" clip-rule="evenodd" d="M55.7922 78.6036C54.6465 85.0864 49.1345 90 42.5082 90C35.0498 90 29.0068 83.778 29.0068 76.0992C29.0068 71.4794 31.1979 67.3831 34.5743 64.8525L37.552 68.1326C35.0068 69.8154 33.3182 72.7567 33.3182 76.0992C33.3182 81.3246 37.4339 85.5588 42.5082 85.5588C47.285 85.5588 51.2102 81.8012 51.6552 77.0012L55.7922 78.6036Z" fill="#00A540"/>
<path fill-rule="evenodd" clip-rule="evenodd" d="M38.1834 49.4326C36.037 50.6233 34.3585 52.6824 33.6756 55.2899C32.5173 59.7356 34.651 64.2886 38.535 66.2237C38.7921 66.3511 39.9192 66.8745 40.1932 66.9777C38.696 67.2861 36.5943 68.6925 35.704 69.7446C30.5471 66.6647 27.8502 60.3352 29.468 54.1339C30.3447 50.7672 32.2998 48.0782 34.9039 46.2661L35.027 46.5228L35.8313 47.5643L37.0267 48.7811L38.1834 49.4326Z" fill="#ED1320"/>
<path fill-rule="evenodd" clip-rule="evenodd" d="M49.0366 63.907C47.7511 67.4183 48.584 71.5346 51.4479 74.2159C55.196 77.7204 61.0028 77.443 64.4131 73.5893C65.3412 72.5469 65.9937 71.3449 66.3815 70.077L70.6945 70.8673C70.1524 72.9429 69.1358 74.9127 67.6368 76.6025C62.6047 82.2838 54.0418 82.7007 48.5148 77.5253C44.7734 74.0244 43.384 68.8613 44.4311 64.128L49.0366 63.907Z" fill="#00AAD1"/>
<path fill-rule="evenodd" clip-rule="evenodd" d="M50.1244 35.5931L50.1049 35.6034L50.1116 35.6138C47.9897 37.041 45.453 37.8782 42.7308 37.8782C40.0061 37.8782 37.4508 37.0714 35.3271 35.645C36.2646 34.3313 37.5815 33.2377 39.0517 32.5756C40.1865 33.0878 41.4123 33.339 42.7308 33.339C44.0468 33.339 45.2481 33.0679 46.3795 32.554C47.8734 33.3712 49.0183 34.2785 50.1244 35.5931Z" fill="white"/>
<path fill-rule="evenodd" clip-rule="evenodd" d="M42.7313 27.314C45.4291 27.314 47.9472 28.1251 50.0565 29.5264C49.7118 30.1728 48.7961 31.035 47.9025 31.6763C47.3267 32.0871 46.7644 32.386 46.3665 32.5602L46.3454 32.5498C45.2351 32.0619 44.0136 31.7898 42.7313 31.7898C37.662 31.7898 33.5513 36.0145 33.5513 41.2244C33.5513 46.4343 37.662 50.6588 42.7313 50.6588C47.5054 50.6588 51.4265 46.9109 51.8707 42.1222C53.0948 41.4705 54.8425 40.1204 56.1973 39.8084C56.2436 40.2745 56.2673 40.7477 56.2673 41.2244C56.2673 48.9084 50.2058 55.14 42.7313 55.14C35.2568 55.14 29.1953 48.9084 29.1953 41.2244C29.1953 33.5403 35.2568 27.314 42.7313 27.314Z" fill="#00AAD1"/>
<path fill-rule="evenodd" clip-rule="evenodd" d="M50.3359 46.5059L50.4143 46.388C51.2076 45.141 51.7235 43.6878 51.8694 42.1219C52.2236 41.933 52.5549 41.5741 52.973 41.3064C54.0058 40.66 55.2357 40.0282 56.196 39.8081C56.2448 40.2752 56.266 40.7474 56.266 41.2242C56.2761 44.3602 55.299 47.2772 53.4434 49.7305C52.6451 48.662 51.657 47.5129 50.3359 46.5059Z" fill="white"/>
<path fill-rule="evenodd" clip-rule="evenodd" d="M67.0109 59.498C63.9464 62.6507 59.7785 63.9741 55.7849 63.4714C55.5927 62.1923 55.6467 60.33 55.9814 58.979C58.7912 59.4374 61.7663 58.5587 63.9304 56.3368C67.515 52.6503 67.515 46.6761 63.9304 42.9905C60.3474 39.304 54.5295 39.304 50.9466 42.9905C50.2241 43.7349 49.6466 44.5711 49.2184 45.4645L49.1131 45.6951L47.3055 44.7358L45.5899 44.1707L45.0479 44.0528C45.7063 42.5183 46.6437 41.0806 47.8678 39.8232C53.1528 34.3923 61.7242 34.3923 67.0109 39.8232C72.2968 45.2539 72.2968 54.0681 67.0109 59.498Z" fill="#00A540"/>
<path fill-rule="evenodd" clip-rule="evenodd" d="M51.725 57.753C51.7351 53.5804 49.0282 49.751 44.9191 48.621C42.5645 47.9702 40.1804 48.3237 38.1882 49.4278C37.5492 49.0681 36.0537 48.0777 34.9434 46.2188C38.0812 44.0323 41.3708 43.0054 46.0454 44.2941C50.7218 45.5828 55.206 50.4287 55.9461 55.7824L51.725 57.753Z" fill="#ED1320"/>
<path fill-rule="evenodd" clip-rule="evenodd" d="M66.038 71.0215C67.4838 67.5883 66.7605 63.595 64.12 60.6382C60.5438 56.9985 54.7512 56.9361 51.1599 60.6071C50.2452 61.6391 49.4756 62.7734 49.0262 64.0204L44.7578 63.0248C45.3977 60.9813 46.5063 59.0619 48.0844 57.4396C50.8565 54.6016 54.8069 53.1326 58.5619 53.3692C61.9821 53.5851 65.248 55.2732 67.2276 57.4396C71.3804 61.9979 71.7842 67.5371 70.6587 71.0215H66.038Z" fill="white"/>
<path fill-rule="evenodd" clip-rule="evenodd" d="M51.4953 74.2562C51.1926 72.3827 50.4009 70.8644 49.0183 69.4197C46.5963 66.8902 43.2637 66.0428 40.1933 66.9777L40.1655 66.9673C38.6033 66.3512 36.9982 65.5192 35.7227 64.0521C36.43 63.6102 37.1938 63.2705 37.9533 62.9784C42.6946 61.1517 48.3103 62.2592 52.119 66.2437C54.8345 69.0757 56.191 72.8134 56.0822 76.5302C54.6061 76.2944 52.9655 75.6063 51.4953 74.2562Z" fill="#FFDD00"/>
</svg>
