<svg width="101" height="100" viewBox="0 0 101 100" fill="none" xmlns="http://www.w3.org/2000/svg">
<path fill-rule="evenodd" clip-rule="evenodd" d="M57.863 62.068H39.9856L41.4127 55.9676H52.9054C56.8489 55.9676 58.7643 52.5409 55.9475 50.5828C53.2058 48.6623 51.4031 47.1184 48.6614 45.1603C43.1404 41.2063 45.7319 32.0558 55.0086 31.9805H71.8719L70.4072 38.0055H59.1023C55.9851 37.9679 55.309 41.3946 57.3371 42.6373L64.5857 48.0221C70.5574 52.5786 67.0646 62.068 57.863 62.068ZM78.4069 94.8667C76.6042 98.2181 72.3226 99.6491 68.8673 97.9922C50.5392 89.2559 34.3895 76.9799 20.9814 62.068H37.7321L39.2344 56.0053H28.6432C28.3427 56.0053 28.0423 56.0053 27.7418 55.9676C26.1644 55.7417 25.2254 55.1015 24.6996 54.2731C24.1738 53.4446 24.0236 52.5409 24.1363 51.7878C24.1363 51.5995 24.6996 49.3025 24.7372 49.0765V49.0012L26.3146 42.6749C27.0282 39.7377 29.4694 38.0055 32.6994 37.8926H43.5535L44.9807 31.9052H37.5068L28.1174 35.4449L29.0187 31.9052H27.7042C24.6996 31.8675 22.5964 32.1311 21.0941 32.8089C19.742 33.4491 18.7655 34.4658 18.3148 35.9721L13.9957 53.7459C10.24 48.9636 6.74712 43.9929 3.51717 38.7587C1.52662 35.5202 2.35289 31.0768 5.54528 28.8927C30.2206 12.0226 59.4028 2.49555 89.2611 1.81774C93.1295 1.70477 96.397 4.75494 96.735 8.59589C97.3735 16.3908 97.3735 24.1856 96.8101 31.9805H80.8857L65.7876 61.9174H76.8295L78.5947 57.9258C78.7825 57.5115 78.9703 57.3986 79.4585 57.3986H87.3832C87.5334 57.3986 87.8714 57.4362 87.8714 57.8505L87.9841 61.9174H91.5521C88.4724 73.3649 84.0406 84.4359 78.4069 94.8667ZM87.7588 52.0514L87.3832 39.813C87.3832 39.3988 87.0076 39.3612 86.8198 39.7754L81.2613 52.1643C81.036 52.6539 81.1862 53.1058 81.5993 53.0681H87.1954C87.6461 53.0304 87.7963 52.6539 87.7588 52.0514Z" fill="#EF001E"/>
</svg>
