<svg width="100" height="100" viewBox="0 0 100 100" fill="none" xmlns="http://www.w3.org/2000/svg">
<path d="M39.083 25.9224C39.0351 26.2521 38.4947 26.2833 38.2227 26.437C36.8555 27.2075 36.3969 28.6238 34.8057 29.2661C33.418 29.8265 31.5678 29.8401 30.2178 29.1568C29.838 28.9637 29.5656 28.6357 29.167 28.5025L28.9531 29.0025C30.1696 30.4887 32.295 30.7417 34.083 30.2925C36.333 29.7254 36.8467 28.0597 38.6396 27.021C39.2163 26.6879 41.0988 25.9224 41.708 25.9224H100L92.3721 32.5767C91.9135 32.9303 90.8625 33.6597 90.291 33.6597H35.25L36.458 35.4077H89.085L80.791 42.6441C80.5548 42.8184 79.7952 43.312 79.542 43.312H43.416L44.624 45.0601H77.917L69.625 52.2984C69.4967 52.3838 68.8885 52.7134 68.791 52.7134H48.499L49.791 54.5435H66.916L57.541 62.6968H52.416C52.3767 63.1119 52.5941 63.5648 52.9209 63.8159C52.9773 63.8586 53.4257 64.1109 53.458 64.1118H55.833L35.249 82.0005H35.165C34.1967 81.126 33.1529 80.3228 32.2051 79.4243C27.8161 75.2696 24.3084 70.7829 24.666 64.3218C24.743 62.9261 25.5139 61.614 25.9365 60.2661C27.9933 53.6991 27.1873 47.257 23.6162 41.4058C23.3594 40.9853 21.7568 38.5476 21.4453 38.4927C19.8712 39.9106 17.7921 40.5619 15.8057 39.5542C14.3051 38.7923 13.6562 37.2032 12.6621 35.9527C10.3282 33.016 6.74185 31.2511 4.04004 34.9068L2.08789 32.8804L4.08105 30.7466H0.666992L0 28.0855V28.0034C1.7419 28.1692 2.91769 27.9673 2.75 25.9224H39.083ZM19.9141 29.0845C19.0687 28.5587 17.7771 27.2325 16.7227 27.8501C16.2881 28.1047 16.0421 28.7502 16.3877 29.1568C16.8237 29.2862 17.2102 28.9668 17.624 28.9956C18.2827 29.0435 19.0665 29.7899 19.8672 29.2554L19.9141 29.0845ZM20.6064 22.6118C19.8228 20.2099 21.5327 17.767 24.125 18.0181C25.1977 18.1224 25.961 18.8295 26.9141 19.0601C28.2657 19.3863 29.6463 19.0017 30.832 18.3491V18.3511C31.0014 18.58 30.0333 20.4196 29.8467 20.7359C29.2068 21.8326 28.4882 22.4359 27.1982 22.6665C25.5624 22.9587 23.5327 22.1316 22.1758 23.4761C21.7925 23.8554 21.8423 24.3204 21.418 24.5904C21.382 23.8609 20.8203 23.2713 20.6064 22.6118Z" fill="#0C4CA3"/>
</svg>
