<svg width="100" height="100" viewBox="0 0 100 100" fill="none" xmlns="http://www.w3.org/2000/svg">
<path d="M70.9763 51.1348C71.0617 51.3963 70.9294 51.6304 71.0168 51.8406C71.0168 52.2446 71.0235 52.6332 71.0235 53.0416C70.9472 54.9285 70.8261 56.7863 70.8261 58.6663C70.8261 60.4125 70.7408 61.6205 70.7408 62.7502C70.75 63.0471 70.6892 64.6302 70.7005 64.9206C70.7116 65.8875 70.5075 66.7784 70.3865 67.696C70.0072 70.6927 68.5736 73.3498 66.2921 75.3638C65.4822 76.0694 64.6521 76.6634 63.7524 77.179C63.4698 77.3155 63.1847 77.4627 62.8978 77.6034C62.8663 77.6101 62.8415 77.6235 62.8013 77.6235H62.6846C62.2209 77.3261 61.755 77.032 61.2869 76.7414C60.3064 76.1767 59.1801 75.7433 58.0113 75.5737C57.4527 75.4978 56.7998 75.4128 56.1919 75.4978C52.5171 75.9643 48.7907 78.8046 47.1058 82.0759C46.5944 83.0649 46.1996 84.0607 45.9841 85.2129C45.8451 86.0191 45.8314 87.0505 45.9281 87.9058C46.2267 91.072 47.3684 93.6488 49.5648 95.8393C50.7334 96.998 51.9474 97.9382 53.2442 98.8157C53.7195 99.1103 54.211 99.4141 54.6799 99.7198C54.7269 99.74 54.765 99.74 54.765 99.8115H54.819V99.8517C52.8851 99.7893 50.6797 98.666 49.2146 97.6568C48.1423 96.9066 47.1014 96.1943 46.148 95.2096C45.6208 94.6804 45.1788 94.0796 44.7727 93.4879C44.3039 92.7937 43.8079 92.1103 43.4467 91.3601C42.4327 89.2543 41.8629 86.5974 42.0312 83.929C42.1344 82.3304 42.4956 80.8478 42.9938 79.4544C43.2718 78.6774 43.7138 77.9762 44.131 77.2706C46.2938 73.7314 50.0942 71.4897 53.3854 69.2659C55.5097 67.8434 57.6278 66.3964 59.7568 64.9697C61.7939 63.5921 63.8174 62.2502 65.572 60.3968C67.1648 58.7019 68.4459 56.7171 69.3835 54.6895C69.7739 53.8277 70.6533 52.019 70.9763 51.135" fill="#ED1C24"/>
<path d="M70.6602 41.7725C70.7454 42.0115 70.7095 42.351 70.7095 42.6479V44.5547C70.7095 45.7784 70.66 47.2608 70.5186 48.4063C70.1911 51.0009 69.0021 52.9725 67.7167 55.0918C67.27 55.8173 66.7632 56.4761 66.2921 57.175C65.8679 57.7889 65.4104 58.4186 64.8809 58.9612C64.015 59.8545 63.0704 60.6649 62.1146 61.3862C60.5869 62.5224 59.1107 63.639 57.4954 64.6149C55.8508 65.6039 54.2851 66.7205 52.6987 67.7944C49.3111 70.0697 45.8249 72.6777 43.4671 76.1521C42.796 77.1368 42.3385 78.2309 41.9143 79.3317C41.246 81.0578 40.8757 83.0986 41.0104 85.2109C41.127 87.1268 41.7148 88.8503 42.3968 90.4825C42.8522 91.5345 43.3682 92.5592 44.0502 93.5061C44.8243 94.6315 45.8698 95.683 46.9422 96.5941C48.039 97.5273 49.1339 98.3826 50.3117 99.1597C50.4733 99.2736 51.9742 99.9993 52.1515 99.9993C52.1515 100.015 51.1015 99.8095 51.1015 99.8385C48.9612 99.3941 46.9579 98.2396 45.3514 96.9335C41.4186 93.698 38.796 89.2391 38.5604 84.0185C38.4686 82.1966 38.5739 80.4214 39.1616 78.8941C41.56 72.6777 47.4043 67.8794 52.7055 63.9093C54.5542 62.5025 56.4027 61.0958 58.2515 59.7045C59.4428 58.8004 60.6385 57.8961 61.8342 56.9896C62.1876 56.6356 62.5444 56.285 62.9045 55.9379C64.8113 54.031 66.4895 52.0103 67.849 49.7909C68.2348 49.1568 68.6342 48.5248 68.964 47.8639C69.545 46.6603 70.0072 45.3339 70.2719 43.9762C70.4154 43.2551 70.6197 42.5273 70.66 41.7725" fill="#B49142"/>
<path d="M70.0923 0C70.4422 0 70.7853 0 70.9807 0.29019C71.2162 0.627356 71.1063 1.59651 71.1063 2.08548C71.1241 4.51275 71.2317 28.496 71.2317 30.0053C71.2655 31.6689 71.2162 33.6808 71.1915 35.3643C71.1244 39.906 69.5739 43.9675 67.593 47.5513C66.8368 48.9 66.2131 50.2866 65.1408 51.4876C64.3803 52.3409 63.613 53.1892 62.7718 53.982C61.1184 55.5205 59.3751 56.8869 57.6252 58.2354C55.8079 59.7472 53.993 61.259 52.1736 62.7548C50.8948 63.7175 49.6137 64.6797 48.3889 65.7604C47.6014 66.4526 46.8565 67.1739 46.0759 67.8794C45.2727 68.6072 44.5525 69.4535 43.7875 70.2463C41.5261 72.5706 39.5069 75.2078 38.5601 78.2087C38.2193 79.2559 37.9747 80.265 37.8219 81.4105C37.6919 82.3908 37.7796 83.4738 37.8467 84.4561C38.161 89.5002 40.4964 93.9727 44.4516 97.0407C45.6832 97.9942 46.9687 98.8492 48.3755 99.4567C48.658 99.5772 49.1738 99.8943 49.4816 99.8943V99.9366C44.7432 99.3563 40.4964 97.6906 36.8507 94.9553C36.153 94.4462 35.5224 93.8387 34.9034 93.2313C30.4096 88.7435 28.2066 82.3799 28.8728 75.4758C29.176 72.2605 29.9317 69.2663 31.1948 66.5377C33.3307 61.9111 36.826 58.1977 40.741 54.6543C41.6069 53.9397 42.4615 53.232 43.3119 52.5197C44.7902 51.3451 46.2238 50.1371 47.6798 48.9002C48.3504 48.3156 49.022 47.732 49.6945 47.1496C51.6576 45.2985 53.6991 43.5167 55.5096 41.4893C57.6858 39.0241 59.7833 36.5278 61.5872 33.8796C62.673 32.283 63.6602 30.6442 64.6451 29.012C65.4122 27.7481 66.0472 26.404 66.6528 25.0554C68.764 20.23 70.1212 14.6187 70.3052 8.85357C70.3658 7.01593 70.2334 5.29215 69.9891 3.63084C69.8879 3.05926 69.7893 2.48536 69.6794 1.90706C69.594 1.51181 69.4751 1.0675 69.5267 0.627588C69.5672 0.290421 69.8298 0.134219 70.092 0.000231411" fill="#254AA5"/>
</svg>
