<svg width="100" height="100" viewBox="0 0 100 100" fill="none" xmlns="http://www.w3.org/2000/svg">
<path fill-rule="evenodd" clip-rule="evenodd" d="M4 50C4 75.4051 24.5949 96 50 96C75.4051 96 96 75.4051 96 50C96 24.5949 75.4051 4 50 4C24.5949 4 4 24.5949 4 50ZM50 0C22.3858 0 0 22.3858 0 50C0 77.6142 22.3858 100 50 100C77.6142 100 100 77.6142 100 50C100 22.3858 77.6142 0 50 0Z" fill="#8F95B2"/>
<path d="M69.0126 75.4391L64.2986 80.1531L51.335 55.4044L37.7821 67.7788L40.1391 78.3854L37.1928 81.3316L30.1218 69.5465L18.3367 62.4755L21.2829 59.5292L31.8895 61.8862L44.2639 48.3333L19.5152 35.3697L24.2292 30.6557L54.8705 37.7267L60.7631 31.8342C62.7194 29.8778 72.9901 20.491 76.0837 23.5846C79.1773 26.6782 69.7905 36.9489 67.8341 38.9052L61.9416 44.7978L69.0126 75.4391Z" fill="#8F95B2"/>
</svg>
