<svg width="100" height="100" viewBox="0 0 100 100" fill="none" xmlns="http://www.w3.org/2000/svg">
<path d="M0 78.0387H57.3676L67.589 21L0 78.0387Z" fill="#2E378F"/>
<path d="M59.691 45.9143L60.1651 27.2651L58.5953 28.59L58.1591 46.0765L56.0466 53.8357H56.0503C56.0466 53.8376 56.0447 53.8376 56.0409 53.8376L56.0466 53.8357L52.4254 47.2215L50.4959 35.4258L49.1344 36.5733L50.838 47.2208V55.5475L50.8847 55.5304C50.8569 55.5437 50.8298 55.5551 50.802 55.5683L50.838 55.5494L45.8453 49.697L41.5481 42.9773L40.3937 43.9506L44.5015 50.3774L46.4537 57.8576L46.5068 57.8305C46.4689 57.8551 46.4348 57.8778 46.4007 57.8993L46.4537 57.8576L39.784 53.349L35.5657 48.0231L34.4353 48.9768L38.6125 54.2523L42.3731 60.9707L34.7092 57.9043L29.0985 53.4822L27.9675 54.4366L33.746 58.9988L39.0448 64.5943L39.0972 64.5394C39.0682 64.5729 39.0417 64.6076 39.0152 64.6429L39.0455 64.5943L30.7333 63.1603L22.1239 59.3681L20.9164 60.3874L30.0119 64.3955L36.3616 68.8612L36.4065 68.7905C36.3799 68.8454 36.3541 68.8984 36.3269 68.9514L36.3616 68.8612L28.1821 68.2937L15.5867 64.8866L14.2795 65.9899L27.6992 69.6224L34.6227 73.3325L26.5132 74.2881L5.83857 73.1097L4.28711 74.4226L26.3049 75.6736L33.7971 77.7641L61.9949 54.405L59.691 45.9143Z" fill="#F6B624"/>
<path d="M32.4111 78.0387H89.7793L100 21L32.4111 78.0387Z" fill="#EE272B"/>
</svg>
