<svg width="100" height="100" viewBox="0 0 100 100" fill="none" xmlns="http://www.w3.org/2000/svg">
<path d="M100 50C100 77.6142 77.6142 100 50 100C22.3858 100 0 77.6142 0 50C0 22.3858 22.3858 0 50 0C77.6142 0 100 22.3858 100 50Z" fill="#0E2E45"/>
<path d="M34.9867 51.021C39.9317 50.2678 44.8767 49.5801 49.5925 49.5146C59.4169 48.8924 60.2682 50.5953 60.2682 50.5953C60.2682 50.5953 60.0721 47.7789 59.9085 45.7813C59.8753 45.2245 59.4825 44.7333 58.926 44.5696C43.2066 40.4433 21.7563 47.4842 8.00195 41C8.03475 44.6023 7.90377 49.0889 14.3552 51.5778C18.285 52.8222 26.1446 52.3637 34.168 51.152C34.168 51.152 34.4627 51.0865 34.9867 51.021Z" fill="url(#paint0_linear_526_1871)"/>
<path d="M92.0015 53.0843C83.9453 49.1545 67.2434 49.3837 60.2353 50.5954C62.0691 56.4574 41.9617 52.593 40.0623 57.4071C39.0471 59.9942 44.6146 60.6819 53.5545 58.586C63.5433 56.4574 80.3426 52.3966 92.0015 53.0843Z" fill="url(#paint1_linear_526_1871)"/>
<path d="M60.2683 50.5951C60.9892 50.4642 61.8405 50.3659 62.7574 50.2349L63.0854 51.0536C64.9192 56.9156 44.8112 53.0513 42.912 57.8653C42.5517 58.7495 42.9775 59.4044 43.9927 59.7974C42.3225 59.7319 41.1108 59.4372 40.4886 58.946C39.9974 58.553 39.8337 58.029 40.0956 57.374C41.9623 52.5928 62.1029 56.4571 60.2683 50.5951Z" fill="url(#paint2_linear_526_1871)"/>
<path opacity="0.2" d="M59.9085 46.731C59.8753 46.1743 59.4825 45.683 58.926 45.5193C43.2066 41.393 12.2593 52.0035 8.00195 41.131V41C21.7563 47.4842 43.2066 40.4433 58.926 44.5696C59.4825 44.7006 59.8753 45.1918 59.9085 45.7813C60.039 47.7789 59.9085 46.731 59.9085 46.731Z" fill="url(#paint3_linear_526_1871)"/>
<defs>
<linearGradient id="paint0_linear_526_1871" x1="7.57615" y1="44.6656" x2="60.2407" y2="50.7252" gradientUnits="userSpaceOnUse">
<stop stop-color="#E12F29"/>
<stop offset="0.5255" stop-color="#E5332B"/>
<stop offset="1" stop-color="#BE1622"/>
</linearGradient>
<linearGradient id="paint1_linear_526_1871" x1="40.5632" y1="52.5725" x2="91.3914" y2="58.4208" gradientUnits="userSpaceOnUse">
<stop stop-color="#C73A25"/>
<stop offset="0.5996" stop-color="#F8B133"/>
</linearGradient>
<linearGradient id="paint2_linear_526_1871" x1="62.2912" y1="58.1459" x2="44.4339" y2="52.3695" gradientUnits="userSpaceOnUse">
<stop stop-color="white"/>
<stop offset="0.261" stop-color="#EDBFC2"/>
<stop offset="0.7735" stop-color="#CB4650"/>
<stop offset="1" stop-color="#BD1622"/>
</linearGradient>
<linearGradient id="paint3_linear_526_1871" x1="33.867" y1="44.1972" x2="36.4362" y2="39.7471" gradientUnits="userSpaceOnUse">
<stop stop-color="white"/>
<stop offset="0.9925" stop-color="white" stop-opacity="0"/>
</linearGradient>
</defs>
</svg>
