<svg width="100" height="100" viewBox="0 0 100 100" fill="none" xmlns="http://www.w3.org/2000/svg">
<path d="M76.9904 49.9979C76.9904 50.4365 70.8243 50.8479 62.0217 51.1934C60.4671 50.3115 59.2875 49.4251 58.4238 48.6615C69.0992 49.0387 76.9904 49.5047 76.9904 49.9979Z" fill="#747F8A"/>
<path d="M70.6666 35.1365C70.6666 35.5025 65.4983 35.8456 58.1094 36.1411C59.1685 35.5229 60.2595 34.9002 61.4049 34.2751C66.987 34.532 70.6666 34.8297 70.6666 35.1365Z" fill="#747F8A"/>
<path d="M15.6119 67.1082C12.1913 67.1491 9.19119 67.165 6.84793 67.165C3.47508 67.165 0.743164 66.1264 0.743164 64.8377C0.743164 63.5558 3.47508 62.5171 6.84793 62.5171C9.8344 62.5171 13.88 62.549 18.5211 62.6081C16.7255 65.1991 15.8732 66.7559 15.7937 66.8537C15.7414 66.9287 15.6755 67.0173 15.6119 67.1082Z" fill="#747F8A"/>
<path d="M17.4543 70.2207C18.5817 71.5822 19.6635 72.7276 21.1113 73.98C21.1113 73.98 21.6568 74.7595 23.3136 74.0913C25.0001 73.4049 26.4297 72.4708 28.0411 70.3094C32.7458 70.3889 37.7346 70.4935 42.6462 70.6048C43.0507 71.1935 43.8712 72.4117 44.8826 73.9141C31.1912 74.2686 16.3316 74.48 8.71995 74.48C5.54938 74.48 2.97656 73.4959 2.97656 72.2913C2.97656 71.0799 5.54938 70.1026 8.71995 70.1026C11.0382 70.1026 14.0247 70.1185 17.443 70.1571C17.4407 70.1889 17.4543 70.2207 17.4543 70.2207Z" fill="#747F8A"/>
<path d="M12.1578 81.6387C9.34408 81.6387 7.06445 80.7727 7.06445 79.7045C7.06445 78.634 9.34408 77.7658 12.1578 77.7658C19.6013 77.7658 34.8609 77.9931 47.9295 78.3636C48.5591 79.2659 49.1887 80.1636 49.7864 80.9886C36.3314 81.3841 19.9535 81.6387 12.1578 81.6387Z" fill="#747F8A"/>
<path d="M55.5619 87.8478C44.5865 88.3296 25.7153 88.6523 17.8742 88.6523C15.6673 88.6523 13.874 87.9637 13.874 87.1296C13.874 86.2886 15.6673 85.6045 17.8742 85.6045C25.3744 85.6045 42.9887 85.9 54.105 86.3432C54.6073 86.8818 55.0982 87.3887 55.5619 87.8478Z" fill="#747F8A"/>
<path d="M26.9284 91.9642C33.4036 91.9642 53.1157 92.4529 53.1157 93.0438C53.1157 93.6438 33.4013 94.1279 26.9284 94.1279C25.667 94.1279 24.6465 93.6438 24.6465 93.0438C24.6465 92.4529 25.667 91.9642 26.9284 91.9642Z" fill="#747F8A"/>
<path d="M26.9999 52.1068C18.8496 52.2455 11.5471 52.3228 6.84695 52.3228C3.47638 52.3228 0.742188 51.2841 0.742188 49.9977C0.742188 48.7135 3.47638 47.6703 6.84695 47.6703C12.3062 47.6703 21.277 47.7749 31.0024 47.959C29.5568 49.3886 28.2204 50.7795 26.9999 52.1068Z" fill="#747F8A"/>
<path d="M66.9763 41.7115C71.7515 41.9706 74.7562 42.2547 74.7562 42.5502C74.7562 42.8752 71.1197 43.1866 65.4922 43.4639C66.6945 42.5593 66.9581 41.7706 66.9763 41.7115Z" fill="#747F8A"/>
<path d="M8.72124 44.7354C5.5484 44.7354 2.97559 43.758 2.97559 42.5489C2.97559 41.342 5.5484 40.3602 8.72124 40.3602C15.2283 40.3602 27.031 40.5193 38.87 40.7807C37.4177 42.0057 36.0404 43.2171 34.7403 44.4058C24.3491 44.6149 14.4714 44.7354 8.72124 44.7354Z" fill="#747F8A"/>
<path d="M44.1041 36.5787C31.9991 36.8856 18.885 37.0742 12.1575 37.0742C9.34376 37.0742 7.06641 36.2083 7.06641 35.1378C7.06641 34.0673 9.34376 33.1968 12.1575 33.1968C19.5828 33.1968 34.806 33.4286 47.8565 33.7968C47.2065 34.2696 46.5519 34.7423 45.8882 35.2378C45.2837 35.6878 44.6882 36.131 44.1041 36.5787Z" fill="#747F8A"/>
<path d="M17.8732 29.2329C15.6663 29.2329 13.873 28.5533 13.873 27.7101C13.873 26.8692 15.6663 26.1851 17.8732 26.1851C26.1985 26.1851 46.9629 26.5533 57.5087 27.0783C56.8359 27.5192 56.1632 27.976 55.4836 28.4352C44.4923 28.9102 25.6985 29.2329 17.8732 29.2329Z" fill="#747F8A"/>
<path d="M6.2184 59.7852C2.78646 59.7852 0 58.7283 0 57.4169C0 56.1146 2.78646 55.0532 6.2184 55.0532C10.5208 55.0532 16.9597 55.1168 24.2418 55.2282C22.8735 56.8373 21.6849 58.3283 20.6666 59.6647C14.8687 59.742 9.80035 59.7852 6.2184 59.7852Z" fill="#747F8A"/>
<path d="M24.6475 21.794C24.6475 21.1962 25.668 20.7121 26.9294 20.7121C33.4023 20.7121 53.1167 21.1962 53.1167 21.794C53.1167 22.3872 33.4046 22.8735 26.9294 22.8735C25.668 22.8735 24.6475 22.3872 24.6475 21.794Z" fill="#747F8A"/>
<path d="M77.6364 55.6675C77.6819 56.8471 77.6751 58.0176 77.616 59.1653C66.1474 59.6199 55.272 60.3108 55.272 61.0881C55.272 61.8518 65.9042 62.5359 77.241 62.9882C77.041 64.2973 76.7841 65.5815 76.4705 66.8406C65.2951 67.2974 54.9243 67.9702 54.9243 68.727C54.9243 69.4566 64.6064 70.1134 75.3273 70.5703C74.8363 71.9385 74.2795 73.2681 73.6545 74.5409C64.4473 74.9841 56.838 75.575 56.838 76.2205C56.838 76.8228 63.4859 77.3796 71.8658 77.8092C71.3953 78.5751 70.9044 79.3251 70.3907 80.0342C69.8452 80.807 69.252 81.5729 68.6248 82.3252C63.3859 82.723 59.7903 83.1753 59.7903 83.6594C59.7903 84.0753 62.3654 84.4639 66.3338 84.8117C64.1678 86.9549 61.6086 88.9573 58.5926 90.7051C58.5926 90.7051 55.0402 87.6459 52.1083 84.073C49.4945 80.8865 43.9489 72.4862 42.6443 70.6066C41.3374 68.727 40.4783 68.177 38.951 68.7225C36.9032 69.4475 34.5235 69.8112 33.7917 69.8112C33.0598 69.8112 32.6576 69.5271 33.8849 69.0407C35.1077 68.5475 39.9419 66.2656 42.3215 61.5495C44.9944 56.2379 42.6443 48.9036 42.6443 48.9036C41.7465 52.8242 39.7055 54.2879 39.7055 54.2879C40.3647 50.6468 39.6464 47.3467 37.8487 45.0307L36.8463 49.64C36.8463 49.64 36.2191 49.6082 34.6667 50.9128C33.1167 52.2196 32.6894 54.1242 32.6894 54.1242C33.9099 54.6152 35.3781 53.3901 35.3781 53.3901C33.503 60.4063 30.8143 66.1178 28.8529 69.1384C26.8937 72.159 25.2778 73.2976 23.3141 74.0954C21.6572 74.7591 21.1117 73.9795 21.1117 73.9795C19.6639 72.7294 18.5821 71.5839 17.4547 70.2225C17.4547 70.2225 17.3638 70.0634 17.6684 70.068C18.4752 70.0793 19.9117 68.6998 20.2253 68.127C20.5844 67.4702 20.5458 66.9679 20.3662 66.9338C20.1889 66.9042 19.8821 67.4247 18.3252 68.4066C16.7775 69.3861 16.0661 68.7066 15.5501 68.1611C15.1501 67.727 15.5433 67.1906 15.7933 66.8542C16.0297 66.5542 24.2186 51.2832 45.8876 35.2395C74.284 14.2137 92.4188 8.53625 93.4575 8.12714C94.1438 7.85668 95.2643 7.49985 95.5189 7.76122C95.8007 8.05669 95.9394 8.29305 95.9007 8.63625C95.8644 8.97717 95.6825 9.15218 94.3688 9.73175C83.4685 14.5342 70.743 22.539 63.5132 27.1983C54.622 31.5302 46.133 37.7168 45.8239 37.8646C45.1398 38.2896 45.6444 38.9078 46.058 38.6487C61.0722 28.662 78.6751 21.8594 98.1281 16.2865C99.0576 16.0229 99.5668 16.0229 99.7213 16.2274C99.8963 16.4547 99.9713 16.7138 99.9986 17.0002C100.024 17.357 99.7281 17.5457 98.9304 17.857C78.0319 25.6209 62.6291 32.8326 52.7219 39.4987C52.7219 39.4987 51.6969 40.1169 51.6832 40.8328C51.6787 41.1056 52.2333 41.1374 52.2333 41.1374C57.1925 41.226 63.8223 41.517 66.977 41.7011C66.977 41.7011 66.5269 43.2988 63.5064 44.5853C61.1745 45.5807 59.0153 45.4216 56.8789 45.4398C56.4039 45.4307 56.0016 45.9103 56.3811 46.4217C56.572 46.6762 61.1177 53.9947 77.6364 55.6675Z" fill="#5C0632"/>
</svg>
