<svg width="100" height="100" viewBox="0 0 100 100" fill="none" xmlns="http://www.w3.org/2000/svg">
<path d="M41.8782 59.9514C42.9711 59.8521 43.7659 60.0508 45.1072 60.1998L61.8484 43.6573C59.1658 41.4218 55.6884 40.0806 51.9626 40.0806C43.2691 40.0806 36.2646 47.1347 36.2646 55.7289C36.2646 58.1134 36.7614 60.3488 37.7053 62.3856C38.8479 61.1933 40.6362 60.0508 41.8782 59.9514Z" fill="#002D62"/>
<path d="M58.9169 69.5887L45.4047 62.9816C44.1628 62.6339 42.9705 62.5345 41.8279 62.5345C40.4867 62.4848 39.2944 62.6836 37.9531 62.9319C40.586 67.999 45.8518 71.4764 52.0117 71.4764C57.3769 71.4764 62.1956 68.6945 64.9775 64.4719L51.6143 63.7268L58.9169 69.5887Z" fill="#002D62"/>
<path d="M65.9707 85.1376H70.0442L99.9995 14H95.777L65.9707 85.1376Z" fill="#002D62"/>
<path d="M52.0119 72.7183C42.6726 72.7183 35.0224 65.1177 35.0224 55.7288C35.0224 46.4391 42.6726 38.7889 52.0119 38.7889C61.3512 38.7889 68.9021 46.3895 68.9021 55.7288C68.9021 65.0681 61.3512 72.7183 52.0119 72.7183ZM90.5117 15.0929L90.4123 14.6955L90.1639 14.3974L89.8162 14.1987L89.4188 14.0497L88.922 14H66.4183L65.9712 14.0994L65.5241 14.2484L65.0273 14.4968L64.5802 14.8445L63.7357 15.5897L62.9409 16.4342L0.397417 82.7034L0.149031 83.1505L0 83.5479L0.0496771 83.9454L0.198708 84.3428L0.496771 84.6905L0.894188 84.9886L1.34128 85.1376L1.83805 85.1873H59.1654L59.7119 85.1376L60.2086 84.9886L60.7054 84.7402L61.2022 84.4421L61.6493 84.0944L62.0467 83.6473L62.3944 83.2002L62.5931 82.7034L90.3626 16.4342L90.5117 15.9374L90.5614 15.4903L90.5117 15.0929Z" fill="#002D62"/>
<path d="M62.444 44.1045L50.9189 61.1934L65.375 63.8263C66.8156 61.3921 67.6105 58.7096 67.6105 55.6793C67.6105 51.1586 65.5737 46.9858 62.444 44.1045Z" fill="#002D62"/>
</svg>
