<svg width="100" height="100" viewBox="0 0 100 100" fill="none" xmlns="http://www.w3.org/2000/svg">
<path opacity="0.969325" d="M50 100C77.6142 100 100 77.6142 100 50C100 22.3858 77.6142 0 50 0C22.3858 0 0 22.3858 0 50C0 77.6142 22.3858 100 50 100Z" fill="#F6821D"/>
<path d="M67.425 11.274C57.1303 11.9256 46.2611 17.831 38.0896 34.1303C32.5721 32.5364 25.0545 31.5309 23.9129 33.2185C22.4454 35.3878 25.5026 41.4016 28.7875 44.3354C13.6561 53.7061 15.5633 72.7401 20.8005 83.2359C22.5494 69.0781 25.2249 55.5962 35.1877 47.3864C55.5803 59.0402 73.9242 55.8979 92.3416 53.3307C78.46 50.7124 64.4141 51.4093 50.2762 42.354C46.1422 39.7062 46.2322 35.9061 48.1457 32.7538C52.7273 25.2061 62.5007 18.2514 77.4022 12.1858C74.2195 11.427 70.8566 11.0567 67.425 11.274ZM19.0734 87.9478V89.3117H80.8214V87.9478H19.0734Z" fill="#005EA9"/>
</svg>
