<svg width="100" height="100" viewBox="0 0 100 100" fill="none" xmlns="http://www.w3.org/2000/svg">
<path fill-rule="evenodd" clip-rule="evenodd" d="M39.5251 14.8623L57.9959 33.3349L47.0035 72.0247L32.997 58.2842L24.6641 25.0019L39.5251 14.8623Z" fill="#007AB3"/>
<path d="M70.4977 62.4985H91.3301L74.6642 77.7763L47.0059 72.0248L70.4977 62.4985Z" fill="#007AB3"/>
<path d="M74.6623 77.7747L49.6634 84.6238L20.498 99.9972L47.0057 72.0215L74.6623 77.7747Z" fill="#003568"/>
<path fill-rule="evenodd" clip-rule="evenodd" d="M32.9989 86.8071L8 91.6668L20.4994 99.9998L32.9989 86.8071Z" fill="#3ABCDA"/>
<path fill-rule="evenodd" clip-rule="evenodd" d="M70.4932 62.4994H91.3256L80.7622 58.333L70.4932 62.4994Z" fill="#003568"/>
<path fill-rule="evenodd" clip-rule="evenodd" d="M87.6777 65.8441L91.3283 69.4929V62.4985L87.6777 65.8441Z" fill="#003568"/>
<path fill-rule="evenodd" clip-rule="evenodd" d="M70.4969 62.498L57.9992 33.3345L47.0068 72.0242L70.4969 62.498Z" fill="#3ABCDA"/>
<path fill-rule="evenodd" clip-rule="evenodd" d="M24.6637 25.0024L28.8319 4.17002L12.166 0L24.6637 25.0024Z" fill="#003568"/>
<path fill-rule="evenodd" clip-rule="evenodd" d="M39.5249 14.8655L28.8304 4.17627L24.6621 25.0087L39.5249 14.8655Z" fill="#3ABCDA"/>
</svg>
