<svg width="100" height="100" viewBox="0 0 100 100" fill="none" xmlns="http://www.w3.org/2000/svg">
<path d="M100 50.0109C100 77.6338 77.63 100 50.0152 100C22.3968 100 0 77.6338 0 50.0109C0 22.388 22.3968 0 50.0152 0C77.6303 0 100 22.388 100 50.0109Z" fill="#BED600"/>
<path d="M46.3714 23.9131C38.4956 23.9131 33.3863 24.3484 29.6878 25.7214C23.4725 28.1425 19.1803 33.2169 19.1803 39.8855C19.1803 45.4396 21.7665 49.462 29.251 54.0883C37.2369 58.9295 38.83 60.5294 38.83 63.4465C38.83 66.6391 35.7019 70.2731 27.6533 70.2731C24.8441 70.2731 20.6129 69.8844 17.9092 69.2229L16.6191 68.8976C15.8994 70.827 14.2657 75.3909 13.7676 77.0468L15.045 77.4225C17.477 78.1983 23.2489 78.804 27.3841 78.804C41.1407 78.804 49.3485 70.4929 49.3485 61.7899C49.3485 56.4421 46.921 52.3777 38.715 47.2575C34.5988 44.7256 32.5012 43.0838 31.2273 41.8127C30.1947 40.4859 30.0804 39.4985 30.0804 38.4553C30.0804 37.4594 30.302 36.3118 30.9585 35.4712C31.6686 34.4319 32.9711 33.7697 34.7339 33.2233C36.5458 32.6221 39.9028 32.6063 45.1313 32.6063H49.9997L53.476 23.9134H46.3714V23.9131ZM83.163 23.9131H58.6989L55.2222 32.6055H63.3312C68.7876 32.6055 69.8371 32.4881 71.2073 32.4881C69.2293 37.0132 57.3079 67.3923 57.3079 67.3923H67.3973C67.3973 67.3923 82.4906 29.5755 84.0901 25.6107C84.5332 24.7259 84.313 23.9131 83.163 23.9131Z" fill="white"/>
</svg>
