<svg width="100" height="100" viewBox="0 0 100 100" fill="none" xmlns="http://www.w3.org/2000/svg">
<path d="M4.75092 32.2856H28.5214C30.8518 32.2856 32.6087 33.022 33.2992 36.3319C34.0683 40.012 33.752 42.5735 29.6092 42.8667L22.1467 43.3992C27.6395 78.1062 59.755 89.4181 77.2398 52.0384C80.1341 45.8514 81.0812 44.7246 84.2515 45.5116C88.5492 46.5781 89.1359 48.7878 87.0889 55.0252C71.9705 101.107 21.1596 105.726 11.1901 44.1876L5.12685 44.626C0.194175 44.9795 0 40.8169 0 38.502C0 33.926 1.69998 32.2856 4.75092 32.2856Z" fill="#E41917"/>
<path d="M91.1769 10C96.0499 10 100 13.9501 100 18.8231C100 23.6954 96.0499 27.6448 91.1769 27.6448C86.3053 27.6448 82.3545 23.6954 82.3545 18.8231C82.3545 13.9497 86.3053 10 91.1769 10Z" fill="#E41917"/>
</svg>
