<svg width="100" height="100" viewBox="0 0 100 100" fill="none" xmlns="http://www.w3.org/2000/svg">
<path d="M100 50C100 77.6142 77.6142 100 50 100C22.3858 100 0 77.6142 0 50C0 22.3858 22.3858 0 50 0C77.6142 0 100 22.3858 100 50Z" fill="white"/>
<path d="M3.4401 58.0811C4.51472 64.4963 6.84181 70.3943 10.1184 75.5626C22.3593 72.1549 33.122 65.7023 36.9502 51.3219C41.1599 35.494 36.3548 18.9082 24.859 10.1188C9.20671 20.0296 0.179562 38.6669 3.4401 58.0811ZM96.9965 42.3633C101.338 68.1953 83.9161 92.6591 58.0774 96.9972C53.8391 97.7149 49.5228 97.852 45.2475 97.4046C31.7688 95.9949 19.6215 88.8313 11.8068 78.0623L88.6115 56.042C89.7138 55.7226 89.4288 54.6641 88.5175 54.7266L56.3172 56.9755C60.8527 52.5965 64.3045 47.2245 63.8882 39.7977C63.039 27.7665 50.7947 16.0266 28.0226 8.30209C32.5077 5.92082 37.3478 4.27929 42.3562 3.44085C46.7041 2.71408 51.0141 2.59502 55.1864 3.03347C75.8565 5.19768 93.3851 20.8661 96.9965 42.3633" fill="#C70A0C"/>
</svg>
