<svg width="100" height="100" viewBox="0 0 100 100" fill="none" xmlns="http://www.w3.org/2000/svg">
<path d="M27.9108 46.4399C27.9108 46.4399 22.2785 62.8054 21.2158 73.4324C25.1478 64.0806 32.5867 51.1157 37.05 44.9521C30.5676 39.7449 18.8779 34.3251 18.8779 34.3251C18.8779 34.3251 28.2296 30.2869 47.0394 29.3304C47.0394 29.3304 54.9033 14.2401 75.0946 0C62.7673 3.93198 51.2902 14.3464 39.4942 25.7173C24.4039 26.5674 8.14465 32.6248 6.44434 33.3687C23.7663 42.2953 27.9108 46.4399 27.9108 46.4399Z" fill="#3FBBEF"/>
<path d="M96.0296 34.538C81.3643 28.5869 63.1922 27.0991 63.1922 27.0991C63.1922 27.0991 62.7671 22.4232 64.1487 13.4966C62.4483 17.216 59.2602 25.1862 58.7289 31.1374C71.9063 32.2 80.9393 35.1756 80.9393 35.1756C80.9393 35.1756 67.5493 40.2765 60.1104 46.1214C61.4919 49.4157 64.4675 58.98 66.1678 66.4189C63.2985 63.7622 54.5844 56.6421 48.3145 52.9226C40.0254 56.1107 16.9649 78.8525 4 100C9.63229 94.1553 25.9978 75.5581 48.3145 62.1681C52.8841 64.8248 74.0317 78.7462 74.0317 78.7462C74.0317 78.7462 69.3559 54.0916 67.6556 48.4593C74.2443 43.8897 85.5089 37.7261 96.0296 34.538Z" fill="#3FBBEF"/>
</svg>
