<svg width="100" height="100" viewBox="0 0 100 100" fill="none" xmlns="http://www.w3.org/2000/svg">
<path d="M100 50C100 77.6142 77.6142 100 50 100C22.3858 100 0 77.6142 0 50C0 22.3858 22.3858 0 50 0C77.6142 0 100 22.3858 100 50Z" fill="#E40046"/>
<path d="M44.4777 24.1202C45.8966 24.1556 46.658 24.6783 47.6389 25.6856C49.3901 27.6007 50.3368 29.5332 50.2961 32.1651C50.1919 33.5121 49.8456 34.7929 49.5149 36.0977C48.7986 39.0648 48.2076 42.0417 47.6828 45.0499C47.6482 45.2464 47.614 45.4431 47.5783 45.6456C46.4205 52.2395 45.9393 58.76 45.9397 65.4532C45.9369 68.4814 46.2025 71.4703 46.2981 74.4923C46.199 75.1874 46.0022 76.0001 45.5022 76.0001C45.002 76 43.6617 75.9169 42.8215 75.4405C40.724 73.8896 39.5388 71.7889 38.8938 69.2598C38.4048 66.1106 38.3344 62.9627 38.3469 59.7803C38.3474 59.5451 38.3473 59.3098 38.3479 59.0675C38.3808 49.4959 39.6756 40.0442 41.1984 30.6124C41.2566 30.2516 41.3132 29.8905 41.3693 29.5294C42.2044 24.2065 42.2051 24.2062 44.4777 24.1202Z" fill="white"/>
<path d="M16.4904 50.8087C19.4335 47.3678 29.0369 38.0924 34.0022 41.5001C35.0021 42.5 35.334 43.6989 35.3479 44.9444C35.014 46.7671 34.2514 48.2198 32.7483 49.2784C31.6786 49.8854 30.5858 50.4281 29.4777 50.9581C24.8383 53.1834 18.3303 56.3088 16.4387 61.5557C16.1527 62.6637 16.1161 63.4548 16.468 64.5499C17.0011 65.292 17.2121 65.4576 18.093 65.6485C19.9247 65.7658 21.6837 65.4313 23.4494 64.9913C26.1816 64.283 28.8951 63.362 31.3733 61.9796C32.1387 61.6534 32.7368 61.7403 33.5022 62.0001C34.5021 62.5001 34.4039 63.099 34.5022 64.0001C34.5022 66.4999 32.5973 67.8875 30.9162 69.3643C26.8815 72.4133 21.4552 74.2197 16.4387 73.5928C15.0185 73.2616 13.5765 72.6178 12.6565 71.4259C10.6742 67.9625 10.4198 64.0385 11.3567 60.1417C12.4391 56.664 14.1821 53.6068 16.4904 50.8087Z" fill="white"/>
<path d="M55.9113 37.0001C56.9422 36.445 57.7285 36.4133 58.7483 37.0001C60.6505 38.6608 61.7968 41.0183 62.2932 43.5001C62.4534 45.7814 61.8321 48.0124 61.3371 50.2188C61.0023 51.7164 60.6808 53.2168 60.3576 54.7169C59.4724 58.8521 58.8923 62.9387 58.6936 67.171C58.6675 67.6517 58.6428 68.138 58.6203 68.6485C58.4958 69.3467 58.202 69.7779 58.0022 70.0001C57.8019 70.2222 55.8262 69.9116 54.9104 69.0313C51.3678 64.8404 52.0423 59.7347 52.4035 54.5997C52.7176 50.3268 53.2687 46.0713 54.1242 41.8751C54.167 41.659 54.2101 41.4424 54.2541 41.2198C54.5767 39.7424 55.0203 38.2304 55.9113 37.0001Z" fill="white"/>
<path d="M72.4572 39.4073C75.4742 36.6799 83.5337 30.0417 87.801 32.4405C88.3154 32.8599 88.7062 33.2674 89.0022 33.8702C89.5022 35.9998 89.1136 37.1802 88.0568 38.6856C86.7118 40.2776 85.0971 41.2069 83.2258 41.9952C78.1952 44.2074 72.6582 47.3748 70.2414 52.6329C70.0434 53.621 70.0578 54.5627 70.3293 55.5372C70.894 56.2574 71.4212 56.4632 72.3234 56.5665C76.8988 56.7239 81.6284 54.8169 85.6945 52.8194C86.1659 52.6482 86.5023 52.5001 87.0022 52.5001C87.5022 52.5001 87.8456 53.2225 87.924 53.6114C88.0024 54.0007 88.0537 56.5048 87.2443 57.8546C84.3983 61.7444 78.8269 63.9318 74.2317 64.6261C71.6359 64.8855 69.3002 64.6856 67.2141 62.9522C65.0748 60.7966 64.6873 58.2621 64.6574 55.297C65.0059 49.0457 68.1333 43.7127 72.4572 39.4073Z" fill="white"/>
<path d="M61.0022 24.5001C62.5299 24.0061 64.0253 23.6622 65.5139 24.8311C67.0025 26.0001 67.1896 28.0647 67.1096 30.0479C66.8612 32.0423 66.1437 33.2929 64.6106 34.545C63.5864 35.2831 62.5674 35.2253 61.3479 35.0929C60.0739 34.6579 59.2621 33.7771 58.5119 32.6856C57.7842 31.1291 57.528 28.9603 58.0393 27.2989C58.5815 26.083 59.847 25.0854 61.0022 24.5001Z" fill="white"/>
</svg>
