<svg width="100" height="100" viewBox="0 0 100 100" fill="none" xmlns="http://www.w3.org/2000/svg">
<path d="M57.4913 7.07033C60.1819 7.85052 61.8657 10.6569 61.288 13.398C59.677 24.6746 58.6838 36.058 57.4913 47.3869C56.3512 55.3679 55.6619 63.5037 53.3331 71.2514C51.8952 76.4809 49.3692 81.3479 45.9207 85.5339C41.5579 90.7293 34.7808 93.536 28.0223 92.9464C21.443 92.6938 15.0872 90.4913 9.76233 86.6186C4.69054 82.9381 1.25324 77.4254 0.180378 71.2514C-0.15083 69.9227 -0.0234124 68.5211 0.541961 67.2739C1.78128 65.2898 4.28377 64.3798 6.50808 65.1044C7.80534 65.5279 8.79163 66.6551 9.03917 67.9971C9.40075 69.0819 9.58154 70.1666 9.94313 71.2514C10.7306 73.6287 12.0527 75.7939 13.8078 77.5804C17.9175 81.7634 24.4414 83.7127 30.1918 83.0028C34.4594 82.5447 38.3411 80.025 40.4969 76.3135C42.7319 72.7344 44.2087 68.7348 44.8359 64.5621C47.3489 49.0651 48.8754 33.2008 50.0789 17.5562C50.2597 15.7483 50.4405 13.7596 50.6212 11.9517C50.716 10.7772 51.1908 9.66544 51.9736 8.78471C53.5192 7.04602 55.5565 7.07033 57.4913 7.07033Z" fill="#9E202D"/>
<path d="M58.3883 38.5697C60.0298 31.8211 64.5897 27.8084 70.9735 25.8021C75.1814 24.6178 79.5765 24.2464 83.9235 24.7077C88.3377 25.0739 92.6884 25.9931 96.8735 27.4437C97.1482 27.4957 97.394 27.6711 97.5327 27.9138C97.6714 28.1565 97.6976 28.4573 97.6031 28.7204L95.9615 39.6641C94.32 39.2993 92.6784 38.7521 91.0369 38.3873C86.7653 37.2106 82.3119 36.8395 77.9045 37.293C74.8863 37.5919 71.5245 39.0969 71.2956 42.5309C71.0317 46.4896 75.3111 48.4235 78.4517 49.5134C82.2468 50.6707 85.9632 52.072 89.5777 53.7084C92.7616 55.1095 95.4816 57.3867 97.4207 60.2747C99.1438 62.9326 100.033 66.0449 99.9742 69.212C100.213 73.72 98.8118 78.1621 96.0287 81.7164C89.7758 89.7021 79.9562 89.3871 70.7911 89.093C66.4081 88.5441 62.1515 87.2486 58.2059 85.2627C57.8411 84.5331 57.6587 84.3507 57.8411 83.6211C58.3883 79.9733 58.9355 76.143 59.4826 72.4951C59.8474 72.4951 60.2122 72.8599 60.577 73.0423C65.9857 75.8244 72.0064 77.2041 78.0869 77.0549C80.439 77.0371 83.2881 76.3937 84.9604 74.6009C87.8797 71.471 86.1771 67.3 82.8291 65.3817C80.2343 64.1005 77.5526 63.0034 74.8038 62.0986C71.3598 60.9534 68.0559 59.4238 64.9545 57.5387C61.8387 55.3484 59.7543 52.5534 58.5707 48.9662C57.5323 45.391 58.0466 42.1631 58.3883 38.5697Z" fill="#153E69"/>
</svg>
