<svg width="100" height="100" viewBox="0 0 100 100" fill="none" xmlns="http://www.w3.org/2000/svg">
<path d="M71.3675 2C62.8205 2 55.5556 4.99145 50 7.98291C44.4444 4.99145 37.6068 2 28.6325 2C11.1111 2 0 13.1111 0 32.7692C0 56.2735 22.6496 79.3505 50 98.1539C77.3504 79.7778 100 56.7009 100 32.7692C100 13.1111 88.4615 2 71.3675 2Z" fill="#CCCCCC"/>
<path d="M2.56445 33.1964C2.56445 57.128 28.2055 79.7776 49.573 94.7349C55.9833 90.4614 62.3936 85.3332 68.3765 80.205C39.744 56.2733 12.3935 34.4784 2.99183 26.7861C2.99183 28.4955 2.56445 30.6323 2.56445 33.1964Z" fill="url(#paint0_linear_526_1787)"/>
<path d="M95.2988 44.3076C74.3586 27.2135 61.9654 18.2392 48.2902 10.1195C44.444 7.98277 37.1791 4.56396 29.0594 4.56396C21.3671 4.56396 14.5295 7.12807 9.82865 11.8289C6.8372 14.8204 4.7004 18.6665 3.8457 23.3674C14.5295 31.0597 44.0167 51.9999 73.5039 75.5042C83.3329 66.1024 91.4526 55.4187 95.2988 44.3076Z" fill="url(#paint1_linear_526_1787)"/>
<path d="M89.7436 11.8289C85.0427 7.12807 78.6324 4.56396 70.9401 4.56396C62.8205 4.56396 56.8376 7.12807 52.1367 9.69217C60.2564 14.393 77.7778 24.2221 96.1538 37.8973C96.5812 36.1879 96.5812 34.0512 96.5812 32.3417C97.0085 23.7947 94.4444 16.5298 89.7436 11.8289Z" fill="url(#paint2_linear_526_1787)"/>
<defs>
<linearGradient id="paint0_linear_526_1787" x1="2.75249" y1="60.4635" x2="68.8081" y2="60.4635" gradientUnits="userSpaceOnUse">
<stop stop-color="#3656CC"/>
<stop offset="0.35" stop-color="#304CB2"/>
<stop offset="0.72" stop-color="#283B80"/>
</linearGradient>
<linearGradient id="paint1_linear_526_1787" x1="12.1337" y1="8.28234" x2="86.756" y2="60.5337" gradientUnits="userSpaceOnUse">
<stop offset="0.3" stop-color="#E61C23"/>
<stop offset="0.8" stop-color="#C3161C"/>
</linearGradient>
<linearGradient id="paint2_linear_526_1787" x1="58.3953" y1="1.52764" x2="101.061" y2="31.4024" gradientUnits="userSpaceOnUse">
<stop stop-color="#FDBC11"/>
<stop offset="0.25" stop-color="#FCB415"/>
<stop offset="0.8" stop-color="#F89E1C"/>
</linearGradient>
</defs>
</svg>
