<svg width="100" height="100" viewBox="0 0 100 100" fill="none" xmlns="http://www.w3.org/2000/svg">
<path d="M0 54.0471C0 54.0471 11.7347 67.8907 12.2109 68.4689C15 71.7342 14.932 73.0607 12.1088 76.5641C9.89796 79.2852 8.43537 81.0539 8.43537 81.0539C8.43537 81.0539 24.6939 78.3328 26.9388 77.9247C29.0136 77.5845 31.0884 78.1628 30.5782 81.0199C30.2381 82.9587 28.2653 93.707 28.2653 93.707L37.9592 77.2104L55.068 48.0947L3.60544 53.673L0 54.0471Z" fill="#00467F"/>
<path d="M71.0197 38.2651L82.0062 18.299C82.0062 18.299 74.7952 21.4283 72.4143 22.4487C70.0333 23.4691 69.0809 23.2991 68.7408 21.6324C68.4347 20.0337 66.666 7.82285 66.5639 7.14258C65.8837 7.82285 53.8769 20.0337 52.2102 21.6324C50.4755 23.2991 49.353 23.4691 47.8564 22.4487C46.3258 21.4283 41.768 18.3331 41.768 18.3331L36.0537 46.0882L71.0197 38.2651Z" fill="#00AC9D"/>
<path d="M91.2924 49.2512C92.0407 48.2308 99.9999 37.5505 99.9999 37.5505C99.9999 37.5505 90.204 39.3533 87.9591 39.6254C86.1904 39.8295 85.9182 39.1492 85.8502 38.1288C85.7822 37.5846 85.476 31.7002 85.476 31.7002L71.2243 38.605L38.3672 77.3125L62.6189 81.088C62.6189 81.088 62.6869 77.3805 62.789 74.6254C62.925 71.8703 64.4896 71.3941 65.442 70.8159C66.3604 70.2376 94.0475 54.2512 94.0475 54.2512L91.2583 52.7546C89.5917 51.8023 90.5101 50.2716 91.2924 49.2512Z" fill="#00AC9D"/>
<path d="M35.7139 46.1901L26.4282 32.4146C26.4282 32.4146 22.2445 37.1084 21.3261 38.0948C20.3737 39.1152 19.5234 39.8295 17.8908 39.5914C15.918 39.2853 7.24448 37.5166 7.24448 37.5166C7.24448 37.5166 6.56422 48.1969 6.46218 49.2173C6.36014 50.3057 5.98598 51.6663 4.11523 53.2309L35.7139 46.1901Z" fill="#00AC9D"/>
<path d="M71.2237 38.5717L38.3666 77.2793L37.9925 77.2112L55.1013 48.0956L3.63867 53.6738L4.11486 53.2656L35.7136 46.1908L36.0537 46.1228L71.0197 38.2656L71.2237 38.5717Z" fill="white"/>
</svg>
