<svg width="100" height="100" viewBox="0 0 100 100" fill="none" xmlns="http://www.w3.org/2000/svg">
<path d="M0 35.4609C0 58.228 22.9309 61.2766 22.9309 92.9947C22.9309 92.9947 45.8734 93.7354 45.8734 77.7634C45.8734 61.2767 -2.06619 33.309 7.78917 16.1089C0.261203 23.8162 0 35.4609 0 35.4609Z" fill="#A7A9AC"/>
<path d="M8.95449 14.8532C-1.27123 32.9343 46.9959 61.635 46.9959 76.8624C46.9959 82.0942 46.4579 85.7198 42.6529 87.9771C42.6529 87.9771 60.933 79.6109 63.5021 68.3521V62.715C59.9817 44.6728 26.5016 30.7279 26.1624 16.6465C25.9675 8.75602 33.6357 6.57674 33.6357 6.57674C32.4857 6.49877 31.3824 6.46371 30.3259 6.46371C14.272 6.45981 8.95449 14.8532 8.95449 14.8532" fill="#A7A9AC"/>
<path d="M74.371 11.6293C62.3676 11.6293 40.3217 6.91596 36.1893 6.96274C27.9401 7.068 23.5115 17.13 30.5404 24.7983C30.5404 24.7983 34.0724 20.8491 37.4524 19.6951C42.1462 18.0812 47.5885 18.4787 54.3601 18.8764C61.4203 19.2857 69.9385 19.703 80.5657 17.8356C93.5204 15.5628 97.875 10.5104 99.9997 5.52817C94.803 9.8321 86.3784 11.6293 74.371 11.6293" fill="#B5985A"/>
<path d="M81.045 18.7125C70.4139 20.5799 61.9035 20.1668 54.8395 19.7536C48.0639 19.3559 42.6216 18.9622 37.9279 20.5761C34.544 21.7262 31.1211 25.4064 31.1211 25.4064C31.1211 25.4064 39.69 34.3649 44.8243 37.8813C48.1302 27.258 69.0572 31.4412 77.6104 28.3847C88.3897 24.5369 92.9159 18.0616 94.6273 13.7733L94.5767 13.7538C91.6099 15.8473 87.345 17.6054 81.045 18.7125" fill="#B5985A"/>
<path d="M78.1761 29.0949C68.964 32.046 56.2238 29.7966 49.2572 33.8783C46.3528 35.5741 45.5303 38.5213 45.5303 38.5213C45.5303 38.5213 52.0758 43.7921 58.1263 50.6924C58.1263 49.0706 58.6837 46.4705 60.7928 44.3614C64.5353 40.6189 84.9283 38.0223 88.7332 22.9664C85.8406 26.2762 79.8018 28.5725 78.1761 29.0949" fill="#B5985A"/>
</svg>
