<svg width="100" height="100" viewBox="0 0 100 100" fill="none" xmlns="http://www.w3.org/2000/svg">
<path d="M0 25C0 11.1929 11.1929 0 25 0H75C88.8072 0 100 11.1929 100 25V75C100 88.8072 88.8072 100 75 100H25C11.1929 100 0 88.8072 0 75V25Z" fill="#328040"/>
<path d="M74.4935 75.4483H63.3371L45.0684 25H56.2247L74.4935 75.4483Z" fill="white"/>
<path d="M29.1564 75.4483H18L45.0683 25H56.2247L29.1564 75.4483Z" fill="white"/>
<path d="M42.0536 51.5622C42.017 51.5792 41.9804 51.5976 41.9437 51.6159C36.5042 54.2382 31.2124 57.1574 26.0946 60.3631L18 75.4484H29.1564L29.8718 74.1157C31.5551 70.978 33.7066 68.1163 36.2544 65.6287L36.3093 65.5751C40.9798 61.021 45.275 56.8331 52.4619 52.0867C59.331 47.5496 65.1341 44.9495 68.9715 43.2518C77.1158 39.6473 82.0583 38.4675 81.9995 38.2727C81.8857 37.8921 62.9957 41.4875 42.0536 51.5622Z" fill="white"/>
</svg>
