<svg width="100" height="100" viewBox="0 0 100 100" fill="none" xmlns="http://www.w3.org/2000/svg">
<path d="M48.0336 90.1533C48.0336 90.6345 46.8305 91.6772 46.3492 91.6772C46.1086 91.6772 45.2263 91.597 45.2263 91.1959C45.2263 90.3137 45.6274 89.3512 45.7878 88.7897V88.7095C44.1836 87.2658 42.9003 85.2606 42.9003 85.2606C42.3389 85.02 42.2587 85.02 42.0983 85.02C41.8576 85.02 41.6972 85.2606 39.291 85.2606V85.7419L45.1461 91.597C45.1461 91.6772 46.1086 92.1584 46.5096 92.1584C46.5096 92.1584 46.4294 92.5595 52.1241 93.2813C53.8887 92.8001 53.648 93.4417 54.3699 92.7199C54.3699 92.7199 56.6157 92.399 59.1021 89.9126C57.3375 90.3939 56.4553 91.3564 54.6105 91.2761L54.0468 91.348L53.7259 92.5511C53.6416 92.5511 53.4655 92.5511 52.904 92.5511C52.8313 92.4907 51.8835 92.9063 51.8033 92.2386C51.8033 92.0381 51.8233 91.9379 51.8434 91.8376C51.8634 91.7373 51.8835 91.6371 51.8835 91.4366L51.5627 91.5168C50.6002 91.5168 49.3169 91.1157 48.194 90.3939L48.0336 90.1533Z" fill="#005CA3"/>
<path fill-rule="evenodd" clip-rule="evenodd" d="M38.9711 84.6182C37.1263 79.8058 35.6826 76.5173 34.3993 74.5923C31.2712 69.8601 29.5067 71.8653 26.9401 68.1758C26.2182 67.1331 25.9776 65.529 25.0151 63.6842V62.3207C28.0629 64.3258 29.8275 65.4487 31.7525 65.1279C24.6141 60.3957 24.1328 57.9093 24.1328 54.701V51.0917C27.8223 54.0594 29.9077 56.8666 32.0733 57.3479C32.0733 57.3479 24.9349 50.6105 24.9349 47.4022C24.9349 45.0762 24.6943 44.3544 25.4963 43.2315L33.9982 51.0115C32.3139 48.5251 27.1807 40.745 27.1807 38.7399C27.1807 37.9378 28.3838 35.9326 29.1056 35.3712C29.5869 36.3337 34.2389 42.7502 36.9659 43.3919C36.8857 43.3117 30.2285 32.8848 30.2285 30.8796C30.2285 30.8796 31.4316 27.7515 32.4743 26.7089C35.6826 32.0827 37.768 36.6545 40.6554 37.1357C38.4898 34.4087 34.3993 25.1849 34.3993 22.7787C34.3993 22.7787 35.0409 19.7309 37.768 18.608C37.8482 19.4902 42.1793 30.2379 44.5053 30.9598C44.1845 30.0775 39.7731 18.2871 39.7731 15.4799C39.7731 15.4799 41.1367 12.9133 43.9439 10.9883C44.5053 11.8706 47.072 25.4255 49.6386 26.5484C49.3177 25.4255 48.4355 18.7684 48.4355 17.9663C48.1948 11.3894 48.4355 10.106 48.4355 6.17591L53.4885 2.80724C53.8093 4.65199 52.4458 15.3195 54.1302 23.26C55.4135 21.4954 54.6114 12.3518 56.4562 6.97798C57.8197 2.88743 58.3811 0 61.9102 0C63.2737 0 62.5519 0.24062 64.3966 0V1.12289C62.5519 4.7322 59.103 24.3026 59.103 28.2328V38.3388L61.0279 55.4229V60.7165C61.0279 63.2831 59.7446 66.0904 57.0978 67.1331C56.6166 65.6091 56.2957 62.4811 56.8572 61.8394H55.7343C55.4937 63.2029 55.0926 66.8925 55.7343 67.6945C54.2906 67.6945 53.6489 68.1758 52.2052 68.1758C49.7188 68.1758 51.0021 62.4009 48.7563 60.9572L48.4355 64.0852C48.5959 64.5665 49.2375 67.1331 49.2375 68.0154C49.2375 69.6195 46.9917 68.4164 46.4303 71.0632H45.3074C44.5053 70.2611 43.3824 68.7372 42.0189 68.5768C43.0616 69.8601 44.4251 71.6247 44.4251 72.5069C44.4251 73.0684 42.5002 74.7527 41.9387 74.7527C41.3773 74.7527 40.4148 74.1111 39.6127 74.2715C41.4575 74.9933 41.4575 75.3142 42.2595 76.1965V77.56C36.6451 77.961 37.5601 77.9666 36.1314 77.8085L36.5282 78.6829H41.6981C42.0991 79.3245 42.821 82.0515 42.821 82.0515C42.821 83.014 40.9762 83.2547 39.6127 84.6182H38.9711Z" fill="#005CA3"/>
<path d="M44.7461 79.8865C44.7461 75.3949 48.3554 71.7856 52.847 71.7856C57.3386 71.7856 60.9479 75.3949 60.9479 79.8865C60.9479 84.3781 57.3386 87.9874 52.847 87.9874C48.3554 87.9072 44.7461 84.2979 44.7461 79.8865Z" fill="#E84422"/>
<path d="M61.4295 73.3893L61.8305 73.1487C62.2316 72.5872 62.4722 72.1862 62.6326 71.5445C62.7128 71.1435 63.0337 71.1435 63.1941 70.8227C63.3545 70.582 63.5951 70.4216 63.7555 70.2612L63.9961 69.4591C64.1565 69.2185 64.7982 68.4165 64.9586 68.256C65.6003 67.6144 65.6805 67.2936 66.1617 66.4113C66.8836 65.0478 67.5252 64.4863 68.2471 62.9624C67.6856 63.3634 67.445 63.5238 66.8836 63.9249C66.3221 64.2457 66.3221 64.7269 66.0013 65.128C65.7607 65.529 65.4399 65.6894 64.8784 65.8498C64.1565 66.0905 63.0336 67.6946 62.5524 68.1758C61.5899 69.1383 60.6274 69.5394 59.7452 70.5821C59.5046 70.8227 59.1035 70.9029 59.1035 71.2237C59.1035 71.4643 59.5046 71.705 59.665 71.7852C60.2264 72.106 60.3868 73.3893 61.4295 73.3893Z" fill="#E84422"/>
<path d="M62.7131 75.1542C62.7131 75.5552 62.5527 75.7156 62.5527 76.0365L63.6756 76.999C64.7985 76.999 65.8412 76.1167 66.7235 75.6354C66.9641 75.5552 67.5256 75.475 67.9266 75.3948C68.7287 75.3146 69.0495 74.8334 69.6911 74.5928C70.8942 74.0313 72.9796 73.5501 74.0223 72.5876C74.4233 72.1866 74.9046 72.347 75.1452 71.8657H74.664C74.1025 71.8657 73.3807 72.1064 72.739 72.1866H71.9369C71.3755 72.347 70.814 72.4272 70.2526 72.4272C69.0495 72.5876 68.5682 73.149 67.3651 73.6303C66.3225 74.0313 65.9214 74.1917 64.7985 74.5126C63.9965 74.7532 63.2746 74.5126 62.8736 74.9136L62.7131 75.1542Z" fill="#E84422"/>
<path d="M63.1935 80.6083C63.1935 81.7312 62.4717 82.2124 62.4717 83.0947L63.2737 83.4155L64.156 83.2551H66.3216L67.8455 83.5759L70.2517 83.3353C71.0538 83.5759 71.6153 83.3353 72.4173 83.4957H73.2996L74.9037 83.6561L75.8662 83.4155C74.9037 82.8541 74.0215 83.0947 73.059 82.6134C72.4975 82.3728 72.4975 81.8916 72.0163 81.5707C71.6955 81.3301 71.3746 81.4905 70.8934 81.4905C69.7705 81.4905 68.8882 81.2499 68.006 81.0895C66.0008 80.528 64.6373 80.127 63.1133 79.4854C62.9529 79.8062 63.1935 80.127 63.1935 80.6083Z" fill="#E84422"/>
<path fill-rule="evenodd" clip-rule="evenodd" d="M61.1886 85.0997C60.7074 85.9018 60.3866 86.2226 59.8251 86.8643C59.6647 87.1049 59.2637 87.2653 59.2637 87.6663L59.8251 87.907C60.4668 88.2278 61.0282 88.5486 61.5897 88.9497C62.3917 89.5913 62.7928 90.1528 63.5948 90.5538C64.5573 91.1152 64.5573 91.8371 65.5198 92.1579C66.1614 92.3985 67.2041 92.7996 67.3646 93.2808C68.327 94.0829 69.2895 94.8048 70.4124 95.3662H70.7332L70.3322 94.8047C69.6103 93.8423 69.1291 93.762 68.5677 92.7194C68.0062 91.5163 66.9635 91.1955 66.1614 90.233C65.4396 89.2705 64.5573 88.709 63.675 87.8268C62.7928 86.9445 62.6324 85.3404 61.2688 85.0195V85.2601L61.1886 85.0997Z" fill="#E84422"/>
<path d="M45.2213 91.0034C44.6599 92.6878 43.8578 94.1315 43.6172 95.9762C44.1786 95.896 44.3391 95.8158 44.6599 95.5752C45.1411 95.1742 45.0609 94.6127 45.3015 94.1315C45.6224 93.2492 46.264 92.768 46.665 92.1263L46.7453 91.5649L45.2213 91.0034Z" fill="#E84422"/>
<path d="M51.9639 92.5405C51.9639 95.5082 53.0066 97.1123 53.0066 99.9997C53.8086 99.5987 53.7284 98.0748 53.7284 97.1123V92.5405H52.2045H51.9639Z" fill="#E84422"/>
</svg>
