<svg width="100" height="100" viewBox="0 0 100 100" fill="none" xmlns="http://www.w3.org/2000/svg">
<path d="M0 25C0 11.1929 11.1929 0 25 0H75C88.8072 0 100 11.1929 100 25V75C100 88.8072 88.8072 100 75 100H25C11.1929 100 0 88.8072 0 75V25Z" fill="#5341F9"/>
<path fill-rule="evenodd" clip-rule="evenodd" d="M33.9445 35.6941C21.0034 35.6941 10.4756 46.236 10.4756 59.1922C10.4756 72.1488 21.0034 82.6907 33.9445 82.6907C35.6357 82.6907 37.2851 82.5088 38.8751 82.1669V64.7307C37.5645 65.9022 35.8361 66.6166 33.9445 66.6166C29.8561 66.6166 26.5296 63.286 26.5296 59.1922C26.5296 55.0988 29.8561 51.7682 33.9445 51.7682C35.8361 51.7682 37.5645 52.4826 38.8751 53.6538V36.2179C37.2851 35.876 35.6357 35.6941 33.9445 35.6941Z" fill="white"/>
<path fill-rule="evenodd" clip-rule="evenodd" d="M66.056 17.3096C53.121 17.3096 42.5966 27.8416 42.5869 40.7909V79.8006L54.6294 73.4075L58.6535 71.2716L58.6435 40.7909C58.6525 36.7044 61.9735 33.3834 66.056 33.3834C70.1444 33.3834 73.471 36.7141 73.471 40.8078C73.471 44.9016 70.1444 48.2319 66.056 48.2319C66.0425 48.2319 66.0304 48.2303 66.0169 48.2303L62.3138 48.2313L62.2891 64.3034C63.5447 64.3038 64.8004 64.305 66.056 64.305C69.4355 64.305 73.0385 63.6669 76.0447 62.0678C84.0041 58.3034 89.525 50.1897 89.525 40.8078C89.525 27.8504 78.9972 17.3096 66.056 17.3096Z" fill="white"/>
</svg>
