<svg width="100" height="100" viewBox="0 0 100 100" fill="none" xmlns="http://www.w3.org/2000/svg">
<path fill-rule="evenodd" clip-rule="evenodd" d="M49.4917 96.2702C38.6104 96.2702 28.5426 92.5403 20.6104 86.3911C27.5256 94.6573 38.0002 100 49.6951 100C61.6951 100 72.3731 94.4556 79.2883 85.7863C71.2544 92.3387 60.8815 96.2702 49.4917 96.2702Z" fill="#ABAAB1"/>
<path fill-rule="evenodd" clip-rule="evenodd" d="M49.6948 86.8952C32.8134 86.8952 18.0677 77.7218 10.3389 64.0121C15.9321 80.3427 31.3897 92.0363 49.7965 92.0363C68.5084 92.0363 84.3728 79.8387 89.5592 62.9032C82.0338 77.2177 66.9829 86.8952 49.6948 86.8952Z" fill="#ABAAB1"/>
<path fill-rule="evenodd" clip-rule="evenodd" d="M8 41.6331C8 18.6492 26.8136 0 50 0C73.1864 0 92 18.6492 92 41.6331C92 64.6169 73.1864 83.2661 50 83.2661C26.8136 83.2661 8 64.6169 8 41.6331Z" fill="#DAA228"/>
<path fill-rule="evenodd" clip-rule="evenodd" d="M86.9157 41.6331C86.9157 21.371 70.3395 4.93951 49.8988 4.93951C29.4581 4.93951 12.8818 21.371 12.8818 41.6331C12.8818 61.8952 29.4581 78.3266 49.8988 78.3266C70.4412 78.3266 86.9157 61.8952 86.9157 41.6331Z" fill="#B32630"/>
<path fill-rule="evenodd" clip-rule="evenodd" d="M42.9828 44.8589C43.0845 44.6573 43.0844 44.5564 42.8811 44.5564L12.8811 41.9355C12.6777 41.9355 12.6777 41.9355 12.8811 41.8347L42.8811 39.2137C43.0844 39.2137 43.1861 39.0121 42.9828 38.9113L34.0336 26.6129C33.9319 26.4113 33.9319 26.4113 34.1353 26.5121L46.6438 35.3831C46.8472 35.4839 46.9489 35.3831 46.9489 35.2823L49.7963 5.34274C49.7963 5.14113 49.7963 5.14113 49.898 5.34274L52.6438 35.0806C52.6438 35.2823 52.8472 35.3831 52.9489 35.1814L65.1522 26.5121C65.3556 26.4113 65.3556 26.4113 65.2539 26.6129L56.3048 38.9113C56.2031 39.1129 56.3048 39.2137 56.4065 39.2137L86.7116 41.8347C86.915 41.8347 86.915 41.8347 86.7116 41.9355L56.4065 44.5564C56.2031 44.5564 56.1014 44.7581 56.3048 44.8589L65.2539 57.1573C65.3556 57.3589 65.3556 57.3589 65.1522 57.2581L52.9489 48.5887C52.7455 48.4879 52.6438 48.5887 52.6438 48.6895L49.7963 78.4274C49.7963 78.629 49.7963 78.629 49.6946 78.4274L46.9489 48.5887C46.9489 48.3871 46.7455 48.2863 46.6438 48.4879L34.1353 57.2581C33.9319 57.3589 33.9319 57.3589 34.0336 57.1573L42.9828 44.8589Z" fill="white"/>
</svg>
