<svg width="100" height="100" viewBox="0 0 100 100" fill="none" xmlns="http://www.w3.org/2000/svg">
<path d="M50.929 46.9994C50.3237 46.4026 50.0689 45.8519 50.3411 45.1377C50.6176 44.4213 50.1081 43.8769 51.1098 42.9058C52.1136 41.9389 54.0058 40.6717 54.6329 40.0968C55.2666 39.5196 56.6515 38.5442 56.6515 38.5442C56.6515 38.5442 56.7233 38.5565 57.002 37.8431C57.2742 37.1288 57.4637 36.933 57.9688 36.6412C58.474 36.3492 61.7751 34.7968 61.7751 34.7968C61.7751 34.7968 60.5426 33.2008 61.3461 31.2062C61.3461 31.2062 64.0462 32.2927 64.5709 35.2911C64.719 36.1599 64.3401 37.9236 62.3173 38.6335C62.3173 38.6335 64.1158 39.6417 65.3962 37.9607C65.3962 37.9607 70.2106 39.8834 69.5095 46.4811C68.8105 53.0745 67.0816 56.8917 63.8437 58.074C63.8437 58.074 68.7582 55.9706 71.8829 58.0494C71.8829 58.0494 67.1839 57.5945 64.4338 60.314C63.4757 61.2634 62.5437 60.7405 61.1305 61.026C59.7152 61.3093 54.781 65.2416 56.4685 68.5971C56.4685 68.5971 54.2911 66.5829 56.094 62.4979C56.4729 61.6487 57.5181 60.0026 57.8033 58.3717C58.0842 56.7429 59.8719 53.9296 61.1218 52.3945C62.3739 50.8616 62.8921 49.198 62.3717 47.4255C62.3717 47.4255 67.2623 46.7678 65.7881 41.7683C65.7881 41.7683 65.4049 44.4685 63.578 45.3089C61.7228 46.1625 60.0831 45.3398 60.0831 45.3398C60.0831 45.3398 59.2927 46.6289 58.5502 46.9533C57.812 47.2823 57.1936 47.3625 56.5926 47.7894C55.9829 48.2184 54.8398 48.6147 53.6966 48.5277C52.8735 48.4604 52.5491 48.1227 52.9759 47.4346C52.9759 47.4346 51.9612 48.0203 50.929 46.9969" fill="#231F20"/>
<path d="M65.9117 34.9946C65.9117 34.9946 65.6286 32.7278 64.0107 31.9874C64.0107 31.9874 64.272 30.5068 64.6575 30.0408C64.6575 30.0408 66.9133 31.4323 67.1942 34.1563C67.1942 34.1563 70.4604 35.4257 71.4817 36.5232C72.5029 37.6206 76.1045 38.2608 76.1045 38.2608C76.1045 38.2608 75.7495 39.4191 75.179 39.6239C75.179 39.6239 77.1671 41.2744 77.5155 41.8688L76.5421 42.2324C76.5421 42.2324 79.4491 43.8177 80.3288 45.7295C80.3288 45.7295 79.4491 46.4133 78.1426 46.1042C78.1426 46.1042 79.5449 47.5783 79.6668 48.2098C79.6668 48.2098 78.798 48.8171 77.3826 48.2653C77.3826 48.2653 79.3293 50.1357 80.1611 50.5887C80.1611 50.5887 78.4844 51.0572 77.5568 50.7368C77.5568 50.7368 80.6184 52.7335 81.215 54.5169C81.215 54.5169 79.9891 54.6039 77.9488 53.7069C77.9488 53.7069 77.2215 55.2594 79.3968 57.5545C79.3968 57.5545 77.8421 57.7372 76.9842 57.0514L76.1175 56.359C76.1175 56.359 72.9253 56.4022 73.1366 52.1674C73.3521 47.9256 73.1279 37.502 65.9117 34.9957" fill="#231F20"/>
<path d="M75.8972 57.6181C75.5248 57.3262 75.5771 59.0118 74.1792 59.2208C72.7747 59.43 68.3305 59.7108 64.9902 61.4831C61.6478 63.2578 59.6489 66.8768 59.7773 69.185C74.1117 71.7348 83.244 67.1708 83.244 67.1708C80.9337 66.5327 80.0039 63.1577 80.0039 63.1577C80.0039 63.1577 78.3817 64.6274 77.4345 63.5453C76.4873 62.4587 76.2957 61.0608 77.8417 60.7908C80.6572 60.2989 86.151 58.1604 86.1009 49.1239C86.0965 48.2812 86.5821 47.2229 88.3567 46.6197C90.1292 46.0185 96.9033 43.7107 98.3971 42.5283L98.4711 39.482C98.4711 39.482 94.4928 42.7482 89.2233 44.255C83.9604 45.7618 80.4046 47.8827 81.7394 51.0966L80.999 51.4232C80.999 51.4232 82.4645 52.9845 82.7737 54.2561C83.0828 55.5343 82.828 55.2599 82.828 55.2599C82.828 55.2599 81.3495 56.3725 79.5857 55.6018C79.5857 55.6018 80.326 57.8686 81.0468 58.0732C81.0468 58.0732 78.8367 59.8958 75.8971 57.6183" fill="#EF2E31"/>
<path d="M99.064 43.4809C97.8251 44.4847 93.5899 46.1744 88.1592 47.7313L88.0068 48.6241C88.0068 48.6241 95.6694 46.8538 98.6721 45.7063" fill="#0FAB4B"/>
<path d="M87.9861 49.6111C90.5817 49.0796 97.1707 47.8082 98.5382 46.9067C98.5382 46.9067 98.3509 48.8534 95.9513 49.5763C93.5474 50.2927 87.5049 51.0547 87.5049 51.0547" fill="#0FAB4B"/>
<path d="M87.4868 52.043C87.4868 52.043 95.8571 51.3897 98.4766 49.872C98.4766 49.872 97.0024 52.6635 94.9904 52.9161C92.9719 53.1686 86.9795 53.6304 86.9795 53.6304" fill="#0FAB4B"/>
<path d="M86.8711 54.6822C91.0802 54.8933 96.1167 54.2601 97.5778 52.8423C97.5778 52.8423 96.1428 56.2544 92.9245 56.4416C89.7127 56.6372 86.416 55.9738 86.416 55.9738" fill="#0FAB4B"/>
<path d="M86.0918 56.9862C87.9252 57.3127 93.1338 58.3167 95.3744 57.1819C95.3744 57.1819 94.9737 59.4791 91.7075 59.5118C88.4413 59.5426 85.2295 57.9788 85.2295 57.9788" fill="#0FAB4B"/>
<path d="M84.6952 58.8785C85.8188 59.3816 89.1612 61.5045 92.8781 60.6357C92.8781 60.6357 91.0817 63.523 89.1873 63.1115C87.2842 62.6955 83.123 60.0478 83.123 60.0478" fill="#0FAB4B"/>
<path d="M82.4105 60.6853C83.5385 61.5737 86.1057 63.4028 88.6272 64.1562C88.6272 64.1562 88.4552 66.4186 86.0121 65.2188C83.5711 64.0234 81.5918 61.4583 81.5918 61.4583" fill="#0FAB4B"/>
<path d="M81.0173 62.1176C81.8077 63.2521 83.5563 65.3926 85.1088 66.0502C85.1088 66.0502 82.6003 66.5224 81.7555 64.846C80.9128 63.1694 80.6123 62.2789 80.6123 62.2789" fill="#0FAB4B"/>
<path d="M93.4298 41.0323C91.2567 42.1755 86.6426 43.4167 86.6426 43.4167C86.6426 43.4167 88.7264 41.4939 89.9132 39.4885C91.0955 37.4874 91.69 36.6751 92.2322 36.6185C92.77 36.563 93.1445 36.1698 93.2033 37.5548C93.2644 38.9397 93.4298 41.0323 93.4298 41.0323" fill="#FCD006"/>
<path d="M48.533 46.9995C49.1404 46.4026 49.3952 45.8519 49.1187 45.1377C48.8444 44.4213 49.3517 43.877 48.3522 42.9058C47.3506 41.9389 45.4562 40.6717 44.8247 40.0968C44.1933 39.5197 42.8127 38.5443 42.8127 38.5443C42.8127 38.5443 42.7431 38.5565 42.4622 37.8431C42.1856 37.1289 41.9984 36.933 41.491 36.6412C40.988 36.3493 37.6848 34.7968 37.6848 34.7968C37.6848 34.7968 38.9259 33.2008 38.1203 31.2062C38.1203 31.2062 35.4158 32.2927 34.8933 35.2911C34.7386 36.1599 35.1284 37.9237 37.1426 38.6336C37.1426 38.6336 35.3527 39.6417 34.0658 37.9607C34.0658 37.9607 29.2536 39.8834 29.9547 46.4812C30.6472 53.0746 32.3826 56.8917 35.6184 58.0741C35.6184 58.0741 30.7016 55.9706 27.5791 58.0494C27.5791 58.0494 32.2781 57.5945 35.0283 60.314C35.9842 61.2634 36.9205 60.7405 38.338 61.026C39.7512 61.3094 44.6832 65.2416 42.9957 68.5971C42.9957 68.5971 45.1753 66.5829 43.368 62.4979C42.9891 61.6487 41.9439 60.0026 41.6587 58.3717C41.3756 56.7429 39.5922 53.9296 38.3402 52.3945C37.0881 50.8616 36.5634 49.198 37.0925 47.4255C37.0925 47.4255 32.1997 46.7678 33.6782 41.7683C33.6782 41.7683 34.0571 44.4685 35.8883 45.309C37.7414 46.1625 39.3766 45.3399 39.3766 45.3399C39.3766 45.3399 40.1714 46.6289 40.9118 46.9533C41.6499 47.2823 42.2705 47.3625 42.8737 47.7895C43.4769 48.2184 44.6266 48.6148 45.7654 48.5277C46.5885 48.4604 46.9173 48.1227 46.4905 47.4346C46.4905 47.4346 47.503 48.0203 48.533 46.9969" fill="#231F20"/>
<path d="M33.5502 34.9946C33.5502 34.9946 33.8398 32.7278 35.4511 31.9874C35.4511 31.9874 35.1876 30.5068 34.8044 30.0408C34.8044 30.0408 32.5507 31.4323 32.2676 34.1563C32.2676 34.1563 29.0014 35.4257 27.9845 36.5232C26.9633 37.6206 23.3617 38.2608 23.3617 38.2608C23.3617 38.2608 23.7123 39.4191 24.2828 39.6239C24.2828 39.6239 22.297 41.2744 21.9442 41.8688L22.9197 42.2324C22.9197 42.2324 20.0106 43.8177 19.1331 45.7295C19.1331 45.7295 20.0106 46.4133 21.3236 46.1042C21.3236 46.1042 19.9104 47.5783 19.795 48.2098C19.795 48.2098 20.6595 48.8171 22.0792 48.2653C22.0792 48.2653 20.1347 50.1357 19.3029 50.5887C19.3029 50.5887 20.9774 51.0572 21.905 50.7368C21.905 50.7368 18.8457 52.7335 18.249 54.5169C18.249 54.5169 19.4728 54.6039 21.5152 53.7069C21.5152 53.7069 22.2425 55.2594 20.0672 57.5545C20.0672 57.5545 21.6154 57.7372 22.4799 57.0514L23.3443 56.359C23.3443 56.359 26.5343 56.4022 26.3231 52.1674C26.1141 47.9256 26.334 37.502 33.5502 34.9957" fill="#231F20"/>
<path d="M23.5675 57.6181C23.9421 57.3262 23.8855 59.0118 25.2856 59.2208C26.6857 59.43 31.1321 59.7108 34.4724 61.4831C37.8148 63.2578 39.8137 66.8768 39.6896 69.185C25.3552 71.7348 16.2142 67.1708 16.2142 67.1708C18.531 66.5327 19.4586 63.1577 19.4586 63.1577C19.4586 63.1577 21.0743 64.6274 22.0237 63.5453C22.9753 62.4587 23.1647 61.0608 21.6165 60.7908C18.801 60.2989 13.3138 58.1604 13.3639 49.1239C13.3704 48.2812 12.8805 47.2229 11.1058 46.6197C9.33118 46.0185 2.56575 43.7107 1.06764 42.5283L0.989258 39.482C0.989258 39.482 4.97187 42.7482 10.2348 44.255C15.5022 45.7618 19.0558 47.8827 17.7254 51.0966L18.4679 51.4232C18.4679 51.4232 16.9937 52.9845 16.6845 54.2561C16.3797 55.5343 16.6322 55.2599 16.6322 55.2599C16.6322 55.2599 18.1195 56.3725 19.8789 55.6018C19.8789 55.6018 19.1342 57.8686 18.4178 58.0732C18.4178 58.0732 20.6323 59.8958 23.5675 57.6183" fill="#EF2E31"/>
<path d="M0.401367 43.4809C1.63818 44.4847 5.87337 46.1744 11.2996 47.7313L11.4542 48.6241C11.4542 48.6241 3.7917 46.8538 0.788957 45.7063" fill="#0FAB4B"/>
<path d="M11.4769 49.6111C8.88567 49.0796 2.29444 47.8082 0.924805 46.9067C0.924805 46.9067 1.11425 48.8534 3.51165 49.5763C5.91123 50.2927 11.9581 51.0547 11.9581 51.0547" fill="#0FAB4B"/>
<path d="M11.9782 52.043C11.9782 52.043 3.60366 51.3897 0.986328 49.872C0.986328 49.872 2.45831 52.6635 4.47465 52.9161C6.48882 53.1686 12.4812 53.6304 12.4812 53.6304" fill="#0FAB4B"/>
<path d="M12.5912 54.6822C8.38431 54.8933 3.34563 54.2601 1.88672 52.8423C1.88672 52.8423 3.31514 56.2544 6.53346 56.4416C9.74959 56.6372 13.0463 55.9738 13.0463 55.9738" fill="#0FAB4B"/>
<path d="M13.3758 56.9862C11.5337 57.3127 6.33167 58.3167 4.08887 57.1819C4.08887 57.1819 4.48735 59.4791 7.75357 59.5118C11.0176 59.5426 14.2294 57.9788 14.2294 57.9788" fill="#0FAB4B"/>
<path d="M14.7679 58.8785C13.64 59.3816 10.2997 61.5045 6.58496 60.6357C6.58496 60.6357 8.38138 63.523 10.278 63.1115C12.1702 62.6955 16.3357 60.0478 16.3357 60.0478" fill="#0FAB4B"/>
<path d="M17.0546 60.6853C15.9158 61.5737 13.3638 63.4028 10.8379 64.1562C10.8379 64.1562 11.0099 66.4186 13.4487 65.2188C15.8962 64.0234 17.8668 61.4583 17.8668 61.4583" fill="#0FAB4B"/>
<path d="M18.4404 62.1176C17.6522 63.2521 15.9037 65.3926 14.3555 66.0502C14.3555 66.0502 16.8596 66.5224 17.7066 64.846C18.5493 63.1694 18.8476 62.2789 18.8476 62.2789" fill="#0FAB4B"/>
<path d="M6.0332 41.0323C8.20633 42.1755 12.816 43.4167 12.816 43.4167C12.816 43.4167 10.7409 41.4939 9.55636 39.4885C8.36746 37.4874 7.77083 36.6751 7.23517 36.6185C6.69298 36.563 6.32281 36.1698 6.26401 37.5548C6.20087 38.9397 6.0332 41.0323 6.0332 41.0323" fill="#FCD006"/>
</svg>
