<svg width="100" height="100" viewBox="0 0 100 100" fill="none" xmlns="http://www.w3.org/2000/svg">
<path d="M100 50C100 77.6142 77.6142 100 50 100C22.3858 100 0 77.6142 0 50C0 22.3858 22.3858 0 50 0C77.6142 0 100 22.3858 100 50Z" fill="#F9DA53"/>
<path d="M19.7972 27.1899C21.7528 29.6671 24.1289 31.8067 26.7836 33.5115C30.7122 36.0495 35.2356 37.5807 39.8452 38.2792C43.0553 38.7684 46.3229 38.8688 49.5589 38.6084C50.2606 38.5481 50.9617 38.4723 51.657 38.3582C49.2828 39.601 46.7623 40.5633 44.1626 41.2138C39.3956 42.4022 34.3797 42.5532 29.5433 41.703C25.6609 41.0037 21.2776 39.4967 19.5789 35.5921C18.4097 32.9678 18.7165 29.7934 19.7972 27.1899Z" fill="#06A7E0"/>
<path d="M8.6458 39.1293C13.3536 42.2332 18.3798 44.4851 23.9708 45.4372C29.3346 46.3509 34.8287 46.2342 40.2133 45.5584C45.9607 44.8372 51.6084 43.4629 57.1407 41.7665C55.2214 43.2057 53.1985 44.5016 51.1412 45.7327C46.4052 48.5332 41.3855 50.8892 36.1143 52.4897C32.2407 53.6534 28.2149 54.3811 24.1632 54.3837C19.9645 54.3583 14.828 53.8443 11.804 50.5646C9.11033 47.6623 8.04316 43.0161 8.6458 39.1293ZM46.9942 52.0231C48.909 50.8549 50.7803 49.6095 52.5563 48.2371C49.8258 52.3238 46.6521 56.1487 42.8816 59.3186C39.7788 61.8975 36.1339 64.2355 32.1325 65.088C28.4796 65.7989 24.0292 65.2648 21.723 62.0193C20.8392 60.7836 20.3772 59.2959 20.1711 57.8036C22.218 58.5306 24.3939 58.8669 26.5633 58.8572C31.29 58.8786 35.9434 57.4587 40.2327 55.5701C42.5609 54.5366 44.8158 53.3417 46.9942 52.0231Z" fill="#06A7E0"/>
<path d="M76.0644 33.391C77.5236 33.5659 78.9913 33.8387 80.339 34.4452C81.576 35.0158 82.7476 35.978 82.8745 37.4258C82.9445 38.0809 82.7935 38.7328 82.5907 39.3522C81.738 38.5533 80.6209 38.1043 79.5038 37.8192C78.6284 37.606 77.731 37.4984 76.8323 37.4634C75.7677 38.7639 74.07 39.5687 72.3788 39.3944C71.4807 39.3075 70.63 38.8844 69.9924 38.2507C69.8103 38.0764 69.6379 37.8917 69.4649 37.7084C70.9358 38.2876 72.6846 38.1542 74.0052 37.2664C71.7056 36.934 69.3787 36.8356 67.0571 36.8077C62.5404 36.7922 58.0831 37.2475 53.6196 37.8768C55.8214 36.6658 58.1897 35.7839 60.5878 35.0472C65.6034 33.5805 70.8436 32.8558 76.0644 33.391ZM69.4196 43.6048C73.9987 41.7821 78.9602 40.7227 83.9035 41.103C85.6251 41.2482 87.3487 41.5657 88.9505 42.2292C90.4824 42.8871 91.7179 44.0752 91.5047 45.8591C91.3596 46.9554 90.849 47.9773 90.181 48.8481C90.0708 48.2222 89.8064 47.5963 89.3237 47.1673C87.7988 45.7337 85.0495 46.3109 83.2555 46.7313C79.1244 47.6909 75.1438 49.5813 71.4354 51.5877C65.2476 55.5535 59.1861 59.7994 53.6157 64.6047C50.9075 66.9461 48.0242 69.4801 46.0955 72.5357C46.794 70.2102 47.6 67.9106 48.6355 65.712C49.2951 64.3759 49.9968 63.0204 51.0595 61.9552C48.7176 63.6453 46.5554 65.6492 44.5727 67.7499C40.9172 71.5366 37.6025 75.6644 34.6006 79.9867C35.3075 77.9812 36.0527 75.9862 36.9417 74.0533C38.9536 69.6717 41.7476 65.6848 44.9447 62.0893C49.1774 57.2841 54.0951 52.9053 59.3172 49.1909C62.4617 46.9606 65.8383 45.042 69.4196 43.6048Z" fill="#039482"/>
</svg>
