<svg width="100" height="100" viewBox="0 0 100 100" fill="none" xmlns="http://www.w3.org/2000/svg">
<path d="M0 25C0 11.1929 11.1929 0 25 0H75C88.8072 0 100 11.1929 100 25V75C100 88.8072 88.8072 100 75 100H25C11.1929 100 0 88.8072 0 75V25Z" fill="#0C1A49"/>
<path d="M7.4502 72.32L18.6302 45.22C18.6302 45.22 63.3702 37.76 92.4302 27.58C92.4302 27.6 33.5302 63 7.4502 72.32Z" fill="white"/>
<path d="M13.6895 72.32C13.6895 72.32 42.1495 59.9 54.1695 51.88L80.2295 51.08C80.2495 51.08 61.8095 67.1 13.6895 72.32Z" fill="#00ACED"/>
</svg>
