<svg width="100" height="100" viewBox="0 0 100 100" fill="none" xmlns="http://www.w3.org/2000/svg">
<path d="M0 50C0 22.3858 22.3858 0 50 0C77.6142 0 100 22.3858 100 50C100 77.6142 77.6142 100 50 100C22.3858 100 0 77.6142 0 50Z" fill="#001B94"/>
<path fill-rule="evenodd" clip-rule="evenodd" d="M66.234 43.2085C66.234 44.5141 65.1784 45.5752 63.8784 45.5752C62.5784 45.5752 61.5229 44.5197 61.5229 43.2085C61.5229 41.8974 62.5784 40.8419 63.8784 40.8419C65.1784 40.8419 66.234 41.903 66.234 43.2085ZM59.1618 36.1141C59.1618 37.4197 58.1062 38.4808 56.8062 38.4808C55.5062 38.4808 54.4507 37.4197 54.4507 36.1141C54.4507 34.8086 55.5062 33.7474 56.8062 33.7474C58.1062 33.7474 59.1618 34.8086 59.1618 36.1141ZM66.234 36.1141C66.234 37.4197 65.1784 38.4808 63.8784 38.4808C62.5784 38.4808 61.5229 37.4197 61.5229 36.1141C61.5229 34.8086 62.5784 33.7474 63.8784 33.7474C65.1784 33.7474 66.234 34.8086 66.234 36.1141ZM52.0895 36.1141C52.0895 37.4197 51.034 38.4808 49.734 38.4808C48.434 38.4808 47.3784 37.4197 47.3784 36.1141C47.3784 34.8086 48.434 33.7474 49.734 33.7474C51.034 33.7474 52.0895 34.8086 52.0895 36.1141ZM70.2618 28.5308C71.184 29.453 71.184 30.953 70.2618 31.8752C69.3395 32.7974 67.8507 32.7974 66.9284 31.8752C66.0062 30.953 66.0062 29.453 66.9284 28.5308C67.8507 27.6085 69.3451 27.6085 70.2618 28.5308ZM76.1562 23.803C77.0784 24.7252 77.0784 26.2252 76.1562 27.1474C75.234 28.0697 73.7451 28.0697 72.8229 27.1474C71.9007 26.2252 71.9007 24.7252 72.8229 23.803C73.7451 22.8808 75.2395 22.8808 76.1562 23.803ZM43.834 36.1141C43.834 37.4197 42.7784 38.4808 41.4784 38.4808C40.1784 38.4808 39.1229 37.4197 39.1229 36.1141C39.1229 34.8086 40.1784 33.7474 41.4784 33.7474C42.7784 33.7474 43.834 34.8086 43.834 36.1141ZM36.7618 36.1141C36.7618 37.4197 35.7062 38.4808 34.4062 38.4808C33.1062 38.4808 32.0506 37.4197 32.0506 36.1141C32.0506 34.8086 33.1062 33.7474 34.4062 33.7474C35.7062 33.7474 36.7618 34.8086 36.7618 36.1141ZM63.8784 47.9363C65.1784 47.9363 66.234 48.9974 66.234 50.303C66.234 51.6085 65.1784 52.6697 63.8784 52.6697C62.5784 52.6697 61.5229 51.6085 61.5229 50.303C61.5229 48.9974 62.5784 47.9363 63.8784 47.9363ZM37.9395 71.5808C37.9395 72.8863 36.884 73.9474 35.584 73.9474C34.284 73.9474 33.2284 72.8863 33.2284 71.5808C33.2284 70.2752 34.284 69.2141 35.584 69.2141C36.884 69.2141 37.9395 70.2697 37.9395 71.5808ZM30.8673 64.4863C30.8673 65.7919 29.8118 66.853 28.5118 66.853C27.2118 66.853 26.1562 65.7919 26.1562 64.4863C26.1562 63.1808 27.2118 62.1197 28.5118 62.1197C29.8118 62.1197 30.8673 63.1808 30.8673 64.4863ZM37.9395 64.4863C37.9395 65.7919 36.884 66.853 35.584 66.853C34.284 66.853 33.2284 65.7919 33.2284 64.4863C33.2284 63.1808 34.284 62.1197 35.584 62.1197C36.884 62.1197 37.9395 63.1808 37.9395 64.4863ZM23.7951 64.4863C23.7951 65.7919 22.7395 66.853 21.4395 66.853C20.1395 66.853 19.084 65.7919 19.084 64.4863C19.084 63.1808 20.1395 62.1197 21.4395 62.1197C22.7395 62.1197 23.7951 63.1808 23.7951 64.4863ZM35.584 76.3085C36.884 76.3085 37.9395 77.3697 37.9395 78.6752C37.9395 79.9808 36.884 81.0419 35.584 81.0419C34.284 81.0419 33.2284 79.9808 33.2284 78.6752C33.2284 77.3697 34.284 76.3085 35.584 76.3085ZM63.8784 55.0308C65.1784 55.0308 66.234 56.0919 66.234 57.3974C66.234 58.703 65.1784 59.7641 63.8784 59.7641C62.5784 59.7641 61.5229 58.7085 61.5229 57.3974C61.5229 56.0863 62.5784 55.0308 63.8784 55.0308ZM63.8784 63.3086C65.1784 63.3086 66.234 64.3641 66.234 65.6752C66.234 66.9863 65.1784 68.0419 63.8784 68.0419C62.5784 68.0419 61.5229 66.9808 61.5229 65.6752C61.5229 64.3697 62.5784 63.3086 63.8784 63.3086ZM48.5507 53.8474C48.5507 55.153 47.4951 56.2141 46.1951 56.2141C44.8951 56.2141 43.8395 55.1585 43.8395 53.8474C43.8395 52.5363 44.8951 51.4808 46.1951 51.4808C47.4951 51.4808 48.5507 52.5419 48.5507 53.8474ZM52.5784 46.2641C53.5007 47.1863 53.5007 48.6863 52.5784 49.6085C51.6562 50.5308 50.1673 50.5308 49.2451 49.6085C48.3229 48.6863 48.3229 47.1863 49.2451 46.2641C50.1673 45.3419 51.6562 45.3419 52.5784 46.2641ZM58.4729 41.5363C59.3951 42.4585 59.3951 43.9586 58.4729 44.8808C57.5506 45.803 56.0618 45.803 55.1395 44.8808C54.2173 43.9586 54.2173 42.4585 55.1395 41.5363C56.0618 40.6141 57.5506 40.6141 58.4729 41.5363ZM43.1451 56.903C44.0673 57.8252 44.0673 59.3252 43.1451 60.2474C42.2229 61.1697 40.7284 61.1697 39.8118 60.2474C38.8895 59.3252 38.8895 57.8252 39.8118 56.903C40.734 55.9808 42.2229 55.9808 43.1451 56.903Z" fill="white"/>
</svg>
