<svg width="103" height="100" viewBox="0 0 103 100" fill="none" xmlns="http://www.w3.org/2000/svg">
<path d="M0.943359 53.9085L23.9717 35.2965L28.3882 35.9274L52.6784 17L59.6184 26.7792L68.1358 35.2965L74.7604 36.2429L80.1232 43.8139L92.426 35.612L100.943 46.3375" stroke="#9F781C" stroke-width="3"/>
<path d="M33.5763 57.3796L33.0786 62.4232C32.4267 62.0939 31.9149 61.8823 31.5433 61.7882C31.1717 61.6941 30.6316 61.6461 29.9223 61.6461H23.7131C22.6726 61.6461 21.9914 61.7571 21.6716 61.9782C21.3517 62.1993 21.0883 62.7403 20.8823 63.5992L17.8463 76.6253C17.709 77.1936 17.6403 77.5859 17.6403 77.8013C17.6403 78.3573 17.9028 78.7186 18.4287 78.8823C18.7034 78.9585 19.2011 78.9961 19.9208 78.9961H25.8901C27.3991 78.9839 28.6005 78.6866 29.4923 78.1052L27.5882 83.2626H15.531C13.7473 83.224 12.6494 83.1836 12.2373 83.1394C11.8253 83.0951 11.3906 82.9653 10.9334 82.7508C10.1902 82.3971 9.60126 81.8533 9.16661 81.1204C8.73197 80.3876 8.51465 79.5719 8.51465 78.6744C8.51465 78.1946 8.64071 77.4109 8.8919 76.3234L12.0831 62.6904C12.5741 60.6169 13.5243 59.1634 14.9308 58.3289C15.6279 57.9121 16.2743 57.6525 16.8688 57.5518C17.4634 57.4511 18.6131 57.3937 20.3168 57.3806H33.5763V57.3796Z" fill="#E21F1C"/>
<path d="M48.7741 71.5427L56.1668 57.3782H68.6548C68.1976 58.1364 67.8598 58.7941 67.6425 59.3501C67.4252 59.9061 67.1909 60.7217 66.9388 61.7961L62.7184 79.847C62.5698 80.467 62.4955 81.1491 62.4955 81.8951C62.4955 82.2997 62.5698 82.755 62.7184 83.2602H52.2211C52.667 82.5273 53.002 81.8763 53.2249 81.3071C53.4479 80.7389 53.685 79.9166 53.9371 78.8423L57.6767 62.8394L47.0242 83.2611H40.6428L39.4424 62.9157L35.4967 79.848C35.3368 80.5056 35.2568 81.1876 35.2568 81.8961C35.2568 82.3128 35.3358 82.7682 35.4967 83.2611H30.1455C30.5914 82.5283 30.9264 81.8772 31.1484 81.3081C31.3714 80.7398 31.6084 79.9176 31.8606 78.8432L36.08 60.7923C36.2286 60.1733 36.303 59.4902 36.303 58.7442C36.303 58.3274 36.2286 57.8721 36.08 57.3791H47.933L48.7741 71.5427Z" fill="#E21F1C"/>
<path d="M89.5307 57.3791L93.6307 78.9956C93.847 80.1961 94.0681 81.0813 94.2911 81.6496C94.5131 82.2187 94.848 82.7559 95.294 83.2611H84.2482C84.6254 82.4906 84.8145 81.8133 84.8145 81.2319C84.8145 80.6382 84.7289 79.8734 84.5577 78.9382L84.06 76.2457H73.0641L70.4054 80.5686C69.9021 81.3909 69.6509 82.0729 69.6509 82.6167C69.6509 82.7559 69.6735 82.9704 69.7196 83.2611H63.4238C64.3392 82.4267 65.3223 81.2074 66.3741 79.6015L79.0334 58.8383C78.7135 58.4215 78.436 58.127 78.2017 57.9568C77.9675 57.7855 77.6043 57.5936 77.1123 57.3782H89.5307V57.3791ZM83.3046 72.2257L81.486 62.3088L75.4829 72.2257H83.3046Z" fill="#E21F1C"/>
</svg>
