<svg width="100" height="100" viewBox="0 0 100 100" fill="none" xmlns="http://www.w3.org/2000/svg">
<path d="M98.9196 27.1461H99.086C94.8967 30.6195 90.3263 33.6062 85.6127 36.3156C77.8015 40.7446 69.3854 44.261 60.5291 45.9163C49.0243 48.0494 37.5159 50.1629 26.0111 52.2924C23.4807 52.7308 21.2885 54.3324 19.7209 56.317C17.1225 59.6312 14.517 62.94 11.9097 66.2471C9.23255 69.7133 5.24193 72.1453 0.913086 72.854C5.14708 66.9754 9.39898 61.1111 13.6383 55.2361C17.5484 49.6475 23.597 45.6372 30.2236 44.0678C49.6917 39.2772 69.1653 34.5064 88.6352 29.723C92.0639 28.8694 95.5106 28.0784 98.9196 27.1461Z" fill="#004595"/>
<path d="M27.77 55.0303C39.103 53.1728 50.436 51.3117 61.7673 49.4524C56.9087 53.4198 51.4543 56.6982 45.565 58.8867C42.3599 60.0696 39.0082 60.8606 35.6063 61.1952C29.6633 61.8251 23.7203 62.4586 17.7773 63.0903C19.1857 61.3581 20.5744 59.6097 21.9917 57.8846C23.4358 56.2007 25.5975 55.2845 27.77 55.0303V55.0303Z" fill="#FFED00"/>
<path d="M15.2117 66.3168C22.5058 65.6458 29.7998 64.9854 37.0975 64.3609C32.3928 68.4589 26.525 71.4295 20.2599 72.02C16.2639 72.2563 12.259 72.3565 8.25586 72.4513C10.9974 70.9481 13.2253 68.6969 15.2117 66.3168V66.3168Z" fill="#E53138"/>
</svg>
