<svg width="100" height="100" viewBox="0 0 100 100" fill="none" xmlns="http://www.w3.org/2000/svg">
<path d="M0 0H12.5943C16.826 0 20.8306 1.91403 23.4884 5.20691L51.5714 40H29.9807C26.0961 40 22.4996 37.9511 20.5186 34.6097L0 0Z" fill="black"/>
<path d="M0 0H12.5943C16.826 0 20.8306 1.91403 23.4884 5.20691L51.5714 40H29.9807C26.0961 40 22.4996 37.9511 20.5186 34.6097L0 0Z" fill="url(#paint0_linear_526_2044)"/>
<path d="M52.7403 41.4479C48.9001 41.5407 45.184 41.9496 42.153 42.3081C32.3146 43.4718 29.7798 49.5086 32.3882 54.6304L53.4755 90.1994C57.0774 96.2748 63.6165 100 70.6794 100H100L52.7403 41.4479Z" fill="url(#paint1_linear_526_2044)"/>
<path d="M52.7403 41.4479C48.9001 41.5407 45.184 41.9496 42.153 42.3081C32.3146 43.4718 29.7798 49.5086 32.3882 54.6304L53.4755 90.1994C57.0774 96.2748 63.6165 100 70.6794 100H100L52.7403 41.4479Z" fill="url(#paint2_linear_526_2044)"/>
<path d="M60.2589 50.7631L65.7914 57.6174C58.0808 56.8168 42.5587 62.8736 42.1511 71.098L42.1356 71.0719C40.7143 60.7143 50.3937 52.8713 60.2589 50.7631Z" fill="url(#paint3_linear_526_2044)"/>
<path d="M74.2859 50.0856C70.891 42.6682 61.4936 41.2366 52.7403 41.448C51.2614 41.4837 49.8009 41.5663 48.3909 41.6748C46.1395 41.8482 44.0167 42.0877 42.153 42.3081C40.2012 42.539 38.5368 42.9617 37.143 43.5309C34.9879 44.4112 33.4797 45.6419 32.556 47.056C31.0661 49.3373 31.0974 52.0959 32.3882 54.6304L42.1357 71.072C40.7144 60.7143 50.3938 52.8714 60.259 50.7632C64.9829 49.7537 69.958 49.6201 74.2859 50.0856Z" fill="#C4C4C4"/>
<path d="M74.2859 50.0856C70.891 42.6682 61.4936 41.2366 52.7403 41.448C51.2614 41.4837 49.8009 41.5663 48.3909 41.6748C46.1395 41.8482 44.0167 42.0877 42.153 42.3081C40.2012 42.539 38.5368 42.9617 37.143 43.5309C34.9879 44.4112 33.4797 45.6419 32.556 47.056C31.0661 49.3373 31.0974 52.0959 32.3882 54.6304L42.1357 71.072C40.7144 60.7143 50.3938 52.8714 60.259 50.7632C64.9829 49.7537 69.958 49.6201 74.2859 50.0856Z" fill="url(#paint4_linear_526_2044)"/>
<defs>
<linearGradient id="paint0_linear_526_2044" x1="25.8111" y1="0.750026" x2="25.8111" y2="39.5119" gradientUnits="userSpaceOnUse">
<stop stop-color="#00D9FF"/>
<stop offset="1" stop-color="#0E518A"/>
</linearGradient>
<linearGradient id="paint1_linear_526_2044" x1="41.4303" y1="56.5478" x2="73.2364" y2="55.9655" gradientUnits="userSpaceOnUse">
<stop stop-color="#E6EAEF"/>
<stop offset="1" stop-color="#95AAB1"/>
</linearGradient>
<linearGradient id="paint2_linear_526_2044" x1="31.4698" y1="70.718" x2="99.9485" y2="70.718" gradientUnits="userSpaceOnUse">
<stop stop-color="#F12E1F"/>
<stop offset="1" stop-color="#9F1E1C"/>
</linearGradient>
<linearGradient id="paint3_linear_526_2044" x1="75.9622" y1="36.9243" x2="41.4122" y2="68.6425" gradientUnits="userSpaceOnUse">
<stop stop-color="#F12E1F"/>
<stop offset="1" stop-color="#9F1E1C"/>
</linearGradient>
<linearGradient id="paint4_linear_526_2044" x1="41.4303" y1="56.3681" x2="73.2361" y2="55.7788" gradientUnits="userSpaceOnUse">
<stop stop-color="#E6EAEF"/>
<stop offset="1" stop-color="#95AAB1"/>
</linearGradient>
</defs>
</svg>
