<svg width="100" height="100" viewBox="0 0 100 100" fill="none" xmlns="http://www.w3.org/2000/svg">
<path fill-rule="evenodd" clip-rule="evenodd" d="M100 50C100 28.942 77.6138 11.872 50.0001 11.872C22.3862 11.872 0 28.9419 0 50C0 71.0581 22.3862 88.1281 50 88.1281C77.6138 88.1281 100 71.0582 100 50ZM26.3634 19.9186C26.3634 19.9186 35.2351 24.0288 41.6317 31.2282C41.6317 31.2282 54.5839 45.0721 57.0663 46.3374C57.0663 46.3374 51.8684 49.9778 30.1185 29.3304C30.1185 29.3304 16.7666 40.0111 16.1266 48.8679H97.3623L97.4474 51.6389H15.9712C15.9712 51.6389 16.6075 59.3895 29.0049 70.9434C29.0049 70.9434 47.1513 54.9611 57.1476 53.4554L57.7063 53.3778C57.7063 53.3778 51.0692 58.9974 46.6667 63.9845C46.6667 63.9845 34.3581 76.7961 25.4052 79.8817C25.4052 79.8817 -7.6211 65.7972 6.04888 37.081C6.04888 37.081 10.8139 27.0773 26.3634 19.9186ZM97.2993 47.6619C97.2993 47.6619 91.6352 9.80401 41.0395 14.9131L42.9708 15.3866C50.0702 16.5002 54.7946 21.3725 54.7946 21.3725C57.4694 23.4148 66.7628 33.3259 66.7628 33.3259C81.8757 50.7881 97.2993 47.6619 97.2993 47.6619ZM97.536 52.8006C97.536 52.8006 91.8794 89.8447 41.2763 84.8428L43.2112 84.3804C50.3108 83.289 55.0314 78.5239 55.0314 78.5239C57.7062 76.5187 67.0033 66.822 67.0033 66.822C82.1124 49.7448 97.536 52.8006 97.536 52.8006Z" fill="#D71920"/>
</svg>
