<svg width="100" height="100" viewBox="0 0 100 100" fill="none" xmlns="http://www.w3.org/2000/svg">
<path d="M100 50C100 77.6 77.6286 100 50 100C22.4 100 0 77.6 0 50C0 22.4 22.4 0 50 0C77.6286 0 100 22.4 100 50Z" fill="#E32526"/>
<path d="M35.9143 39.9999C37.0572 39.7999 37.8857 40.4856 37.8 41.5142C37.7143 42.5713 36.7143 43.5713 35.6 43.7713C34.4857 43.9713 33.6286 43.2856 33.7143 42.2285C33.8286 41.2285 34.8 40.1999 35.9143 39.9999ZM23.7714 47.4856C24.7429 43.8285 25.9429 40.1142 27.1143 37.3428C24.7429 40.4285 22.2286 44.3713 19.9429 48.3142C21.2572 47.9999 22.5429 47.7428 23.7714 47.4856ZM43.8857 44.657C44.7714 44.4856 46.7429 45.6856 45.8 46.7999C44.8286 47.9427 43.7143 47.7142 41.9714 48.4285C40.9714 48.8285 40.2286 49.7142 39.1429 51.2856C37.7714 53.3142 37.1429 55.2856 37.0286 56.7713C37.0286 57.1999 36.9714 57.4285 36.7429 57.5713C34.4286 59.0856 33.7429 57.9427 33.8 56.5713C33.8286 56.257 33.9429 55.7427 34.1429 55.0856C32.3714 57.7427 30.8 59.0856 29.7714 59.2856C28.4 59.5427 27.6286 58.5713 27.7714 56.7999C27.8286 55.9999 28.0857 55.057 28.5429 53.857C29.2642 52.0749 30.1487 50.3757 30.9429 48.6285C29.8857 48.8285 28.4286 49.1427 26.6857 49.5427C26.6572 49.5999 26.6286 49.6285 26.6286 49.6285C25.8857 53.0856 25.8286 54.3999 25.4286 57.3999C25.2572 58.7142 25.5143 60.1428 23.9429 60.3428C22.3714 60.5713 21.8572 58.9427 21.8286 57.5713C21.8 56.1713 22.0572 54.4856 23.0572 50.3713C21.4286 50.7999 19.6857 51.257 18 51.7999C17.9714 51.8285 17.9714 51.857 17.9714 51.857C15.1429 57.057 12.3429 63.4856 11.8572 65.5428C11.4857 67.1999 10.7429 67.7142 9.62858 67.2285C8.51429 66.7427 7.88572 65.6285 8.28572 64.3999C9.02858 62.1713 11.2286 57.1713 13.2 53.5713C13.1714 53.5713 13.2 53.5142 13.2572 53.4285C11.8 53.9999 10.4572 54.5999 9.28572 55.257C8.51429 55.6856 7.54287 55.2856 7.34287 54.4285C7.20001 53.7999 6.91429 52.5999 8.42858 51.9427C10.7143 50.9427 13.1714 50.1142 15.6 49.3999C20.8 40.6285 27.2857 31.5999 29.1429 31.7713C29.9429 31.8285 29.8286 32.7142 30.5429 33.5142C31.2572 34.3142 31.3429 34.7713 30.5143 36.857C28.8 41.1427 28.9143 40.1427 27.2857 46.8285C30.3143 46.3142 32.9429 46.0285 33.2 45.9999C34.0286 45.8856 35.4857 46.457 34.7143 48.0856C33.6889 49.88 32.6531 51.6897 31.8572 53.5999C31.7838 53.7539 31.0605 55.4136 31.6572 55.3142C31.8857 55.2856 32.2286 55.0285 32.6286 54.5999C33.0286 54.1427 34.3714 53.0285 36.7714 48.9713L37.4 47.657C37.6 47.257 37.8857 46.5713 37.9429 46.257C38 45.7999 38.0286 45.657 38.4286 45.4285C39.0572 45.0285 40.2 44.6856 40.8857 45.1142C41.5143 45.5142 41.3429 46.2856 40.8286 47.1713C42.8857 44.8285 43.4 44.7427 43.8857 44.657ZM84.9429 51.4856C86.1143 50.0285 87.9429 46.7142 88.0572 45.7999C88.1143 45.3713 88 45.2285 87.6572 45.257C87.2572 45.3142 86.3429 46.057 85.4857 47.1142C84.2286 48.6285 82.5143 51.7142 82.3714 52.7142C82.3143 53.1142 82.4857 53.3999 82.7714 53.3713C83.2572 53.3142 84.0572 52.5999 84.9429 51.4856ZM92 49.0856C92.5143 48.2856 93.6 48.5427 93.3143 49.2856C93.0572 49.9427 92.6 50.9713 91.3714 52.3999C89.8857 54.2285 88.5143 55.1142 87.2857 55.2856C86.2857 55.4285 85.5714 54.9999 85.4 54.1142L85.3429 53.9427C85.3429 53.7713 85.2572 53.7142 85.1714 53.7142C85.0857 53.7142 85 53.7999 84.8572 53.9427C83.6 55.257 82.6572 56.0856 81.4857 56.257C79.7429 56.4856 78.7429 55.1427 79 53.1713C78.5429 53.857 78.0572 54.5142 77.6286 54.9999C76.2857 56.5142 75.1714 57.457 74.1429 57.5999C72.7429 57.7713 72.0286 56.7999 72.2572 55.057C72.3714 54.257 72.6572 53.3142 73.1714 52.1427C73.6857 50.9713 74.5143 49.3427 75.2857 48.0285C75.8857 46.9427 76.4857 45.7142 76.5714 45.3142C76.6286 44.9999 76.6857 44.9142 76.9429 44.7427C77.2572 44.5142 77.9143 44.2285 78.2857 44.1999C79.2572 44.1142 80.5714 44.8285 79.7143 46.3142L79.4 46.8856C79.3429 46.9999 78.7714 48.057 78.4286 48.657C77.8 49.6285 77 51.0856 76.5143 52.0856C76.2 52.6856 76.0572 53.1142 76 53.457C75.9714 53.6856 76.0286 53.7999 76.2 53.7713C76.4286 53.7428 76.8 53.5142 77.2286 53.0856C77.6572 52.6285 77.9429 52.3142 78.9143 51.0285L79.2572 50.5713C79.5429 50.1999 81.7714 47.2856 82.4572 46.5713C84.2572 44.4285 86.2857 42.8856 87.6 42.7427C88.4572 42.6285 89.1429 43.0285 89.4857 43.7999C89.7143 44.457 89.7714 44.4856 90.3429 44.7427C91.2572 45.1142 91.5714 45.4285 91.4857 45.8856C91.4572 46.2285 91.3143 46.4856 90.7429 47.3999C90.3429 48.1142 89.8857 48.9142 89.5429 49.5427C88.8572 50.8856 88.4857 51.7999 89.1429 52.057C89.4 52.1428 89.8572 51.9142 90.4286 51.2856C91.0572 50.5427 91.5143 49.857 92 49.0856ZM80.1714 42.3142C81.2857 42.1142 82.2857 41.0856 82.3714 40.057C82.4572 38.9999 81.6 38.3427 80.4857 38.5427C79.3429 38.7427 78.3714 39.7713 78.2857 40.7999C78.2 41.8285 79.0572 42.5142 80.1714 42.3142ZM63.0572 37.3428C60.7143 40.4285 58.2 44.3427 55.9143 48.257C57.2572 47.9427 58.5429 47.6856 59.7429 47.457C60.7143 43.8285 61.8857 40.1142 63.0572 37.3428ZM63.6286 46.8285C64.3143 46.7427 66.4857 46.457 66.4 47.3999C66.2572 48.8856 65.7143 48.857 63.7429 49.2856C63.3714 49.3713 62.9714 49.457 62.5714 49.5427C62.5429 49.6285 62.5143 49.7142 62.4857 49.7142C61.7429 53.1713 61.6857 54.4856 61.2857 57.4856C61.1143 58.7999 61.3714 60.2285 59.8 60.4285C58.2286 60.657 57.6857 59.0285 57.6857 57.657C57.6857 55.1999 58.9143 50.4285 58.9429 50.3999C57.3429 50.7999 55.6286 51.257 53.9143 51.7999C51.8857 55.257 48.1714 63.5713 47.7143 65.657C47.3429 67.3142 46.6 67.8285 45.4857 67.3428C44.3714 66.857 43.7714 65.7713 44.1429 64.5142C45.1714 61.0856 49.0857 53.6285 49.1429 53.4856C47.6857 54.057 46.3429 54.6856 45.2 55.3428C44.4857 55.7428 43.5714 55.3713 43.3714 54.4856C43.2286 53.857 42.9429 52.657 44.3714 51.9999C46.6286 50.9713 49.0857 50.1142 51.5429 49.3999C56.7429 40.657 63.2 31.657 65.0572 31.8285C65.8572 31.8856 65.7429 32.7713 66.4572 33.5713C67.1714 34.3427 67.2572 34.8285 66.4286 36.9142C64.7143 41.1999 64.8572 40.1999 63.2 46.8856C63.3143 46.857 63.4857 46.8285 63.6286 46.8285ZM66.1143 58.9427C67.4 58.7999 71.1714 57.9999 71.2 53.857C71.2 52.257 69.6857 51.4285 69.3143 50.3142C69.0857 49.6285 69.1429 48.1999 70.2286 47.7713C71.5714 47.257 71.8572 48.1142 72.3143 48.7713C72.5143 49.0285 73.1143 48.9713 73.3429 48.7713C73.6286 48.457 74.0572 47.9999 74.2572 47.2285C74.4286 46.5142 73.6572 45.3427 71.4857 45.3999C70.7143 45.4285 69.6286 45.5427 68.1143 46.9999C67.4 47.657 65.1714 50.7427 66.8286 53.3713C67.2857 54.0856 68.3429 54.9713 67.6572 55.6285C66.5714 56.6856 64.7143 55.057 64.3714 54.5713C64.2 54.3427 63.7429 54.0856 63.4572 54.5428C63.2857 54.7999 62.4572 56.2856 62.5714 56.8285C62.8857 58.5713 65.1143 59.057 66.1143 58.9427Z" fill="white"/>
</svg>
