<svg width="100" height="100" viewBox="0 0 100 100" fill="none" xmlns="http://www.w3.org/2000/svg">
<path d="M0 25C0 11.1929 11.1929 0 25 0H75C88.8072 0 100 11.1929 100 25V75C100 88.8072 88.8072 100 75 100H25C11.1929 100 0 88.8072 0 75V25Z" fill="#09426A"/>
<path d="M38.8961 99.99H32.3267C31.7968 99.4001 31.3268 98.7701 30.9169 98.1002C29.547 95.8604 27.8472 93.7307 26.1274 91.5709C22.4877 87.0113 18.7681 82.3418 17.8982 76.3224C17.7282 75.1025 17.5482 73.9026 17.3682 72.7228C16.2784 65.5135 15.2985 58.9741 16.6883 53.2547C16.6683 55.3445 16.7783 57.2543 16.9283 58.7841C17.0383 59.814 17.2683 60.8239 17.5682 62.1238C18.0282 64.1136 18.6381 66.7734 19.1781 71.1829C19.628 74.8625 21.0979 77.5823 23.2677 80.502C24.1476 81.6919 25.0775 82.8517 25.8374 84.1016C25.9774 84.7316 26.1474 85.3515 26.4073 85.9614C27.4372 88.4312 29.547 92.4308 32.2368 93.3407C32.7267 93.5007 33.2467 93.6107 33.6466 93.9406C34.0866 94.3006 34.2965 94.8705 34.6165 95.3405C35.1665 96.1504 36.2164 96.9203 37.1863 97.6603C37.3662 97.9202 37.5362 98.1802 37.7162 98.4402C38.0862 98.9901 38.4861 99.5101 38.8961 100V99.99Z" fill="#B1D78A"/>
<path d="M99.99 23.6676V29.867C99.41 29.2471 98.8401 28.6172 98.2801 27.9872C95.1904 24.5576 92.7107 23.2677 89.611 22.1878C89.601 22.1778 89.591 22.1578 89.571 22.1378C89.561 22.1178 89.551 22.1078 89.531 22.0878C88.6211 20.8679 87.8612 19.968 87.3412 19.5381C84.0715 16.8283 71.7128 13.2887 64.3535 12.4288C64.9135 12.3088 65.4734 12.1888 66.0333 12.0588C70.1729 11.1289 74.1725 10.239 78.9421 12.1388C84.7815 14.4686 94.6805 19.4881 99.98 23.6776L99.99 23.6676Z" fill="#B1D78A"/>
<path d="M25.037 79.0521C20.7474 71.4129 17.8977 62.5437 22.6272 54.4046C24.527 48.0352 25.1269 41.1059 30.0965 36.1664C33.9061 31.8768 38.1356 27.1973 43.7351 25.5075C47.6347 21.8978 51.9743 17.7082 57.5937 17.5482C60.9534 16.1784 64.233 15.3785 67.8327 15.8684C77.6517 13.1287 68.9526 16.9583 73.4721 17.8282C77.0518 17.1983 80.4814 18.1082 84.0411 18.4382C84.371 18.4782 84.941 18.5981 84.891 19.0581C83.0412 21.3879 88.6806 21.1079 90.0005 21.9878C85.9609 15.6084 71.5023 13.1487 62.7132 12.0388C55.8639 11.7188 48.6146 15.0385 40.4354 18.1782C32.2462 21.3279 28.1966 29.877 22.4572 35.5464C12.8282 45.7254 17.1078 73.7526 26.1668 84.0116C25.8069 82.3618 25.6769 80.6719 25.037 79.0721V79.0521Z" fill="#47A7C5"/>
<path d="M99.9903 30.067C96.5807 25.8974 92.5511 22.9777 88.2715 21.9978C89.5814 22.3878 89.8213 22.9277 90.1813 23.7376C92.3311 28.1872 98.5505 29.727 100 34.8365V30.067H99.9903Z" fill="#0F7BB6"/>
<path d="M99.9897 44.3956V49.685C97.02 41.7058 91.5706 34.2966 84.7812 29.2671C88.2709 28.3472 92.0605 30.7169 94.2103 33.4267C95.2402 34.8165 95.0002 36.5563 96.6601 37.5462C97.7799 38.3662 98.4099 39.3461 98.0699 40.6759C98.1799 42.0658 99.5198 43.1157 99.9897 44.4056V44.3956Z" fill="#7EA9C8"/>
<path d="M29.3668 58.8541C29.7568 54.3146 30.1768 49.3551 33.3564 45.8154C34.9663 44.1356 35.7762 42.4358 35.5362 40.276C35.7062 39.3961 36.5761 38.8461 36.5061 37.9062C33.2864 40.186 29.9468 44.3856 27.637 47.9252C24.7973 54.7045 25.9572 63.6236 28.7269 70.033C29.9468 67.2333 28.7769 62.3338 29.3568 58.8441L29.3668 58.8541Z" fill="#7EA9C8"/>
<path d="M40.1562 34.9268C39.8962 35.0868 38.9762 35.5868 38.7562 35.2868C38.7362 35.2568 38.7162 35.2168 38.6962 35.1668C38.6562 35.0368 38.6562 34.8768 38.6762 34.7368C38.8262 33.6768 39.5662 33.2568 40.4562 32.8268C40.5562 32.7768 40.6562 32.7368 40.7562 32.6868C41.0762 32.5368 41.3962 32.3868 41.7062 32.2068C41.7362 32.1868 41.7662 32.1668 41.8062 32.1468C41.9262 32.0768 42.0662 31.9868 42.1062 32.0268C42.1562 32.0668 42.0862 32.2268 42.0262 32.3168C41.9462 32.4368 41.8562 32.5668 41.7762 32.6868C41.6562 32.8568 41.5462 33.0268 41.4362 33.1968C41.2562 33.4668 41.0762 33.7468 40.9062 34.0168C40.8662 34.0768 40.8362 34.1468 40.7962 34.2068C40.6362 34.4868 40.4962 34.7368 40.1762 34.9268H40.1562Z" fill="#7EA9C8"/>
<path d="M74.9222 48.3652C69.9627 45.5254 61.7835 46.6653 59.1238 50.4649C58.5638 50.4649 58.8838 47.5852 57.9139 47.4952C56.2441 46.0954 51.1146 48.2752 49.8747 46.8553C50.4547 42.0658 63.6833 34.2466 68.2429 36.2664C69.7827 36.6263 71.2726 41.1859 72.7724 41.0659C72.3125 35.9964 74.2623 39.3661 76.2621 41.8458C77.072 42.8257 80.8516 45.0955 79.5018 42.7157C78.9718 41.9058 78.3319 40.096 78.8418 39.776C81.5615 38.9461 85.6711 50.405 82.9214 51.8248C81.3316 52.5847 77.9419 49.965 74.9122 48.3452L74.9222 48.3652ZM49.6247 55.9444C50.5246 55.6344 52.2045 55.0845 53.0844 54.8845C53.9243 54.4645 56.614 55.1545 55.8541 54.1946C55.2642 54.1146 52.3845 52.8447 51.5745 53.3147C50.9946 53.7046 47.5749 53.8846 48.3249 55.4844C48.4349 55.7944 48.7148 56.2644 49.6247 55.9444ZM69.8027 54.1646C70.3027 54.9745 73.5024 53.3947 74.0423 54.4545C74.8322 56.2244 77.302 58.6641 79.7517 58.4841C81.2116 58.4342 81.0116 58.0142 80.9816 57.8842C80.2417 57.5042 79.0218 57.8142 77.6319 56.5643C75.4622 54.8545 75.6521 52.7947 72.6024 52.8347C71.0926 52.9947 69.6427 53.4646 69.7927 54.1646H69.8027ZM79.7717 56.0044C79.5717 56.8143 84.3613 56.5343 84.0213 55.6344C83.9713 55.1645 83.2914 55.2245 82.7414 55.3145C81.7915 55.6444 80.1217 55.3345 79.7717 56.0044ZM50.9446 76.1824C51.9845 75.5324 53.4344 73.8626 52.5244 72.5927C51.8145 71.9928 50.9746 73.3327 50.0647 73.8326C48.5248 75.0425 48.7648 77.9022 50.9446 76.1824ZM68.0929 77.3323C72.4824 77.0623 73.3724 74.3926 69.8327 71.9528C69.0328 71.2229 62.7934 72.3128 61.9635 73.0027C60.1537 74.0626 59.3638 74.9925 57.9039 75.9624C57.6539 77.4422 69.1228 77.2123 68.1029 77.3323H68.0929ZM60.3837 52.7247C58.5338 53.1947 59.7537 59.2841 56.704 57.8242C55.6041 57.4642 54.8742 57.3843 53.4444 58.1842C52.3145 58.9741 50.7346 59.4141 49.7647 59.464C49.5147 59.494 49.3748 59.444 49.2148 60.054C49.0648 60.6639 48.7148 61.3239 48.3549 61.3839C46.955 61.2739 46.1451 59.1141 44.4753 60.5339C43.0154 61.1639 41.0856 70.193 42.3855 70.9729C43.0354 71.2029 44.0953 68.0332 45.1552 68.4731C47.5449 74.3126 42.0655 84.2716 49.6547 88.8711C52.8144 91.0309 55.4842 95.6104 57.284 93.3007C57.6439 92.4107 57.8439 91.4408 58.9438 90.5709C60.0437 89.691 60.3037 88.9211 60.0237 88.4111C58.5338 87.1113 57.284 88.9611 54.5142 88.2612C52.5344 87.9412 49.5447 87.1313 49.2848 85.6814C49.1048 84.6715 49.8847 83.6716 50.0547 82.8517C50.6946 81.7518 50.2147 78.0922 48.5748 80.372C48.2849 80.7819 47.5449 81.1619 47.5549 80.122C47.5349 78.2522 47.9449 76.1524 47.5449 74.3926C47.085 72.7027 49.4048 71.8328 50.4747 71.2229C50.9446 70.9329 51.4246 70.6329 51.4546 69.853C51.4746 68.4631 52.7644 66.5333 52.9944 65.3535C53.0444 64.9835 53.2644 64.6735 53.8543 64.5535C54.4443 64.4335 54.6942 64.4735 54.5242 64.9835C52.4844 69.793 58.3339 67.0033 60.5136 66.8833C62.5534 67.2633 63.0034 67.8932 65.0532 68.3332C67.403 68.8731 65.4732 66.5233 66.1331 65.8034C66.603 65.5934 67.083 66.2534 67.453 67.1433C69.8427 74.5825 75.0422 66.8033 72.7224 80.8119C72.3525 81.3319 71.9225 80.9119 72.2525 80.432C72.2925 80.042 72.5524 78.0522 71.8725 78.0022C70.6026 78.6621 68.8528 78.5121 67.203 78.6321C64.3833 78.9421 58.8638 79.0521 56.0741 78.5121C55.6441 78.1822 52.9944 79.772 54.3643 80.5019C54.7342 80.5719 56.2941 80.6919 57.044 80.7919C59.5037 81.8518 64.7332 79.472 64.8532 83.2217C63.9933 85.7214 74.7222 89.871 73.9623 85.6314C72.6224 82.0818 77.332 84.5215 78.7318 83.2117C79.4318 82.1718 79.5118 81.9918 80.7916 81.0919C84.4413 78.8521 81.7415 72.3928 82.7314 68.6331C82.7014 65.6234 87.491 62.8637 85.2912 60.7239C84.6512 60.034 80.4617 58.8341 81.8715 59.914C85.4711 62.0538 82.9614 62.9437 80.6816 60.8439C79.8117 60.4539 80.6516 61.5838 80.2617 61.8138C79.1818 62.4038 78.2519 60.7339 77.342 60.004C74.8122 58.2442 74.4423 57.6142 70.3227 58.1642C67.143 58.6841 67.003 59.754 65.8131 57.7142C62.6934 57.6242 62.2635 53.1047 60.3537 52.7247H60.3837ZM75.0522 80.8619C73.8423 80.8319 75.4022 77.8222 74.9722 76.2824C75.0522 74.4126 74.3223 73.6326 74.5822 72.5427C76.2821 70.8029 77.332 82.0218 75.0522 80.8519V80.8619ZM49.9547 61.0539C50.3447 61.2339 54.2443 60.104 54.3243 59.594C54.7442 59.2241 55.0842 59.804 55.5841 59.994C56.554 61.4738 52.8044 62.1438 51.5045 62.4137C49.8147 62.7537 48.0849 61.4538 49.9647 61.0539H49.9547ZM68.2129 60.144C69.7727 59.824 72.7724 60.7839 74.1723 59.464C74.3623 59.3041 74.4823 59.3941 74.6722 59.804C74.6522 61.7338 67.363 62.8137 67.203 60.8239C67.143 59.964 67.6729 60.144 68.2129 60.154V60.144Z" fill="white"/>
</svg>
