<svg width="100" height="100" viewBox="0 0 100 100" fill="none" xmlns="http://www.w3.org/2000/svg">
<path d="M39.6938 73.4449L39.6903 73.4548L54.0623 63.0666L53.4752 61.2694L43.1288 68.7473L44.8725 63.412L43.3337 62.3002L40.2859 71.6328C36.6266 68.7647 34.2683 64.3235 34.2683 59.3405C34.2683 58.1994 34.3952 57.0842 34.6315 56.0106L33.0472 54.8675C32.6574 56.3269 32.4601 57.8305 32.4601 59.3405C32.4601 65.1316 35.3155 70.2696 39.6938 73.4449ZM49.2313 63.2261L38.8829 55.7482H44.5238L45.1104 53.9491L35.2346 53.9511C37.2756 48.4369 42.3484 44.3724 48.4329 43.771L49.039 41.9217C41.6769 42.3193 35.5149 47.2515 33.322 53.9511H33.319L47.6934 64.3359L49.2313 63.2261ZM39.6409 40.0907H39.7448C39.6708 39.3055 39.4 38.8408 38.9024 38.6549C37.1167 37.9854 36.1544 36.5213 36.1544 34.8822C36.1544 33.013 37.3545 31.8525 38.8619 31.8525C41.0014 31.8525 41.7773 34.3315 44.222 34.3315C45.0999 34.3315 45.8168 33.8196 45.8168 33.3812V33.1228H45.3602C42.2914 33.1228 41.8193 30.0533 38.8614 30.0533C36.3393 30.0533 34.3443 32.0378 34.3443 34.8817C34.3443 37.7484 36.5706 40.0907 39.6409 40.0907ZM11.3262 60.1223H22.3376V60.0259C21.2304 59.6929 20.349 59.1547 19.4307 58.3237H11.3267C7.2037 58.3237 5.9891 57.941 3.9466 55.7477H31.9135C32.0341 55.1413 32.1858 54.5415 32.3682 53.9506H0L1.25508 55.4287C4.53167 59.2928 5.76027 60.1223 11.3262 60.1223ZM45.1838 32.1029C46.7491 32.1029 47.7149 30.8073 47.7149 29.608C47.7149 28.3894 47.1528 27.8934 46.5708 27.8934C46.3266 27.8937 46.0924 27.99 45.9192 28.1613C45.746 28.3326 45.6478 28.5649 45.646 28.8078C45.646 29.3521 46.1376 29.7183 46.5078 29.7183C46.0332 30.437 45.3162 30.6825 44.3909 30.6144C44.5014 30.4603 44.5611 30.2759 44.5618 30.0866C44.5618 29.5658 44.1281 29.1746 43.6449 29.1746C43.1868 29.1746 42.7306 29.6025 42.7306 30.1463C42.7306 31.1736 43.6964 32.1029 45.1838 32.1029ZM36.1574 71.4455H22.8942C19.2439 71.4455 17.8729 71.1423 16.1876 69.5499H13.6894C16.3675 72.5588 17.8479 73.2441 22.8942 73.2441H37.9871C37.3367 72.6866 36.7254 72.0859 36.1574 71.4455ZM30.0539 68.8695V68.7731C28.9467 68.4401 28.0639 67.9019 27.147 67.0709H19.041C15.3887 67.0709 14.0197 66.7692 12.3324 65.1753H9.83677C12.5108 68.1842 13.9932 68.8695 19.041 68.8695H30.0539ZM26.1987 64.4949V64.3985C25.0921 64.067 24.2092 63.5273 23.2924 62.6978H15.1863C11.534 62.6978 10.163 62.3961 8.47777 60.8027H5.9821C8.65764 63.8116 10.138 64.4954 15.1863 64.4954L26.1987 64.4949ZM53.692 34.6998C52.7912 34.6998 51.8799 35.7932 51.5416 37.3885C52.1002 37.4283 52.6558 37.4855 53.1984 37.5695C53.5581 36.1788 54.1802 35.5372 54.7038 35.4443C54.5169 35.0218 54.1677 34.6998 53.692 34.6998ZM49.9998 41.8948L44.5088 58.7019L46.0457 59.8137L49.9978 47.7142L51.7425 53.0495H53.6426L50.5948 43.7149C56.7643 43.9445 62.0344 47.7157 64.3977 53.0495H66.3527C63.8096 46.5304 57.4408 41.8948 49.9998 41.8948ZM59.7976 42.8014V40.957C57.1145 39.4262 53.5332 38.2971 49.9998 38.2971C46.4634 38.2971 42.8835 39.4262 40.1995 40.957V42.8009C43.0758 41.1131 46.4249 40.0962 49.9993 40.0962C53.5736 40.0962 56.9212 41.1131 59.7976 42.8014ZM41.0843 39.2926C41.5481 39.0771 42.0196 38.8783 42.4978 38.6966C42.2629 37.9974 41.8208 37.2081 40.9924 37.2081C40.5802 37.2081 40.2579 37.5376 40.118 37.9218C40.5007 38.057 40.8175 38.386 41.0843 39.2926ZM42.0731 72.8475L40.4917 73.9871C43.3217 75.8163 46.6249 76.7884 49.9998 76.7852C53.8454 76.7852 57.4043 75.5442 60.2982 73.4489L60.3082 73.4538L54.8192 56.6468H52.9176L56.8712 68.7448L52.3076 65.4502L50.7707 66.56L58.7498 72.3267C56.1656 74.0621 53.1183 74.9885 50.0003 74.9866C47.1099 74.9866 44.4044 74.2043 42.0741 72.8475H42.0731ZM46.8031 37.5675C47.3534 37.4857 47.9068 37.426 48.4619 37.3885C48.1236 35.7932 47.2138 34.6988 46.3135 34.6988C45.8373 34.6988 45.4866 35.0218 45.2992 35.4443C45.8233 35.5372 46.4469 36.1788 46.8031 37.5675ZM43.53 35.9C43.1178 35.9 42.7191 36.1878 42.5587 36.6117C42.9519 36.6694 43.4756 36.985 43.8613 38.232C44.3684 38.0804 44.8811 37.9476 45.3981 37.8339C45.0284 36.5993 44.3589 35.9 43.53 35.9ZM86.3081 69.5494H83.8089C82.1251 71.1413 80.7541 71.4445 77.1038 71.4445H63.8421C63.2736 72.085 62.6618 72.6861 62.0109 73.2436H77.1038C82.1521 73.2436 83.6325 72.5578 86.3081 69.5494ZM48.9146 53.9501L48.328 55.7472H61.1156L56.5539 59.0453L57.1405 60.8425L65.1321 55.0688C65.5198 56.4256 65.7297 57.858 65.7297 59.3395C65.7297 63.9736 63.6922 68.1429 60.4636 71.0096L61.0681 72.8594C65.0122 69.6578 67.5384 64.7872 67.5384 59.3395C67.5384 57.4584 67.2351 55.6488 66.678 53.9501L66.68 53.9481L48.9146 53.9501ZM96.0519 55.7472C94.0089 57.9405 92.7963 58.3227 88.6733 58.3227H80.5673C79.651 59.1537 78.7676 59.6919 77.6609 60.0254V60.1218H88.6733C94.2382 60.1218 95.4663 59.2923 98.7449 55.4282L100 53.9501H67.6298C67.8112 54.5355 67.9631 55.1389 68.0865 55.7472H96.0519ZM48.2151 28.6851L50.0023 27.3929L51.7879 28.6866L51.1074 26.5967L52.8946 25.3045H50.6862L50.0017 23.2146L49.3203 25.3045H47.1099L48.8986 26.5967L48.2151 28.6851ZM90.1612 65.1748H87.6651C85.9803 66.7687 84.6088 67.0699 80.957 67.0699H72.85C71.9336 67.9014 71.0523 68.4396 69.9436 68.7726V68.869H80.9565C86.0043 68.869 87.4872 68.1832 90.1612 65.1748ZM94.0154 60.8022H91.5197C89.833 62.3956 88.4635 62.6973 84.8112 62.6973H76.7051C75.7883 63.5268 74.9054 64.0665 73.7983 64.398V64.4944H84.8112C89.8595 64.4944 91.3399 63.8111 94.0154 60.8022ZM59.8845 37.9213C59.7471 37.5371 59.4228 37.2076 59.0086 37.2076C58.1817 37.2076 57.7396 37.9984 57.5067 38.7016C57.9864 38.882 58.457 39.0803 58.9187 39.294C59.185 38.386 59.5038 38.0565 59.8845 37.9213ZM48.8646 34.5373C49.3632 35.1088 49.658 35.5511 49.9773 36.2609C49.9873 36.2708 49.9923 36.2857 50.0023 36.2956C50.0122 36.2857 50.0172 36.2708 50.0272 36.2609C50.3465 35.5511 50.6403 35.1093 51.1394 34.5373C50.9506 34.0412 50.3815 33.1402 50.0023 32.7739C49.6235 33.1402 49.0539 34.0412 48.8656 34.5373H48.8646ZM54.1887 33.1228V33.3807C54.1887 33.8191 54.9057 34.331 55.7835 34.331C58.2282 34.331 59.0041 31.8515 61.1436 31.8515C62.649 31.8515 63.8526 33.0125 63.8526 34.8812C63.8526 36.5208 62.8868 37.9844 61.1031 38.6544C60.6045 38.8403 60.3347 39.305 60.2587 40.0907H60.3646C63.4334 40.0907 65.6612 37.7479 65.6612 34.8812C65.6612 32.0373 63.6662 30.0528 61.1441 30.0528C58.1862 30.0528 57.7141 33.1228 54.6453 33.1228H54.1887ZM52.2886 29.607C52.2886 30.8063 53.2559 32.102 54.8197 32.102C56.3086 32.102 57.2749 31.1726 57.2749 30.1453C57.2749 29.602 56.8182 29.1741 56.3601 29.1741C56.1172 29.1748 55.8845 29.271 55.7127 29.4418C55.5409 29.6126 55.444 29.844 55.4433 30.0856C55.4433 30.2924 55.5102 30.4589 55.6141 30.6134C54.6873 30.682 53.9703 30.4365 53.4977 29.7178C53.8644 29.7178 54.3595 29.3516 54.3595 28.8078C54.3578 28.5644 54.2594 28.3314 54.0856 28.1599C53.9119 27.9884 53.677 27.8922 53.4322 27.8924C52.8527 27.8924 52.2886 28.3884 52.2886 29.607ZM50.0023 28.9182C49.6188 28.9184 49.2512 29.07 48.9799 29.3395C48.7087 29.609 48.556 29.9746 48.5553 30.356C48.5553 30.7377 48.7078 31.1038 48.9791 31.3737C49.2505 31.6437 49.6185 31.7953 50.0023 31.7953C50.386 31.7953 50.754 31.6437 51.0254 31.3737C51.2967 31.1038 51.4492 30.7377 51.4492 30.356C51.4489 29.9745 51.2963 29.6087 51.025 29.3391C50.7537 29.0694 50.3858 28.918 50.0023 28.9182ZM57.4458 36.6117C57.2869 36.1873 56.8867 35.9 56.4765 35.9C55.6461 35.9 54.9781 36.5993 54.6064 37.8353C55.1237 37.9484 55.6364 38.0817 56.1432 38.2349C56.5295 36.985 57.0546 36.6694 57.4458 36.6117Z" fill="#EC1C24"/>
</svg>
