<svg width="100" height="100" viewBox="0 0 100 100" fill="none" xmlns="http://www.w3.org/2000/svg">
<path fill-rule="evenodd" clip-rule="evenodd" d="M8.11423 46.6414C8.11423 51.2696 5.30926 52.0299 3.59675 52.3768C2.3788 52.6278 1.14609 52.8862 0.00195312 53.0781C0.00195312 47.2393 0.00195312 41.4005 0.00195312 35.5618C0.00195312 30.9336 2.80693 30.1733 4.51944 29.8263C5.73738 29.5754 6.9701 29.317 8.11423 29.1251C8.11423 34.9639 8.11423 40.8026 8.11423 46.6414Z" fill="#00683E"/>
<path fill-rule="evenodd" clip-rule="evenodd" d="M10.9556 35.7684V29.1251H60.921C59.9836 30.3504 59.2012 31.6053 58.3449 32.7789C57.1565 34.4029 55.7171 35.7684 52.6168 35.7684H38.8946V53.0855H30.7824V35.7684H10.9482H10.9556Z" fill="#00683E"/>
<path fill-rule="evenodd" clip-rule="evenodd" d="M62.0431 32.3877C63.9549 29.7525 65.6083 29.1251 68.2878 29.1251C73.0489 29.1251 77.81 29.1251 82.5711 29.1251C88.3803 37.1119 94.1895 45.0987 99.9988 53.0855H94.0641C91.392 53.0855 89.7385 52.458 87.8193 49.8228L73.4918 30.1216L56.7948 53.0855H46.9922L62.0431 32.3877Z" fill="#00683E"/>
<path fill-rule="evenodd" clip-rule="evenodd" d="M12.2102 62.6667L10.4903 66.35H13.9375L12.2176 62.6667H12.2102ZM9.75217 67.9223L8.56374 70.4615H6.32715L12.2028 58.5109L18.0785 70.4615H15.8419L14.6535 67.9223H9.74479H9.75217Z" fill="#00683E"/>
<path fill-rule="evenodd" clip-rule="evenodd" d="M64.9294 62.6667L63.2095 66.35H66.6567L64.9368 62.6667H64.9294ZM62.4787 67.9223L61.2903 70.4615H59.0537L64.9294 58.5109L70.8051 70.4615H68.5685L67.3801 67.9223H62.4713H62.4787Z" fill="#00683E"/>
<path d="M24.7669 58.9242H22.5303V70.4615H24.7669V58.9242Z" fill="#00683E"/>
<path fill-rule="evenodd" clip-rule="evenodd" d="M76.5476 70.4541H78.6218V65.2576L82.9768 58.9242H80.6221L77.6695 63.3088L74.5988 58.9242H72.2441L76.5476 65.2576V70.4541Z" fill="#00683E"/>
<path fill-rule="evenodd" clip-rule="evenodd" d="M30.7086 70.4541H32.672V65.9588H33.7793L37.1526 70.4541H39.5294L35.9347 65.6709C37.3224 65.1321 38.2894 63.8846 38.2894 62.4452C38.2894 60.5039 36.5326 58.9242 34.3698 58.9242H30.7012V70.4615L30.7086 70.4541ZM32.672 60.6515H34.3772C35.3368 60.6515 36.1192 61.4561 36.1192 62.4378C36.1192 63.4269 35.3368 64.2241 34.3772 64.2241H32.672V60.6441V60.6515Z" fill="#00683E"/>
<path fill-rule="evenodd" clip-rule="evenodd" d="M47.1466 66.0621L44.2605 58.9242H42.0312L46.8883 70.8749L50.1731 63.1833L53.3471 70.8749L58.2041 58.9242H56.0783L53.1921 66.0621L50.1731 58.6142L47.1466 66.0621Z" fill="#00683E"/>
<path fill-rule="evenodd" clip-rule="evenodd" d="M93.0752 59.8912V62.0761C91.9236 61.0132 90.8681 60.4965 89.9011 60.4965C88.7644 60.4965 88.1812 61.0427 88.1812 61.899C88.1812 62.6593 89.0522 63.2719 91.0821 64.0027C92.8685 64.6375 93.6509 65.8702 93.6509 67.2137C93.6509 69.1845 92.0048 70.6608 89.6058 70.6608C88.3362 70.6608 87.1478 70.336 86.0332 69.4724V67.3392C87.2142 68.3726 88.3879 68.904 89.5542 68.904C90.8459 68.904 91.6948 68.284 91.6948 67.4425C91.6948 66.4681 90.7943 66.0991 89.1334 65.4052C87.133 64.5711 86.1808 63.5524 86.1808 62.0983C86.1808 59.9724 87.7826 58.7618 89.8494 58.7618C91.0821 58.7618 92.1525 59.1014 93.0678 59.8986L93.0752 59.8912Z" fill="#00683E"/>
<path fill-rule="evenodd" clip-rule="evenodd" d="M64.2504 47.3796C66.1622 44.7444 67.8157 44.1169 70.4952 44.1169H76.4299L69.912 53.0781H60.1094L64.2578 47.3796H64.2504Z" fill="#BF1E0C"/>
</svg>
