<svg width="100" height="100" viewBox="0 0 100 100" fill="none" xmlns="http://www.w3.org/2000/svg">
<path d="M0 24C0 10.7452 10.7452 0 24 0H76C89.2548 0 100 10.7452 100 24V76C100 89.2548 89.2548 100 76 100H24C10.7452 100 0 89.2548 0 76V24Z" fill="#00205B"/>
<path d="M29.7096 42.0008H37.6695V84.6524C37.6695 91.2845 32.8286 95.7352 26.1165 95.7352H23V88.2431H25.2593C27.9913 88.2431 29.7096 86.9907 29.7096 84.0268V42.0008ZM29.7096 26H37.6695V33.9613H29.7096V26Z" fill="white"/>
<path d="M50.7675 58.2335C50.9222 52.225 54.4353 49.0259 59.12 49.0259C63.8044 49.0259 67.2371 52.225 67.4683 58.2335H50.7675ZM75.4289 64.7863V58.2335C75.4289 48.0104 67.8557 41.5327 59.1208 41.5327C51.4675 41.5327 42.8076 46.5251 42.8076 61.9024C42.8076 78.1345 52.2493 82.0381 60.3681 82.0381C65.6714 82.0381 70.7463 80.1611 74.6457 75.6361L68.8758 70.7223C66.5307 73.1392 63.2549 74.5449 60.2113 74.5449C54.7473 74.5449 50.7678 71.2651 50.7678 64.7863H75.4289Z" fill="white"/>
<path d="M81.7398 29.9807H89.6997V42.001H95.4707V48.0886H89.6997V71.1092C89.6997 73.2966 90.5565 74.0763 92.5021 74.0763H95.4707V81.5685H91.3362C85.7928 81.5685 81.7398 78.0504 81.7398 71.8124V48.0886H77.7529V42.001H81.7398V29.9807Z" fill="white"/>
</svg>
