<svg width="100" height="100" viewBox="0 0 100 100" fill="none" xmlns="http://www.w3.org/2000/svg">
<path d="M0 24C0 10.7452 10.7452 0 24 0H76C89.2548 0 100 10.7452 100 24V76C100 89.2548 89.2548 100 76 100H24C10.7452 100 0 89.2548 0 76V24Z" fill="#0135AD"/>
<path d="M88.7212 49.8851C86.1577 52.4858 80.6221 54.7423 77.9101 55.775C74.1949 57.2283 72.5602 57.7255 70.4797 58.4139C68.1392 59.2171 63.4209 60.6704 63.4209 60.6704C73.1918 63.6536 80.0648 64.5714 80.0648 64.5714C80.0648 64.5714 83.2599 63.5388 88.3497 60.7469C91.0989 59.2936 92.4364 58.3374 93.4023 57.4195C93.7738 57.0753 94.6655 56.1192 94.9255 54.8571C94.9255 54.7806 94.9998 54.5129 94.9998 54.2834C94.9998 54.2834 94.9998 54.1304 94.9998 53.9774C94.9998 53.8244 94.9627 53.7097 94.9627 53.7097C94.9627 53.7097 94.9255 53.4037 94.8512 53.2125C94.7769 53.0213 94.4797 52.3711 93.9596 51.9504C93.6252 51.6827 93.0308 50.956 90.9131 50.1911C90.2073 49.9234 89.0184 49.6939 89.0184 49.6939L88.7212 49.8851Z" fill="url(#paint0_linear_526_2030)"/>
<path d="M94.9629 54.6531C94.9629 54.6531 94.963 54.3771 94.889 54.1405C94.852 53.9039 94.7411 53.7067 94.5932 53.5096C94.4453 53.2336 94.1865 52.9576 93.8906 52.6027C93.6318 52.3661 93.373 52.1295 93.0402 51.8929C91.7091 50.986 90.0081 50.434 88.4921 50.2368C86.1626 49.9214 83.4634 49.9608 83.2045 49.9608C82.3541 49.9608 76.7337 50.0003 75.3286 50.0397C68.9317 50.1974 61.1298 50.1974 59.0961 50.1974C37.9827 50.3157 28.7757 49.8031 18.5333 47.6344C9.84388 45.7812 5 44.0462 5 44.0462C12.691 43.7702 57.4691 41.7987 65.6409 41.5621C71.0024 41.4044 74.774 41.3649 77.843 41.5621C79.396 41.6409 80.8381 41.7987 82.6869 42.1141C84.3138 42.4295 85.7929 42.9027 86.6803 43.2576C88.4921 43.9673 90.0451 45.032 90.7846 46.0966C90.7846 46.0966 91.0065 46.3332 91.3023 46.7669C91.6351 47.2795 92.0418 47.9104 92.1897 48.147C93.299 49.9214 93.8167 51.0649 94.0016 51.4592C94.1864 51.8535 94.3713 52.2872 94.5562 52.721C94.7041 53.1547 94.7781 53.3913 94.852 53.549C94.9629 53.9828 94.9999 54.3771 94.9999 54.4953L94.9629 54.6531Z" fill="#EF101B"/>
<defs>
<linearGradient id="paint0_linear_526_2030" x1="85.4754" y1="46.7146" x2="73.5798" y2="66.729" gradientUnits="userSpaceOnUse">
<stop stop-color="#2E5C99"/>
<stop offset="0.600962" stop-color="white"/>
</linearGradient>
</defs>
</svg>
