<svg width="101" height="100" viewBox="0 0 101 100" fill="none" xmlns="http://www.w3.org/2000/svg">
<path d="M1.01165 87.899C22.3981 82.4548 75.9417 53.6808 83.8918 48.564C87.8081 46.1252 92.14 47.5734 85.2266 58.8438C80.5128 65.7697 77.2765 69.7993 64.7007 73.6107C56.0664 76.8805 24.0015 86.2116 1.54473 88.9232C-0.117491 89.0618 -0.650568 88.4489 1.01165 87.899" fill="#FFC92D"/>
<path d="M3.14728 86.3925C21.8053 79.8444 62.4457 58.4538 76.2976 49.9538C86.2667 43.8884 93.9775 39.4054 96.9746 31.8037C103.409 14.4343 98.4857 7.36569 92.3741 12.7889C84.5751 20.378 47.8216 58.9197 0.805072 86.0148C0.0914924 86.4219 0.00332892 87.3622 3.14728 86.3925" fill="#5E8F4D"/>
<path d="M72.4736 73.089C73.0855 72.9174 73.5693 72.8743 74.0478 72.8791C77.3968 72.9143 77.2793 77.1632 70.165 84.5273C62.4247 92.746 55.5368 91.47 46.3442 91.768C36.7611 91.8645 28.8486 91.6463 7.93648 89.6692C6.2746 89.5685 5.90925 88.9095 7.30719 88.7248C38.5996 84.3678 65.174 75.2717 72.4736 73.089Z" fill="#C52528"/>
</svg>
