<svg width="100" height="100" viewBox="0 0 100 100" fill="none" xmlns="http://www.w3.org/2000/svg">
<path fill-rule="evenodd" clip-rule="evenodd" d="M50 100C22.3858 100 0 77.6142 0 50C0 22.3858 22.3858 0 50 0C77.6142 0 100 22.3858 100 50C100 77.6142 77.6142 100 50 100ZM50 10.9091C71.5893 10.9091 89.0909 28.4107 89.0909 50C89.0909 71.5893 71.5893 89.0909 50 89.0909C28.4107 89.0909 10.9091 71.5893 10.9091 50C10.9091 28.4107 28.4107 10.9091 50 10.9091Z" fill="#E6007E"/>
<path d="M50.0162 37.8373C54.0707 26.5418 70.8616 26.8691 74.7434 38.3146C76.8736 44.6008 74.0644 49.1653 70.8533 54.3827L70.8253 54.4282C65.5843 62.9418 58.2434 70.5827 50.0162 76.2555C41.7889 70.5827 34.448 62.9418 29.2071 54.4282L29.1791 54.3827C25.968 49.1653 23.1587 44.6008 25.2889 38.3146C29.1707 26.8691 45.9616 26.5418 50.0162 37.8373Z" fill="#E6007E"/>
</svg>
