<svg width="100" height="100" viewBox="0 0 100 100" fill="none" xmlns="http://www.w3.org/2000/svg">
<path d="M80.7423 73.1301C80.196 54.4416 26.6743 50.5334 14.7588 40.606C24.9998 52.652 35.1878 56.4623 47.2823 60.0077C41.6302 60.2401 38.0432 58.6303 35.3259 58.0868C46.7389 66.7824 74.9997 73.1301 74.9997 78.1954C74.9997 79.626 74.5289 81.0566 72.0386 83.5714C74.9352 80.0249 73.8135 76.6639 66.8475 74.3911C73.8882 77.9422 67.391 85.8041 55.978 92.8693C58.4808 91.9516 61.4256 90.8912 65.319 89.4386C77.0179 85.0738 80.8728 77.5668 80.7423 73.1301Z" fill="#F40006"/>
<path d="M74.6918 56.8547C57.0873 44.391 12.0736 35.8832 7.53125 28.1841C16.6748 51.8577 58.1964 52.3471 75.3088 65.2452C87.3528 74.3232 73.9876 84.8299 70.8959 86.8118C82.1258 80.5223 89.288 67.1944 74.6918 56.8547Z" fill="#38A231"/>
<path d="M83.8862 62.3891C81.0476 54.7535 73.9727 49.081 63.4382 44.1873C38.6155 32.6535 3.42419 23.5179 0 7C1.71945 36.5597 41.9259 40.9249 65.2136 52.0285C74.0373 56.7961 75.7814 59.1952 78.6778 62.1844C83.283 66.942 83.2408 76.4883 76.0923 83.1292C86.1206 75.7251 85.3908 66.4334 83.8862 62.3891Z" fill="#DCDDDF"/>
<path fill-rule="evenodd" clip-rule="evenodd" d="M74.9232 38.5216C80.31 41.0829 91.8688 37.1986 95.8216 41.7846C96.8037 42.924 96.6959 44.487 97.1378 44.9956C97.624 45.5558 100.354 45.881 99.9614 47.9337C86.4268 45.4062 83.1768 57.75 83.1768 57.75C78.8955 50.5938 72.6118 46.1923 64.6143 43.5C67.531 43.1327 71.9229 41.7187 74.712 41.86C76.0574 41.9306 79.435 45.4237 80.324 43.2303C77.5499 42.7405 75.866 40.9652 74.9232 38.5216ZM92.9344 42.8694C93.4779 44.4999 93.4779 44.4999 95.6518 45.0433C95.6518 43.3042 94.5648 42.8694 92.9344 42.8694Z" fill="#DCDDDF"/>
</svg>
