<svg width="100" height="100" viewBox="0 0 100 100" fill="none" xmlns="http://www.w3.org/2000/svg">
<path d="M0 25C0 11.1929 11.1929 0 25 0H75C88.8072 0 100 11.1929 100 25V75C100 88.8072 88.8072 100 75 100H25C11.1929 100 0 88.8072 0 75V25Z" fill="#FCC62E"/>
<path d="M43.5996 3.72437C68.8795 3.12552 94.1596 17.6535 94.6758 41.3855C95.1917 45.5128 95.1913 49.1247 93.6436 52.7361C92.8029 52.7361 92.0967 52.7162 92.0967 53.7683C91.5806 56.8636 89.0006 58.9274 85.9053 58.9275C84.8734 58.9275 82.81 58.9267 80.2305 56.863C78.5613 55.194 77.0248 53.7683 74.5547 53.7683C71.7243 53.7685 70.0156 56.1395 68.8799 58.4109C67.3322 57.895 65.784 57.8953 64.2363 57.8953C55.4659 57.8954 48.7588 65.1182 48.7588 73.3728C48.7588 75.4365 49.2748 78.0162 50.3066 80.0798C44.6316 80.08 39.9883 84.7232 39.9883 90.3982C39.9884 95.0157 43.4907 97.7238 46.9092 99.9998H25C11.1929 99.9998 0 88.807 0 74.9998V24.9998C4.33157e-05 20.5368 1.17047 16.3474 3.21973 12.7205C16.0705 7.00225 29.5232 4.05785 43.5996 3.72437Z" fill="#798185"/>
<path d="M85.39 62.0223C91.5283 62.0223 94.6766 56.7256 94.6766 51.188C94.1607 47.0607 92.6128 40.3537 88.4855 33.6468C82.4705 23.4213 73.1896 17.198 62.1738 13.526C54.954 11.1194 46.3216 12.6638 39.9893 16.6215C35.862 19.2011 33.2824 23.3284 32.2505 27.9717C30.1869 37.2582 33.7983 46.5447 42.5689 51.7039C50.3364 56.8822 57.8641 54.2835 66.3011 54.2835C74.2806 54.2835 77.6951 62.0223 85.39 62.0223Z" fill="#BEC0C4"/>
<path d="M35.8617 27.9723C38.9228 14.9623 54.9352 13.0055 65.7849 16.6221C85.9057 23.845 91.0649 44.4817 91.5808 50.6727C91.5808 54.4674 89.5653 57.8955 85.3898 57.8955C82.3554 57.8955 80.2068 56.324 78.1669 54.2841C76.6191 52.7364 74.5555 51.1886 69.9123 50.1568C61.0536 48.6803 52.2248 53.086 44.1164 47.5772C37.245 42.9088 33.798 35.1952 35.8617 27.9723Z" fill="#E1E2E2"/>
<path d="M84.874 50.1564C84.874 51.1883 85.9059 52.2201 86.9377 52.2201C87.9696 52.2201 89.0014 51.1883 89.0014 50.1564C89.0014 49.1246 87.9696 48.0928 86.9377 48.0928C85.9059 48.0928 84.874 49.1246 84.874 50.1564Z" fill="black"/>
<path d="M44.1168 29.0041C42.0532 36.7428 47.7282 44.4816 56.4988 46.5453C65.2694 48.6089 73.5241 44.4816 75.5878 36.7428C77.6514 29.0041 71.9764 21.2653 63.2058 19.2016C54.4352 17.138 46.1805 21.2653 44.1168 29.0041Z" fill="white"/>
<path d="M55.4668 27.972C55.4668 31.5834 58.0464 34.163 61.6578 34.163C64.7533 34.163 67.8488 31.5834 67.8488 27.972C67.8488 24.3606 65.2692 21.781 61.6578 21.781C58.0464 21.781 55.4668 24.8765 55.4668 27.972Z" fill="#FCC62E"/>
<path d="M58.0459 27.972C58.0459 30.0356 59.5937 31.0675 61.1414 31.0675C63.2051 31.0675 64.2369 29.5197 64.2369 27.972C64.2369 26.4242 62.6892 24.8765 61.1414 24.8765C59.5937 24.8765 58.0459 26.4242 58.0459 27.972Z" fill="black"/>
<path d="M50.3067 65.6343C53.9181 59.4433 60.625 56.3478 67.3319 57.8955C65.2683 68.2139 72.4911 71.3094 70.4274 82.1436C69.3956 85.7551 67.8478 87.8187 65.7842 89.8824C65.6954 89.9712 65.112 89.9852 64.7524 89.8824C62.4158 89.2148 57.6815 88.0639 56.4976 87.3028C49.2748 82.6596 46.1793 73.373 50.3067 65.6343Z" fill="black"/>
<path d="M74.5562 53.2523C71.4606 53.2523 68.8811 55.316 68.3652 58.4115C67.2034 65.3822 73.0084 72.9675 73.0084 80.596C72.1913 87.1328 67.0046 92.2242 61.6582 96.1158C72.8354 96.9323 83.9443 91.2739 90.5496 81.1119C95.7088 72.3413 96.2247 61.507 93.1292 52.7364C92.8997 52.086 92.7962 51.7046 92.0974 51.7046C91.2125 51.7046 91.0655 52.5756 91.0655 53.2523C91.0655 55.6397 88.486 58.4115 85.3905 58.4115C84.3586 58.4115 82.2949 58.4115 79.7153 56.3478C78.2675 54.9 76.7719 53.2523 74.5562 53.2523Z" fill="black"/>
</svg>
