<svg width="100" height="100" viewBox="0 0 100 100" fill="none" xmlns="http://www.w3.org/2000/svg">
<path d="M0 25C0 11.1929 11.1929 0 25 0H75C88.8072 0 100 11.1929 100 25V75C100 88.8072 88.8072 100 75 100H25C11.1929 100 0 88.8072 0 75V25Z" fill="#003D8F"/>
<path d="M80.7174 10.2319L80.015 10.6534L77.046 12.8248C77.046 12.8248 74.4722 14.5391 70.0365 14.8248C65.6032 15.1129 54.3009 13.5391 54.3009 13.5391C54.3009 13.5391 48.0081 12.6819 41.57 13.9676C35.1344 15.2557 35.7058 19.1176 35.5629 19.689C35.4201 20.2628 31.4558 27.6509 30.5963 28.508C29.7392 29.3651 30.2677 24.2699 30.2677 24.2699C30.2677 24.2699 29.7725 19.9652 25.9773 20.5462C22.6964 21.0462 19.6821 21.9747 19.6821 21.9747C19.6821 21.9747 18.6821 23.2652 19.1107 24.2652C19.5392 25.2652 19.9678 25.408 19.9678 25.408L19.825 29.7104C20.0273 30.5699 20.9702 32.1342 20.9702 32.1342L23.4011 31.8485C23.4011 31.8485 25.013 33.5246 24.4368 34.2461C23.2154 35.7746 21.113 40.2865 21.113 40.2865C21.113 40.2865 20.7678 42.3222 21.3392 43.4674C21.913 44.6103 22.4226 47.6626 24.1916 50.2912C25.1035 51.5578 33.4153 61.1721 34.132 62.0316C34.8463 62.8887 52.1557 71.7577 52.1557 71.7577C52.1557 71.7577 57.2271 74.2291 64.0294 81.6291C67.6722 85.5933 71.1889 89.6052 71.1889 89.6052C71.1889 89.6052 73.177 90.9076 72.4674 88.7814C71.0389 84.491 64.1723 74.7624 64.1723 74.7624L58.7366 68.3268C58.7366 68.3268 55.7318 65.0363 52.0128 64.3197C49.4986 63.8387 46.72 60.1721 46.72 60.1721L41.57 54.5935C41.57 54.5935 39.8534 49.2983 35.4177 48.0126C33.5058 47.4555 33.2392 46.1531 33.2392 46.1531C33.2392 46.1531 33.4153 39.5722 33.9868 36.996C34.5582 34.4223 38.5653 28.2699 43.2867 26.8414C48.0081 25.4104 54.7295 25.8414 54.7295 25.8414C54.7295 25.8414 65.6032 25.6961 72.7532 20.689C79.9079 15.6819 81.4126 12.7367 81.4126 12.7367C81.4126 12.7367 82.6436 9.06053 80.7174 10.2296V10.2319Z" fill="#FCC210"/>
<path d="M48.9869 31.8936C48.9869 31.8936 47.0655 43.8317 47.3679 50.6578C47.5393 54.503 45.5989 54.5744 44.9917 51.5697C44.1822 47.5721 43.7251 34.5055 44.3346 31.6913C44.9917 28.658 49.0869 26.8365 48.9869 31.8936V31.8936ZM52.375 32.9579C52.375 32.9579 50.8083 42.9721 51.2131 50.4578C51.6179 57.9411 52.4274 59.7101 52.6798 60.3696C52.9321 61.0268 54.3464 62.2411 54.3988 59.5101C54.4488 56.7768 55.5607 45.9555 56.725 39.1769C57.8869 32.4008 57.5345 32.6032 57.5345 30.5817C57.5345 28.558 53.5036 26.5008 52.7798 30.1246C52.5774 31.1365 52.375 32.9579 52.375 32.9579ZM61.9845 28.558L61.7821 29.1127C61.7821 29.1127 60.8726 33.6651 60.5678 35.5889C60.263 37.5127 57.5345 51.9721 59.4059 61.7339C59.963 65.6291 60.3654 67.0434 60.3654 67.0434C60.3654 67.0434 62.3892 70.8386 62.5416 66.8434C62.694 62.8482 61.7821 56.9816 64.0582 46.3102C66.3344 35.6389 66.9416 31.6436 66.9416 29.8722C66.9416 28.1008 65.2225 24.5104 61.9845 28.558V28.558ZM71.3915 25.877C72.4558 24.1056 76.0963 22.7413 76.6534 26.5342C77.2082 30.327 72.8129 48.0816 72.6058 49.2935C72.151 51.9721 69.2987 68.1505 70.0273 76.0481C70.1796 80.3957 67.8011 77.6148 67.5511 75.8957C67.1463 74.4814 66.132 61.4815 67.2963 53.2387C68.4582 44.9936 69.7725 37.9127 69.9249 36.8508C70.0773 35.7889 70.482 31.4389 70.482 29.7699C70.482 28.1032 71.3915 25.877 71.3915 25.877V25.877Z" fill="#FCC210"/>
</svg>
