<svg width="101" height="100" viewBox="0 0 101 100" fill="none" xmlns="http://www.w3.org/2000/svg">
<path d="M75.7831 60.728C70.4627 72.356 57.7768 83.8602 42.3171 88.665H41.3096C50.4506 82.8187 58.5186 74.3653 60.8335 63.4106C63.1171 52.6128 61.4586 39.274 54.4078 30.4207C59.1685 25.3023 64.6673 17.6524 70.5287 14.0504C74.5892 19.9245 77.2088 26.7884 78.297 33.859C79.705 42.9925 79.6773 52.2141 75.7831 60.728Z" fill="#0099D9"/>
<path d="M25.2469 82.9798C23.8312 85.0856 22.0504 86.9999 20.1511 88.6649H0C9.23633 78.8558 18.5288 68.97 27.7078 59.1259C29.7807 67.1153 30.0344 75.866 25.2469 82.9798Z" fill="#0099D9"/>
<path d="M46.9726 82.539C44.2976 84.8614 41.2019 86.6801 38.2875 88.665H36.0205C43.4739 83.9849 50.1918 76.7481 52.3203 67.9924C53.4881 63.1838 51.2598 48.0478 46.5999 38.7304C48.8643 36.2972 51.1389 33.8589 53.4009 31.4257C55.9978 35.3098 57.8215 39.1637 58.819 43.7632C62.2094 59.4055 59.0835 72.01 46.9726 82.539Z" fill="#0099D9"/>
<path d="M52.3199 67.9924C50.1914 76.7481 43.4735 83.9849 36.0201 88.665H34.5088C40.801 84.4131 46.5869 78.8967 48.5441 71.267C50.8828 62.1491 49.405 50.3612 41.5617 44.2695C43.2468 42.4609 44.9017 40.5541 46.5995 38.7305C54.471 52.4559 53.4877 63.1838 52.3199 67.9924Z" fill="#24BFF0"/>
<path d="M30.7302 88.6649H21.9141C33.0602 77.9722 30.7302 68.2619 29.2214 60.1334C37.8939 67.9369 40.4733 80.413 30.7302 88.6649Z" fill="#0099D9"/>
<path d="M77.8333 71.9697C75.798 77.4987 73.8131 83.1309 71.7879 88.6649H48.1104C58.9013 84.9194 69.3975 79.7833 77.8333 71.9697Z" fill="#1C67A9"/>
<path d="M87.4055 46.0327C84.8212 53.5591 81.8413 60.9748 79.0932 68.4433C70.0076 77.8841 54.8615 85.1435 42.3174 88.6649C55.8544 84.0554 69.7525 73.9084 75.7834 60.7279C79.6776 52.2141 79.7053 42.9924 78.2972 33.8589C77.2091 26.7884 74.5894 19.9244 70.529 14.0503C70.8438 13.8589 71.2091 13.7229 71.5365 13.5491C81.057 20.4745 87.4055 33.8589 87.4055 46.0327Z" fill="#24BFF0"/>
<path d="M48.1081 67.8085C47.4494 75.8201 40.365 83.5516 33.0288 88.0825C34.4066 86.7978 35.2038 85.0932 36.2718 83.5516C37.6597 81.5516 38.6723 80.3299 39.2215 77.811C41.1157 69.0881 35.7756 62.3173 29.9746 56.607C33.5791 52.7455 37.2038 48.8891 40.8058 45.0251C47.4003 50.1586 48.753 59.9269 48.1081 67.8085Z" fill="#D96100"/>
<path d="M100 11.7859L88.665 42.2544C88.738 41.2695 88.5113 39.9043 88.3778 38.8917C87.0126 28.5541 81.4307 18.9345 73.0479 12.7934C75.4559 11.7959 77.2267 11.4232 79.8489 11.2821C85.8413 10.9572 99.3703 11.0831 99.3703 11.0831C99.3703 11.0831 100.141 11.0252 100 11.7859Z" fill="#1C67A9"/>
<path d="M39.2221 77.8111C38.673 80.33 37.6604 81.5516 36.2725 83.5516C41.2246 73.9521 35.6806 64.5365 28.7158 57.8665C29.144 57.4106 29.5974 57.0126 29.9753 56.6071C35.7763 62.3174 41.1163 69.0882 39.2221 77.8111Z" fill="#DE8A00"/>
</svg>
