<svg width="100" height="100" viewBox="0 0 100 100" fill="none" xmlns="http://www.w3.org/2000/svg">
<path d="M0 25C0 11.1929 11.1929 0 25 0H75C88.8072 0 100 11.1929 100 25V75C100 88.8072 88.8072 100 75 100H25C11.1929 100 0 88.8072 0 75V25Z" fill="#02569B"/>
<path d="M99.9205 23.001C99.9727 23.6605 100.001 24.3271 100.001 25V75C100.001 88.8071 88.8076 99.9998 75.0006 100H25.0006C23.9941 100 23.0014 99.9379 22.026 99.8223C22.0188 99.7833 22.0131 99.7437 22.0104 99.7031C21.9651 99.1645 22.3592 98.6683 22.8942 98.5908L58.5797 93.1484L26.2213 76.9111C25.7757 76.6863 25.5442 76.1285 25.6998 75.6543C25.8516 75.1791 26.3668 74.8644 26.859 74.9453L62.8639 80.793L36.8385 55.3877C36.4863 55.0329 36.4369 54.433 36.7262 54.0254C37.0197 53.6166 37.6137 53.4767 38.0592 53.7109L70.4606 70.4619L53.9127 38.1758C53.6905 37.7294 53.8349 37.1464 54.2399 36.8555C54.6449 36.5645 55.2443 36.6135 55.5963 36.9668L81.0162 62.9775L75.15 27.1895C75.0719 26.6966 75.3858 26.183 75.86 26.0273C76.3351 25.8706 76.8945 26.1045 77.1168 26.5527L93.3756 58.7441L98.8502 23.8867C98.928 23.393 99.3866 23.0008 99.8864 23C99.8978 23.0001 99.9092 23.0005 99.9205 23.001Z" fill="#FF9800"/>
<path d="M99.665 67.0635C99.7884 67.0635 99.9056 67.1106 100 67.1865V75C100 88.8072 88.8072 100 75 100H66.3047L81.3643 97.7002L67.5166 90.7549C67.2852 90.6343 67.1642 90.345 67.2412 90.0957C67.3226 89.8483 67.5929 89.6863 67.8496 89.7305L83.2646 92.2285L72.123 81.3506C71.939 81.1662 71.9119 80.8549 72.0615 80.6416C72.2172 80.4273 72.5283 80.3531 72.7637 80.4746L86.6328 87.6514L79.5498 73.8193C79.4298 73.589 79.5059 73.2821 79.7197 73.1348C79.9298 72.979 80.2458 73.0035 80.4297 73.1895L91.3037 84.3311L88.791 69.0137C88.7536 68.7557 88.9172 68.4889 89.1641 68.4053C89.4144 68.3281 89.7043 68.4488 89.8262 68.6807L96.7861 82.4668L99.125 67.5439C99.1557 67.2793 99.3986 67.0635 99.665 67.0635Z" fill="#FBCE20"/>
</svg>
