<svg width="100" height="100" viewBox="0 0 100 100" fill="none" xmlns="http://www.w3.org/2000/svg">
<path d="M39.8784 54.9704C32.5524 51.1437 26.4725 50.8542 23.6277 50.8542H13.7338L13.2051 49.9227H24.8361C25.6417 49.9227 35.2839 49.7842 40.9609 51.3074C48.0604 53.2081 52.9696 56.9341 53.9263 57.5634C54.8829 58.1802 67.8357 67.4574 67.8357 67.4574C67.8357 67.4574 65.658 69.6854 63.5307 69.6854C61.5167 69.6854 59.339 68.1371 59.339 68.1371C59.339 68.1371 52.4032 63.1398 51.3458 62.3971C50.2884 61.6544 44.8128 57.576 39.8658 54.983L39.8784 54.9704Z" fill="#358E9D"/>
<path d="M39.3491 62.2838C44.2457 65.5314 47.1283 67.9105 48.0724 68.5902C49.0039 69.27 53.3592 72.3791 53.3592 72.3791C53.3592 72.3791 55.3606 73.94 57.8152 73.94C59.6782 73.94 61.9692 71.7749 61.9692 71.7749C61.9692 71.7749 51.5717 64.4363 50.6277 63.7817C49.6836 63.1146 46.3478 60.4837 40.1295 58.8473C34.9308 57.4753 27.5418 57.513 27.0509 57.513H17.585L18.1388 58.4697C18.1388 58.4697 25.276 58.4823 25.8173 58.4823C26.9628 58.4823 34.1881 58.8348 39.3491 62.2586V62.2838Z" fill="#358E9D"/>
<path d="M40.9478 47.3044C47.2542 50.6905 53.4977 55.3731 54.6558 56.2165C55.8265 57.0599 65.305 63.8447 65.305 63.8447C65.305 63.8447 67.5204 65.3426 69.5471 65.3426C71.5233 65.3426 73.7639 63.1523 73.7639 63.1523C73.7639 63.1523 58.6335 52.264 57.2741 51.3073C55.9146 50.3506 50.4641 45.882 41.7157 43.805C34.8679 42.0679 23.4383 42.2693 22.6453 42.2693H8.79883L9.35269 43.226H21.4369C23.9418 43.226 33.5966 43.3519 40.9352 47.3044H40.9478Z" fill="#358E9D"/>
<path d="M95.7796 47.1535C93.9166 46.8262 91.462 46.6751 91.462 46.6751L88.1137 47.6318L86.2003 46.0332C86.2003 46.0332 90.1906 46.3479 91.2983 46.5115C92.255 46.5115 91.9403 46.0332 91.4494 45.0639C90.9711 44.1072 89.8633 44.1072 89.8633 44.1072H79.8058C79.8058 44.1072 78.0057 44.1198 75.9414 43.6415C73.8644 43.1632 73.0462 41.6023 73.0462 41.6023C72.2406 43.4527 75.4378 45.6052 75.4378 45.6052L85.3947 52.7424C86.6787 53.548 87.7864 52.906 87.7864 52.906C87.7864 52.906 90.3417 51.6221 91.7767 51.3074C93.0606 50.9927 97.0383 50.8291 97.5167 50.9927C98.637 51.1564 99.9083 52.2767 99.9083 52.2767C100.55 47.7954 97.6677 47.5059 95.767 47.1535H95.7796Z" fill="#202D5C"/>
<path d="M42.9115 32.363C49.8473 35.4093 59.7664 42.8234 61.214 43.8808C62.6741 44.9381 76.9612 55.1719 76.9612 55.1719C76.9612 55.1719 79.2018 56.7706 81.2788 56.7706C83.3557 56.7706 85.4075 54.681 85.4075 54.681C85.4075 54.681 65.2169 40.1674 63.7567 39.1226C62.2965 38.0779 55.5999 32.4386 43.1506 29.1532C34.6288 26.9 19.9767 27.0007 18.2773 27.0007H0L0.566446 27.9699H17.3207C21.5501 27.9699 33.7476 28.3224 42.924 32.363H42.9115Z" fill="#202D5C"/>
<path d="M41.8546 39.815C34.365 36.0639 25.1256 35.5982 19.7507 35.5982H4.96011L4.40625 34.6415H20.4807C22.2178 34.6415 34.3901 34.5156 42.4463 36.3408C51.736 38.4556 59.7292 44.548 60.56 45.127C61.353 45.6809 79.6933 58.8351 79.6933 58.8351C79.6933 58.8351 77.6037 60.9875 75.3505 60.9875C73.2861 60.9875 71.0455 59.3889 71.0455 59.3889C71.0455 59.3889 59.1124 50.8293 57.9543 50.0111C56.8088 49.1929 48.8282 43.2892 41.8546 39.8025V39.815Z" fill="#202D5C"/>
</svg>
