<svg width="100" height="100" viewBox="0 0 100 100" fill="none" xmlns="http://www.w3.org/2000/svg">
<g clip-path="url(#clip0_526_1980)">
<path d="M69.1404 89.75C67.6504 88.9 62.2904 85.91 61.9604 85.73L67.7304 86.96C70.3104 87.51 71.8603 88.34 71.8103 89.03C71.9703 88.68 72.0504 88.3 72.0504 87.91C72.0504 81.62 62.1504 81.95 62.1504 81.95L64.4403 81.42C67.1003 80.86 68.5704 81.01 68.8104 81.56C68.8204 81.19 68.7803 80.82 68.6903 80.46C67.9503 78.07 66.4104 77.25 61.5804 76.06L54.8404 74.49C56.9904 76.7 57.8704 82.76 55.3904 85.57C55.3904 85.28 55.3204 85 55.2104 84.74C55.0904 84.49 54.9204 84.25 54.7004 84.06C54.3104 85.66 53.3704 87.62 51.1804 87.36C51.1804 87.28 51.3704 86.92 50.7704 86.36C49.5504 85.24 45.6003 81.65 44.1903 80.36C44.1103 80.83 44.0704 81.01 43.9004 81.74C43.8104 82.35 43.5004 82.91 43.0404 83.32C42.5804 83.74 41.9903 83.98 41.3703 84.01C40.9303 83.95 40.4904 83.8 40.1104 83.56C39.7304 83.33 39.4004 83.01 39.1504 82.63C39.7404 83.06 40.4503 83.29 41.1703 83.27C41.2603 82.95 41.4604 82.66 41.7304 82.45C42.0804 82.16 42.6704 81.98 42.7904 81.27C42.8204 81.12 42.8304 80.97 42.7904 80.83C42.7604 80.68 42.6903 80.55 42.6003 80.43C42.5003 80.32 42.3804 80.23 42.2404 80.17C42.1004 80.12 41.9504 80.1 41.8004 80.11C40.7004 80.33 39.4504 80.55 39.1604 80.57C38.9204 80.61 38.6804 80.55 38.4704 80.42C38.3004 80.31 38.1004 80.25 37.8904 80.27C37.6904 80.29 37.5004 80.36 37.3304 80.49C37.1704 80.61 37.0504 80.77 36.9704 80.96C36.9104 80.75 36.8904 80.53 36.9304 80.32C36.9604 80.1 37.0404 79.9 37.1604 79.72C37.2804 79.54 37.4404 79.39 37.6304 79.28C37.8204 79.17 38.0304 79.1 38.2504 79.09C38.4004 79.09 42.2604 78.86 43.3604 78.89C43.9504 78.86 44.5404 78.96 45.0904 79.16C46.0404 79.77 48.0303 81.23 48.4403 81.58C49.2303 79.77 49.0204 76.35 48.0904 75.67C41.8404 74.42 34.8704 75.54 30.6204 73.2C30.0404 73.49 28.3004 74.36 27.7904 74.58C27.4904 74.73 27.1704 74.86 26.8504 74.97C26.7204 75.03 26.5704 75.08 26.4304 75.12C26.5204 75.16 27.8104 75.93 29.4304 74.28C30.9804 75.13 32.6204 75.81 34.3204 76.3C33.8104 77.89 29.7204 80.99 27.1504 83.4C22.9704 87.31 18.4504 98.37 14.3604 99.79C14.9504 99.91 15.5604 99.98 16.1604 100C21.5504 100.09 24.2804 94.95 25.1804 93.67C23.6904 97.42 22.2004 99.5 21.3604 99.45C22.8804 99.91 24.5004 99.98 26.0604 99.66C27.6204 99.35 29.0804 98.65 30.3104 97.64L27.1804 96C27.6304 96.18 31.4004 97.67 34.5404 97.72C38.0304 97.77 38.6304 96.27 38.6304 96.27L34.6704 94.05C36.1704 94.81 37.8104 95.25 39.4904 95.35C44.5304 95.43 47.0704 90.61 47.3804 88.02C47.0904 88.55 45.6404 90.84 43.5204 90.57C43.6504 90.41 43.7104 90.2 43.7004 90C43.6804 89.79 43.6004 89.59 43.4604 89.44C43.4304 89.41 43.3904 89.39 43.3604 89.37C43.0504 89.16 40.6003 86.69 38.7603 85.15C38.6303 85.63 38.5704 85.84 38.3804 86.53C38.2704 87.03 37.9904 87.49 37.5904 87.81C37.1804 88.14 36.6904 88.33 36.1704 88.34C35.7304 88.29 35.3104 88.13 34.9504 87.87C34.5904 87.62 34.3004 87.27 34.1004 86.87C34.4504 87.3 34.9404 87.59 35.4804 87.69C35.6804 87.36 36.0004 87.11 36.3804 87C36.6404 86.93 36.8704 86.81 37.0704 86.63C37.5504 86.18 37.8504 85.56 37.9304 84.9C37.9404 84.71 37.8904 84.51 37.7904 84.34C37.6804 84.17 37.5304 84.04 37.3504 83.96C36.8404 83.71 36.2604 83.61 35.6904 83.65C34.7004 83.65 34.3204 83.58 34.0304 83.29C33.7404 83 33.7204 82.98 33.4204 82.97C33.2904 82.98 33.1604 83.01 33.0404 83.08C32.9204 83.14 32.8104 83.23 32.7304 83.33C32.7204 83.17 32.7504 83.01 32.8004 82.85C32.8604 82.7 32.9504 82.56 33.0604 82.44C33.1704 82.32 33.3104 82.23 33.4604 82.17C33.6104 82.1 33.7704 82.07 33.9404 82.07C34.0404 82.08 34.1404 82.09 34.2404 82.12C34.5604 82.21 38.0103 83.11 38.6903 83.44C39.1003 83.64 42.9403 86.68 42.9403 86.68C43.7303 86.18 44.2403 84.17 44.2603 83.09C44.5603 82.94 45.1104 83.09 45.8404 83.64C46.5804 84.2 48.9104 86.33 49.2004 86.66C48.7304 90.31 51.0203 97.46 54.5303 97.52C54.8603 97.52 55.2003 97.45 55.5103 97.33C55.1903 97.18 55.0603 96.87 54.8703 96.24L54.2803 93.7C54.2803 93.7 55.0504 94.72 57.8804 97.83C59.4004 99.54 60.7904 99.94 61.7104 99.96C62.0204 99.99 62.3204 99.96 62.6104 99.87C62.9004 99.78 63.1704 99.64 63.4004 99.45C62.9604 99.45 62.4604 99.03 61.7504 98.15L59.0204 94.63C63.3104 98.56 66.3604 99.45 68.2204 99.45C69.0204 99.53 69.8203 99.33 70.4903 98.89L61.4004 90.76L72.1504 96.74C73.4104 93.01 70.6604 90.61 69.1404 89.75ZM39.0004 76.73L38.9704 76.76C39.2304 76.85 41.9904 77.87 43.5804 78.49C42.9404 78.49 42.2104 78.49 41.5204 78.53H40.4904L39.4604 78.42C38.7704 78.33 38.8704 77.92 38.3004 77.83C38.1004 77.81 37.9004 77.85 37.7304 77.94C37.5504 78.02 37.4004 78.16 37.2904 78.33C37.2904 77.22 38.2204 76.47 39.0004 76.73ZM33.0204 84.28C33.1804 84.19 33.3604 84.13 33.5404 84.12C33.7004 84.12 35.1204 84.07 35.8404 84.08C36.3404 84.08 37.5304 84.15 37.5204 84.97C37.5104 85.13 37.4804 85.29 37.4304 85.44C37.3604 85.28 37.2404 85.14 37.0904 85.04C36.9404 84.95 36.7604 84.9 36.5804 84.9C36.2604 84.9 34.6804 85.37 34.1804 85.36C33.6704 85.35 33.6704 85.1 33.3604 85.1C33.1704 85.1 32.9904 85.16 32.8304 85.26C32.6804 85.36 32.5504 85.51 32.4804 85.68C32.4304 85.51 32.4104 85.33 32.4404 85.15C32.4604 84.97 32.5304 84.8 32.6304 84.64C32.7304 84.49 32.8704 84.37 33.0204 84.28Z" fill="#A38E5D"/>
<path d="M30.9501 72.1399C30.3601 73.2899 28.4601 73.4699 28.4601 73.4699C28.4601 73.4699 27.8801 72.2799 27.0801 72.4399C26.2701 72.6099 25.2001 72.8599 25.2001 72.8599L24.9601 73.9799C24.8201 73.9799 23.8301 73.6899 23.8301 72.7899C23.8701 72.3699 24.0101 71.9599 24.2601 71.6199C24.5001 71.2699 24.8301 70.9999 25.2101 70.8199C26.1601 71.6399 26.6201 72.0799 27.2001 72.0399C27.7801 71.9999 30.8801 71.8399 30.9501 72.1399Z" fill="#A38E5D"/>
<path d="M17.4 95.19V95.15C15.66 97.85 13.33 99.54 10.75 99.5C6.41 99.45 6 96.06 6 96.06C6.4 96.18 6.82 96.24 7.24 96.22C11.82 94.85 20.92 88.9 22.99 86.63C22.47 87.34 19.26 92.28 17.4 95.19Z" fill="#A38E5D"/>
<path d="M93.0304 15.95C92.8004 18.82 88.8904 22.58 83.3404 26.16H83.3204C76.3504 30.64 66.3804 36.3399 59.7004 39.9399C48.8304 45.9199 46.3304 52.3299 45.4004 56.6399C47.8804 53.6999 62.8604 46.93 74.0504 42.41C86.8904 37.23 93.8704 31.39 94.0204 22.11C94.0304 20.02 93.7004 17.94 93.0304 15.95ZM93.1004 18.06H93.1204L93.1004 18.07V18.06Z" fill="#A38E5D"/>
<path d="M80.1802 42.25C72.3302 45.61 61.1502 49.23 54.9302 52.45C48.9202 55.56 46.2102 56.97 45.4202 58.73V58.71C45.4202 58.71 43.6902 63.05 43.0302 64.29C42.7502 64.86 42.3302 65.35 41.8002 65.71C41.2702 66.06 40.6602 66.27 40.0202 66.31C38.9002 66.17 37.5902 66.01 36.2202 65.94C33.6302 65.82 30.5202 66.15 29.1602 66.9C28.0902 67.5 26.4102 69.66 26.4102 69.66C26.7502 69.86 27.1402 69.96 27.5402 69.97C27.9302 69.99 28.3202 69.9 28.6802 69.72C28.6802 69.72 28.1202 69.14 28.1402 68.94C28.1602 68.74 28.3202 68.66 28.6002 68.47C28.6802 68.83 28.8802 69.13 29.1802 69.34C29.4702 69.55 29.8302 69.65 30.1802 69.61C30.5702 69.57 30.9402 69.42 31.2302 69.16C31.5202 68.91 31.7302 68.56 31.8202 68.19C31.8702 67.98 31.8802 67.76 31.8402 67.55C31.8002 67.34 31.7202 67.14 31.6002 66.97C32.4902 66.97 33.2302 67.48 33.2202 67.74C32.9802 68.33 32.6102 68.86 32.1302 69.29C31.6502 69.71 31.0802 70.02 30.4702 70.19C30.6502 71.02 32.4802 71.19 32.4102 71.7C32.3402 71.95 32.1902 72.17 31.9702 72.3C31.6902 72.53 33.1902 72.99 34.2302 73.06C37.7402 73.19 38.6802 71.9 39.9002 70.26C40.0502 70.07 40.2302 69.92 40.4402 69.82C40.6602 69.72 40.8902 69.66 41.1302 69.66C42.0702 69.66 48.2802 73.46 54.8402 73.56C61.0302 73.65 65.5602 70.66 66.5402 67.12C64.7702 67.77 62.9002 68.13 61.0102 68.17C54.7702 68.08 52.2702 65.07 52.2702 65.07C54.6502 65.92 57.1502 66.39 59.6802 66.44C69.7202 66.59 71.5702 58.44 72.2502 55.78C70.8702 56.66 66.1402 59.76 56.9202 59.61C54.7902 59.67 52.6702 59.26 50.7202 58.39C54.0302 58.45 57.3202 58.17 60.5702 57.57C71.5302 55.33 78.6502 50.25 80.1802 42.25ZM69.6402 46.87H69.6502L69.3402 46.99L69.6402 46.87Z" fill="#A38E5D"/>
<path d="M94.2902 7C94.1502 15.19 86.2002 22.52 78.6302 26.97C68.7302 32.74 59.7002 37.87 55.7402 40.69C52.0602 43.34 51.1002 44.45 50.9902 44.58C53.9002 38.1 58.0302 32.24 63.1502 27.3C65.6902 24.85 82.8802 11.02 86.2102 8.02C88.3102 6.09 90.2702 4.02 92.0702 1.82C92.2302 1.22 92.3502 0.61 92.4302 0C93.6702 2.12 94.3202 4.54 94.2902 7Z" fill="#A38E5D"/>
</g>
<defs>
<clipPath id="clip0_526_1980">
<rect width="88.29" height="100" fill="white" transform="translate(6)"/>
</clipPath>
</defs>
</svg>
