<svg width="100" height="100" viewBox="0 0 100 100" fill="none" xmlns="http://www.w3.org/2000/svg">
<path d="M0 25C0 11.1929 11.1929 0 25 0H75C88.8072 0 100 11.1929 100 25V75C100 88.8072 88.8072 100 75 100H25C11.1929 100 0 88.8072 0 75V25Z" fill="#C3122F"/>
<path d="M21.2188 76.518C22.5075 76.518 23.6993 77.3148 24.1924 78.5053C24.6853 79.6956 24.406 81.101 23.4952 82.0122C22.5848 82.9226 21.177 83.2031 19.9873 82.7104C18.7978 82.2177 18.0001 81.0244 18 79.7368C18 78.8832 18.3398 78.064 18.9434 77.4604C19.5469 76.8571 20.3654 76.5181 21.2188 76.518Z" fill="white"/>
<path d="M39.5489 77.06C40.62 77.7757 41.1683 79.1015 40.917 80.3647C40.6658 81.6274 39.6514 82.6418 38.3887 82.893C37.1251 83.1444 35.8009 82.596 35.085 81.5249C34.2426 80.2642 34.4152 78.5395 35.4893 77.4653C36.5628 76.3918 38.2885 76.218 39.5489 77.06Z" fill="white"/>
<path d="M54.3028 76.518C56.2828 76.5181 57.8497 78.4005 57.459 80.3647C57.2078 81.6274 56.1934 82.6418 54.9307 82.893C54.3065 83.0172 53.6593 82.9539 53.0713 82.7104C51.8807 82.2173 51.0841 81.0255 51.084 79.7368C51.0921 77.9872 52.5532 76.5261 54.3028 76.518Z" fill="white"/>
<path d="M30.9463 69.3383C31.8139 69.9191 32.2567 70.9936 32.0508 72.017C31.8449 73.04 31.0204 73.8601 29.9961 74.06C28.9724 74.2597 27.8992 73.8089 27.3243 72.9389C26.6496 71.9179 26.7912 70.5207 27.6612 69.6557C28.5314 68.7907 29.9291 68.6576 30.9463 69.3383Z" fill="white"/>
<path d="M38.6377 69.3422C39.1931 69.5724 39.6469 70.0261 39.877 70.5815C40.1654 71.2778 40.0838 72.1043 39.6651 72.7309C39.1554 73.4934 38.214 73.8833 37.3145 73.7045C36.4259 73.5278 35.6914 72.7933 35.5147 71.9047C35.3358 71.0053 35.7259 70.0637 36.4883 69.5542C37.115 69.1354 37.9413 69.0538 38.6377 69.3422Z" fill="white"/>
<path d="M47.4473 70.0503C47.8169 70.4199 48.0303 70.9357 48.0303 71.4585C48.0361 72.2542 47.5329 73.0164 46.7989 73.3237C46.0646 73.631 45.1683 73.4539 44.6055 72.8911C44.0429 72.3282 43.8667 71.4328 44.1739 70.6987C44.3275 70.3316 44.5869 70.0185 44.919 69.7993C45.7012 69.2829 46.7816 69.3845 47.4473 70.0503Z" fill="white"/>
<path d="M21.2188 59.9165C22.5023 59.9167 23.69 60.7065 24.1866 61.8901C24.4316 62.4745 24.4992 63.1183 24.3799 63.7407C24.1381 65.0015 23.1388 66.0187 21.8828 66.2836C20.6276 66.5485 19.3014 66.0214 18.5713 64.9663C17.9599 64.0825 17.8315 62.8967 18.2412 61.9008C18.7299 60.7134 19.93 59.9105 21.2188 59.9165Z" fill="white"/>
<path d="M78.5459 60.3188C79.6967 60.0868 80.9038 60.5863 81.5537 61.5639C81.8346 61.9865 82.0003 62.4742 82.0352 62.978L82.087 63.1948C82.0788 64.779 80.7523 66.099 79.168 66.0991C77.995 66.1171 76.8975 65.4037 76.4375 64.3247C76.2102 63.7913 76.1472 63.2018 76.2559 62.6323C76.4762 61.4791 77.3951 60.5509 78.5459 60.3188Z" fill="white"/>
<path d="M70.8448 60.5903C71.8886 60.5844 72.8581 61.2253 73.2618 62.1879C73.6653 63.1509 73.4422 64.2914 72.7061 65.0317C71.9702 65.7714 70.8309 66.0008 69.8662 65.603C68.9012 65.2049 68.2549 64.2385 68.2549 63.1948C68.251 62.5122 68.5266 61.838 69.0078 61.354C69.4892 60.8699 70.1621 60.5903 70.8448 60.5903Z" fill="white"/>
<path d="M30.7784 61.2778C31.5362 61.7843 31.9365 62.75 31.7588 63.644C31.5788 64.5492 30.8524 65.2754 29.9473 65.4555C29.042 65.6356 28.0929 65.2425 27.5801 64.4751C26.9781 63.5736 27.099 62.3333 27.8672 61.5649C28.6364 60.7957 29.876 60.6749 30.7784 61.2778Z" fill="white"/>
<path d="M62.5811 60.8891C63.4941 60.8832 64.3682 61.4604 64.7217 62.3022C65.0796 63.1546 64.883 64.164 64.2315 64.8198C63.5801 65.4753 62.571 65.6778 61.7168 65.3256C60.8729 64.9775 60.2911 64.1077 60.291 63.1948C60.2871 62.5909 60.5305 61.9944 60.9561 61.5659C61.3818 61.1374 61.9771 60.8891 62.5811 60.8891Z" fill="white"/>
<path d="M38.8516 61.5395C39.5064 61.977 39.8519 62.811 39.6983 63.5835C39.5446 64.3556 38.906 64.9943 38.1338 65.1479C37.3619 65.3012 36.5283 64.9555 36.0909 64.3012C35.5693 63.5207 35.6781 62.4561 36.3428 61.7915C37.0075 61.1269 38.0711 61.0181 38.8516 61.5395Z" fill="white"/>
<path d="M55.4131 61.5317C56.0718 61.9656 56.4226 62.7994 56.2725 63.5737C56.1223 64.3479 55.485 64.9898 54.7119 65.146C53.9388 65.302 53.102 64.9576 52.6631 64.3022C52.1436 63.5261 52.245 62.457 52.9043 61.7924C53.5645 61.1272 54.6322 61.0173 55.4131 61.5317Z" fill="white"/>
<path d="M47.6514 62.5004C47.8605 63.1272 47.6754 63.8406 47.1856 64.2866C46.5487 64.8662 45.5451 64.8662 44.9082 64.2866C44.4172 63.8397 44.2329 63.1282 44.4424 62.5004C44.5915 62.0538 44.9318 61.6792 45.3623 61.4887C46.2598 61.092 47.3407 61.5696 47.6514 62.5004Z" fill="white"/>
<path d="M29.4971 52.9253C30.2833 52.9312 31.0294 53.4365 31.3262 54.1645C31.623 54.8926 31.4429 55.7756 30.8848 56.3295C30.3267 56.8833 29.4426 57.0566 28.7168 56.7544C27.9911 56.4521 27.4913 55.7026 27.4912 54.9165C27.4994 53.8293 28.4099 52.9253 29.4971 52.9253Z" fill="white"/>
<path d="M38.4082 53.353C39.0263 53.609 39.4522 54.2475 39.4522 54.9165C39.4603 55.8394 38.6838 56.6161 37.7608 56.6079C37.0919 56.6079 36.4544 56.1818 36.1983 55.5639C35.9422 54.9458 36.0914 54.1933 36.5645 53.7202C37.0376 53.247 37.79 53.0969 38.4082 53.353Z" fill="white"/>
<path d="M45.0655 53.9428C45.4507 53.5576 46.0631 53.4355 46.5664 53.644C47.0696 53.8526 47.416 54.3718 47.416 54.9165C47.416 55.6666 46.7892 56.2934 46.0391 56.2934C45.4944 56.2934 44.9752 55.947 44.7666 55.4438C44.5582 54.9405 44.6802 54.3281 45.0655 53.9428Z" fill="white"/>
<path d="M21.2188 43.4497C22.5093 43.4497 23.7041 44.2492 24.1953 45.4428C24.6862 46.6359 24.4009 48.0465 23.4844 48.9545C22.5669 49.8635 21.1553 50.1347 19.9659 49.6323C18.7551 49.1206 18.0396 47.9459 18 46.6528C18.0082 44.9049 19.4712 43.4497 21.2188 43.4497Z" fill="white"/>
<path d="M38.8535 44.9985C39.5089 45.4373 39.8534 46.2742 39.6973 47.0473C39.5411 47.8203 38.8992 48.4577 38.125 48.6079C37.3508 48.758 36.517 48.4071 36.083 47.7485C35.5687 46.9676 35.6786 45.8999 36.3438 45.2397C37.0093 44.5794 38.0765 44.4782 38.8535 44.9985Z" fill="white"/>
<path d="M54.3028 44.6616C55.5283 44.6525 56.5103 45.82 56.2705 47.0376C56.0307 48.2551 54.6794 48.9628 53.5489 48.4897C52.8201 48.1846 52.3204 47.4282 52.3262 46.6381C52.3262 45.5619 53.2265 44.6616 54.3028 44.6616Z" fill="white"/>
<path d="M61.1338 36.2085C62.1529 35.5276 63.5541 35.6638 64.4229 36.5327C65.2917 37.4015 65.428 38.8027 64.7471 39.8217C64.168 40.6883 63.0955 41.1324 62.0733 40.9292C61.0509 40.7258 60.2298 39.9046 60.0264 38.8823C59.8232 37.8601 60.2673 36.7875 61.1338 36.2085Z" fill="white"/>
<path d="M37.7608 36.0688C38.3648 36.0688 38.9601 36.3171 39.3858 36.7456C39.8114 37.1741 40.0548 37.7705 40.0508 38.3745C40.0448 39.2902 39.4749 40.1336 38.627 40.4799C37.7895 40.822 36.7734 40.6158 36.1358 39.9741C35.4983 39.3324 35.2991 38.3151 35.6465 37.4799C35.9941 36.6447 36.8561 36.0688 37.7608 36.0688Z" fill="white"/>
<path d="M70.8448 26.8774C72.5977 26.8775 74.0635 28.3432 74.0635 30.0961C74.0634 32.0981 72.1583 33.6385 70.2168 33.2524C68.9536 33.0011 67.9388 31.9873 67.6875 30.7241C67.3013 28.7826 68.8427 26.8774 70.8448 26.8774Z" fill="white"/>
<path d="M37.253 27.5415C38.2749 27.3383 39.3479 27.7825 39.9268 28.6489C40.6075 29.6676 40.471 31.0695 39.6026 31.9379C38.7342 32.8063 37.3322 32.9428 36.3135 32.2622C35.4471 31.6833 35.003 30.6102 35.2061 29.5883C35.4095 28.5657 36.2303 27.7449 37.253 27.5415Z" fill="white"/>
<path d="M77.0264 18.6245C78.5313 17.6411 80.6035 17.8481 81.878 19.1225C83.1908 20.4354 83.3229 22.449 82.3057 23.9663C80.9745 25.9518 78.0588 26.2068 76.3975 24.5258C74.7362 22.8449 75.0254 19.9322 77.0264 18.6245Z" fill="white"/>
<path d="M38.8721 19.1499C39.946 19.5947 40.665 20.6699 40.6651 21.8325C40.6651 22.6027 40.3591 23.3415 39.8145 23.8862C38.8459 24.8548 37.2836 25.0065 36.1475 24.2475C35.6699 23.9284 35.298 23.4745 35.0782 22.9438C34.6333 21.8698 34.8848 20.601 35.7071 19.7788C36.5293 18.9565 37.7981 18.705 38.8721 19.1499Z" fill="white"/>
</svg>
