<svg width="100" height="100" viewBox="0 0 100 100" fill="none" xmlns="http://www.w3.org/2000/svg">
<path d="M83.9253 52.9567L81.3954 49.3224L73.7686 51.509L78.6566 45.2553L74.2238 38.6806L81.679 41.397L86.567 35.1433L86.2834 43.0761L87.6267 43.5612L83.9253 52.9567Z" fill="#088038"/>
<path d="M91.3209 31.2774C85.3507 30.2774 75.5597 28.1132 59.2761 31.5684C57.8881 31.8595 56.4552 32.1953 54.9627 32.5834C52.9727 33.0809 50.8732 33.6854 48.6642 34.3968L43.1418 40.6953C43.1418 40.6953 44.4478 40.561 45 40.5311C45.9179 40.5311 47.6642 40.4416 49.3284 40.5311C50.6316 40.5637 51.9297 40.706 53.2089 40.9565C58.0895 41.8222 63.403 44.0908 65.7985 49.6356C70.0448 59.4341 63.3284 71.7177 48.5522 78.1282C36.2313 83.464 5.59702 83.6058 5.59702 83.6058L0 89.9938H28.4403C70.2313 89.9938 74.8358 75.3446 83.9329 52.9938L81.3955 49.3595L73.7687 51.5386L78.6567 45.2923L74.2239 38.7102L81.6866 41.4267L86.5746 35.1804L86.2911 43.1058L87.6343 43.5908C89 39.9789 90.6194 35.6729 92.1119 31.4789C91.8493 31.4064 91.5827 31.3491 91.3134 31.3073" fill="#FFD803"/>
<path d="M54.4551 27.8148L62.9252 18.1656C66.5148 14.2178 69.8506 9.91182 80.9401 10.0014H99.9998L93.8655 26.9193C93.8655 26.9193 74.2461 22.0238 54.4551 27.8073" fill="#D41219"/>
<path d="M8.7832 79.9417C16.9474 79.6656 34.3205 79.1955 45.4474 74.479C57.8728 69.2178 62.4921 60.0761 58.9399 51.8671C54.7459 42.1656 39.9175 44.4044 39.9175 44.4044L8.82051 79.897V79.9417" fill="#088038"/>
</svg>
