<svg width="100" height="100" viewBox="0 0 100 100" fill="none" xmlns="http://www.w3.org/2000/svg">
<path d="M33.2129 10.9088C37.2167 9.88847 41.3179 9.27363 45.4388 9C37.9354 9.65934 30.4206 11.7264 24.081 15.8901C20.1117 18.5143 16.5743 22.0797 14.8089 26.5649C13.3749 30.1518 13.3106 34.2628 14.6771 37.8793C16.2925 42.2458 19.6123 45.7782 23.3821 48.4123C26.5502 50.6376 30.1074 52.2431 33.7618 53.4892C37.5003 54.7354 41.3113 55.9255 44.6855 58.009C46.8465 59.336 48.8278 61.0816 50.0014 63.3629C50.8668 61.6701 52.197 60.2492 53.7036 59.1102C57.2559 56.4382 61.5383 55.0404 65.7103 53.6689C70.2087 52.1788 74.59 50.1464 78.2939 47.1529C81.6747 44.4414 84.5313 40.8743 85.723 36.6578C86.7664 33.0842 86.4104 29.1627 84.8708 25.7885C82.9109 21.4484 79.3323 18.0396 75.3565 15.5209C69.1092 11.5978 61.8037 9.61484 54.4965 9.0033C61.5861 9.44506 68.6394 10.9467 75.1867 13.7324C79.3752 15.5292 83.3626 17.8731 86.7714 20.9143C89.5884 23.4413 92.0148 26.4825 93.4852 29.9935C94.6258 32.6688 95.1517 35.6062 94.9621 38.5122C94.7725 42.1057 93.5429 45.62 91.5401 48.6019C88.8483 52.642 84.9565 55.7376 80.7829 58.1393C78.2411 59.5997 75.5691 60.8179 72.8296 61.8563C68.8339 63.3926 64.8795 65.1448 61.3685 67.6256C57.9333 70.019 54.9399 73.0965 52.8729 76.7526C51.5146 79.1229 50.5751 81.7174 49.9981 84.3861C48.9415 79.5762 46.5761 75.0531 43.1393 71.5141C38.9409 67.1063 33.4206 64.2646 27.8013 62.1052C23.7414 60.5772 19.7771 58.7228 16.2034 56.2404C12.3364 53.5684 8.88637 50.1019 6.87867 45.8029C4.83965 41.4595 4.39789 36.3414 5.86163 31.7573C7.35669 26.9984 10.6155 22.9847 14.443 19.8709C19.8958 15.4764 26.4612 12.6379 33.2129 10.9088V10.9088Z" fill="#E60012"/>
<path d="M39.8481 10.9057C41.1503 10.6518 42.4558 10.393 43.7843 10.3188C38.8525 10.9254 33.9997 12.493 29.7403 15.0744C26.4518 17.1101 23.4568 19.8859 21.8809 23.4794C20.5243 26.5024 20.4864 30.0695 21.7458 33.1289C23.0776 36.4338 25.6985 39.0514 28.6277 40.9981C32.9118 43.8251 37.8766 45.4569 42.8843 46.4262C45.3915 46.896 48.0602 47.4333 49.9937 49.2267C51.9882 47.3756 54.7558 46.8663 57.3355 46.38C61.3872 45.5888 65.3762 44.3361 69.029 42.3877C72.3702 40.5943 75.4972 38.1432 77.4191 34.8184C79.1549 31.8629 79.6593 28.1854 78.634 24.8986C77.6136 21.5211 75.2285 18.7271 72.4741 16.6024C68.3565 13.4573 63.3834 11.5996 58.3262 10.6238C57.6141 10.4705 56.8872 10.398 56.1635 10.3271C57.8102 10.3963 59.4256 10.7524 61.0328 11.0936C66.3603 12.3002 71.5757 14.4233 75.8746 17.8486C78.7741 20.176 81.2483 23.2057 82.3362 26.8074C83.4307 30.3497 82.9758 34.3206 81.1428 37.5399C79.1862 41.0262 75.9917 43.624 72.5845 45.6135C69.7394 47.2701 66.6883 48.5394 63.5696 49.5696C60.4394 50.6229 57.1806 51.2888 54.1311 52.5861C52.4877 53.285 50.9119 54.3284 49.9937 55.9026C49.064 54.3119 47.4684 53.2652 45.8069 52.5663C42.3915 51.129 38.7272 50.4482 35.2557 49.174C30.4953 47.4762 25.809 45.213 22.1084 41.702C19.5914 39.3135 17.6628 36.18 17.1947 32.7003C16.7216 29.4942 17.4864 26.1678 19.1562 23.4085C20.8112 20.626 23.2194 18.3563 25.8799 16.5414C30.0782 13.7062 34.9096 11.9211 39.8481 10.9057V10.9057Z" fill="#E60012"/>
<path d="M31.8263 15.493C34.8378 13.6056 38.2137 12.31 41.6933 11.616C38.5153 12.399 35.4428 13.7062 32.784 15.6347C30.5125 17.3062 28.5361 19.5397 27.6592 22.2628C26.8367 24.7386 27.1169 27.5227 28.3301 29.8238C29.9999 33.0414 33.0131 35.3376 36.2109 36.9035C41.5648 39.4799 47.667 40.2695 53.55 39.7024C58.4868 39.1898 63.4418 37.6799 67.4473 34.67C69.9743 32.7612 72.1171 30.0793 72.6693 26.8897C73.1836 24.1403 72.3347 21.2639 70.6814 19.0485C68.4182 15.971 65.0209 13.932 61.4984 12.5968C60.4484 12.1979 59.3736 11.8748 58.2857 11.6045C61.1522 12.1649 63.9363 13.1688 66.5226 14.5237C69.6677 16.2067 72.5968 18.5606 74.3144 21.7452C75.6529 24.1947 76.0452 27.1667 75.2572 29.8551C74.3985 32.865 72.282 35.3541 69.8424 37.2316C66.6215 39.6909 62.8055 41.2964 58.8726 42.1931C56.6918 42.7025 54.4418 42.8409 52.2626 43.3733C51.4038 43.5678 50.6077 44.003 50.0044 44.6459C48.6379 43.1673 46.4835 43.1508 44.6406 42.8063C39.9856 42.2195 35.3917 40.759 31.462 38.1563C28.8328 36.4057 26.4559 34.0848 25.2081 31.1376C24.074 28.5101 24.0724 25.4342 25.1966 22.8018C26.4938 19.7012 29.0257 17.2749 31.8263 15.493V15.493Z" fill="#E60012"/>
<path d="M49.0814 13.9584C51.216 13.7227 53.4314 14.3326 55.1325 15.6414C57.0908 17.1166 58.36 19.459 58.5232 21.9068C58.6946 24.0711 58.0122 26.2947 56.6441 27.9859C55.177 29.8321 52.9204 31.0304 50.5633 31.1722C48.3347 31.3337 46.0649 30.5574 44.3918 29.0788C42.577 27.5046 41.4792 25.1474 41.4429 22.7458C41.377 20.4661 42.2605 18.1798 43.8462 16.5414C45.2143 15.1007 47.1034 14.1644 49.0814 13.9584Z" fill="#E60012"/>
<path d="M20.9557 66.4437C25.2612 65.6311 29.7645 66.4569 33.6876 68.3344C38.3145 70.5465 42.2574 74.069 45.2014 78.2493C47.097 80.9427 48.5723 83.9427 49.4723 87.1142C47.7778 84.6037 45.7305 82.3372 43.5003 80.2883C40.5134 77.5751 37.098 75.2278 33.2376 73.9619C30.498 73.113 27.4914 72.8245 24.7139 73.6586C23.2419 74.1053 21.8359 74.9427 20.9639 76.2366C20.1991 77.341 19.8727 78.7932 20.2881 80.0905C20.7381 81.5229 22.1194 82.6207 23.6276 82.6718C25.3782 82.774 27.0529 81.4356 27.3711 79.7196C27.6645 78.2608 26.9837 76.6965 25.7656 75.8592C27.2227 76.4542 28.5249 77.4729 29.3013 78.8608C30.5178 80.951 30.5063 83.674 29.3145 85.7675C28.3782 87.4636 26.715 88.6521 24.9315 89.3378C22.4969 90.2807 19.754 90.1966 17.2831 89.4351C14.7661 88.6554 12.5441 86.9592 11.1479 84.7224C9.51274 82.1279 8.99515 78.8526 9.76494 75.8855C10.3946 73.3784 11.888 71.1185 13.8908 69.4981C15.9051 67.8448 18.4238 66.9333 20.9557 66.4437ZM71.1383 66.6283C74.5768 65.8454 78.2345 65.9772 81.5741 67.1294C83.8208 67.8514 85.9175 69.1141 87.4818 70.8976C89.0148 72.6168 90.0566 74.7778 90.3829 77.0625C90.8329 80.1334 89.9643 83.379 88.0044 85.7938C84.9269 89.6691 79.179 91.1016 74.6279 89.1993C72.7158 88.3949 70.9999 86.9493 70.2251 84.9878C69.3218 82.8086 69.6004 80.1647 71.0114 78.2608C71.7828 77.163 72.9202 76.3784 74.1449 75.8674C72.79 76.7938 72.1125 78.6465 72.6796 80.2108C73.1889 81.7043 74.7285 82.7806 76.3125 82.6768C77.8933 82.6125 79.3224 81.3993 79.6933 79.8696C80.0692 78.391 79.5219 76.7987 78.518 75.6844C77.206 74.2026 75.2279 73.502 73.3092 73.2597C70.4444 72.9284 67.5136 73.4954 64.8845 74.641C62.0691 75.8427 59.5174 77.5965 57.2047 79.5894C54.6597 81.8081 52.347 84.307 50.4465 87.1059C52.0388 81.5114 55.385 76.4839 59.735 72.6482C62.9921 69.7932 66.8872 67.5811 71.1383 66.6283Z" fill="#E60012"/>
</svg>
