<svg width="100" height="100" viewBox="0 0 100 100" fill="none" xmlns="http://www.w3.org/2000/svg">
<path d="M28.6161 73.6686C25.2531 71.0267 23.091 68.9244 23.091 65.8011C23.091 63.8787 23.5713 62.0007 24.2919 60.0793C25.0124 58.1573 26.454 56.0427 28.1362 53.8806L33.6613 46.9667C18.7662 45.5246 27.175 38.6224 41.5897 38.6224C46.635 33.5771 51.6802 28.3871 55.0437 26.225C58.4072 24.0629 61.2904 23.1257 63.9333 23.1257C64.1735 23.1257 64.4142 23.1244 64.6539 23.3641C64.894 23.6048 64.894 23.8392 64.894 24.0794C64.894 24.3195 64.894 24.5526 64.6539 25.033C64.4142 25.5133 64.1735 25.7447 63.6931 26.225L54.804 36.2383C63.2123 35.0369 70.4196 33.1571 75.7056 30.7548C80.991 28.3526 83.1536 25.5275 83.1536 23.1257C83.1536 21.6836 82.1924 20.509 80.2705 19.788C78.348 18.8268 75.9458 18.5959 72.8219 18.5959C68.4982 18.5959 63.453 19.0639 57.9269 20.2648C52.4007 21.2255 46.635 22.8709 40.1486 25.033C42.3108 25.754 42.5509 26.9274 40.629 28.6091L27.6554 32.1853C26.2138 32.4255 18.0452 36.5224 19.727 30.5164C21.1685 25.2305 27.1745 17.8953 30.2978 15.9734C31.7394 15.0122 33.6613 14.0714 36.3043 13.3509C49.2779 9.50654 74.264 3.27681 87.9582 11.2052C96.1268 18.1724 89.3998 30.4924 80.5106 33.6158C72.5823 36.2587 62.9721 39.5654 49.5181 41.0065L46.635 43.629C54.0825 45.0706 89.8806 46.8392 75.7056 63.417C66.2184 75.8145 37.6041 80.8592 28.6161 73.6686ZM43.9925 47.4435L39.4276 52.4502C38.2262 53.8912 37.2655 55.0621 36.5445 56.5031C35.8239 57.7035 35.3431 58.8819 35.3431 59.6025C35.3431 61.044 36.3043 62.4558 38.4669 63.417C40.629 64.6179 43.0313 65.0859 45.9144 65.0859C50.9597 65.0859 55.7642 63.912 60.5698 61.5097C65.3744 59.1069 67.7777 56.759 67.7777 54.5958C67.7777 53.1548 65.6151 51.7443 61.531 50.5429C57.446 49.1013 51.6802 48.1641 43.9925 47.4435Z" fill="#BE2553"/>
<path d="M68.5058 0.355557C62.9797 5.64099 43.7594 33.7499 25.9807 55.8538L23.3382 58.9766L22.8578 61.6196C22.8578 62.1 0.274055 63.0612 12.7668 91.1696C11.3258 93.5733 10.1239 93.5733 9.8842 99.8195C10.3646 100.06 10.8454 100.06 11.3258 99.8195C11.5659 95.9756 12.5272 93.092 17.3317 89.4883C21.6564 85.8851 34.3894 76.2745 37.5132 64.5022C37.7529 63.3019 38.2338 62.3406 38.7141 61.1387L78.1149 6.60271C78.1149 6.6022 73.0702 -1.80705 68.5058 0.355557Z" fill="#F9D828"/>
<path d="M72.5899 4.6796C67.304 11.1664 52.6491 33.2699 34.8704 55.3723L31.7471 55.613C36.7923 58.2554 35.8311 59.9372 37.5129 64.2619C37.753 64.7423 38.2339 61.8596 38.7142 61.1386L78.115 6.60203C78.115 6.60203 76.1936 3.23853 73.5501 1.3161C72.3492 0.355387 74.9922 4.19924 72.5899 4.6796Z" fill="#E6B52D"/>
<path d="M75.7128 7.0821C70.4273 13.5694 58.8958 32.7892 41.1165 55.1328C40.8769 54.1716 40.6362 53.2109 40.8769 52.009C37.753 54.1721 35.5909 59.2169 37.5129 64.5018C37.753 63.3014 38.7143 61.8598 38.7143 61.1383L78.115 6.60225C77.8754 6.36157 77.6352 4.19896 75.7128 2.75789C74.5114 1.79667 77.1543 5.88121 75.7128 7.0821Z" fill="#83582E"/>
<path d="M26.2216 69.7876C25.2604 76.2739 20.9362 78.6767 19.975 79.6379C19.7343 79.8781 19.975 83.9627 19.4941 87.806C23.3385 83.722 43.2793 65.9443 29.5851 58.9761C35.5911 63.7811 27.9034 69.3078 26.2216 69.7876Z" fill="#83582E"/>
<path d="M21.1759 76.5144C29.5846 68.3464 21.4155 61.3787 15.6498 66.6646C7.00082 74.5925 14.4484 83.2414 21.1759 76.5144Z" fill="#6A4D31"/>
<path d="M69.7068 18.6145C65.863 18.8541 61.7784 19.335 57.4537 20.056C55.772 20.2962 54.0902 20.7766 52.4085 21.0173C48.3244 21.978 44.2399 23.1794 39.6755 24.6204C41.8376 25.3415 42.0778 26.5424 40.1559 28.2246L27.1827 31.5881C25.7406 31.8283 17.5726 35.9123 19.2543 29.9064C20.6954 24.6204 26.7019 17.4136 29.8252 15.4911C31.2667 14.5304 33.1887 13.5692 35.8311 12.8487C42.5586 10.9262 52.4085 8.28379 62.2593 7.32257C67.304 6.84222 72.3493 6.84222 77.1544 7.56275L69.7068 18.6145Z" fill="#BE2553"/>
</svg>
