<svg width="100" height="100" viewBox="0 0 100 100" fill="none" xmlns="http://www.w3.org/2000/svg">
<path d="M100 50C100 77.6142 77.6142 100 50 100C22.3858 100 0 77.6142 0 50C0 22.3858 22.3858 0 50 0C77.6142 0 100 22.3858 100 50Z" fill="#F6A021"/>
<path fill-rule="evenodd" clip-rule="evenodd" d="M38.0306 46.3455H36.5362C33.0361 46.3455 31.1221 44.4337 31.1221 40.8354V38.3288C31.1221 34.7264 33.0361 32.8209 36.6343 32.8209H38.5336V23.4913C38.5336 19.8931 40.4392 18 44.0519 18H49.8521C53.4712 18 55.3684 19.8931 55.3684 23.4913V32.8209H60.6656C64.2743 32.8209 66.184 34.7264 66.184 38.3288V40.8354C66.184 44.4337 64.2743 46.3455 60.7741 46.3455H55.3684V61.9678C55.3684 66.3758 58.2613 68.0747 61.3856 68.463C65.3826 68.9764 66.877 70.1952 66.877 73.9793V78.4958C66.877 82.5866 64.3744 83.9996 59.7619 83.9996C52.1542 83.9996 38.0306 80.5121 38.0306 65.1694V46.3455Z" fill="#51524F"/>
</svg>
