<svg width="100" height="100" viewBox="0 0 100 100" fill="none" xmlns="http://www.w3.org/2000/svg">
<path fill-rule="evenodd" clip-rule="evenodd" d="M27.1534 58.0147H45.1563L45.8828 48.95H50.1446L52.4975 58.0147H62.6122C63.6513 57.9856 64.8582 58.1945 65.5622 59.0294C66.1842 59.81 66.1842 60.993 65.5887 61.7941C64.8868 62.6761 63.6126 62.8511 62.5534 62.8088H51.1269L43.3563 71.2676H38.8887L43.5299 62.8147H23.3505C19.0421 62.5029 14.7354 64.2273 11.8328 67.4264C9.16243 70.9035 7.14633 74.8371 5.88281 79.0353L68.8681 79.0911C72.8335 79.2664 76.7468 77.5838 79.3475 74.5853C82.0178 71.1437 83.9229 67.1719 84.9358 62.9353L87.4505 54.4853C88.4157 51.197 87.2107 47.5569 84.474 45.4941C81.5372 43.208 77.9498 41.9144 74.2299 41.8H43.3858C42.603 41.8367 41.8198 41.7372 41.071 41.5059C40.2169 41.2014 39.6541 40.3884 39.6799 39.4794C39.6605 38.569 40.2031 37.7511 41.0328 37.3882C41.7814 37.0955 42.5826 36.9613 43.3858 36.9941H78.6005C82.8948 37.3079 87.1877 35.583 90.071 32.3853C92.7207 28.9051 94.7141 24.9713 95.9534 20.7764H44.8799C39.5317 20.7635 34.3113 22.4105 29.9389 25.4902C25.5664 28.5699 22.2573 32.9305 20.4681 37.9706L19.2916 41.3088C17.8021 44.9953 17.6863 49.0941 18.9652 52.8588C20.2671 56.1946 23.6283 58.1291 27.1534 58.0147Z" fill="#D0A175"/>
</svg>
