<svg width="100" height="100" viewBox="0 0 100 100" fill="none" xmlns="http://www.w3.org/2000/svg">
<path d="M100 50C100 77.6142 77.6142 100 50 100C22.3858 100 0 77.6142 0 50C0 22.3858 22.3858 0 50 0C77.6142 0 100 22.3858 100 50Z" fill="#FF6423"/>
<path d="M26.0592 20C19.3552 20 17.9072 21.2375 17.9072 21.2375V30.9203C17.9072 30.9203 19.3488 29.8933 23.9032 29.8933C28.5915 29.8933 32.8333 31.1691 37.0624 39.691L42.4651 50.5794L35.9525 63.5217C34.6768 66.0732 31.2451 71.0486 24.1583 71.0486C19.8527 71.0486 17.9072 70.1364 17.9072 70.1364V79.9022C17.9072 79.9022 19.7889 80.9866 26.4866 80.9866C36.4501 80.9866 42.21 77.4273 47.8169 65.0845L54.3997 50.5858L47.785 36.0232C45.3037 30.5886 43.2752 26.6338 38.791 23.3871C35.4358 20.9887 31.2706 20 26.0592 20ZM74.4415 20C71.3223 20 67.9161 20 64.0634 21.7797C60.2106 23.5593 56.0836 27.3482 52.5116 33.4144L57.6783 44.711C62.1434 37.1778 65.8366 29.8742 75.3728 29.8742C77.6477 29.8511 79.9108 30.2045 82.0704 30.9203V20.9313C79.5838 20.2654 77.0151 19.9561 74.4415 20.0128V20ZM57.6783 56.2819L52.5116 67.8529C56.0836 73.919 60.166 77.3826 64.0634 79.2133C67.9607 81.044 71.3287 80.9929 74.4415 80.9929C77.0236 81.0518 79.601 80.7425 82.0959 80.0744V70.0726C79.9193 70.6992 77.6632 71.0065 75.3983 70.9848C65.0776 70.9784 62.1434 63.8152 57.6783 56.2819Z" fill="white"/>
</svg>
