<svg width="100" height="100" viewBox="0 0 100 100" fill="none" xmlns="http://www.w3.org/2000/svg">
<path d="M78.9914 70.3654C73.9384 85.6674 59.5099 96.7469 42.5365 96.7469C21.3692 96.7469 4.1486 79.5266 4.1486 58.3592C4.1486 37.1919 21.3692 19.9694 42.5365 19.9694C48.9814 19.9694 55.0568 21.5736 60.3936 24.3919L61.769 23.1837C56.0547 20.047 49.5018 18.2593 42.5365 18.2593C20.4263 18.2593 2.43848 36.247 2.43848 58.3592C2.43848 80.4695 20.4242 98.4552 42.5365 98.4552C60.4977 98.4552 75.7383 86.5859 80.8261 70.2757L78.9914 70.3654Z" fill="#003366"/>
<path d="M16.8447 70.7164C39.9957 68.5837 62.9322 65.0367 85.5424 59.3408C85.1915 60.9041 84.8428 62.4633 84.4914 64.0265C55.5689 70.6204 35.3916 71.2265 16.8447 70.7164Z" fill="#00B2E2"/>
<path d="M20.5283 68.4163C42.2099 65.0101 64.4099 59.6143 87.2099 51.9021C86.8505 53.5021 86.4932 55.1 86.1363 56.7001C60.8465 64.6511 39.2813 68.1999 20.5283 68.4163Z" fill="#00B2E2"/>
<path d="M24.0586 65.9735C45.3239 60.6715 66.9771 53.2491 88.8954 44.3655C88.5383 45.9736 88.1772 47.5818 87.8178 49.192C64.5974 58.3083 43.1198 64.3103 24.0586 65.9735Z" fill="#57C8E7"/>
<path d="M27.5811 63.0814C49.0219 56.5671 70.1116 46.7651 90.985 35.0222C90.5446 36.9957 90.1034 38.9693 89.6626 40.9428C64.6627 53.3571 43.4811 61.3059 27.5811 63.0814Z" fill="#98DAE9"/>
<path d="M32.1445 60.0246C56.2241 48.3797 75.8017 36.3144 93.4385 24.0654C92.9525 26.239 92.465 28.4123 91.9793 30.5858C71.9812 43.3531 52.0221 53.9287 32.1445 60.0246Z" fill="#57C8E7"/>
<path d="M35.6523 56.2407C59.3299 41.2733 79.8687 26.0469 96.4748 10.4958C95.8832 13.1509 95.287 15.8102 94.6931 18.4632C75.0482 35.4142 54.9441 47.0876 35.6523 56.2407Z" fill="#00B2E2"/>
<path d="M97.8305 1.02051C95.5958 1.08221 93.3653 1.13691 91.1306 1.19399C82.8489 11.3185 74.4977 20.0776 66.1018 28.0776C57.0039 36.7449 47.861 44.5184 38.71 52.1653C58.7549 38.6387 78.6448 23.4899 97.8305 1.02051Z" fill="#00B2E2"/>
</svg>
