<svg width="100" height="100" viewBox="0 0 100 100" fill="none" xmlns="http://www.w3.org/2000/svg">
<path d="M57.4913 7.25124C60.1819 8.03143 61.8657 10.8378 61.288 13.5789C59.677 24.8555 58.6838 36.2389 57.4913 47.5678C56.3512 55.5488 55.6619 63.6846 53.3331 71.4323C51.8952 76.6618 49.3692 81.5288 45.9207 85.7148C41.5579 90.9102 34.7808 93.7169 28.0223 93.1273C21.443 92.8747 15.0872 90.6722 9.76233 86.7996C4.69054 83.119 1.25324 77.6063 0.180378 71.4323C-0.15083 70.1036 -0.0234124 68.702 0.541961 67.4548C1.78128 65.4707 4.28377 64.5607 6.50808 65.2853C7.80534 65.7088 8.79163 66.836 9.03917 68.178C9.40075 69.2628 9.58154 70.3475 9.94313 71.4323C10.7306 73.8096 12.0527 75.9748 13.8078 77.7613C17.9175 81.9443 24.4414 83.8936 30.1918 83.1837C34.4594 82.7256 38.3411 80.2059 40.4969 76.4944C42.7319 72.9153 44.2087 68.9157 44.8359 64.743C47.3489 49.246 48.8754 33.3817 50.0789 17.7372C50.2597 15.9292 50.4405 13.9405 50.6212 12.1326C50.716 10.9581 51.1908 9.84634 51.9736 8.96562C53.5192 7.22693 55.5565 7.25124 57.4913 7.25124Z" fill="#9E202D"/>
<path d="M58.3883 38.7506C60.0298 32.002 64.5897 27.9894 70.9735 25.983C75.1814 24.7987 79.5765 24.4273 83.9235 24.8886C88.3377 25.2548 92.6884 26.174 96.8735 27.6246C97.1482 27.6767 97.394 27.852 97.5327 28.0947C97.6714 28.3374 97.6976 28.6382 97.6031 28.9013L95.9615 39.845C94.32 39.4802 92.6784 38.933 91.0369 38.5682C86.7653 37.3916 82.3119 37.0204 77.9045 37.4739C74.8863 37.7728 71.5245 39.2778 71.2956 42.7118C71.0317 46.6705 75.3111 48.6044 78.4517 49.6943C82.2468 50.8516 85.9632 52.2529 89.5777 53.8894C92.7616 55.2904 95.4816 57.5677 97.4207 60.4556C99.1438 63.1135 100.033 66.2258 99.9742 69.3929C100.213 73.9009 98.8118 78.343 96.0287 81.8974C89.7758 89.8831 79.9562 89.568 70.7911 89.2739C66.4081 88.725 62.1515 87.4295 58.2059 85.4436C57.8411 84.714 57.6587 84.5316 57.8411 83.802C58.3883 80.1542 58.9355 76.3239 59.4826 72.676C59.8474 72.676 60.2122 73.0408 60.577 73.2232C65.9857 76.0053 72.0064 77.385 78.0869 77.2358C80.439 77.218 83.2881 76.5747 84.9604 74.7818C87.8797 71.6519 86.1771 67.4809 82.8291 65.5626C80.2343 64.2814 77.5526 63.1843 74.8038 62.2795C71.3598 61.1343 68.0559 59.6047 64.9545 57.7196C61.8387 55.5293 59.7543 52.7343 58.5707 49.1471C57.5323 45.5719 58.0466 42.3441 58.3883 38.7506Z" fill="#153E69"/>
</svg>
