<svg width="100" height="100" viewBox="0 0 100 100" fill="none" xmlns="http://www.w3.org/2000/svg">
<path d="M0 25C0 11.1929 11.1929 0 25 0H75C88.8072 0 100 11.1929 100 25V75C100 88.8072 88.8072 100 75 100H25C11.1929 100 0 88.8072 0 75V25Z" fill="#ED1C24"/>
<path fill-rule="evenodd" clip-rule="evenodd" d="M95.0002 35.1199C86.3002 42.7599 68.0602 47.4299 56.3202 50.2999C47.5602 53.2199 59.7602 49.7899 62.6402 49.1299C65.4002 48.4899 75.0402 45.8899 69.3502 47.8299C70.1302 48.0899 71.7302 47.0499 72.5702 46.9199C74.8502 45.4499 78.8302 45.1899 82.1102 43.6799C84.6402 42.9199 87.1502 41.5999 89.5902 40.4399C90.2302 40.0499 90.2302 40.3099 90.3602 40.5699C90.1002 40.8299 89.4602 41.2199 88.0402 41.9999C87.4002 42.3899 87.6502 42.3899 88.0402 42.2599C88.4302 41.9999 89.0702 41.6099 89.0702 41.7399C87.9502 42.7299 85.1002 43.8399 83.6502 44.3399C83.6502 44.4599 83.5302 44.4699 83.5202 44.4699C89.7402 42.7599 78.9202 46.8299 76.8102 47.5799C76.0302 47.9099 69.9402 49.6399 73.5902 49.1399C75.7502 48.3299 80.2602 47.0999 82.3602 46.0299C83.4502 45.6599 82.2002 46.3699 81.9702 46.5499C81.8402 46.6799 79.6502 47.5899 78.7502 47.8499C77.8502 48.1099 78.6202 48.1099 79.1402 47.9799C79.2102 48.0599 83.2602 46.3199 84.5602 45.6399C85.2702 45.2099 84.5202 46.0799 84.5602 46.1599C80.3902 48.4299 75.4502 50.0399 70.6302 51.7399C69.4802 52.4399 72.3402 51.4699 72.4402 51.3499C72.4402 51.2199 72.5702 51.3499 72.3102 51.4799C72.3102 51.6099 72.3102 51.6099 72.1802 51.6099C70.8902 52.2599 71.5402 52.1299 72.0502 51.8699C72.9502 51.2099 76.1902 50.3099 77.5902 49.6599C78.1102 49.3999 77.4602 49.9199 77.2002 50.0499C76.7902 50.2399 75.1202 50.8099 74.8802 50.9599C76.4302 51.0299 78.6002 49.7799 80.8102 48.8899C82.4902 47.9799 80.9402 48.8899 80.6802 49.1499C78.4102 50.2799 71.0202 53.7099 68.3002 54.5999C71.6802 53.8599 77.0602 50.9099 79.7802 49.6699C56.2002 62.9099 23.7102 62.9199 4.99023 83.6599C22.9302 47.4499 61.8902 47.1699 94.9902 35.1399L95.0002 35.1199ZM71.6602 49.3899C70.1702 49.5599 68.4802 50.1799 65.0802 50.9499C64.5102 52.3799 72.8602 49.3199 71.6602 49.3899Z" fill="white"/>
<path d="M61.2202 65.8599C61.8802 66.7199 57.2302 67.8899 55.2902 68.7099C54.5202 68.8399 54.6502 69.2299 54.9002 69.0999C55.3402 69.0699 57.1902 68.4399 57.8702 68.1899C58.7702 67.9899 57.0602 68.7599 56.7102 68.8399C54.5402 70.1199 60.4302 67.5999 60.3202 67.5399C51.0802 74.0999 36.3602 74.8399 25.1202 76.2299C28.1302 72.2999 53.7402 69.4899 61.2202 65.8499V65.8599Z" fill="white"/>
<path fill-rule="evenodd" clip-rule="evenodd" d="M82.2302 50.5499C78.9902 54.0299 72.9702 56.6599 69.2102 59.2399C72.3802 57.8599 75.2302 55.9499 78.1102 54.0499C78.7502 53.6599 79.6602 52.8799 79.7902 52.8799C77.4402 55.3499 74.3002 57.1199 71.4102 58.5899C72.7302 58.5899 75.0502 56.2599 75.6602 56.9099C75.8602 56.7099 75.9802 56.5599 76.4302 56.2599C76.7202 55.9599 77.0602 55.8799 77.2002 55.7399C77.7202 55.4799 77.5902 55.4799 77.5902 55.7399C77.4502 55.8799 76.1402 57.2299 75.6802 56.9899C65.2902 66.0999 42.4202 67.6399 30.7802 70.4099C47.3502 61.4799 67.5302 60.7099 83.2602 49.5199C83.1302 49.6499 82.7402 50.0399 82.2302 50.5599V50.5499ZM71.2702 59.1199C71.2702 59.1199 71.1402 58.9899 71.0102 59.1199C70.8902 59.0799 70.6302 59.2099 70.6202 59.2499C70.6002 59.5199 71.3102 59.2999 71.2602 59.2499V59.1199H71.2702Z" fill="white"/>
<path d="M63.4102 64.9599C63.9302 64.8299 64.0602 64.8299 63.9302 64.9599C63.9302 65.2199 63.2802 65.3499 62.7702 65.6099C62.2502 65.7399 61.8702 65.9999 61.7402 65.9999C61.3502 66.1299 61.6102 65.6099 61.6102 65.6099C61.6202 65.6099 62.2602 65.3499 62.7702 65.2199C63.0302 65.0899 63.2902 65.0899 63.4102 64.9599Z" fill="white"/>
<path d="M82.4902 47.8299C82.7502 47.8299 82.4902 47.9599 82.4902 47.9599C82.4902 47.9599 82.3502 48.0899 82.1002 48.2199C81.8502 48.2199 81.7202 48.3499 81.7102 48.3499C81.5802 48.3499 81.8302 48.0999 81.8402 48.0899C81.8402 48.0899 81.9702 48.0899 82.1002 47.9599C82.2302 47.9599 82.3602 47.8299 82.4902 47.8299Z" fill="white"/>
<path d="M72.4402 46.3999C72.5269 46.3999 72.4836 46.4433 72.3102 46.5299C72.3102 46.5299 72.1802 46.6599 72.0502 46.6599H71.7902C71.5302 46.7899 71.7902 46.5299 71.7902 46.5299H72.0502L72.4402 46.3999Z" fill="white"/>
<path d="M87.3902 44.3299C87.3902 44.3299 87.2502 44.7199 86.8702 44.8499C86.2902 45.0499 85.6902 45.3799 85.1902 45.6299C84.6702 45.8899 84.9302 45.3699 84.9302 45.3699C84.9402 45.3699 85.5802 45.1099 86.0902 44.8499C86.3502 44.7199 86.6102 44.5899 86.7302 44.5899C87.0769 44.4166 87.2936 44.3299 87.3802 44.3299H87.3902Z" fill="white"/>
<path d="M56.5802 39.0099C51.6802 40.0499 48.3302 42.5099 46.1402 43.9399C45.3402 44.7399 43.6102 45.1099 42.5302 45.1099C39.9502 45.2399 38.0202 43.5499 37.8902 41.3499C37.8902 40.6999 38.0202 40.0499 38.4102 39.3999C39.0502 40.9599 40.7302 42.5099 43.9502 41.7299C44.5902 41.5999 45.3702 41.2099 46.1402 40.9499C48.3302 40.0399 51.3002 38.8699 56.5802 38.9999V39.0099Z" fill="white"/>
<path fill-rule="evenodd" clip-rule="evenodd" d="M90.8702 24.0899C86.3902 28.9699 79.1102 33.1299 72.0502 33.9499C70.5102 34.3599 71.9102 34.5299 72.3102 34.4699C73.4502 34.2499 75.6802 33.9399 77.2102 33.5599C77.5502 33.6999 75.9102 34.0899 75.7902 34.0799C75.6602 34.2099 75.2702 34.3399 75.5302 34.3399C76.3802 33.9499 77.4802 33.7299 78.3702 33.2999C79.4002 32.7799 78.7602 33.2999 78.7602 33.2999C79.2402 33.3499 80.6202 32.6699 81.9802 31.8699C82.0602 31.5899 82.3502 31.7999 82.1102 31.9999C81.9802 31.9999 80.0502 33.2999 76.6902 34.4599C76.1902 34.6899 72.7202 35.4299 73.3402 35.4999C73.5202 35.4999 75.5302 35.1099 76.5602 34.8499C77.1102 34.5299 78.5002 34.2399 78.4902 34.0699C78.7502 33.9399 78.6202 34.3299 78.4902 34.3299C76.0202 35.3399 72.2202 36.5299 69.2102 36.7899C68.1802 36.9199 66.8902 37.0499 66.8902 37.0499C66.8802 37.0499 66.3802 37.3099 67.0202 37.3099C68.8902 37.1499 72.4802 36.7899 74.7602 36.0099C75.4002 35.8799 75.4002 36.0099 74.6302 36.2699C74.1202 36.5299 72.9702 36.7899 72.9502 36.7899C72.9502 36.7899 72.3102 37.0499 73.2102 36.9199C73.8702 37.0499 80.6202 34.1299 79.1402 35.2299C79.0102 35.2299 79.1402 35.3599 79.4002 35.2299C79.7802 35.0999 81.3202 34.3299 81.3302 34.3199C81.3302 34.3199 81.5902 34.3199 81.2002 34.5799C79.1702 35.9899 71.4302 38.5399 69.3402 38.7299C67.1902 39.9999 78.1402 36.6199 76.0502 37.6899C70.6102 40.5399 63.2202 42.6299 56.5802 43.1399C60.8702 39.7999 65.2702 34.9899 67.5402 30.5599C75.8902 31.3699 84.4002 28.8399 90.8802 24.0699L90.8702 24.0899ZM70.8902 34.3399C70.7602 34.2099 70.2502 34.3399 70.2502 34.3399L70.1202 34.4699C70.3802 34.5099 70.6702 34.4199 70.8902 34.3399Z" fill="white"/>
<path fill-rule="evenodd" clip-rule="evenodd" d="M77.2102 16.4299C75.9202 19.0199 74.0802 21.5299 72.0502 23.5699C77.8602 24.2399 81.3502 23.5099 86.1002 22.1399C89.3202 21.0999 92.2902 19.6799 95.0002 17.9899C89.0102 25.2799 80.3502 29.0199 71.0202 29.0199C69.0902 29.0199 67.2802 28.7599 65.4802 28.3699C64.5802 28.8899 63.6702 29.2799 62.7702 29.6699C60.8402 30.4499 58.7702 31.0999 56.5802 31.3599C55.0302 31.6199 53.4802 31.7499 51.9402 31.7499C50.0102 31.7499 48.0702 31.4899 46.1402 31.0999C45.2402 30.9699 44.4602 30.7099 43.5602 30.4499C44.4602 30.8399 45.2402 31.2299 46.1402 31.4899C49.1102 32.5299 52.0702 33.0499 55.2902 33.0499C57.6102 33.0499 59.8602 32.6299 62.1202 32.1399H62.2502C60.7002 33.4399 58.7702 34.8599 56.5802 35.8999C52.7302 37.9099 48.2702 39.0899 43.9402 38.3599C40.9702 37.8399 39.3002 36.2799 39.0402 35.1199C40.8002 36.8899 43.7302 37.4099 46.1302 37.0699C47.8102 36.8099 49.3502 36.2899 50.6402 35.3799C48.3002 35.0899 45.9302 34.8399 43.6802 34.0799C40.9702 33.1699 40.0702 33.1699 39.0402 33.2999C37.8802 33.4299 37.1102 34.3399 37.1102 35.5099C37.1102 36.0299 37.2402 36.5499 37.5002 36.9399C35.8202 36.4199 34.6602 34.8599 34.6602 33.0499C34.6602 32.6599 34.6602 32.2699 34.7902 32.0099C35.1802 32.1399 35.5602 32.1399 35.9502 32.1399C37.6302 32.0099 38.7902 30.8399 38.7902 29.4199C38.7902 28.8999 38.5302 28.3799 38.2702 27.8599C38.4002 28.1199 38.4002 28.2499 38.4002 28.5099C38.4002 29.8099 37.1102 30.9699 35.6902 30.9699C34.2702 30.9699 32.8502 29.9299 32.8502 28.6299C32.8502 26.6199 34.5702 24.9999 36.5902 24.9999C37.4902 24.8699 38.6502 25.1299 39.9402 25.7799C41.8702 26.6899 43.9402 27.5999 46.1302 27.9899C47.3302 28.1399 48.5302 28.2499 49.7402 28.2499C48.4502 28.1199 47.1602 27.7299 46.0002 27.2099C44.9702 26.6899 43.9402 26.1699 43.0302 25.3899C43.4202 24.2199 44.5802 23.3099 45.8702 23.3099C45.8702 21.5299 46.9002 20.0199 48.4502 19.1599C49.3502 18.7699 51.2902 17.8599 56.1902 18.8999C58.8802 19.4699 61.5702 19.8099 64.3102 19.8099C68.8602 19.8099 72.9502 18.6299 77.2002 16.4399L77.2102 16.4299ZM54.0002 23.0499C51.8102 21.3599 50.2602 21.6199 50.0002 21.6199C48.9702 21.7499 48.0702 22.5299 48.0702 23.6999C48.0702 24.4499 48.5802 24.9999 49.3602 24.9999C50.0002 24.9999 50.6502 24.3499 50.6502 23.6999C50.6502 23.3099 50.3902 22.9199 50.1302 22.6599C50.3902 22.5299 50.6502 22.5299 50.9002 22.5299C52.1902 22.5299 53.3502 23.6999 53.3502 24.9899C53.3502 25.5099 53.2202 26.0299 52.9602 26.4199C52.9802 26.4199 54.5202 26.9399 56.4402 26.9399C57.7302 26.9399 59.1502 26.9399 60.6902 26.6799C59.1402 26.1599 57.8502 25.3799 56.4402 24.5999C55.6402 24.0599 54.7902 23.5799 53.9902 23.0399L54.0002 23.0499Z" fill="white"/>
<path d="M76.1702 35.6299C76.3002 35.6299 75.9102 35.8899 75.7802 35.8899C75.6502 36.0199 75.5202 36.0199 75.3902 36.0199C75.2602 36.0199 75.3902 35.8899 75.3902 35.8899C75.4002 35.8899 75.6502 35.7599 75.7802 35.7599C75.9102 35.6299 76.0402 35.6299 76.0402 35.6299H76.1702Z" fill="white"/>
<path d="M83.9102 30.5699C84.0402 30.4399 84.0402 30.6999 84.1702 30.6999C83.6102 30.9799 83.1102 31.4799 82.4902 31.6099C82.3602 31.6099 82.4102 31.4399 82.6202 31.3499C83.1502 31.0299 83.5102 30.7699 83.9102 30.5699Z" fill="white"/>
</svg>
