<svg width="100" height="100" viewBox="0 0 100 100" fill="none" xmlns="http://www.w3.org/2000/svg">
<path fill-rule="evenodd" clip-rule="evenodd" d="M13.4781 55.6085C13.4781 58.5217 12.4949 59.8758 10.3238 59.8758C8.15246 59.8758 6.92342 58.6448 6.92342 56.4702C6.92342 56.4702 6.92342 54.3775 6.92342 53.9262C6.39082 53.9262 0.532619 53.9262 0 53.9262C0 54.2955 0 54.952 0 54.952C0 62.6249 3.31843 66.1535 10.4466 66.1535C17.4519 66.1535 20.8931 62.8711 20.8931 56.1009C20.8931 56.1009 20.8931 37.3084 20.8931 36.7339C20.3605 36.7339 14.0107 36.7339 13.4781 36.7339C13.4781 37.3084 13.4781 55.6085 13.4781 55.6085Z" fill="black"/>
<path fill-rule="evenodd" clip-rule="evenodd" d="M29.005 56.4701C29.1279 59.5063 30.8895 61.517 34.0029 61.517C35.7235 61.517 37.4442 60.6963 38.1407 59.096H44.9821C43.6301 64.2251 38.878 66.4817 33.88 66.4817C26.6288 66.4817 21.7129 62.0914 21.7129 54.6237C21.7129 47.7714 27.1614 42.8887 33.7162 42.8887C41.7047 42.8887 45.6785 48.8793 45.3508 56.4702L29.005 56.4701ZM38.0587 52.3669C37.9358 49.8641 36.1742 47.8124 33.7161 47.8124C31.1353 47.8124 29.4556 49.6589 29.0049 52.3669H38.0587Z" fill="black"/>
<path fill-rule="evenodd" clip-rule="evenodd" d="M59.8526 48.2639H55.3871V60.4913H57.9272C57.9272 60.4913 59.1971 60.4913 59.8526 60.4913V65.8253C58.5007 65.8663 57.1897 66.0304 55.8378 66.0304C49.6108 66.0304 48.054 64.2251 48.054 58.1934V48.2638H44.3262V43.5042H48.054V36.7339H55.3871V43.5042H59.8526L59.8526 48.2639Z" fill="black"/>
<path fill-rule="evenodd" clip-rule="evenodd" d="M84.8013 33L85.4567 43.545H100L86.0711 52.7772L89.1438 67.9999L77.3043 57.7009L61.3682 65.9894L70.8724 52.9413L61.8596 43.545H76.4439L84.8013 33Z" fill="#FE5815"/>
</svg>
