<svg width="100" height="100" viewBox="0 0 100 100" fill="none" xmlns="http://www.w3.org/2000/svg">
<path d="M41.4288 63.4683L45.8968 68.6343L48.7666 65.3166L40.2263 55.4312L37.5688 52.3219L34.9282 55.8323L37.9184 59.3068L37.9132 59.3133L41.4288 63.4683Z" fill="#0F2D53"/>
<path d="M98.7337 38.4177C94.67 34.4301 90.3484 32.501 85.892 32.6833C82.3491 32.8298 79.4598 34.3077 77.5086 35.6755C77.4332 35.7256 77.3596 35.7784 77.2879 35.8337L77.2156 35.8858C76.9785 36.0546 76.7464 36.2305 76.5197 36.4131L73.4364 33.0713C72.6818 32.184 71.5295 30.7582 71.2333 29.9379C71.0073 29.3025 70.954 28.6527 70.8837 28.2791C70.6271 26.9574 70.4826 24.7634 70.4826 24.7634C70.4826 24.7634 70.4826 24.24 70.2346 23.6476L69.9279 22.8826C69.9279 22.8826 72.4963 21.7511 74.3341 21.8422L75.4364 23.1892L75.4754 21.8546V19.921C75.4754 19.921 75.3563 18.8846 74.3732 18.1007C73.6414 17.5213 73.3055 17.4705 72.4006 17.3358C71.271 17.1737 71.064 17.4855 70.215 16.6932L69.4383 15.5513L64.6376 15.5708L62.7581 16.272C62.7581 16.272 61.7229 16.5194 61.0217 18.2824L59.5908 22.8103C59.5908 22.8103 59.1995 24.309 59.1188 26.5746C59.0309 28.8481 59.0732 26.6541 59.0732 26.6541C59.0732 26.6541 58.9716 30.044 58.5686 31.0564L57.7932 33.7282C56.6767 36.3877 55.542 37.7002 55.5179 37.7282L51.2047 42.7249H51.208L50.0055 44.1201L48.8031 42.7249L48.8226 42.7119L46.1755 39.6768L45.7979 39.2471H45.794L44.4711 37.7289C44.445 37.6963 43.2471 36.3129 42.1026 33.5036L41.3917 31.0596C40.988 30.0466 40.8871 26.6567 40.8871 26.6567C40.8871 26.6567 40.9262 28.8507 40.8415 26.5772C40.7588 24.3116 40.3695 22.8136 40.3695 22.8136L38.9379 18.285C38.24 16.5226 37.2035 16.2739 37.2035 16.2739L35.3188 15.5734L30.518 15.5539L29.7433 16.6945C28.8969 17.4868 28.6854 17.175 27.5539 17.3371C26.6528 17.4712 26.3136 17.5233 25.5832 18.102C24.6001 18.8846 24.479 19.9223 24.479 19.9223V21.8566L24.5181 23.1912L25.6203 21.8448C27.4582 21.7537 30.0278 22.8852 30.0278 22.8852L29.7186 23.6502C29.4705 24.2446 29.4705 24.7661 29.4705 24.7661C29.4705 24.7661 29.3292 26.9607 29.0695 28.2817C28.9953 28.6553 28.949 29.3038 28.7199 29.9405C28.3253 31.0447 26.3683 33.2517 25.9295 33.7406L23.4595 36.4138C21.5663 34.8897 18.2902 32.8519 14.0956 32.6814C9.64121 32.4971 5.31377 34.4281 1.2526 38.4157L0 39.6455L0.938796 41.1266C1.07682 41.3506 4.41664 46.5185 10.4042 47.6813C14.287 48.4339 18.5136 47.2555 22.5239 44.3825L19.606 41.0719C16.6223 43.2112 13.9198 43.9241 11.2708 43.4287C8.76947 42.9508 6.87105 41.3818 5.74671 40.1995C8.4407 37.9847 11.1672 36.917 13.8782 37.0153C18.6242 37.1891 21.9536 40.9202 21.9836 40.9476L29.0161 49.0934L31.8787 45.7672L26.4998 39.5407L32.7888 31.6827L35.3552 28.4854C35.9561 31.6495 38.8331 37.1084 40.0642 39.0127L30.2908 50.4052H30.2876L30.2485 50.4573L30.2159 50.4898H30.2192L27.2375 53.969C25.6802 55.5868 20.2583 60.9663 13.9016 64.3908C13.9016 64.3908 15.8944 65.7619 18.5162 65.7124C20.0891 65.6929 21.8885 65.1603 23.6307 63.5158C24.3416 62.8387 25.3787 61.9136 26.3937 60.9182C26.3937 60.9182 25.9185 62.0861 27.0513 64.1942C27.9236 65.8153 29.451 66.7762 31.5161 66.8556C34.7459 66.9748 37.0694 65.2775 38.6872 63.3368L36.3689 60.7736C36.3689 60.7736 34.2674 63.7586 31.714 61.9344C30.7771 61.0523 30.8494 59.562 30.8494 59.562C30.8494 59.562 30.8299 59.064 31.3162 58.0191C33.0545 55.0634 37.8155 48.846 40.6404 45.2295L42.8181 42.4691L45.9203 46.0524L45.9268 46.0459L47.1481 47.4606L47.1429 47.4671L47.2119 47.5465L41.7738 54.2899L44.2478 57.0595L49.9938 50.7776L50.0068 50.7906L50.0199 50.7776L57.0426 58.5861L57.0361 58.5927L59.9456 61.8615V61.857L60.9827 62.9624L61.7008 63.7632C63.2991 65.519 65.5074 66.9637 68.5028 66.8537C70.5718 66.7742 72.0926 65.8133 72.9663 64.1922C74.103 62.079 73.6239 60.9162 73.6239 60.9162C74.6421 61.9123 75.6792 62.8368 76.3908 63.5138C81.017 67.894 86.116 64.3908 86.116 64.3908C79.7579 60.9663 74.3374 55.5888 72.7762 53.969L71.0835 51.9866L67.5386 55.9625C69.2606 58.3166 69.1727 59.566 69.1727 59.566C69.1727 59.566 69.245 61.0555 68.3101 61.9377C65.7678 63.7879 63.5185 60.6096 63.5185 60.6096L56.4651 52.0445L56.4261 52.0055L52.807 47.5393L52.876 47.4593L52.8694 47.4541L55.555 44.3454L55.5517 44.3414L57.1728 42.473L57.8837 43.3714L62.4918 49.6038L65.732 45.7522L60.4586 39.6032L60.4521 39.6227L59.9345 39.0199C61.1643 37.1123 64.0425 31.654 64.6402 28.4913L67.2053 31.6879L73.4924 39.5466L72.204 41.0368H72.2072L60.9794 54.0367L63.8498 57.3505L66.1304 54.7138L66.3661 54.4384L69.7906 50.4814L78.019 40.9547C78.0451 40.9287 81.3764 37.1976 86.1199 37.0218C88.8295 36.9235 91.5547 37.9919 94.2507 40.2067C93.1309 41.3883 91.226 42.9573 88.7312 43.4345C86.0802 43.9306 83.3517 43.1989 80.3654 41.0544L77.521 44.3616C81.5314 47.2347 85.7156 48.4404 89.5925 47.6878C95.5853 46.525 98.9238 41.3571 99.0612 41.1331L100 39.652L98.7337 38.4177ZM54.0836 71.3269L51.1416 74.797L51.4743 75.1902L51.4678 75.1935L53.2542 77.2624C54.193 78.4128 56.7731 81.3881 57.1715 84.4486C57.1715 84.4486 59.7203 80.9395 57.7815 76.0151C57.7815 76.0151 57.497 74.7182 54.0862 71.3263" fill="#0F2D53"/>
<path d="M47.1234 70.0522C42.462 74.3979 42.1039 76.0157 42.1039 76.0157C40.1658 80.9454 42.7152 84.4486 42.7152 84.4486C43.111 81.3913 45.6898 78.4168 46.6299 77.2729L48.4183 75.1974L48.4118 75.1909L54.816 67.7801L54.8212 67.7853L58.6122 63.398L55.7802 60.0321L47.1234 70.0522Z" fill="#0F2D53"/>
</svg>
