<svg width="100" height="100" viewBox="0 0 100 100" fill="none" xmlns="http://www.w3.org/2000/svg">
<path d="M0 25C0 11.1929 11.1929 0 25 0H75C88.8072 0 100 11.1929 100 25V75C100 88.8072 88.8072 100 75 100H25C11.1929 100 0 88.8072 0 75V25Z" fill="#285933"/>
<path d="M15.938 18.2076C16.8807 18.9133 17.8198 19.6237 18.7505 20.3452C25.7398 25.4556 42.3757 36.8674 58.0902 47.625C73.7304 58.3316 88.5631 68.46 91.64 70.8096C93.0907 71.9175 93.166 73.2172 92.9291 74.8602C92.6816 76.5769 92.0147 78.1052 90.3618 78.4843C83.8644 79.9746 74.2012 81.9776 64.2686 82.2148C54.3305 82.4521 43.8557 80.9555 35.6423 74.9503C26.1668 67.9093 23.3798 59.3409 20.9081 50.5926C18.4838 42.0118 16.3146 33.0987 8.94199 23.384C7.84479 21.9551 7.40929 20.1208 8.7559 18.639C10.0922 17.1687 14.3552 17.0285 15.938 18.2076Z" fill="white"/>
<path d="M14.002 20.8809C14.9642 21.5978 15.8966 22.3069 16.8005 23.0081C30.8425 33.2804 83.7006 68.8992 89.6722 73.4593C78.7776 72.7488 60.7778 65.8804 52.0147 58.6568C43.6077 51.7267 38.1434 39.5649 16.8005 23.0081C15.5272 22.0765 14.573 21.3535 14.002 20.8809Z" fill="#ADD141"/>
<path d="M37.6859 72.2751C20.6335 59.6042 27.5019 41.8412 11.2783 20.8809C27.0282 30.8281 42.0675 55.2226 53.9095 64.1041C65.7515 72.9856 87.067 75.2356 89.6723 75.2356C76.7645 78.1961 52.1017 82.9869 37.6859 72.2751Z" fill="#337642"/>
<path d="M10.9697 20.6002C11.1057 20.4508 11.3294 20.4207 11.5003 20.5286L11.8724 20.7663C19.6788 25.8112 27.2855 34.3086 34.3757 42.6217C41.6065 51.0998 48.2861 59.366 54.1592 63.7708C60.0102 68.159 68.2315 70.926 75.349 72.5946C82.4652 74.2629 88.4121 74.819 89.6719 74.819C89.8838 74.8191 90.062 74.9779 90.0859 75.1885C90.1097 75.3991 89.9713 75.5941 89.7647 75.6415C83.3054 77.123 73.8791 79.0688 64.2542 79.2987C54.789 79.5247 45.0644 78.0937 37.7817 72.8615L37.4367 72.6092C28.792 66.1856 26.2157 58.457 23.7697 49.7995C21.3629 41.281 19.076 31.8425 11.3218 21.6229L10.9485 21.1357C10.8247 20.9758 10.8336 20.7499 10.9697 20.6002ZM13.0628 22.5821C20.0685 32.3865 22.2832 41.4738 24.5715 49.5732C27.0103 58.2049 29.5267 65.693 37.9342 71.9403L38.2684 72.185C45.3325 77.2599 54.8364 78.6903 64.2341 78.4659C72.5044 78.2684 80.6405 76.7904 86.861 75.4369C84.1488 75.1423 79.9046 74.5182 75.1591 73.4057C68.0072 71.729 59.6499 68.9302 53.659 64.437C47.6902 59.9604 40.9287 51.5889 33.742 43.1626C27.1465 35.4295 20.179 27.6335 13.0628 22.5821ZM13.6737 20.6236C13.8132 20.4459 14.0692 20.4116 14.2504 20.5465C15.1995 21.2536 16.1189 21.9542 17.0113 22.6461C23.3561 27.29 37.7826 37.2133 52.2056 47.0928C69.4401 58.898 86.6568 70.6324 89.9247 73.1279C90.0707 73.2394 90.1264 73.4334 90.062 73.6053C89.9975 73.7773 89.828 73.8869 89.6448 73.875C84.1391 73.5159 76.8712 71.6057 69.8927 68.8885C62.9144 66.1715 56.1784 62.6291 51.7493 58.9781C49.5297 57.1484 47.5196 54.965 45.3908 52.4579C43.2431 49.9286 41.022 47.1287 38.2874 43.9482C33.2893 38.1352 26.7165 31.2237 16.4954 23.3004C15.4816 22.5582 14.6718 21.9498 14.0995 21.496L13.736 21.2019C13.562 21.0579 13.5343 20.8013 13.6737 20.6236ZM25.4966 29.6909C31.1919 34.7724 35.4358 39.3542 38.9189 43.4051C41.6315 46.56 43.9255 49.4441 46.0261 51.9181C48.1455 54.4141 50.1174 56.5531 52.2793 58.3352C56.6133 61.9077 63.2589 65.4116 70.1949 68.1122C76.516 70.5734 83.0396 72.3516 88.2255 72.9136C83.1042 69.2214 67.4494 58.5444 51.7346 47.7801C42.2351 41.2732 32.7103 34.7305 25.4966 29.6909Z" fill="black"/>
</svg>
