<svg width="100" height="100" viewBox="0 0 100 100" fill="none" xmlns="http://www.w3.org/2000/svg">
<path d="M48.1484 21H51.2855C51.3112 22.0657 51.3084 23.1286 51.3027 24.1943C52.3512 24.1914 53.4027 24.1971 54.4512 24.1886C54.4598 25.2343 54.4598 26.28 54.4284 27.3257C53.3884 27.3257 52.3455 27.3314 51.3055 27.3257C51.3055 28.3543 51.3027 29.3857 51.3112 30.4171C50.277 30.4829 49.2427 30.4686 48.2084 30.46C48.2027 29.4143 48.2027 28.3657 48.197 27.3171C47.1455 27.3314 46.097 27.3257 45.0484 27.3286C45.0312 26.2857 45.0341 25.24 45.0312 24.1971C46.0884 24.1943 47.1455 24.1914 48.1998 24.1971C48.177 23.1314 48.2712 22.06 48.1484 21Z" fill="#00A1E4"/>
<path d="M29.9828 29.8314C33.1428 29.0714 36.6114 31.7 36.5428 34.9886C36.7856 37.8629 34.2714 40.5572 31.4114 40.6114C28.8485 40.8314 26.3399 38.9429 25.7999 36.44C25.0085 33.5772 27.0771 30.3714 29.9828 29.8314Z" fill="#00A1E4"/>
<path d="M42.5462 29.8257C45.7033 29.0771 49.1833 31.7114 49.0947 35C49.349 37.9571 46.6576 40.6971 43.7176 40.62C41.1233 40.7314 38.7005 38.6943 38.2919 36.1429C37.7119 33.34 39.7376 30.3486 42.5462 29.8257Z" fill="#00A1E4"/>
<path d="M55.1141 29.8314C58.177 29.1029 61.5227 31.5514 61.6398 34.72C61.8855 36.8714 60.6541 39.0343 58.7427 40.0143C56.7341 41.0971 54.0741 40.7143 52.4369 39.1314C50.5998 37.4114 50.2169 34.3829 51.5941 32.2714C52.3684 31.0229 53.6655 30.1086 55.1141 29.8314Z" fill="#00A1E4"/>
<path d="M67.7033 29.8256C70.449 29.2084 73.4262 31.0856 74.0576 33.8284C74.609 35.9399 73.769 38.3141 71.989 39.5856C70.3347 40.8199 67.9604 40.9741 66.1604 39.9656C64.1947 38.9456 63.0261 36.6284 63.3661 34.4427C63.6261 32.1884 65.4662 30.2227 67.7033 29.8256Z" fill="#00A1E4"/>
<path d="M30.9912 48.5372C30.9112 46.3543 30.9484 44.1658 30.9712 41.9829C43.5341 42.0201 56.0969 41.9915 68.6598 41.9972C68.6626 44.1715 68.6626 46.3429 68.6598 48.5143C56.1026 48.5286 43.5455 48.4858 30.9912 48.5372Z" fill="#00A1E4"/>
<path d="M0 54.0713C3.17143 54.0713 6.34286 54.0684 9.51715 54.0741C9.52286 57.1084 9.51143 60.1455 9.52 63.1827C12.6657 60.1712 15.74 57.0884 18.8857 54.077C22.0829 54.0684 25.28 54.0684 28.4771 54.077C24.7914 57.8227 21.0057 61.4713 17.3486 65.2427C21.9571 69.7112 26.4086 74.3455 31.0571 78.7655C31.0971 70.537 31.0629 62.3055 31.0743 54.0741C34.3172 54.0684 37.56 54.0684 40.8029 54.0741C40.8029 60.317 40.7972 66.5598 40.8029 72.8027C45.9829 72.7884 51.16 72.8198 56.3372 72.7855C56.4086 74.9027 56.3486 77.0227 56.3714 79.1398C43.7829 79.1398 31.1914 79.1512 18.6029 79.1341C15.6257 76.1198 12.6086 73.1455 9.61715 70.1455C9.57429 73.1484 9.62286 76.1484 9.59143 79.1512C6.39429 79.1284 3.19714 79.1541 0 79.137V54.0713Z" fill="#00A1E4"/>
<path d="M59.037 54.0716C64.2599 54.0545 69.4827 54.1059 74.7056 54.0459C76.3542 58.5288 77.797 63.0888 79.3542 67.6059C79.4827 67.403 79.6656 67.2316 79.7313 66.9945C81.2199 62.683 82.7427 58.383 84.2456 54.0745C89.497 54.0688 94.7485 54.0659 99.9999 54.0773V79.123C96.7856 79.163 93.5685 79.1373 90.3542 79.1373C90.3485 73.3716 90.3827 67.603 90.337 61.8345C89.8885 62.0859 89.8427 62.6545 89.6513 63.0802C87.7856 68.4373 85.8713 73.7773 84.0056 79.1345C80.9827 79.1345 77.957 79.1745 74.937 79.1145C73.0427 73.6373 71.0827 68.1859 69.1713 62.7173C69.1028 62.4116 68.9313 62.1888 68.6628 62.0459C68.6542 67.743 68.6656 73.443 68.6599 79.143C65.4513 79.143 62.2427 79.143 59.0342 79.1402C59.0399 70.7859 59.0313 62.4288 59.037 54.0716Z" fill="#00A1E4"/>
</svg>
