<svg width="100" height="100" viewBox="0 0 100 100" fill="none" xmlns="http://www.w3.org/2000/svg">
<path d="M0 25C0 11.1929 11.1929 0 25 0H75C88.8072 0 100 11.1929 100 25V75C100 88.8072 88.8072 100 75 100H25C11.1929 100 0 88.8072 0 75V25Z" fill="#440F08"/>
<path fill-rule="evenodd" clip-rule="evenodd" d="M10 62.4591C11.1666 60.0566 12.2986 57.7175 13.4595 55.3226H11.1243C11.4265 54.7624 11.6922 54.2792 11.9598 53.796C12.4661 52.8642 12.984 51.942 13.4864 51.0045C13.5943 50.8043 13.7136 50.7176 13.9523 50.7273C14.4221 50.7484 14.8976 50.7176 15.3692 50.7388C15.606 50.7504 15.7216 50.6676 15.8236 50.4558C17.1577 47.6817 18.4995 44.9095 19.8395 42.1392C20.4459 40.8743 21.06 39.6134 21.6606 38.3466C21.7704 38.1175 21.8897 37.9962 22.1727 38.0001C25.4955 38.0097 28.8164 38.0116 32.1412 38.0001C32.4184 38.0001 32.5243 38.1079 32.6109 38.362C34.3204 43.2789 36.0435 48.1918 37.7645 53.1068C38.8272 56.1466 39.888 59.1787 40.9468 62.2185C40.9718 62.284 40.993 62.3494 41.0277 62.4591H40.6195C38.1592 62.4591 35.6912 62.4476 33.2308 62.4707C32.8631 62.4745 32.7591 62.3379 32.6629 62.0241C32.018 59.9025 31.3519 57.7887 30.705 55.6653C30.6203 55.3861 30.5029 55.2937 30.2006 55.2957C27.5093 55.3091 24.816 55.3072 22.1246 55.2957C21.8435 55.2957 21.6991 55.3669 21.5721 55.6326C20.5325 57.7849 19.4717 59.9256 18.4283 62.0799C18.2936 62.359 18.1434 62.4649 17.8219 62.4649C15.246 62.4514 12.6683 62.4572 10 62.4572M27.155 44.2588C26.0596 46.4958 25.0143 48.6327 23.9419 50.8197C25.6573 50.8197 27.3033 50.8139 28.9473 50.8197C29.163 50.8197 29.1745 50.7504 29.111 50.5656C28.9704 50.1574 28.8549 49.7454 28.7279 49.3373C28.2139 47.6721 27.696 46.0068 27.155 44.2568" fill="white"/>
<path fill-rule="evenodd" clip-rule="evenodd" d="M75.2798 54.8259C74.35 52.8507 73.4163 50.8793 72.4864 48.906C72.2342 48.3727 71.9859 47.8337 71.7067 47.2311C71.1369 47.9261 70.6055 48.5653 70.0838 49.2121C69.2021 50.3229 68.3339 51.4453 67.4329 52.5407C67.2346 52.7794 67.2596 52.9219 67.4098 53.1683C67.9469 54.0519 68.5957 54.8586 69.0751 55.7807L68.8941 55.8712C67.1114 56.1099 65.3287 56.3467 63.5345 56.493C63.005 55.7692 62.6354 54.9491 62.1811 54.1829C61.9693 53.8286 61.7845 53.4609 61.5766 53.1086C61.463 52.9161 61.4457 52.7852 61.5958 52.5754C63.2495 50.2786 64.857 47.9434 66.5435 45.6641C66.9863 45.0634 67.4002 44.4339 67.8256 43.8178C67.9758 43.5984 68.1317 43.4963 68.4128 43.4963C70.7884 43.5137 73.1621 43.5137 75.5397 43.4963C75.8978 43.4963 76.0865 43.6292 76.227 43.9314C77.2743 46.18 78.3254 48.4247 79.415 50.7503C79.8135 50.1015 80.1793 49.5086 80.5393 48.9137C81.5539 47.2292 82.5684 45.5389 83.5753 43.8448C83.6966 43.6426 83.8352 43.5406 84.0855 43.5425C85.9298 43.5541 87.776 43.5464 89.6222 43.5502C89.7377 43.5502 89.8975 43.4809 89.9745 43.6157C90.0573 43.7582 89.9167 43.8525 89.8474 43.9526C88.573 45.795 87.2985 47.6354 86.0183 49.472C85.2117 50.6329 84.3935 51.788 83.5772 52.9431C83.3578 52.9604 76.3521 54.7296 75.2779 54.8239" fill="#F4A12B"/>
<path fill-rule="evenodd" clip-rule="evenodd" d="M48.7361 56.1832C47.5907 55.0781 46.1198 54.5738 44.6895 53.9943C43.6017 53.5496 42.6757 52.9046 42.1463 51.7958C41.948 51.3799 41.8171 50.9333 41.769 50.4905C41.6015 48.9504 41.6304 47.4314 42.5814 46.0819C43.338 45.0115 44.4199 44.3955 45.6212 44.0181C47.6253 43.3867 49.6718 43.4387 51.7163 43.843C52.1071 43.9219 52.4786 44.0644 52.8598 44.1818C53.0504 44.2376 53.1332 44.3627 53.1312 44.5668C53.1312 45.6295 53.1332 46.6941 53.1332 47.7529C53.1313 48.0071 53.0696 48.0937 52.777 47.9782C51.3274 47.4083 49.8181 47.135 48.2548 47.264C47.864 47.3005 47.4906 47.3795 47.1479 47.547C46.0428 48.0918 45.9697 49.1641 46.9823 49.8417C47.8948 50.452 48.9113 50.8544 49.9297 51.2278C51.5314 51.815 52.9445 52.6178 53.651 54.2869C53.986 55.0724 54.1593 55.8944 54.0572 56.7569C52.2669 56.6914 50.4976 56.4739 48.7361 56.1832Z" fill="#F4A12B"/>
<path fill-rule="evenodd" clip-rule="evenodd" d="M54.8193 56.778C54.8559 56.4488 54.8405 56.0984 54.8636 55.7557C54.9733 54.152 55.0889 52.5503 55.1986 50.9447C55.3526 48.7173 55.5047 46.4842 55.6568 44.251C55.7068 43.4944 55.7068 43.504 56.4788 43.504C58.0959 43.5079 59.7111 43.5079 61.3302 43.5002C61.592 43.4963 61.7364 43.5522 61.7152 43.8544C61.6055 45.356 61.5054 46.8596 61.3937 48.3612C61.2243 50.7946 61.053 53.226 60.8778 55.6594C60.8547 56.0156 60.8104 56.3717 60.7758 56.7298C58.7909 56.7626 56.8042 56.8992 54.8213 56.7799" fill="#F4A12B"/>
<path fill-rule="evenodd" clip-rule="evenodd" d="M48.7357 56.1831C50.4991 56.4738 52.2664 56.6894 54.0568 56.7568C54.0337 59.4693 52.6456 61.5735 49.6617 62.2608C47.1917 62.8249 44.7256 62.6651 42.2999 61.9412C42.013 61.8565 41.8494 61.716 41.7512 61.4214C41.3103 60.1123 40.8387 58.8129 40.3555 57.446C41.6934 57.9619 43.0218 58.2565 44.3559 58.5145C45.4263 58.7243 46.5063 58.7551 47.5921 58.5761C48.6644 58.399 49.4191 57.2573 48.7357 56.1831Z" fill="white"/>
<path fill-rule="evenodd" clip-rule="evenodd" d="M75.2802 54.826C75.9945 54.6142 76.495 54.5334 77.1034 54.4025C79.1671 53.9501 83.4795 52.8219 83.5815 52.9451C83.0078 53.7652 82.4399 54.5911 81.8585 55.4093C81.7199 55.5999 81.7064 55.8001 81.7064 56.0158C81.7102 58.041 81.7026 60.0624 81.716 62.0896C81.718 62.3842 81.6583 62.4689 81.3464 62.465C79.5637 62.4535 77.7733 62.4573 75.9849 62.4669C75.7019 62.4669 75.6306 62.3861 75.6306 62.1089C75.6422 60.2299 75.6229 58.3471 75.6441 56.4682C75.6537 55.8791 75.5902 55.3323 75.2783 54.826" fill="white"/>
<path fill-rule="evenodd" clip-rule="evenodd" d="M63.5361 56.495C65.3304 56.3487 69.019 55.8135 69.0767 55.7808C70.0374 57.2189 71.0019 58.6569 71.9606 60.097C72.4669 60.8555 72.9636 61.6236 73.4718 62.3956C73.3602 62.5034 73.2389 62.4572 73.1369 62.4572C71.1636 62.4591 69.1942 62.4533 67.2228 62.461C66.9552 62.4649 66.8185 62.384 66.6876 62.153C65.6557 60.301 64.6104 58.4606 63.5708 56.6182L63.5361 56.495Z" fill="white"/>
<path fill-rule="evenodd" clip-rule="evenodd" d="M54.8192 56.7781C56.804 56.8974 58.7908 56.7627 60.7737 56.728C60.6486 58.5454 60.5196 60.355 60.4002 62.1704C60.3868 62.386 60.3232 62.4631 60.0961 62.4631C58.2941 62.4554 56.496 62.4573 54.6922 62.4592C54.5208 62.4592 54.3918 62.4592 54.4111 62.2205C54.5516 60.4051 54.6845 58.5935 54.8173 56.7781" fill="white"/>
</svg>
