<svg width="100" height="100" viewBox="0 0 100 100" fill="none" xmlns="http://www.w3.org/2000/svg">
<path d="M92.4386 44.7771C90.3364 43.6748 75.2386 39.768 62.9932 37.6567C58.9136 36.8658 54.7773 36.4067 50.625 36.2839C58.0114 36.5862 63.8477 42.6589 63.8523 50.0544C63.8523 50.3498 63.8273 50.6385 63.8091 50.9317C63.6455 54.9771 63.1818 59.0067 62.4182 62.9839L98.0045 54.5317C98.0364 54.2135 98.0523 53.8908 98.0523 53.5658C98.05 49.7908 95.8591 46.3612 92.4386 44.7771Z" fill="#005EB8"/>
<path d="M63.9027 50.0205V62.6364L62.2754 63.0228L63.9027 50.0205Z" fill="#014FB7"/>
<path d="M50.0532 63.8545C49.5691 63.8545 49.0873 63.8272 48.6055 63.7772C44.7464 63.5817 40.9032 63.1249 37.1055 62.409L45.5532 97.9726C45.8714 98.0045 46.1941 98.0204 46.5191 98.0204C50.2964 98.0204 53.7305 95.8249 55.3123 92.3931C56.4146 90.2931 60.31 75.2249 62.4237 62.9886C63.1873 59.0113 63.6532 54.984 63.8146 50.9363C63.3555 58.1999 57.3305 63.8545 50.0532 63.8545Z" fill="#0077C8"/>
<path d="M50.0709 63.8841H37.4528L37.0664 62.2568L50.0709 63.8841Z" fill="#0067C7"/>
<path d="M36.2527 50.0546C36.2527 50.0387 36.2527 50.0228 36.2527 50.0046C36.2527 49.7614 36.2754 49.5228 36.2891 49.2818C36.4368 45.1818 36.9004 41.1 37.68 37.0728L2.09363 45.5273C2.06181 45.8478 2.0459 46.1682 2.0459 46.4932C2.0459 50.2705 4.24135 53.7046 7.67317 55.2864C9.77544 56.3887 24.8732 60.2932 37.1164 62.4046C40.9141 63.1205 44.755 63.5773 48.6164 63.7728C41.5914 63.0364 36.255 57.1182 36.2527 50.0546Z" fill="#00A3E0"/>
<path d="M36.1865 50.043V37.4271L37.8138 37.0408L36.1865 50.043Z" fill="#0195DF"/>
<path d="M54.5462 2.09314C54.2257 2.06132 53.9053 2.04541 53.5803 2.04541C49.803 2.04541 46.3689 4.24086 44.7871 7.67268C43.6848 9.77496 39.7894 24.8409 37.678 37.0772C36.8985 41.1045 36.4326 45.1863 36.2871 49.2863C36.6894 41.9818 42.728 36.2636 50.0417 36.259C50.2394 36.259 50.4235 36.2818 50.6144 36.2886C54.7712 36.409 58.9121 36.8681 62.9939 37.659L54.5462 2.09314Z" fill="#71C5E8"/>
<path d="M50.2456 36.1523H50.0479C42.3979 36.1523 36.1911 42.3478 36.1797 49.9978V50.0433C36.1797 57.6205 42.2729 63.7887 49.8501 63.8796H50.0479C57.6979 63.8796 63.9047 57.6842 63.9161 50.0342V49.9887C63.9183 42.4114 57.8229 36.2433 50.2456 36.1523Z" fill="#082C88"/>
<path d="M50.0009 57.809C47.3305 57.7408 44.8964 56.2545 43.6146 53.9113C27.5214 52.7181 10.1282 50.2136 9.9282 50.2136C9.6282 50.2136 9.53047 49.9136 9.53047 49.7136C9.51229 49.4545 9.70774 49.2295 9.96683 49.209C9.98274 49.2067 9.99865 49.2067 10.0168 49.209L42.7032 49.909C42.6214 46.3113 45.0191 43.1272 48.5009 42.2136L49.6009 28.8181C49.585 28.559 49.7827 28.334 50.0418 28.3181C50.06 28.3158 50.0805 28.3158 50.0987 28.3181C50.3577 28.3022 50.5827 28.4999 50.5987 28.759C50.6009 28.7772 50.6009 28.7977 50.5987 28.8158L51.7918 42.2113C55.2282 43.1727 57.5737 46.3408 57.4896 49.9067L90.0873 49.2067C90.3487 49.1931 90.5714 49.3908 90.5873 49.6522C90.5873 49.6704 90.5873 49.6886 90.5873 49.7045C90.6123 49.9522 90.435 50.1727 90.1896 50.2045C89.9918 50.2045 72.4964 52.6045 56.5055 53.8022C55.2396 56.2363 52.7418 57.7749 50.0009 57.809Z" fill="white"/>
</svg>
