<svg width="101" height="100" viewBox="0 0 101 100" fill="none" xmlns="http://www.w3.org/2000/svg">
<path d="M68.99 87.5004C63.93 87.3304 48.28 84.1004 54.73 76.2004C55.34 75.2504 56.32 74.7704 57.38 74.7504C57.68 74.7504 57.84 73.7104 58.46 73.8804C59.08 74.2304 58.62 74.9204 58.15 75.2704V75.7904C58.43 75.8904 58.76 75.8104 59.08 75.8304C58.78 76.3304 58.49 76.3404 58.31 76.6504C58.31 76.8204 58.93 76.8204 58.93 76.9904C58.46 77.5104 57.54 77.1704 56.92 77.5104V77.8604C58.46 77.6904 60.17 76.4804 61.72 77.3404C61.72 77.3404 61.26 77.5104 60.94 77.6904C62.62 78.1504 64.33 77.8404 66.05 78.0304C65.9 77.6904 65.43 77.8604 65.27 77.5104C66.51 77.1704 67.75 77.8604 68.99 78.2004C68.18 77.0704 66.54 77.7704 65.9 76.3104C66.07 75.2404 67.75 76.7904 68.37 76.3104C68.95 76.0004 69.4 76.5804 69.95 76.2204H69.97C69.97 76.2204 70.04 76.1704 70.07 76.1404C69.45 75.4504 68.37 76.1404 67.75 75.2804C69.61 74.7404 71.54 74.0404 73.63 74.5904C74.35 74.8804 75.3 75.5404 76.1 75.2804C76.1 75.1104 75.8 74.9304 75.64 74.7604C75.17 74.7604 74.56 74.7604 74.25 74.2404C74.47 73.1804 75.88 74.9604 76.57 74.4104C74.42 73.4304 71.93 73.8004 70.22 71.8304C69.87 72.3504 69.51 71.9004 69.3 71.6604C67.24 72.0804 66.98 70.3204 68.98 70.6304C69.8 70.4204 74.02 71.1504 73.94 72.0104C73.94 72.4604 74.43 72.3504 75.94 72.3504C77.69 72.0804 79.54 73.4104 81.21 73.0404C80.74 72.7004 79.82 73.2204 79.97 72.3504C79.97 72.0104 80.58 72.3504 80.89 72.1804L80.73 72.0104C80.89 71.6604 81.2 71.8304 81.51 71.8304C80.43 71.3204 79.34 70.8004 78.26 70.2904C78.88 69.2504 79.97 69.9504 80.89 69.9504C80.89 69.9504 80.89 69.6004 80.73 69.6004C81.05 69.0804 81.51 69.7704 81.97 69.6004C80.99 68.6704 79.23 68.8004 77.95 68.4004C78.11 68.0604 78.88 68.5704 78.72 67.8804C78.41 67.0204 77.32 67.1904 76.71 66.8504C78.12 66.1404 79.7 66.6204 81.2 66.5004C79.96 65.2904 78.26 66.6804 76.86 65.4704C77.17 65.1304 77.64 64.9504 77.79 64.4404C78.72 64.7804 79.81 64.2704 80.73 64.4404C76.12 61.6904 75.21 64.4104 71.45 63.2304C72.32 62.7304 73.41 62.6804 74.39 62.7104C75.7 61.0304 78.65 63.3204 80.58 63.4004C80.73 63.5804 80.89 63.7504 81.05 63.9204C81.97 64.1004 82.9 64.1004 83.52 64.7804C83.67 64.9604 83.83 64.7804 83.83 64.6104C83.64 63.7404 83.58 63.3704 84.3 63.0604C84.15 62.5404 83.84 62.3804 83.37 62.2104C84.46 61.8604 85.7 61.6904 86.47 62.9004H86.94C86.94 62.5504 87.25 62.3804 87.4 62.2104C89.37 63.0504 91.67 62.7004 93.73 62.5504C92.33 62.0004 90.89 62.0304 89.56 61.3404C90.02 60.8304 90.95 61.0004 91.41 61.1704C91.73 61.3404 91.73 60.4804 91.88 60.6504C93.47 60.9904 94.55 61.4904 96.06 62.2004C95.45 60.8304 93.43 60.9904 93.43 59.7904C93.27 59.1204 94.46 60.2604 94.94 59.6604C92.01 58.9604 89.09 59.2404 86.15 58.7504C85.99 58.5804 85.84 58.4104 85.69 58.2404C86.61 57.7204 87.54 57.3704 88.48 57.5504C88.63 57.7204 88.78 57.7204 88.94 57.8904C89.56 57.8904 89.87 57.8904 90.5 58.0604V57.7204C83.61 57.1404 76.61 57.8704 69.6 57.5504C61.04 57.8704 64.71 56.5104 70.37 57.0304C69.46 56.0604 67.79 57.2004 67.13 56.0004C67.69 55.7804 69.21 55.4804 69.3 56.1704H72.24L72.08 56.0004C74.1 55.4904 76.1 55.8304 78.12 55.4904C76.72 54.9704 75.02 55.6504 73.63 55.1404C74.1 54.7904 74.56 54.7904 75.02 54.9704C74.87 54.6204 74.25 54.7904 74.1 54.4504C75.49 53.9304 76.88 54.2804 78.27 54.1004C78.27 53.7604 77.96 53.4104 78.27 53.0704C79.01 54.2504 80.45 52.7104 81.21 54.1004C80.74 54.4504 80.28 54.4504 79.82 54.4504C80.24 55.3304 81.73 53.9604 81.83 54.9704C82.76 54.9704 83.84 55.1404 84.77 54.6204C84.92 54.6204 85.23 55.3104 85.54 54.7904C83.42 54.2604 81.87 53.6304 80.28 52.0404C81.08 51.2704 81.93 52.5304 82.75 52.5604C83.06 52.7304 82.91 52.0404 83.21 52.0404C83.83 51.8704 84.61 51.8704 85.23 52.2104C86.13 52.5304 87.73 53.0904 88.48 52.3904C88.48 52.5904 88.64 52.5504 88.76 52.5604C87.23 51.8004 86.05 52.5104 84.76 51.0004C85.38 50.6604 86 50.8304 86.46 51.3504C86.38 50.2504 87.11 51.3504 87.55 51.1904C86.09 49.9604 83.88 50.2004 82.13 49.6304C82.13 49.4604 82.29 49.4604 82.45 49.4604C82.48 48.7004 79.88 49.3904 79.2 48.4304C81.11 47.1004 83.18 49.7504 84 48.9404C83.84 48.7704 83.69 48.4304 83.37 48.2504C83.84 47.7404 84.46 48.7704 84.92 48.2504C84.77 48.0804 84.77 47.9104 84.77 47.7404C85.54 47.2204 86.78 48.2504 87.25 47.7404C88.01 47.0404 88.49 47.9104 89.26 47.7404C87.72 46.5204 85.85 46.7104 84.15 45.8404C84.3 45.5004 84.61 45.5004 84.92 45.5004C84.45 44.9804 83.83 44.9804 83.21 44.6404C84.87 44.3104 87.02 44.7404 88.17 46.0104C87.7 44.9804 87.08 44.4704 86.16 44.1204C85.95 43.4404 86.94 43.8204 87.25 44.1204C87.4 44.1204 87.56 43.9404 87.4 43.7704C87.25 43.7704 87.09 43.6004 87.09 43.6004C87.72 42.9604 89.04 43.5104 89.41 44.1204C89.41 43.9404 89.41 43.7704 89.56 43.6004C84.02 40.6404 77.88 42.1104 71.92 41.3704C73.47 40.5004 75.33 41.5404 76.87 40.8504C76.71 40.5004 76.24 40.6804 76.09 40.3304C77.18 39.6404 78.56 40.8504 79.5 40.1604C78.11 39.6404 76.56 39.8104 75.16 39.3004C75.42 38.9504 75.72 38.8804 76.04 38.9004C75.02 37.8004 76.9 38.1704 77.5 38.1004C75.95 37.7604 74.25 37.7604 73.16 36.3804C75.89 35.9504 81.38 34.2404 83.53 36.2104C83.31 33.8304 73.9 33.5904 71.77 33.9704C74.67 35.3204 65.54 34.6204 64.81 34.1504C66.05 33.4604 67.44 34.1504 68.84 33.9704C68.68 33.8004 69.14 33.6304 68.84 33.4604C69.61 32.9404 70.23 33.9704 71 33.6304C70.98 32.9604 70.36 32.5804 71.62 32.6004V32.2604C72.87 31.3904 73.95 32.2604 75.18 32.7704C71.04 30.5404 75.11 30.5104 77.2 31.4004C75.96 30.2004 74.11 30.2004 72.4 30.2004C66.19 31.1204 60.11 29.8204 53.99 28.6504C53.82 28.4804 53.52 28.3004 53.52 28.1304C53.52 27.4404 54.3 28.1304 54.45 27.6104L54.3 27.4404C54.78 26.6704 56.15 27.8504 54.91 27.7904C54.76 28.4804 55.53 28.1304 55.68 28.1304C58.27 28.2004 60.73 27.6204 63.26 28.6504C61.19 26.9504 67.83 28.3004 68.68 28.8204C68.99 28.8204 69.31 29.1704 69.61 29.0004C70.07 29.0004 69.46 28.8204 69.46 28.6504C67.76 27.6104 65.9 27.9604 64.35 26.7604C64.19 26.5904 64.35 26.4204 64.51 26.4204C64.82 26.2404 64.97 26.7604 65.27 26.5904C63.88 25.0404 61.56 26.5904 59.85 25.5604C60.19 24.1104 59.62 23.6604 61.56 24.0204C62.71 24.3904 63.92 24.7204 64.97 25.2304C65.27 25.4004 64.82 25.0504 64.82 24.8804C64.87 24.2904 65.79 24.5604 65.75 25.0504C67.24 24.3904 67.74 25.7304 68.84 26.0804C68.47 25.2404 66.87 24.6004 68.84 24.7104C67.45 24.6904 66.51 23.9504 65.43 23.3304C65.58 22.9804 66.05 23.1604 66.36 22.9804C65.43 22.2904 64.04 22.9804 63.11 22.1204C64.04 21.6004 64.82 21.6004 65.75 21.7704C64.29 21.0604 62.49 22.3704 61.41 21.0804C61.26 20.7404 62.03 20.9104 61.72 20.5704C61.09 20.2204 60.32 20.7404 59.55 20.3904L59.7 20.2204C58.93 19.5304 58.15 19.8804 57.38 20.0504C57.84 20.3904 57.22 20.3904 57.22 20.5704C54.28 20.3904 51.32 22.5604 48.86 20.5704C49.6 19.7604 54.75 21.2904 54.9 20.0504C54.6 20.0504 54.29 20.2204 54.13 19.8804C55.21 19.3604 56.3 19.8804 57.38 19.3604C56.76 19.3604 56.3 18.8404 55.83 18.6704C56.3 17.8204 56.92 18.4904 57.38 18.8404C57.68 19.0204 57.84 18.4904 58.15 18.6704C58.93 19.3604 59.85 19.8804 60.78 19.5304C59.85 19.1904 58.93 19.0204 58.31 18.1604C59.55 17.8204 60.78 18.1604 61.87 18.6804C58 15.9904 51.87 17.2504 47.79 17.3104C47.64 16.4404 48.87 16.9604 49.33 16.4404C48.72 15.9304 47.94 16.7904 47.64 16.1004C49.18 15.4104 50.89 16.1004 52.59 16.4404C52.52 15.8004 50.74 16.1004 51.82 15.4104C53.66 15.8704 55.27 15.5704 57.07 15.9304C55.15 14.3204 52.85 15.2304 50.73 14.0304L50.88 13.8504C50.73 13.8504 50.58 13.6804 50.58 13.6804C51.65 12.4704 53.05 13.8504 54.13 13.6804C53.81 13.6804 53.67 13.5104 53.51 13.3404C53.98 12.9904 54.44 13.3404 54.91 13.1604C52.13 12.4704 49.33 12.4704 46.4 11.9604C46.09 11.9604 46.24 11.6204 46.24 11.4504C47.33 10.4204 48.72 11.4504 49.96 10.9304C46.97 10.4104 43.95 11.0304 40.97 10.9304C42 11.9104 39.36 11.3204 38.81 11.7904C39.42 11.9604 40.2 11.6204 40.82 11.9604C37.73 13.1304 34.66 13.2104 31.69 14.7204C32.93 15.2704 34.66 13.8604 35.56 14.5404C36.65 13.8504 37.72 14.2004 38.96 14.0304C39.12 13.8504 39.43 14.0304 39.43 13.6804C40.73 14.7704 37.15 15.5004 36.49 15.2204C35.51 15.0404 34.91 15.6804 34 15.9204C34.15 16.0904 33.39 16.2604 33.85 16.2604C34.15 16.2604 34.32 15.9204 34.78 15.9204C35.09 15.9204 34.93 16.6004 35.24 16.4304C35.4 16.0904 35.86 15.9204 36.02 16.0904C37.41 16.2604 38.95 15.4004 40.2 16.0904C39.31 17.4504 36.5 16.7404 35.09 17.3004C33.24 17.9404 30.75 16.6304 29.06 17.8204C29.68 17.9904 30.3 17.6404 30.77 17.9904C29.72 18.9204 28.21 18.8904 27.36 20.2204C28.35 19.6704 36.25 17.0904 32.32 19.5604C33.04 19.4804 36.22 19.7904 34.48 18.6704C35.41 17.9904 37.57 17.6404 37.42 19.3604C37.42 19.7004 36.96 19.5304 36.81 19.5304C36.5 19.3604 36.81 19.0204 36.66 18.8404C36.34 18.6704 36.04 19.1904 35.73 19.0204C35.73 19.5304 36.66 19.1904 36.51 19.8704C36.35 20.0404 36.19 20.3804 36.04 20.3804C34.17 20.0404 32.63 20.9004 30.93 20.7304C30.31 20.7304 29.22 20.3804 28.76 20.9004C30.02 20.9504 29.79 21.3404 28.91 21.9404C29.07 21.9404 29.22 21.9404 29.37 22.1104C32.02 21.2004 35.08 21.2504 37.89 21.0804C38.35 21.0804 39.44 20.9104 39.44 21.4304C39.28 22.2804 38.05 21.7704 37.11 21.9504C36.03 23.4204 34.67 22.2904 33.25 22.4704C33.53 23.1604 31.13 22.6704 30.93 22.8104L31.08 22.9804C29.66 23.6704 27.97 21.7304 26.28 22.4704C27.04 22.2004 28.96 22.8104 27.98 23.6704C26.74 23.3304 25.66 23.3304 24.57 23.5004C24.89 24.0204 25.5 23.3304 25.66 23.8504C25.66 24.5304 24.89 23.8504 24.73 24.3704C23.81 23.8504 22.88 24.8804 21.8 24.7104C24.39 25.4204 27.16 23.6804 29.84 24.8804C30.01 25.6904 28.14 24.7704 28.29 25.5704C29.22 25.9204 30.15 25.0504 31.08 25.9204C30.6 26.6204 29.38 26.0604 28.61 26.0804C28.61 26.4304 28.14 26.2504 28.29 26.4304C28.76 26.7704 29.37 26.6004 29.84 26.6004C29.96 26.7704 30.47 26.9304 29.84 27.1904C30.51 27.2804 33.09 27.8604 30.92 27.9704C34.94 29.1504 27.81 29.1404 26.89 27.9704C27.03 26.9004 28.77 28.2704 29.52 28.1404C28.6 27.4504 27.2 27.8004 26.28 26.9404C26.59 26.5904 26.9 26.5904 27.37 26.5904C26.44 26.0704 25.67 26.7604 24.73 26.5904C24.27 26.4204 23.96 26.0704 23.49 26.2504V26.5904C22.25 27.1104 21.01 27.1104 19.78 27.6204C20.86 27.8004 21.8 27.1104 22.88 27.6204C22.73 27.9704 22.11 27.8004 22.11 28.3104C22.88 28.3104 23.5 28.1404 24.28 28.4904C22.42 29.1804 20.25 28.8304 18.4 29.8704C19.58 29.6804 21.73 28.8004 22.26 30.0404C23.81 29.5204 25.05 30.0404 26.44 30.3904C26.6 30.5604 26.75 30.7304 26.9 30.9104C23.94 30.7304 21.18 30.4604 18.4 32.1104C19.8 31.7504 21.72 30.9204 23.03 31.7704C25.51 32.3204 27.88 31.2104 30.31 32.1104C29.7 32.4604 28.92 32.1104 28.3 32.2904C28.3 32.2904 28.3 32.6304 28.46 32.6304C25.64 33.5704 22.56 32.5804 19.64 33.5004C21.03 33.6704 22.58 32.8004 23.82 33.5004C24.46 34.2804 26.73 33.3104 27.07 34.1904C27.68 34.1904 27.68 34.5304 27.83 35.0504C26.42 35.6704 24.1 33.8204 23.19 34.8804C23.81 35.0504 24.43 34.7004 24.9 35.2204C24.14 37.1504 22.49 35.7004 21.02 36.4204C21.8 36.4204 22.73 36.2504 22.88 36.9404C23.03 37.2804 22.41 36.9404 22.26 37.2804C21.34 36.7704 20.41 37.4504 19.48 37.4504C19.94 37.9004 21.01 36.8904 21.02 37.8004C19.61 38.8504 17.21 38.2104 15.46 38.3204C15.46 38.6604 14.99 38.4904 15.15 38.6604C15.77 38.8404 16.54 38.1504 17.16 38.6604C15.68 39.5604 13.79 38.4504 12.68 40.2204C13.92 40.0504 15 39.3604 16.24 39.7004C16.24 40.0504 15.78 40.0504 15.78 40.2204C16.09 40.3904 16.71 40.0504 17.02 40.3904C16.25 41.0804 15.16 41.0804 14.4 41.6004C16.85 41.2504 13.48 42.9204 12.84 43.4904C13.73 43.4104 18.95 41.2104 17.79 43.3204C15.73 43.4604 13.32 43.3004 11.91 45.2104C12.84 44.7004 13.77 43.8304 14.86 44.1804C16.37 44.1304 15.86 44.8404 15.32 45.3904C16.25 45.7304 17.34 45.0404 18.26 45.5604C17.49 46.2404 15.89 45.9404 15.48 47.1004C18.02 46.5904 20.63 45.8204 23.21 46.2504C19.79 47.7004 15.99 46.8704 12.46 47.6704C13 47.6404 13.46 47.9304 13.93 48.3204C12.2 48.8104 10.43 48.1604 9.13 49.7004C10.06 49.5304 11.14 48.5004 11.6 49.5304C11.75 50.0504 10.36 49.5304 10.68 50.3904C10.68 50.5704 11.6 50.0504 11.91 50.5704C11.91 50.7404 11.45 50.5704 11.45 50.9104C12.69 51.0804 13.92 50.5704 15.01 51.0804C14.08 51.6004 12.99 51.2604 12.07 51.4304V51.7704C13.49 52.1604 11.18 52.1904 10.82 52.6404C11.45 52.6404 11.91 52.6404 12.53 52.9804C12.83 53.3304 13.77 52.6404 13.92 53.1604C13.3 54.7504 8.81 53.4004 7.11 54.0204V54.3704C7.73 54.1904 8.35 54.0204 8.97 54.3704C7.58 55.4004 5.89 54.8804 4.33 55.5704C5.26 55.5704 6.2 55.5704 7.12 56.0804C6.2 56.9404 4.96 56.4304 3.87 56.7704C6.03 57.1204 8.35 56.4304 10.52 56.9504C10.52 57.2904 10.21 57.1204 10.06 57.2904C8.94 57.2004 7.89 57.6204 6.81 57.8104C6.65 57.9804 6.5 58.1504 6.2 58.1504C7.12 58.5004 7.9 57.4604 8.82 57.8104C9.28 58.1504 10.06 57.8104 9.91 58.3304C9.91 58.6704 9.14 58.5004 8.82 59.1904C9.28 59.1904 9.91 59.0204 10.21 59.5304C7.6 60.9104 4.88 59.3404 2.17 60.0504C2.63 60.2204 3.1 60.0504 3.41 60.5704C2.79 61.0904 2.02 61.4204 1.24 61.7804C1.71 61.7804 2.02 61.6104 2.32 61.4304C2.47 61.4304 2.78 61.7804 3.1 61.6104C3.13 60.9304 4.59 61.2104 4.96 61.4304C4.64 61.7804 4.03 61.2604 3.87 61.9504C4.96 62.1204 6.5 61.2604 7.43 62.1204C5.11 63.5104 2.17 63.3304 0 65.0504C2.47 65.0504 7.51 63.2804 9.13 64.8704C8.82 65.9104 7.74 66.2504 6.5 66.2504C7.16 67.7804 11.07 63.8904 11.3 65.9004C10.37 66.9304 9.13 66.9304 7.9 67.2704C9.74 67.5004 11.63 66.5504 13.63 66.5804C13.48 66.2404 12.85 66.4104 13.01 66.0604C13.32 65.5504 14.41 64.1804 14.87 64.8504C15.18 65.2004 14.24 65.5504 14.41 65.5504C15.49 66.7604 16.57 64.6904 17.97 65.2104V64.8604C17.5 64.6904 17.04 65.0404 16.57 64.6904C17.66 64.0004 19.06 64.0004 20.14 63.3104C17.78 62.3104 25.97 61.0804 26.48 61.9304C25.39 62.2804 24.47 62.6204 23.38 62.4504C23.85 63.1304 24.94 61.9304 25.09 62.9704C25.24 63.4704 24.64 63.8304 24.16 63.6604C24.32 64.5104 25.25 63.6604 25.09 64.1804C24.74 65.8504 20.35 64.2404 18.89 65.3804C19.2 66.0704 19.22 66.7404 19.2 66.7604L19.35 66.9304C18.17 68.3104 16.78 67.3504 15.33 68.1404C16.11 68.3104 16.88 67.9604 17.65 68.3104C17.19 68.6504 16.56 68.4804 16.1 68.6504C16.56 69.5404 18.66 68.5704 19.66 69.1704C18.88 69.6904 17.96 70.2004 17.18 70.5404C16.11 69.6204 14.26 69.4704 12.85 70.0304C13.86 70.0904 12.9 70.5904 12.39 70.3704C11.31 69.6804 10.07 70.0304 8.98 69.5204C7.86 68.8904 5.87 68.8904 5.12 69.5204C6.21 69.8604 7.59 69.1704 8.53 69.8604C7.29 71.0604 5.43 70.7304 4.34 71.9204C7.13 71.2004 10.16 70.2004 12.85 71.2304C11.15 71.5804 9.76 72.4404 8.05 72.9504C7.1 74.4004 4.62 74.4804 3.41 75.7004C4.19 75.8804 4.96 75.2004 5.73 75.2004C6.66 75.2004 8.05 73.8104 8.98 74.6804C8.37 75.5304 6.92 75.5904 6.66 76.7504C7.25 75.7104 8.65 76.0404 9.45 75.2104C9.77 75.0304 10.22 75.3804 10.53 75.2104C11.6 74.3604 12.94 74.3204 11.31 75.5504C11.77 75.9004 12.24 75.2104 12.71 75.2104C13.48 75.2104 14.1 74.1704 14.73 73.9904C18.97 73.3404 23.32 71.3104 27.57 71.7604C23.69 73.1704 18.53 73.8804 14.58 75.2104C15.51 75.7104 16.58 74.6904 17.52 75.3804C17.3 76.6004 15.22 76.0204 14.27 76.5904C15.05 76.4104 15.97 76.0704 16.76 76.5904C16.41 76.7804 15.74 77.7204 16.6 77.6204C17.08 76.8204 19.27 75.8004 19.39 77.2804C21.61 75.5004 24.42 75.7204 27.14 75.3904C26.21 75.2204 25.43 75.5604 24.5 75.2204C25.66 74.5404 33.51 72.6504 28.37 74.8704C30.64 75.4604 33.42 73.3804 35.65 75.0404C34.25 75.5604 32.71 74.7004 31.32 75.0404C30.12 75.3404 28.97 76.0904 27.63 76.3204C25.69 76.9704 23.57 76.2404 21.58 77.1004C21.58 77.1004 21.58 77.4504 21.73 77.4504C18.89 78.6704 16.3 78.9404 13.53 80.3704C14.26 81.1904 17.47 77.9704 16 81.0704C15.85 81.4104 16.16 81.5804 16.31 81.7504C16.6 80.6804 18.4 80.3404 18.02 81.7504C18.33 80.8504 21.33 79.3004 20.49 80.8904C21.26 80.8904 21.89 80.3704 22.5 79.8604C22.97 79.6904 23.43 80.2104 23.9 79.8604C24.83 79.6004 26.87 78.0904 27.46 79.0004C27.92 78.8304 28.38 78.6604 28.85 78.6604C29 78.4904 29.31 78.6604 29.31 78.3104C29.31 78.4904 29.93 78.4904 29.46 78.8304C31.01 79.0004 32.56 78.4904 34.1 78.4904C33.49 77.9704 32.71 78.6604 32.25 77.9704C33.13 77.0304 35.78 78.0804 37.2 77.6204C36.36 76.7104 34.77 78.1304 34.11 77.1004C35.21 76.3004 41.35 74.9504 40.77 76.7604C39.13 82.2904 36.17 86.7404 29.91 87.6204H5.96V89.3704H100.07V87.6304H69.08L68.99 87.5004ZM9.42 55.6404C9.07 54.8104 11.62 54.5404 12.36 54.9604C11.59 55.8104 9.89 56.6704 9.42 55.6404ZM18.55 56.1604C18.61 56.7304 15.42 56.7904 14.84 56.5104C15.15 56.3404 15.3 56.1604 15.62 56.3404V55.9904C15 56.1604 14.38 55.9904 13.76 55.9904C13.71 56.5804 13.16 56.7204 12.98 56.1604C12.98 56.3404 12.98 56.5104 12.82 56.5104C10.38 56.4104 15.81 54.3804 15.76 55.6404C16.85 55.6404 17.76 55.1304 18.85 55.6404C18.7 55.8204 18.55 55.8204 18.39 55.8204C18.23 55.9904 18.39 55.9904 18.54 56.1604H18.55ZM28.46 43.2604L28.3 43.4304C29.08 44.1204 30 42.9104 30.62 43.6004C30.62 43.7704 30.23 43.6204 30.16 43.7704C29.13 45.5704 26.68 44.2604 25.21 43.7704C26.14 43.2604 27.38 42.7504 28.46 43.2604ZM23.5 44.8104C24.65 44.8104 25.76 44.6104 26.9 44.6404C27.06 44.8104 27.21 45.1504 27.52 45.3304C27.2 45.8404 26.59 45.3304 26.13 45.5004V46.0204C25.04 46.7104 24.11 45.6704 23.18 45.1604C23.33 44.9904 23.33 44.8204 23.49 44.8204L23.5 44.8104Z" fill="#007B5E"/>
</svg>
