<svg width="100" height="100" viewBox="0 0 100 100" fill="none" xmlns="http://www.w3.org/2000/svg">
<path d="M100 50C100 77.6142 77.6142 100 50 100C22.3858 100 0 77.6142 0 50C0 22.3858 22.3858 0 50 0C77.6142 0 100 22.3858 100 50Z" fill="#051833"/>
<path d="M38.3424 81.9072L10.018 53.5005C9.81203 53.2943 9.9772 52.9645 10.2241 52.9645H16.3262C19.8718 52.9645 23.2941 54.3663 25.8088 56.9225L38.5485 69.7034L69.3467 38.7818C74.7882 33.3808 82.0864 30.2061 89.7549 30C90.0435 30 90.1669 30.3298 90.0018 30.536L38.7962 81.9072C38.6719 82.0309 38.4659 82.0309 38.3424 81.9072Z" fill="white"/>
</svg>
