<svg width="100" height="100" viewBox="0 0 100 100" fill="none" xmlns="http://www.w3.org/2000/svg">
<path d="M0 25C0 11.1929 11.1929 0 25 0H75C88.8072 0 100 11.1929 100 25V75C100 88.8072 88.8072 100 75 100H25C11.1929 100 0 88.8072 0 75V25Z" fill="#5BAC29"/>
<path d="M18.588 47.3944C19.4558 47.4144 20.3057 47.1456 21.0042 46.6303C21.3487 46.3614 21.6221 46.0122 21.8003 45.6132C21.9786 45.2142 22.0563 44.7775 22.0266 44.3415C22.0693 43.9939 22.0248 43.641 21.8973 43.3148C21.7697 42.9886 21.5631 42.6992 21.2959 42.4726C20.7077 42.111 20.0241 41.9352 19.3343 41.9683H13.9409L12.8047 47.3944H18.588ZM17.1171 57.229C18.1583 57.2737 19.1806 56.9417 19.9968 56.2938C20.3808 55.9418 20.6803 55.5077 20.8733 55.0239C21.0662 54.5401 21.1475 54.0189 21.1112 53.4993C21.1409 52.9945 21.0094 52.4932 20.7357 52.068C20.4912 51.7253 20.1626 51.4513 19.7815 51.2726C19.373 51.0843 18.9347 50.9689 18.4864 50.9318C18.0039 50.8929 17.5404 50.8691 17.0844 50.8691H12.085L10.7218 57.229H17.1171ZM19.5865 38.0008C20.6415 37.9932 21.6955 38.0702 22.7382 38.2311C23.5732 38.3487 24.3772 38.6287 25.1046 39.0552C25.7526 39.4537 26.2729 40.0293 26.6041 40.7141C26.9795 41.5674 27.1566 42.4946 27.1221 43.4262C27.1249 44.0734 27.0276 44.7171 26.8338 45.3346C26.6454 45.9327 26.3538 46.4932 25.9723 46.9909C25.5933 47.4745 25.1318 47.8873 24.6091 48.2102C24.0481 48.5435 23.4227 48.7539 22.7743 48.8277V48.8925C23.8043 49.1465 24.7082 49.763 25.3207 50.6292C25.9234 51.5013 26.2365 52.541 26.2156 53.6009C26.239 54.7489 25.9876 55.8858 25.4822 56.9168C25.0135 57.8439 24.3424 58.6538 23.5186 59.2867C22.6713 59.9293 21.7152 60.4141 20.6961 60.718C19.6101 61.0457 18.4813 61.21 17.3468 61.2053H5.00195L9.84121 38.0055L19.5865 38.0008Z" fill="white"/>
<path d="M34.9131 44.4116L31.3443 61.1991H26.7334L30.2674 44.4116H34.9131Z" fill="white"/>
<path d="M41.5742 44.411L41.0549 46.7625H41.1169C41.8079 45.866 42.7011 45.1455 43.7236 44.6599C44.746 44.1742 45.8688 43.9371 47.0003 43.968C50.2679 43.968 51.9023 45.4718 51.9037 48.4794C51.8972 48.7028 51.8744 48.9253 51.8355 49.1453C51.7919 49.418 51.7435 49.6906 51.6903 49.9714C51.6372 50.2522 51.5779 50.5167 51.524 50.7682C51.4702 51.0197 51.4293 51.2167 51.4136 51.3659L49.3382 61.1999H44.7286L46.7734 51.3687C46.8088 51.1151 46.8708 50.7682 46.9499 50.3333C47.0163 50.0019 47.0539 49.6653 47.0624 49.3273C47.06 49.0795 46.9949 48.8364 46.8733 48.6206C46.7516 48.4047 46.5772 48.2232 46.3665 48.093C45.9252 47.7775 45.3964 47.6078 44.854 47.6077C44.2188 47.5938 43.5896 47.7327 43.0192 48.0125C42.5016 48.2731 42.0388 48.6305 41.656 49.0656C41.2688 49.5128 40.9518 50.0164 40.7161 50.5589C40.4655 51.1102 40.2756 51.687 40.1497 52.2793L38.2631 61.1999H33.6855L37.1569 44.4124L41.5742 44.411Z" fill="white"/>
<path d="M64.234 44.4118L63.5156 47.4871H60.2358L58.5148 55.844L58.4194 56.3095L58.3805 56.6196C58.3678 56.8634 58.4208 57.1061 58.5339 57.3223L58.904 57.6938L59.409 57.8397L59.9461 57.8581C60.4994 57.8578 61.0522 57.825 61.6017 57.7599L60.8179 61.294C60.3408 61.3417 59.8684 61.3771 59.3906 61.4105C58.9128 61.4439 58.4275 61.4596 57.9327 61.4596C57.3925 61.4599 56.8534 61.4106 56.3221 61.3123C55.8177 61.2276 55.3327 61.0521 54.8908 60.7944C54.472 60.547 54.125 60.1946 53.8841 59.772C53.6144 59.2509 53.4963 58.6645 53.5433 58.0796C53.5458 57.8347 53.5674 57.5904 53.6081 57.3489C53.651 57.0763 53.7042 56.7921 53.7737 56.4901L55.6535 47.4857H52.6348L53.3477 44.4104H56.3058L57.3432 39.3169H61.9541L60.916 44.4104L64.234 44.4118Z" fill="white"/>
<path d="M76.0432 49.7293C75.9732 49.3215 75.8251 48.9311 75.607 48.5795C75.3742 48.2215 75.0474 47.9345 74.6623 47.75C74.1522 47.5223 73.5963 47.4157 73.0381 47.4385C72.4517 47.4283 71.8687 47.5282 71.3191 47.733C70.8432 47.915 70.4029 48.1789 70.018 48.5127C69.6499 48.8388 69.3373 49.2225 69.0924 49.6489C68.8413 50.0837 68.6292 50.5399 68.4585 51.0121H76.1543C76.1549 50.5828 76.118 50.1542 76.0439 49.7314M67.9419 54.2169V54.8985C67.9244 55.3343 67.9956 55.769 68.1514 56.1764C68.3071 56.5838 68.544 56.9553 68.8477 57.2683C69.2303 57.5969 69.6743 57.8464 70.154 58.0021C70.6337 58.1578 71.1395 58.2168 71.6422 58.1755C72.0583 58.185 72.4724 58.1139 72.8616 57.9663C73.2004 57.8356 73.5181 57.6556 73.8042 57.4319C74.0749 57.2153 74.3166 56.9647 74.5233 56.6863C74.7277 56.4055 74.9124 56.1349 75.089 55.8745H79.6979C79.3683 56.7588 78.9323 57.5998 78.3994 58.3787C77.9157 59.0819 77.3102 59.6931 76.6116 60.1835C75.8783 60.6901 75.0592 61.0596 74.1941 61.274C73.1457 61.5284 72.0692 61.6482 70.9906 61.6305C69.9507 61.6444 68.9153 61.4921 67.9235 61.1793C67.0467 60.8998 66.2437 60.4275 65.5734 59.797C64.9062 59.1555 64.3901 58.3738 64.0623 57.5083C63.684 56.4914 63.5023 55.412 63.5266 54.3273C63.523 53.0068 63.7423 51.6952 64.1754 50.4477C64.585 49.2451 65.2051 48.1248 66.0068 47.1393C66.8002 46.1701 67.7913 45.3815 68.9138 44.826C70.115 44.2398 71.4372 43.9444 72.7736 43.9638C73.8583 43.9516 74.9386 44.1049 75.9771 44.4184C76.8903 44.6958 77.7327 45.1676 78.4465 45.8013C79.1441 46.4384 79.6884 47.225 80.0386 48.1024C80.433 49.1198 80.6247 50.2046 80.603 51.2956C80.5965 52.1771 80.5096 53.0561 80.3433 53.9218H67.9712L67.9419 54.2169Z" fill="white"/>
<path d="M88.4088 44.4116L87.7272 47.4283L87.7912 47.4903C88.2662 46.3723 89.094 45.4405 90.1482 44.8369C91.1904 44.2423 92.3712 43.9333 93.5711 43.9413C94.05 43.9414 94.5283 43.9754 95.0024 44.0429L94.0571 48.5332C93.7326 48.465 93.4082 48.4037 93.0878 48.3362C92.7661 48.2744 92.4394 48.242 92.1118 48.2394C91.3344 48.2163 90.5622 48.3728 89.8551 48.6967C89.2495 48.9873 88.7161 49.409 88.2936 49.9311C87.865 50.4624 87.5255 51.0597 87.2883 51.6998C87.035 52.3706 86.8353 53.0605 86.6912 53.763L85.131 61.2011H80.5439L84.0248 44.4136L88.4088 44.4116Z" fill="white"/>
<path d="M30.79 41.8046L31.6338 38H36.2754L35.4344 41.8046H30.79Z" fill="white"/>
</svg>
