<svg width="101" height="101" viewBox="0 0 101 101" fill="none" xmlns="http://www.w3.org/2000/svg">
<path d="M100 0H0V100H100V0Z" fill="white"/>
<path d="M78.5447 55.2411C69.4926 50.6303 57.0137 52.5462 57.0137 52.5462C59.6085 89.3686 87.9793 98.1687 96.8161 100.033H100.014V5.03345C67.1092 20.4623 78.5447 55.2411 78.5447 55.2411V55.2411Z" fill="#E6001F"/>
<path d="M43.9022 46.9633C44.6782 41.1564 38.2357 41.9383 38.2357 41.9383C38.5059 38.9643 43.3938 32.5165 50.0885 34.3239C56.7961 36.1314 57.3083 43.3483 57.3083 43.3483C63.309 11.6601 88.8779 3.0715 100.014 0.815379V0.0334473H0.0136719V100.033H83.4612C37.0307 91.996 43.9022 46.9633 43.9022 46.9633Z" fill="#312667"/>
</svg>
