<svg width="100" height="100" viewBox="0 0 100 100" fill="none" xmlns="http://www.w3.org/2000/svg">
<path d="M80.7071 74.9498C80.7071 74.9498 79.4344 64.2831 79.2122 62.4246C78.5051 56.5256 78.1616 53.0508 77.6162 52.3437C75.7172 51.9599 73.1313 52.2427 70.9495 52.1619C70.3031 52.9094 70.2425 53.1114 70 53.4751C70.3031 53.4145 71.4344 53.4953 71.495 54.1013C71.495 54.3639 70.1818 55.7781 69.4344 56.667C64.2829 62.2831 59.0909 67.8589 53.9192 73.6771C53.5354 74.1215 53.293 74.4852 52.9697 74.8892C53.9798 74.8892 54.9697 74.8892 55.9798 74.8892C58.7475 71.8993 71.7374 57.4751 73.3738 56.0003C73.6162 58.4448 75.7172 74.8892 75.7172 74.8892L80.7071 74.9498Z" fill="#0D2B60"/>
<path d="M55.8186 62.889C55.3944 59.6163 48.4449 59.5961 45.0106 59.7779C40.9904 59.9799 36.9904 60.7678 35.051 63.1718C34.1621 64.2627 33.7176 65.7577 32.9904 67.4951C32.4045 68.9092 31.4146 70.6466 31.6772 72.0001C32.1823 74.7072 37.051 74.9092 40.5055 74.9092C44.4045 74.9092 48.0611 74.4042 50.3641 73.0304C52.5863 71.7173 53.2934 69.7779 54.4045 67.2122C54.95 65.9597 56.0207 64.4042 55.8186 62.889ZM49.3338 66.889C48.4247 69.0102 47.9399 70.9698 46.2227 72.0607C44.2227 73.3537 38.2227 74.1011 36.3641 71.7981C36.3035 70.1819 37.1722 68.7476 37.7782 67.3739C38.3843 66.0203 38.7883 64.5254 39.657 63.5153C40.95 62.0203 43.354 61.3739 46.1419 61.3537C47.6772 61.3335 50.2631 61.5355 50.6469 62.8486C50.9904 64.0203 49.7782 65.8385 49.3338 66.889Z" fill="#0D2B60"/>
<path d="M32.8889 56.1414C32.5657 53.6768 28.4848 52.6263 27.4343 52.5657C21.6364 52.2222 13.5354 52.0808 6.84848 52.1818C6.64646 52.6869 6.60606 52.7879 6.38384 53.394C7.41414 53.394 8.0606 53.3334 8.32323 53.7172C8.62626 54.1414 8.12121 55.2728 7.41414 56.7677C4.66667 62.6869 2.24242 69.3132 0 74.9091C9.77778 74.7677 24.6465 76.2627 29.3131 70.3031C29.9192 69.5354 30.505 68.4445 30.6263 67.293C31.0303 63.798 27.8788 63.7778 25.2727 63.1515C27.8182 62.5859 30.5252 61.3334 31.8586 59.4344C32.4242 58.5859 33.0303 57.2728 32.8889 56.1414ZM25.3737 67.0101C25.6162 69.0707 23.697 71.1313 22.2626 72C18.4646 74.3031 11.1313 73.293 5.53535 73.495C6.90909 70.3839 8.08081 67.0707 9.57576 64.101C9.71717 64.1616 24.8485 62.5859 25.3737 67.0101ZM24.404 61.2728C21.0707 63.1919 14.4848 62.7879 10.1212 62.7677C11.2929 59.6566 12.5657 56.6263 13.7778 53.5556C13.8788 53.4748 13.9798 53.4142 14.0808 53.3738C19.1111 53.3536 19.1717 53.3334 21.7778 53.3738C23.9798 53.4142 26.9495 53.7172 27.5151 55.2526C28.4242 57.7374 25.9394 60.3839 24.404 61.2728Z" fill="#0D2B60"/>
<path d="M97.3337 26.0001C97.3337 26.0001 94.2428 27.0506 92.1216 30.7678C90.1014 34.3032 86.0206 45.4345 84.8893 50.1819C84.1014 53.5355 81.3337 57.5557 80.566 59.091C76.9903 66.1617 73.4145 67.2729 72.061 67.3335C68.1822 67.5153 66.2832 64.8284 66.2832 64.8284L68.5054 64.6466C68.5054 64.6466 70.1014 66.1617 72.4852 64.7476C75.1519 63.1516 77.1721 58.4446 78.667 54.687C80.7074 49.4749 82.8691 41.2526 84.061 38.7274C88.6468 29.6163 90.4852 28.6668 92.7074 27.3335C94.9701 25.9597 97.3337 26.0001 97.3337 26.0001Z" fill="#D6430D"/>
<path d="M100 34.7071C100 34.7071 96.5252 35.1313 94.404 38.8485C92.3838 42.3838 91.4343 43.8788 89.2727 48.2424C87.7374 51.3131 84.404 58.8889 83.6363 60.4242C80.0606 67.4949 76.9293 68.303 75.5757 68.3636C71.697 68.5455 69.3535 66.1616 69.3535 66.1616L71.5757 65.9798C71.5757 65.9798 73.2121 67.2727 75.2727 65.596C79.2727 62.3434 81.6565 54.3838 84.2828 49.2525C85.7374 46.3838 87.7374 42.5859 89.1111 40.7071C91.4949 37.4343 93.7171 35.5556 96.404 34.8081C97.7778 34.4242 100 34.7071 100 34.7071Z" fill="#F5A300"/>
<path d="M97.0704 47.798C97.0704 47.798 93.9795 48.1819 92.1815 51.091C91.1108 52.8284 87.03 59.9395 87.03 59.9395C87.03 59.9395 83.9795 64.2627 82.9088 65.6162C81.4543 67.495 78.8482 69.091 77.4947 69.1516C73.8987 69.3132 72.626 67.2526 72.626 67.2526L74.2825 67.1314C74.2825 67.1314 75.8987 68.0001 77.3532 67.2122C79.4745 66.0607 81.9391 61.798 83.1916 59.8182C84.2825 58.0809 86.3634 54.8688 87.6967 52.9698C88.9492 51.1718 91.5553 48.6667 94.2219 47.8789C95.3128 47.5758 97.0704 47.798 97.0704 47.798Z" fill="#AABC14"/>
</svg>
