<svg width="100" height="100" viewBox="0 0 100 100" fill="none" xmlns="http://www.w3.org/2000/svg">
<path fill-rule="evenodd" clip-rule="evenodd" d="M18.3597 12.6476C17.5997 24.8228 23.0597 36.3689 29.8997 46.2369C33.9997 51.8901 40.0897 56.8141 45.2097 61.2787L44.4597 63.0366C39.4697 60.7693 31.6497 52.9588 27.6497 49.2533C21.7597 42.2517 15.3997 31.7744 14.5997 22.6854C12.5997 22.7254 10.6397 23.6742 9.57966 25.1924C2.66966 34.9006 12.9997 46.9561 19.8697 52.759C27.2697 58.7917 35.0797 63.0466 43.9597 66.043C43.4597 67.2915 44.7097 68.3002 42.7097 67.8008C39.9497 67.0517 36.9397 66.2927 34.1797 65.2939C24.3797 61.6183 13.8197 56.7142 8.07966 47.4954C1.84966 51.2309 6.13966 61.1888 11.5897 63.7857C20.0597 69.6286 31.1397 70.6973 41.1997 70.5575C43.9597 70.3078 43.4597 69.8084 43.9597 71.806C44.2097 72.3054 44.2097 72.0557 44.2097 72.5551C32.5197 74.9622 19.0797 74.0832 9.07966 67.7908C5.94966 77.2095 17.3397 81.714 25.1397 81.0748C32.5697 80.7252 38.7897 77.9785 45.7197 75.3117C46.2197 75.8111 46.4697 76.8199 46.9697 77.3193C39.3597 83.3021 28.6097 86.2585 19.1097 84.3408C19.5097 92.5109 29.6097 92.2512 35.1697 89.8541C40.9197 87.7966 44.7097 83.2821 49.2197 79.5766L50.4697 80.8251C47.1897 85.3696 42.0697 90.1038 36.9197 92.3511C35.6497 92.8006 32.0997 93.6296 30.8997 94.109C38.6097 104.636 49.8997 89.6444 52.9797 82.3333L54.7397 83.0823C53.4897 88.326 47.6597 96.7059 43.1997 98.1241C43.6997 99.882 48.2197 101.38 51.9797 97.8744C55.5397 94.3187 57.0197 88.6556 57.2497 83.8414C57.9997 83.8414 58.2497 84.0911 59.0097 84.0911C58.8597 87.487 59.3297 91.3424 57.7597 94.3687C57.0097 95.8769 55.9997 96.8757 55.2497 98.3838C60.8197 100.341 63.9697 95.8069 63.0297 90.6132C62.3697 87.2873 62.5797 88.296 65.2897 87.6069C75.0597 86.1886 83.3797 79.6865 85.3697 69.8084C86.1197 68.0505 85.6197 68.8096 87.1297 68.3002C88.4397 68.1204 88.1297 65.5935 87.3797 65.0442C86.2797 64.0654 85.7297 63.2364 85.6197 61.5384C85.6197 60.0302 86.1197 60.2899 86.8697 59.7805C91.8797 56.5045 79.6797 55.0263 82.8497 46.996C87.4197 48.3544 90.4097 46.6664 90.1297 41.233C82.0697 45.5478 81.1497 34.1116 87.8697 32.4636C90.1697 32.2239 91.4497 33.2227 91.8897 35.47C94.2797 34.9805 95.9797 29.9067 95.3997 27.949C95.3997 27.4497 96.6497 26.4409 95.1497 25.1924C94.1497 24.4433 92.3897 25.4421 89.6297 24.4433C88.8797 24.1936 86.8697 23.1948 86.3697 23.1948C88.4697 19.689 83.5197 18.3507 81.3497 16.9324C75.3297 13.4266 76.8297 11.1694 74.8297 11.1694C73.3497 11.3491 72.3297 12.4278 71.8197 13.6763C70.5597 12.4778 67.7397 11.0295 65.2997 10.4203C60.8497 8.50258 59.1997 7.89332 59.0297 12.4278C56.9697 11.7387 51.1597 12.8273 47.2397 12.6775C45.2197 12.9772 46.4197 16.1933 46.4897 17.6915C43.2297 17.6915 41.2197 18.4406 37.9597 18.4406C36.4297 20.9176 38.6097 23.9239 39.9697 26.2112C38.9897 26.9003 35.9297 26.1812 36.9597 28.2187C38.2297 35.8894 41.0897 43.2905 45.4897 49.523C51.2097 58.4821 48.7097 50.4019 59.5397 49.0236C81.5297 46.0771 89.1897 75.9709 69.3297 85.1199C67.8497 85.869 59.8597 89.4646 61.0497 85.6193C72.0097 85.2397 79.8597 73.9534 76.1097 63.3063C71.5797 50.9013 55.7997 48.7739 47.2497 58.2923C31.8397 44.1694 28.0597 20.2983 32.4197 0.612126C24.6797 -2.20447 18.1597 5.19658 18.3697 12.6476H18.3597ZM63.0297 21.1673C63.0297 20.6679 63.2797 20.4182 63.2797 20.1685C64.7897 17.6615 68.5497 18.92 68.5497 20.9176C65.6397 19.6691 63.8597 20.7278 64.7897 24.1736C63.4897 24.2935 62.7597 22.226 63.0297 21.1673Z" fill="#EC1C24"/>
</svg>
