<svg width="100" height="100" viewBox="0 0 100 100" fill="none" xmlns="http://www.w3.org/2000/svg">
<path d="M46.6439 0C48.374 0 50.1041 0 51.765 0C52.0418 0.0692042 52.3878 0.138408 52.6646 0.138408C54.9484 0.484429 57.3013 0.622837 59.585 1.10727C87.3359 6.92041 104.429 35.0865 96.8861 62.4221C90.5193 85.2595 69.1352 100.208 45.2598 98.3391C33.4951 97.3702 23.3221 92.7336 14.9484 84.4983C1.17673 70.9343 -3.39074 51.1419 2.97604 32.872C8.9276 15.6401 24.5677 2.90657 42.6992 0.484429C44.0141 0.346021 45.329 0.138408 46.6439 0ZM20.8999 23.3218C21.1767 23.737 21.3151 24.0138 21.5228 24.2907C23.3221 26.9896 25.1214 29.6886 26.9899 32.3183C27.2667 32.7336 27.2667 33.0104 26.9899 33.4948C23.5989 39.1696 20.2771 44.7751 16.8861 50.4498C15.9172 52.1107 15.3636 53.91 15.3636 55.917C15.2944 62.5606 19.3774 68.5121 25.8134 70.9343C32.3186 73.4256 38.893 75.917 45.4674 78.3391C48.0971 79.308 50.7961 79.308 53.4259 78.3391C59.9311 75.917 66.5055 73.4256 72.9414 70.9343C77.2321 69.2734 80.4155 66.3668 82.2148 62.0761C83.9449 57.7855 84.0141 53.6332 81.3843 49.5502C79.4466 46.5744 77.7165 43.4602 75.9172 40.346C74.3947 37.8547 72.9414 35.2941 71.4189 32.8028C73.5643 29.6194 75.7096 26.5052 77.8549 23.2526C58.8238 23.3218 39.9311 23.3218 20.8999 23.3218Z" fill="#162C53"/>
<path d="M50.3113 55.0863C50.3113 56.332 50.3113 57.5777 50.3113 58.7542C50.3113 58.9618 50.7266 59.2386 51.0034 59.377C52.2491 60.069 53.0103 61.1071 53.0103 62.5604C53.0103 64.0137 52.3183 65.0517 51.0726 65.6746C49.7577 66.2974 48.512 66.2282 47.3356 65.3286C45.1902 63.7369 45.5363 60.5535 47.9584 59.377C48.4428 59.1002 48.6504 58.8234 48.5812 58.3389C48.512 57.3009 48.5812 56.1936 48.5812 55.0863C47.6816 56.1244 46.9203 57.2317 46.0207 58.1313C39.3771 64.6365 27.7508 61.7992 25.0518 52.941C23.1833 46.7818 26.9895 40.069 33.4947 38.2697C34.602 37.9929 35.7785 37.7853 36.9549 37.7853C45.3286 37.7161 53.7023 37.7161 62.1453 37.7853C68.4428 37.7853 73.6331 42.422 74.3944 48.5812C75.0172 53.7023 71.7646 58.8234 66.5743 60.8303C60.5536 63.114 53.9792 60.8303 50.7958 55.294C50.7266 55.2248 50.6574 55.0863 50.5882 55.0171C50.4498 55.0863 50.3805 55.0863 50.3113 55.0863ZM61.6608 52.3874C63.0449 52.4566 64.2906 51.3493 64.3598 50.0344C64.429 48.6504 63.2525 47.4739 61.7992 47.4047C60.4152 47.3355 59.1695 48.5119 59.1003 49.8268C59.0311 51.1417 60.2075 52.3182 61.6608 52.3874ZM39.6539 49.896C39.6539 48.5812 38.4774 47.4047 37.0933 47.3355C35.6401 47.3355 34.4636 48.4427 34.4636 49.8268C34.4636 51.2109 35.6401 52.3182 37.0933 52.3182C38.4774 52.3874 39.6539 51.2801 39.6539 49.896Z" fill="#162C53"/>
<path d="M66.5049 25.2598C69.1346 25.2598 71.5568 25.2598 74.1173 25.2598C72.7333 27.2667 71.4184 29.2044 70.0343 31.2805C68.8578 29.2044 67.6814 27.3359 66.5049 25.2598Z" fill="#162C53"/>
<path d="M28.7891 31.2802C28.4431 30.7957 28.1663 30.3805 27.8894 30.0345C26.8514 28.512 25.8133 26.9895 24.7061 25.3286C27.2666 25.3286 29.6888 25.3286 32.3185 25.3286C31.142 27.2663 29.9656 29.204 28.7891 31.2802Z" fill="#162C53"/>
<path d="M20.8993 23.3218C39.9304 23.3218 58.8231 23.3218 77.8543 23.3218C75.6397 26.5744 73.5636 29.6886 71.4183 32.8719C72.9408 35.3633 74.3941 37.9239 75.9165 40.4152C77.7159 43.4602 79.5152 46.5744 81.3837 49.6194C84.0134 53.7024 83.9442 57.8547 82.2141 62.1453C80.484 66.436 77.3006 69.3425 72.9408 71.0034C66.4356 73.4948 59.9304 75.9169 53.4252 78.4083C50.7954 79.3771 48.0965 79.4463 45.4667 78.4083C38.8923 75.9169 32.3871 73.4948 25.8127 71.0034C19.3768 68.5121 15.2937 62.5605 15.4321 55.8477C15.4321 53.91 15.9858 52.1107 16.9546 50.3806C20.3456 44.7059 23.6674 39.1003 27.0584 33.4256C27.3352 33.0104 27.3352 32.6643 27.0584 32.2491C25.1899 29.6194 23.3906 26.9204 21.5913 24.2214C21.3837 23.9446 21.1761 23.6678 20.8993 23.3218ZM50.311 55.0865C50.3802 55.0865 50.4494 55.0865 50.5186 55.0865C50.5878 55.1557 50.657 55.2941 50.7262 55.3633C53.9788 60.8996 60.5532 63.1834 66.5048 60.8996C71.6259 58.9619 74.9477 53.7716 74.3249 48.6505C73.5636 42.4913 68.3041 37.9239 62.0757 37.8546C53.702 37.8546 45.3283 37.8546 36.8854 37.8546C35.7089 37.8546 34.5325 38.0623 33.4252 38.3391C26.92 40.1384 23.1138 46.8512 24.9823 53.0104C27.6813 61.7993 39.3076 64.7059 45.9512 58.2007C46.8508 57.301 47.612 56.1937 48.5117 55.1557C48.5117 56.263 48.5117 57.301 48.5117 58.4083C48.5117 58.9619 48.3733 59.2387 47.8889 59.4463C45.4667 60.6228 45.1899 63.8754 47.266 65.3979C48.4425 66.2976 49.7574 66.3668 51.0031 65.7439C52.2487 65.1211 52.9408 64.0138 52.9408 62.6297C52.9408 61.1764 52.2487 60.1384 50.9338 59.4463C50.657 59.3079 50.311 59.0311 50.2418 58.8235C50.2418 57.5778 50.311 56.3322 50.311 55.0865ZM66.5048 25.2595C67.7505 27.3356 68.8577 29.2041 70.1034 31.2803C71.4875 29.2733 72.8024 27.3356 74.1864 25.2595C71.4875 25.2595 69.0653 25.2595 66.5048 25.2595ZM28.7885 31.2803C30.0342 29.2733 31.1415 27.3356 32.3179 25.3287C29.6882 25.3287 27.266 25.3287 24.7055 25.3287C25.8127 26.9204 26.8508 28.5121 27.8889 30.0346C28.1657 30.3806 28.4425 30.7266 28.7885 31.2803Z" fill="white"/>
<path d="M61.6611 52.3875C60.2771 52.3183 59.1006 51.1418 59.1006 49.8269C59.1698 48.512 60.4155 47.3356 61.7995 47.4048C63.2528 47.474 64.4293 48.6504 64.3601 50.0345C64.2909 51.3494 63.0452 52.3875 61.6611 52.3875Z" fill="white"/>
<path d="M39.654 49.8961C39.654 51.211 38.4776 52.3875 37.0243 52.3875C35.6402 52.3875 34.4637 51.2802 34.3945 49.8961C34.3945 48.512 35.6402 47.3356 37.0243 47.4048C38.5468 47.4048 39.654 48.5812 39.654 49.8961Z" fill="white"/>
</svg>
