<svg width="100" height="100" viewBox="0 0 100 100" fill="none" xmlns="http://www.w3.org/2000/svg">
<path d="M88.8002 51.4802H14.2402C14.2002 50.9202 14.2002 50.3602 14.2002 49.8002C14.2002 29.0802 30.8802 12.2802 51.4402 12.2402H51.5602C72.1202 12.2802 88.8002 29.0802 88.8002 49.8002C88.8402 50.3602 88.8002 50.9202 88.8002 51.4802Z" fill="#FCCD30"/>
<path d="M81.7598 71.8001H21.2398C20.7198 71.0801 20.2398 70.3201 19.7598 69.5601H83.2398C82.7998 70.3201 82.2798 71.0801 81.7598 71.8001Z" fill="#FDE294"/>
<path d="M77.4 76.8802H25.64C25.08 76.3602 24.56 75.8002 24.04 75.2402H78.96C78.48 75.8002 77.92 76.3202 77.4 76.8802Z" fill="#FFECBC"/>
<path d="M84.8399 66.7204H18.1999C17.7199 65.8004 17.3199 64.8404 16.9199 63.8804H86.1199C85.7199 64.8404 85.3199 65.8004 84.8399 66.7204Z" fill="#FDDA71"/>
<path d="M88.2393 56.56H14.7993C14.5593 55.24 14.3993 53.88 14.2793 52.52H88.7193C88.6393 53.88 88.4793 55.24 88.2393 56.56Z" fill="#FCCD30"/>
<path d="M78.9597 75.2403H24.0397C23.0397 74.1603 22.1197 73.0003 21.2397 71.8003H81.7598C80.9198 73.0003 79.9597 74.1603 78.9597 75.2403ZM51.6397 87.3603H51.3997C41.3997 87.3203 32.3197 83.3203 25.6397 76.8403H77.3997C70.7197 83.3603 61.6397 87.3203 51.6397 87.3603Z" fill="white"/>
<path fill-rule="evenodd" clip-rule="evenodd" d="M14.2797 52.5203C14.2397 52.1603 14.2397 51.8404 14.2397 51.4804H19.9904C19.9664 49.2289 22.5197 46.955 24.7762 47.2064C26.1989 47.3514 27.0791 48.8041 26.8703 50.1618C26.7476 50.7122 26.2435 51.0281 25.9506 51.4804H28.0488C28.4151 50.9811 28.7143 50.4361 29.0707 49.9298C29.6179 49.1526 30.3562 48.3113 31.5555 47.5728C33.5231 46.4016 35.9996 46.3652 38.2223 46.4005C40.785 46.4412 43.6276 46.7452 46.0504 47.0454C52.2288 47.7544 58.6426 46.1861 64.4254 44.1009C70.5524 41.851 77.0619 36.6138 78.0074 35.8259C79.4011 34.6545 80.9997 32.8004 78.0774 32.5806C75.956 32.238 73.5446 31.8839 71.3997 31.8004C68.3349 31.6794 64.2027 30.9527 61.5824 29.2561C60.4387 28.5156 58.5196 27.273 58.4473 25.9732C58.3453 24.1382 60.7339 25.642 61.3582 26.0513C62.6132 26.874 63.9527 27.465 65.3887 27.8849C68.2369 28.6756 70.9784 28.9035 73.0467 29.0754C73.6136 29.1226 74.189 29.1894 74.7682 29.2567C76.1513 29.4173 77.5559 29.5805 78.9172 29.4837C79.3047 29.4313 79.5728 28.9659 79.3215 28.6263C78.928 28.0947 78.4983 27.9735 77.8703 27.8814C75.7956 27.577 73.6786 27.5095 71.5782 27.4425C71.1513 27.4289 70.7251 27.4153 70.3 27.3997C66.9912 27.318 63.7021 26.6271 62.4043 26.1513C61.326 25.7558 60.4235 24.7498 59.6716 23.9116L59.6667 23.9062C59.203 23.3893 58.6225 22.7423 58.5399 22.038C58.4833 21.5557 58.7749 21.0951 59.2567 20.9818C59.9963 20.8042 60.7627 21.503 61.3637 22.0509C62.2915 22.8968 63.3643 23.7057 64.5957 24.0247C65.711 24.3032 67.7166 24.4911 69.9164 24.6064C71.5764 24.6933 73.24 24.6908 74.9031 24.6883C76.7212 24.6856 78.5387 24.6828 80.35 24.797C81.5909 24.8752 82.7085 25.0772 83.7305 25.6114C84.9594 26.2539 85.8074 27.4076 86.6367 28.5356C86.952 28.9647 87.2647 29.39 87.5946 29.7822C88.844 31.2674 90.7115 31.6372 92.5349 31.9983C92.9932 32.089 93.4488 32.1792 93.891 32.2864C96.0693 32.8146 97.9997 33.4003 99.3391 34.0915C100.572 34.7276 97.7486 36.4659 96.8992 36.6728C95.6951 36.9661 94.4793 37.0318 93.2637 37.0974C92.1075 37.1598 90.9515 37.2223 89.8059 37.4806C88.6261 37.7471 87.4478 37.9793 86.2336 37.9993C84.7965 38.0609 83.3723 38.4749 82.5219 39.7005C81.8282 40.9901 81.2321 42.3566 80.7192 43.729C81.4674 43.4162 82.2032 43.0747 82.939 42.7332C83.4059 42.5165 83.8729 42.2997 84.343 42.0904C85.8649 41.4125 87.3612 41.0371 89.0516 41.147C90.8064 41.2611 92.5578 42.5893 91.2313 44.3075C90.8832 44.7584 90.4812 45.1476 90.0817 45.5344C89.4006 46.1939 88.7267 46.8464 88.3391 47.7857L88.3379 47.7884L88.3367 47.7915C87.7647 49.1473 86.9645 50.3759 86.2602 51.4571L88.7997 51.4804C88.7803 51.6554 88.7703 51.8304 88.7606 52.0008C88.7503 52.1809 88.7403 52.3559 88.7197 52.5203H85.5781C85.1653 53.1848 84.8343 53.782 84.634 54.3474C84.4579 54.9095 84.2109 55.362 83.8059 55.706C83.3104 56.1267 82.6684 56.3028 82.047 56.4732C81.9419 56.502 81.8374 56.5307 81.7343 56.5603H88.2397L88.239 56.5639C88.1192 57.1227 87.9995 57.6814 87.8797 58.2003H77.7544C76.1526 58.9616 74.4824 59.5331 72.8125 60.1044C71.4224 60.58 70.0326 61.0555 68.6828 61.6403H86.9197C86.6797 62.4003 86.3997 63.1604 86.1197 63.8804H64.8283C63.526 64.5524 62.1453 65.104 60.8938 65.8691C60.0973 66.356 59.2264 66.8884 58.3621 66.4255C57.2718 65.8414 57.5842 64.7904 57.9871 63.8804H23.7807C21.6532 64.5446 19.8504 65.7425 18.5485 66.7203H84.7997C84.3597 67.6803 83.8397 68.6403 83.2397 69.5603H19.7597C19.2404 68.7071 18.7555 67.8195 18.273 66.9294C16.8894 67.9905 15.3531 68.913 13.8128 69.8379C11.461 71.25 9.09973 72.6679 7.25822 74.5931C5.96353 75.9485 4.84882 76.9739 3.92853 77.6614C2.89394 78.4344 0.433118 79.6829 0.37072 77.3954C0.344523 76.4332 0.647435 75.3966 1.03595 74.5243C1.37498 73.7632 2.19838 71.9678 3.00119 71.7169C5.14432 71.1834 7.09523 70.2583 8.92502 69.0349C11.6557 67.1516 14.0449 64.7279 16.4794 62.4847C16.3313 62.2405 16.1977 61.9606 16.0797 61.6403H17.4025C19.376 59.852 21.8484 59.0908 24.326 58.328C24.464 58.2855 24.602 58.243 24.7399 58.2003H15.1197C14.9997 57.6403 14.8797 57.1203 14.7997 56.5603H27.9627C28.2049 56.2671 28.3598 55.914 28.3598 55.4802C28.3597 54.728 27.538 55.2097 27.1711 55.3364C24.627 56.2153 20.8673 55.4732 20.1233 52.5203H14.2797ZM65.881 58.2003C65.0997 58.4347 64.5787 59.0591 64.1145 59.6927C63.6956 60.2644 63.4396 60.5431 62.7112 60.4361C61.8536 60.31 61.0263 60.1884 60.1988 60.5712C59.6948 60.8045 59.3405 61.1914 59.0588 61.6403H43.3674C45.4754 60.8153 47.0934 59.4034 48.9663 58.2003H65.881ZM75.7356 54.8325C74.3818 55.2274 72.4178 55.9125 70.5952 56.5603H68.6189C70.4983 56.292 72.3799 55.59 74.0942 54.8439C75.8445 54.082 77.3773 53.2053 78.1602 52.5203H79.8315C78.9151 53.3805 77.7207 54.2536 75.7356 54.8325ZM25.5628 52.5203C25.547 52.6259 25.5429 52.7056 25.5442 52.7622C26.0125 52.7819 26.5124 52.7421 26.9336 52.5203H25.5628ZM80.6567 48.6736C81.5824 47.8362 82.9517 47.0376 84.2 46.8021C84.3587 46.7722 84.3413 46.8096 84.289 46.9224C84.0863 47.5431 83.6996 47.9957 83.3198 48.5185L83.2676 48.5904C82.5304 49.6055 81.7148 50.564 80.858 51.4804H79.0627C79.6389 50.6298 79.8941 49.3635 80.6567 48.6736Z" fill="white"/>
<path d="M90.9201 42.9202C91.0401 44.2003 88.6401 44.9603 87.6001 47.4803C86.5201 50.0403 84.5601 52.1603 83.8801 54.0803C83.2801 56.0403 82.1201 55.0803 78.0401 57.1603C74.0001 59.2403 68.1201 60.5603 66.7201 61.8003C65.3601 62.9603 60.9201 64.7603 59.9201 65.4803C58.9601 66.2403 58.2401 65.5203 58.4001 65.0003C58.5601 64.4803 59.3601 62.8403 59.6401 62.2403C60.5601 60.2803 62.8001 61.5203 63.6401 61.2803C64.4801 61.0403 64.9601 59.3203 66.1201 58.9603C67.3201 58.6403 73.0801 56.4403 75.9601 55.6003C78.8401 54.7603 80.2001 53.3203 81.2801 52.2003C82.4001 51.0403 85.9201 47.0003 85.0801 46.1603C84.2001 45.3603 80.9601 47.3203 80.1201 48.0803C79.2801 48.8403 79.0001 50.6403 77.7201 51.8403C76.4401 53.0403 71.7601 55.3603 67.8801 55.8403C63.9601 56.2803 52.1201 56.0003 49.9201 56.7603C47.7601 57.5203 45.4401 60.8803 40.1201 61.6803C34.8001 62.5203 30.4401 62.7203 27.6801 62.6003C22.4801 62.2403 18.2801 65.9203 16.6801 67.1603C15.0801 68.4403 7.72012 72.6403 6.68012 74.0403C4.12012 76.7203 2.36012 78.0003 1.48012 77.9603C0.640123 77.9203 1.72012 74.3203 2.20012 74.2403C2.64012 74.2003 2.60012 72.6803 3.24012 72.4803C3.88012 72.3603 6.60012 71.5203 9.16012 69.8403C11.3201 68.4403 16.7201 63.3603 18.6001 61.6403C20.4801 59.9603 25.1201 59.0803 26.9201 58.2403C28.7201 57.4003 29.2001 56.4403 29.1601 55.4803C29.1601 54.4803 28.5201 54.2803 28.0001 54.2003C27.5201 54.1603 26.8001 55.0403 24.3201 54.8403C21.8001 54.5603 20.6801 53.0803 20.8001 51.1603C20.9601 49.3603 23.3601 47.8403 24.6801 48.0003C25.9601 48.1203 26.1601 49.5203 26.0801 50.0403C25.9601 50.4403 25.1201 50.6403 24.8001 52.2403C24.4801 53.8403 25.6001 53.5602 26.2001 53.5202C26.8001 53.4802 27.4401 53.3603 28.3601 52.3603C29.3201 51.3603 29.7601 49.5202 32.2001 48.1202C34.7201 46.6402 41.1201 47.2403 45.9601 47.8403C50.8401 48.4003 58.0001 47.2803 64.4001 44.9603C70.7601 42.7203 77.5601 37.2403 78.5201 36.4403C79.5201 35.6003 80.2401 34.6803 80.4001 33.8403C80.5601 33.0403 80.2801 32.3203 79.3601 32.0403C78.4401 31.7203 74.7601 31.3203 71.6801 31.2003C68.6401 31.0803 65.2401 29.9203 63.6801 29.4803C62.1201 29.0003 58.8801 26.1603 59.2801 25.8403C59.7201 25.5603 61.3601 27.5603 64.8401 28.5603C68.4001 29.6003 71.8401 29.7603 74.0001 29.9603C76.0801 30.1203 77.9601 30.3603 79.0001 30.2803C79.9601 30.1603 80.1601 29.5603 80.2001 28.9603C80.2801 28.3603 79.8401 27.9203 79.1601 27.4003C78.5601 26.9203 73.6001 26.7203 70.3201 26.6003C67.0801 26.5203 63.8801 25.8403 62.6801 25.4003C61.4801 24.9603 58.7601 21.9203 59.4401 21.7603C60.1601 21.7203 61.9201 24.1603 64.4001 24.8003C66.8001 25.4003 72.7201 25.5603 76.0401 25.5603C79.4001 25.5603 81.6001 25.4002 83.3601 26.3202C85.1201 27.2402 86.5601 30.3203 88.1601 31.4403C89.7201 32.5603 93.7601 32.8402 95.2001 33.5202C96.6401 34.2402 98.8801 34.1203 98.8001 34.8403C98.7201 35.6003 95.2801 36.4003 92.8801 36.3203C90.4001 36.2003 88.9201 37.1603 86.2001 37.2003C83.4001 37.3203 82.3601 38.5203 81.8401 39.2803C81.4001 40.0803 79.3601 44.4403 79.6401 44.8403C79.8801 45.2403 84.8801 42.5603 86.2401 42.2003C87.4801 41.8403 90.8001 41.6402 90.9201 42.9202Z" fill="#445A00"/>
<path d="M86.9201 61.6402H16.0801C15.7201 60.5202 15.4001 59.3602 15.1201 58.2002H87.8801C87.6401 59.3602 87.3201 60.5202 86.9201 61.6402Z" fill="#FCD34F"/>
</svg>
