<svg width="100" height="100" viewBox="0 0 100 100" fill="none" xmlns="http://www.w3.org/2000/svg">
<path d="M27.1031 85.0901H100L41.4692 26.4111C33.7368 18.5882 23.2322 14.1288 12.2334 14L0 14L0.918247 16.3993L4.94668 27.0036L27.1031 85.0901Z" fill="url(#paint0_linear_526_1856)"/>
<path d="M4.94641 27.0037C12.944 40.6589 33.886 42.0807 36.1668 63.2892C36.2144 63.7108 36.3999 64.1049 36.6945 64.4102C36.9891 64.7156 37.3763 64.915 37.7959 64.9776C50.262 66.9288 61.9977 72.1174 71.8303 80.025V80.025C71.8631 80.0389 71.8984 80.046 71.934 80.046C71.9696 80.046 72.0048 80.0389 72.0376 80.025C72.1247 80.0505 72.2172 80.0505 72.3042 80.025C72.373 79.9533 72.4114 79.8578 72.4114 79.7584C72.4114 79.6591 72.373 79.5635 72.3042 79.4918C65.1659 71.9833 56.4992 66.0943 46.8895 62.2229L43.9275 61.038C43.1673 60.7265 42.5197 60.1915 42.0701 59.504C41.6206 58.8164 41.3903 58.0086 41.4097 57.1873C41.5874 50.8485 56.5459 52.1222 58.0566 49.1008L58.3232 48.5677C55.2001 45.8824 51.5163 43.9292 47.5412 42.8508C47.4983 43.6486 47.7397 44.4358 48.2225 45.0724C49.1407 46.5238 47.245 48.8342 44.5495 46.3461L44.431 46.1388C24.1111 27.5961 8.88598 37.1933 0.917969 16.3994L4.94641 27.0037Z" fill="white"/>
<defs>
<linearGradient id="paint0_linear_526_1856" x1="63.359" y1="84.8235" x2="14.7512" y2="13.7927" gradientUnits="userSpaceOnUse">
<stop stop-color="#BE0000"/>
<stop offset="0.39" stop-color="#DE0000"/>
<stop offset="0.77" stop-color="#F60000"/>
<stop offset="1" stop-color="#FF0000"/>
</linearGradient>
</defs>
</svg>
