<svg width="100" height="100" viewBox="0 0 100 100" fill="none" xmlns="http://www.w3.org/2000/svg">
<path d="M0 25C0 11.1929 11.1929 0 25 0H75C88.8072 0 100 11.1929 100 25V75C100 88.8072 88.8072 100 75 100H25C11.1929 100 0 88.8072 0 75V25Z" fill="#20409A"/>
<path d="M86.0103 12.8501C70.1503 14.0001 51.0303 23.8801 43.2203 38.0001C35.3503 52.2201 40.7203 72.0601 30.7803 84.6701" fill="white"/>
<path d="M43.2203 37.9901C35.3503 52.2101 40.7203 72.0501 30.7803 84.6601C84.8603 47.9201 67.6403 31.8001 86.0103 12.8501C70.1503 14.0001 51.0303 23.8801 43.2203 38.0001V37.9901Z" fill="white"/>
<path d="M57.0602 65.8798C54.3902 57.6898 45.4402 56.0098 37.8502 60.9398C38.8802 60.6698 40.4602 61.0098 41.4202 61.4898C39.6402 61.2198 38.1302 61.2798 37.0302 62.1098C37.0302 63.8898 37.5702 65.7398 37.8502 67.5298C42.0402 71.7398 49.8102 74.8198 54.8002 69.7898C55.8302 68.6598 57.6802 67.5098 57.0702 65.8798H57.0602ZM35.3102 62.5198C34.6202 64.2298 33.8002 67.0498 32.6302 68.2798C33.1102 67.3198 34.5502 62.9298 34.4202 61.9698C31.9702 63.9898 27.3302 66.6998 25.0202 67.2498C17.3502 90.9198 42.3902 80.4598 35.3102 62.5098V62.5198ZM33.5302 60.3998C32.8402 60.0498 29.9602 60.7398 30.2402 60.6698C30.7902 60.4598 33.4702 59.2998 32.4302 59.0198C29.3402 56.7298 26.4002 54.8098 23.7902 51.8198C20.4202 52.0898 7.00016 57.7298 11.0902 62.5898C19.0202 69.9398 27.4702 66.1798 33.5202 60.3998H33.5302ZM29.9602 55.8698C30.9202 56.5598 32.0902 57.3098 33.4602 58.1998V58.1298C32.3602 57.5798 32.0902 54.0798 31.9502 52.9198C32.2902 54.4298 33.2602 57.1698 34.7602 57.9298C33.9802 53.4698 34.2702 49.1598 36.2002 45.0998C34.9902 41.7298 32.8202 38.6898 29.9602 37.2098C27.6802 36.2498 22.9002 33.0898 22.0002 36.9998C19.0902 44.6898 23.4102 51.2398 29.9602 55.8698ZM35.9302 49.1398C35.3402 52.8098 35.6402 55.3398 36.3402 58.3398C36.4802 57.9998 37.5102 54.0198 38.9502 52.7098C37.7802 54.5698 37.3002 56.8998 37.1702 59.0898C39.8702 59.0298 42.4202 56.7298 45.3402 56.8298C50.5102 53.0798 53.0402 47.6298 50.6902 41.5298C50.2802 39.8798 50.6902 39.7498 47.1202 39.4698C43.0602 39.0398 36.8102 42.1598 35.9302 49.1398Z" fill="url(#paint0_radial_526_1861)"/>
<path fill-rule="evenodd" clip-rule="evenodd" d="M57.0702 67.1898C52.8302 74.7198 42.8802 73.0498 37.8602 67.5298C37.5902 65.7398 37.0402 63.8898 37.0402 62.1098C38.1402 61.2798 39.6502 61.2198 41.4302 61.4898C40.4702 61.0098 38.8902 60.6598 37.8602 60.9398C45.4302 55.6598 56.3402 58.1898 57.0702 67.1798V67.1898ZM36.2202 72.2698C35.1402 77.1298 32.4902 79.8298 28.8102 80.8498C21.6102 82.4898 23.2702 70.8798 25.0302 67.2698C27.3402 66.7098 31.9802 64.0098 34.4302 61.9898C34.5702 62.9498 33.1302 67.3398 32.6502 68.2998C33.8202 67.0698 34.6402 64.2498 35.3202 62.5398C35.9102 65.8798 37.0802 68.7298 36.2102 72.2798L36.2202 72.2698ZM23.1002 66.3698C19.6702 66.9898 15.5602 66.7798 11.0902 62.5998C7.01023 57.7198 20.4002 52.1098 23.7902 51.8298C26.4002 54.8198 29.3502 56.7498 32.4402 59.0298C33.4702 59.2998 30.7902 60.4698 30.2502 60.6798C29.9802 60.7498 32.8602 60.0598 33.5502 60.4098C31.8902 62.7498 25.9402 65.8798 23.1102 66.3798L23.1002 66.3698ZM22.0102 36.9998C22.9102 33.0898 27.6902 36.2498 29.9802 37.2098C32.8402 38.6898 35.0102 41.7398 36.2202 45.0998C34.2702 49.1498 34.0002 53.4798 34.7802 57.9298C33.2702 57.1798 32.3102 54.4298 31.9702 52.9198C32.1102 54.0898 32.3802 57.5798 33.4802 58.1298V58.1998C25.6602 53.5798 18.4602 46.2498 22.0202 36.9998H22.0102ZM46.9202 39.4798C50.3102 39.6598 50.4202 39.8698 50.7002 41.5398C53.0502 47.6398 50.5202 53.0898 45.3502 56.8398C42.4402 56.7398 39.8902 59.0398 37.1902 59.0998C37.3302 56.9098 37.8102 54.5698 38.9702 52.7198C37.5302 54.0198 36.5002 57.9998 36.3602 58.3398C33.5002 50.2098 38.3202 38.4198 46.9302 39.4698L46.9202 39.4798ZM57.4102 65.8298C55.6902 60.9298 51.0002 56.6598 45.6102 56.8398C51.5802 52.8598 53.3002 45.9998 50.2102 39.8298C45.1702 38.5098 41.0702 38.2098 36.4202 44.9098C34.3802 39.1798 29.1202 35.3698 23.3102 34.8198C18.8902 39.3098 20.3802 47.0098 23.6502 51.6298C20.1302 52.1298 10.1602 56.2698 9.99023 61.1698C13.0402 66.9198 19.9902 68.4198 24.8802 67.3498C17.3802 86.9898 37.0302 84.3598 37.7702 67.9698C42.4002 71.4498 48.7402 75.2098 54.3002 70.4398C55.8802 69.1898 57.6802 67.7598 57.3902 65.8498H57.4002L57.4102 65.8298Z" fill="#EB2227"/>
<path d="M39.58 72.62C39.65 72.62 39.51 72.83 39.65 72.83C40.06 71.94 40.54 71.04 41.09 70.15C40.54 69.81 39.99 69.4 39.38 69.05C38.9 68.64 38.35 68.3 37.8 67.95C37.8 68.22 37.73 68.57 37.73 68.91C38.28 70.01 38.96 71.04 39.38 72.14C39.45 72.28 39.52 72.41 39.59 72.62H39.58ZM42.94 71.24C42.4 71.31 41.91 71.38 41.43 71.45C40.81 72.75 40.13 73.99 39.51 75.22C41.7 75.56 43.14 75.29 45 74.19C44.79 74.33 44.66 74.6 44.52 74.88C42.67 75.91 41.29 76.32 39.37 76.66C39.03 76.73 38.68 76.8 38.27 76.87C36.42 79.2 34.43 81.4 32.16 83.25C33.46 81.67 34.83 80.02 36.21 78.45L34.77 79.68C35.87 78.17 38.41 75.56 38.41 73.5C38.2 72.88 37.79 71.99 37.38 70.96C36.9 73.22 35.87 75.69 34.23 77.68C33.96 78.37 33.61 79.05 33.27 79.67C31.56 82.76 29.15 85.09 26.82 86.05H26.75V87.22C26.75 88.32 26.75 89.07 27.57 89.21H27.64L27.71 89.14C28.53 86.8 31.69 84.82 35.6 82.28C36.62 81.59 37.73 80.91 38.89 80.15C39.03 80.01 39.23 79.94 39.37 79.81C41.91 78.1 44.45 76.1 47.05 73.91C47.6 73.5 48.08 73.08 48.63 72.68C48.08 72.68 47.6 72.68 47.05 72.61C45.54 72.4 44.17 71.86 42.94 71.24ZM89.94 11C89.32 11.14 88.71 11.21 88.09 11.27C86.51 11.54 84.79 11.82 81.98 12.64C80.81 12.98 79.58 13.33 78.35 13.67C73.68 14.9 68.67 16.28 62.98 19.16C57.42 21.97 51.73 25.88 47.06 31.1C46.72 31.51 46.37 31.92 46.03 32.33C44.04 34.8 42.25 37.48 40.81 40.36C41.91 39.67 43.08 39.33 44.17 39.19C44.17 38.09 44.31 36.52 44.92 36.52C44.65 37.41 44.58 38.3 44.65 39.13C45.47 39.06 46.3 39.06 47.05 39.13C47.1 39.18 47.14 39.2 47.19 39.2C48.08 39.27 49.59 39.41 50.21 39.82C50.9 40.37 50.69 41.33 50.96 42.01C51.51 44 51.92 45.71 51.71 47.43C51.71 47.7 51.64 47.91 51.64 48.12C52.12 47.02 52.46 45.79 52.46 44.49C52.05 42.43 51.16 41.13 50.4 38.31C49.65 35.43 49.99 32.07 51.43 28.7C50.95 30.69 50.68 32.4 51.16 34.46C51.64 36.52 53.01 39.19 53.49 40.7C53.97 42.28 53.83 42.55 54.11 43.51C54.93 41.93 56.24 40.01 56.65 38.36C56.86 36.92 56.51 35.41 56.51 34.52C56.44 33.7 56.1 32.32 55.89 30.4C55.68 27.58 55.76 24.43 57.26 24.16C56.92 24.91 56.64 24.91 56.44 26.42C56.3 27.86 58.02 33.21 58.5 36.58C59.46 35 60.56 33.42 61.59 31.91C61.25 28.27 60.36 22.92 63.86 20.45C62.9 21.96 62.55 22.78 62.42 24.36C62.42 24.98 62.35 29.37 62.97 30.06C64.2 28.76 65.44 27.52 66.74 26.36C66.88 26.15 67.15 25.81 67.22 25.67C67.57 22.58 67.29 19.77 69.76 17.78C69.35 18.4 68.73 19.01 68.59 19.84C68.45 20.66 68.38 23.68 69 24.23C70.3 23 71.67 21.69 73.05 20.52C73.32 19.42 73.46 18.46 73.87 17.57C74.35 16.47 74.76 15.92 75.93 15.51C74.63 16.54 73.94 17.64 74.83 19.35C76.75 17.91 78.4 16.81 79.91 15.78C80.05 14.89 80.45 14.13 81.35 13.79C81.14 14 80.87 14.27 80.73 14.61C80.66 14.82 80.66 15.09 80.66 15.36C81.55 14.81 82.44 14.4 83.47 13.99C82.37 14.68 81.34 15.36 80.24 15.98C79.21 16.73 78.25 17.56 77.15 18.38C77.84 18.38 79.28 18.45 79.82 18.31C80.44 18.24 80.78 17.97 81.26 17.83C80.64 18.24 80.43 18.86 79.41 19C78.45 19.14 77.22 19.14 76.12 19.21C74.54 20.31 73.17 21.75 71.93 23.19C73.58 23.67 76.12 23.33 77.21 22.92C78.38 22.51 78.38 22.37 78.99 21.82C77.82 24.29 72.75 24.29 70.76 24.29C70.14 25.04 66.92 27.45 66.92 28.41C69.87 28.62 73.23 28.68 76.05 27.93C72.96 29.58 69.05 29.64 65.55 29.85C64.32 30.47 62.67 33.35 61.85 34.45C64.87 34.45 68.91 34.79 70.84 34.72C72.83 34.65 72.69 34.17 73.65 33.97C72.48 35.41 69.19 35.48 67.68 35.55C66.38 35.55 64.94 35.48 63.77 35.69C62.6 35.9 61.64 36.24 60.54 36.44C59.37 38.22 58.21 40.01 57.04 41.86C58.41 41.72 59.51 41.59 61.15 41.52C62.73 41.52 64.45 41.73 65.82 41.66C67.67 41.66 69.32 41.39 71.59 40.43C69.32 42.21 66.85 42.9 63.97 43.04C62.6 43.18 57.93 42.56 55.74 44C55.05 45.44 54.3 46.88 53.54 48.32C54.91 48.39 56.21 48.53 57.59 48.66C60.27 49.14 62.67 49.62 65.07 49.07C65.76 48.86 66.44 48.66 67.13 48.25C67.13 48.94 64.18 50.03 63.49 50.1C61.99 50.37 60.4 50.17 58.9 50.24C56.63 50.31 54.44 50.38 52.18 50.51C51.43 52.16 50.6 53.8 49.78 55.52C53.01 56 58.29 56.89 60.21 56.62C62.06 56.35 62 55.66 62.34 56.01C61.65 56.49 60.9 56.76 60.07 57.04C58.7 57.59 57.53 57.45 55.96 57.45C53.69 57.38 51.5 57.18 49.3 57.04C49.23 57.11 49.16 57.25 49.09 57.38C51.97 58.34 54.37 60.4 56.02 63.01C56.29 62.95 56.57 62.88 56.85 62.8C56.71 63.01 56.44 63.15 56.16 63.28C56.5 63.83 56.78 64.38 57.05 64.93C57.53 64.31 58.08 63.7 58.63 63.08C60.62 60.68 62.47 58.14 64.26 55.67C66.66 52.31 68.58 49.22 70.37 45.72C72.09 42.22 73.6 38.52 75.17 34.13C77.09 28.64 78.88 23.84 81.14 20C83.4 16.16 86.15 13.21 89.99 11.21L89.92 11H89.94ZM47.19 56.9C47.67 56.01 48.15 55.05 48.56 54.16C48.15 54.64 47.6 55.12 47.05 55.6C46.64 56.01 46.09 56.42 45.61 56.83C46.09 56.76 46.57 56.83 47.05 56.9H47.19Z" fill="url(#paint1_linear_526_1861)"/>
<defs>
<radialGradient id="paint0_radial_526_1861" cx="0" cy="0" r="1" gradientUnits="userSpaceOnUse" gradientTransform="translate(35.1896 61.4402) rotate(94.58) scale(20.8791 21.3147)">
<stop stop-color="#FFC115"/>
<stop offset="0.5" stop-color="white"/>
</radialGradient>
<linearGradient id="paint1_linear_526_1861" x1="79.74" y1="4.96" x2="30.59" y2="82.69" gradientUnits="userSpaceOnUse">
<stop stop-color="#76BB46"/>
<stop offset="1" stop-color="#04A550"/>
</linearGradient>
</defs>
</svg>
