<svg width="100" height="100" viewBox="0 0 100 100" fill="none" xmlns="http://www.w3.org/2000/svg">
<path d="M0 17L25.3761 82.8317H100L27.7675 17H0Z" fill="white"/>
<path d="M26.7598 79.8518L70.8096 59.5317L85.002 72.4043C89.2598 76.2185 93.4359 80.1072 93.4359 80.1072H26.8591L26.7598 79.8518Z" fill="#163683"/>
<path d="M10.7509 38.5087H47.5874L26.8629 19.356H3.41699L10.7509 38.5087Z" fill="#D92632"/>
<path d="M11.0381 39.1758L52.2991 42.8303L67.7795 56.7354L26.3375 78.7692L55.3363 51.5197L11.0381 39.1758Z" fill="#008A43"/>
<path d="M11.29 39.8535L37.3296 56.7283L26.0786 78.0738L11.29 39.8535Z" fill="#231F20"/>
<path d="M13.501 29.3797C13.501 27.9051 14.0867 26.491 15.1294 25.4483C16.1721 24.4056 17.5863 23.8198 19.0609 23.8198C20.5354 23.8198 21.9496 24.4056 22.9923 25.4483C24.035 26.491 24.6208 27.9051 24.6208 29.3797C24.6208 30.8543 24.035 32.2685 22.9923 33.3112C21.9496 34.3538 20.5354 34.9396 19.0609 34.9396C17.5863 34.9396 16.1721 34.3538 15.1294 33.3112C14.0867 32.2685 13.501 30.8543 13.501 29.3797" fill="#FCAF17"/>
<path d="M11.29 39.8535L37.3296 56.7283L26.0785 78.0737L26.3411 78.7692L55.3363 51.5197L11.0381 39.1758L11.29 39.8535Z" fill="#FCAF17"/>
</svg>
