<svg width="100" height="100" viewBox="0 0 100 100" fill="none" xmlns="http://www.w3.org/2000/svg">
<path d="M0 25C0 11.1929 11.1929 0 25 0H75C88.8072 0 100 11.1929 100 25V75C100 88.8072 88.8072 100 75 100H25C11.1929 100 0 88.8072 0 75V25Z" fill="#C30B12"/>
<path d="M77.66 55.2029C75.6172 57.1842 72.815 57.7666 71.6481 56.6011C70.4804 55.4355 71.0635 52.5806 73.107 50.5993C75.1497 48.618 77.8934 47.9763 79.0611 49.1426C80.2288 50.2496 79.7034 53.2215 77.66 55.2029Z" fill="#FCD20A"/>
<path d="M85.9498 54.9118C84.4902 56.5434 82.5053 57.1258 81.5132 56.31C80.5796 55.4942 80.9293 53.338 82.3889 51.7071C83.8485 50.1333 85.8913 49.3754 86.8256 50.1911C87.8177 51.0655 87.4087 53.2795 85.9498 54.9118Z" fill="#FCD800"/>
<path d="M51.5093 44.713C48.7657 44.1306 44.9714 45.0634 42.3448 47.6272C39.6011 50.3079 37.6162 54.0365 38.7254 57.067C39.1336 58.2911 40.9437 59.5151 42.3448 59.5729C45.1462 59.6893 48.3567 58.4074 50.5172 56.4261C52.8519 54.2699 54.1359 51.1237 54.1952 48.8505C54.1952 48.3266 54.1952 48.0347 54.0781 47.4523C53.8447 46.1704 52.5607 44.9456 51.5093 44.713Z" fill="#F8A81B"/>
<path d="M66.4516 55.4939C63.708 58.1162 59.681 59.049 58.1043 57.5338C56.5284 55.96 57.462 52.1144 60.2056 49.4914C62.8907 46.8699 66.7436 46.2282 68.2617 47.802C69.8369 49.3172 69.1368 52.8716 66.4516 55.4939Z" fill="#F9BB16"/>
<path d="M84.3735 42.6738C82.6805 44.9463 79.9946 45.937 78.6528 45.0049C77.3102 44.0727 77.3102 41.1585 78.9447 38.886C80.637 36.6135 83.3814 35.448 84.7232 36.3801C86.0658 37.3122 86.0658 40.4013 84.3735 42.6738Z" fill="#FCD20A"/>
<path d="M90.8524 45.1215C89.5105 46.9858 87.5256 47.8601 86.4164 47.1028C85.3073 46.3456 85.4828 44.1308 86.8254 42.2666C88.168 40.4601 90.2107 39.4109 91.3199 40.1682C92.3705 40.9262 92.1949 43.315 90.8524 45.1215Z" fill="#FCD800"/>
<path d="M62.5421 35.4479C59.1561 39.5269 53.9607 41.1585 51.7424 39.0608C49.1743 36.5549 49.0573 32.5922 52.8515 27.8145C56.9378 22.6863 61.4915 22.4529 63.8847 24.3757C66.2194 26.2992 65.9274 31.3689 62.5421 35.4479Z" fill="#F9B517"/>
<path d="M75.208 39.4691C72.6977 43.6645 68.8456 43.723 67.1526 42.3826C65.4596 40.9837 65.9264 37.021 68.3781 34.1076C70.8298 31.1941 74.6827 30.0286 76.2586 31.6016C77.5434 32.8842 77.1344 36.2052 75.208 39.4691Z" fill="#FAC113"/>
<path d="M48.0066 14.7026C39.1332 10.9741 30.2021 22.9776 30.903 29.7374C31.4861 34.9234 34.7558 37.0211 39.4252 36.3223C39.4837 36.2645 39.6007 36.2645 39.6593 36.2645C44.5627 35.6229 48.6482 31.6017 50.5168 28.1058C51.1585 26.8818 51.626 25.425 51.8594 23.9098C51.9172 23.3274 51.9757 22.6864 51.9757 22.1033C51.9179 18.8986 50.7502 15.8681 48.0066 14.7026Z" fill="#F7A11C"/>
<path d="M29.3842 41.567C27.3415 41.9167 25.4151 42.7325 23.6635 43.898C20.8036 45.5874 18.4682 47.8021 17.0671 50.4829C15.3748 53.7461 15.6075 56.7181 17.0093 58.7572C17.6509 59.8642 18.5845 60.5059 19.461 60.9134C19.9278 61.0883 20.4531 61.2632 20.9784 61.3795C22.4958 61.7292 24.2474 61.7292 26.1738 61.2046C31.7774 59.6894 38.1991 53.5713 38.1405 47.8021C38.1983 42.1494 34.0543 40.5763 29.3842 41.5662" fill="#F7991D"/>
<path d="M84.3152 63.8266C82.7392 65.3418 80.7543 65.8079 79.8207 64.9343C78.9449 64.06 79.4117 61.9623 80.9877 60.447C82.5636 58.9318 84.6071 58.3494 85.5407 59.223C86.475 60.0973 85.8911 62.3113 84.3152 63.8266Z" fill="#FCD800"/>
<path d="M74.6237 66.6823C72.5224 68.5465 69.8373 69.0133 68.7281 67.7893C67.6775 66.5659 68.4947 64.06 70.6545 62.195C72.8143 60.3886 75.3246 59.864 76.4338 61.088C77.5429 62.3699 76.7835 64.8173 74.6237 66.6823Z" fill="#FCD20A"/>
<path d="M61.6656 70.6449C58.8049 73.0923 55.244 73.7332 53.7851 72.1016C52.3255 70.47 53.4932 67.1483 56.3532 64.7009C59.2139 62.2535 62.5992 61.6126 64.0589 63.2442C65.5763 64.8758 64.5256 68.1975 61.6656 70.6449Z" fill="#F9BD15"/>
<path d="M45.7295 65.1673C40.0088 63.5357 30.9606 70.82 32.2454 76.5306C32.5373 77.8125 34.3467 78.978 35.7477 79.1529C41.4684 79.7353 47.8893 73.6757 48.2398 69.3041C48.182 68.7802 48.182 68.3141 48.182 67.7895C48.0064 66.5077 46.7224 65.4585 45.7295 65.1673Z" fill="#F9A81A"/>
<path d="M30.377 71.5185C29.3256 67.2068 24.0724 67.5566 20.5693 68.5472C19.2853 68.8384 17.9427 69.363 16.7172 70.004C14.9072 70.8783 13.3897 71.9853 12.0472 73.2671C10.3542 74.8987 7.49345 78.5117 8.0773 82.0083C8.66115 85.679 13.3312 86.786 17.476 85.7953C22.4958 84.6883 31.9529 78.2205 30.377 71.5185Z" fill="#F79A1D"/>
</svg>
