<svg width="100" height="100" viewBox="0 0 100 100" fill="none" xmlns="http://www.w3.org/2000/svg">
<path d="M41.254 69.0469C40.1003 70.9253 24.575 93.5845 24.575 93.5845L58.3886 93.5862C61.9097 93.5862 63.308 91.9221 64.536 90.1667C64.8709 89.6888 66.0457 87.9645 67.4934 85.8396C70.2593 81.7799 74.0213 76.2582 74.826 75.1723C76.051 73.4971 77.7424 72.4616 79.4574 72.1175V71.8852H71.4055C69.0288 71.8852 67.182 74.4556 66.3137 75.6641C66.2475 75.7562 66.187 75.8404 66.1323 75.915C65.932 76.1971 65.3138 77.1164 64.4909 78.34C62.2182 81.7192 58.385 87.4191 57.4847 88.4259C57.3936 88.5269 57.3033 88.6295 57.2123 88.7329C56.0788 90.0209 54.8392 91.4292 50.7278 91.4292H38.4674C38.4674 91.4292 53.9407 68.1366 55.7993 65.0964C58.0774 61.4108 58.3998 55.9985 55.7993 51.9487C54.7321 50.3227 32.3398 14.8084 32.3398 14.8084C30.6111 11.3984 30.979 9.06617 32.1786 7.28508C33.6572 5.09685 37.2128 0 37.2128 0C37.2128 0 63.8887 41.9705 65.2138 44.2903C68.8446 50.6866 68.1538 57.3519 65.1021 62.4004C63.7015 64.6727 59.1317 71.4102 55.26 77.1183C52.1488 81.7054 49.4883 85.6278 49.2857 86.0341C49.3305 86.0341 49.4959 86.0349 49.7035 86.036C50.0536 86.0378 50.5238 86.0401 50.7385 86.0401C51.3596 86.0345 52.0302 85.8078 52.8125 84.7724C54.0617 83.1013 60.5087 73.4912 62.4566 70.5876C62.6487 70.3013 62.797 70.0802 62.8923 69.9383C64.2467 67.9361 66.8278 66.0461 68.9619 66.0461H80.1387L87.1431 76.6727H83.5528C82.5229 76.6727 80.2191 77.8173 79.0766 79.5384C77.9173 81.2565 70.3606 92.2045 68.4074 94.955C66.1491 98.1902 63.5886 100 58.9224 100H12.9826C12.9826 100 28.9021 76.8565 30.0557 75.0039C31.4595 72.7089 31.5141 69.0696 30.2569 67.0871C29.6065 66.0577 14.1676 41.7635 14.1676 41.7635C12.0993 38.2193 12.8154 36.0135 14.0206 34.2466C15.2263 32.4689 19.0522 26.7181 19.0522 26.7181C19.0522 26.7181 40.6067 60.5456 41.254 61.5754C42.4596 63.5228 42.6088 66.7524 41.254 69.0469Z" fill="#F99C1C"/>
<path d="M43.5183 69.4742C42.3101 71.4477 28.896 91.4275 28.896 91.4275L35.8489 91.4301C35.8489 91.4301 51.5814 68.0518 53.3824 64.9884C55.5307 61.3512 56.2528 57.1094 53.6437 52.7758C52.6349 51.0778 28.3553 13.0998 28.3553 13.0998C28.3553 13.0998 24.8767 18.2425 22.9038 21.1451C21.7042 22.8088 21.2584 25.132 23.0564 28.5395C23.0564 28.5395 43.058 60.078 43.7341 61.1558C45.0601 63.2185 44.9995 67.0588 43.5183 69.4742Z" fill="#F99C1C"/>
</svg>
