<svg width="100" height="100" viewBox="0 0 100 100" fill="none" xmlns="http://www.w3.org/2000/svg">
<path d="M82.0478 20C78.4401 20 77.2154 20.1721 75.4259 20.8994C73.7896 21.5884 73.1484 22.1532 72.0862 23.2345C66.737 28.7082 61.378 34.1819 56.0287 39.6556C47.4163 48.4594 38.8134 57.244 30.201 66.0479C27.1101 69.2153 18.7369 76.5455 11.6843 79.4642C4.79433 82.3254 0 80.7559 0 83.6841H75.0623C76.115 80.9664 77.1865 78.2488 78.2487 75.5311C79.4832 72.3732 80.7272 69.2153 81.9616 66.0479C85.4066 57.244 88.8518 48.4594 92.2967 39.6556C94.4403 34.1819 96.5934 28.7082 98.7369 23.2345C99.158 22.1532 99.5789 21.0717 100 20H82.0478Z" fill="url(#paint0_linear_526_1844)"/>
<path d="M85.096 22.6279L48.9525 74.159C50.3496 59.9485 61.6625 48.0346 69.8348 42.3695C63.031 46.8958 42.897 60.8001 16.7344 83.6996H78.6386C69.0501 50.9341 80.407 30.848 85.096 22.6279Z" fill="white"/>
<path d="M65.5898 50.4375L48.9486 74.16C48.6424 77.2509 48.7955 80.4375 49.5611 83.7006H56.8242C54.7764 76.1791 53.3219 69.0021 65.5898 50.4375Z" fill="#D3E7EE"/>
<defs>
<linearGradient id="paint0_linear_526_1844" x1="88.3027" y1="83.6841" x2="49.9979" y2="20.0012" gradientUnits="userSpaceOnUse">
<stop stop-color="#0272C9"/>
<stop offset="1" stop-color="#02005A"/>
</linearGradient>
</defs>
</svg>
