<svg width="101" height="100" viewBox="0 0 101 100" fill="none" xmlns="http://www.w3.org/2000/svg">
<path d="M97.68 61.4096C95.34 56.2596 91.36 51.9396 86.13 49.8596C103.55 42.5096 104.52 15.5996 87.99 6.55961C74.15 -2.53039 50.88 6.81961 53.45 24.9996C42.42 17.9896 27.49 21.1096 19 30.6796C13.15 36.9196 7.59 45.5096 0 50.0496C7.74 54.4196 13.03 63.1396 18.99 69.3296C27.48 78.8596 42.46 82.0996 53.44 75.0096C53.82 113.18 112.93 96.9796 97.67 61.4196L97.68 61.4096Z" fill="#F5C300"/>
<path d="M92.2801 63.5496C87.4801 52.6696 73.3001 49.5796 63.2301 54.6996C55.5701 58.8996 48.6701 68.0996 38.9301 63.5396C24.6401 57.7896 29.1701 34.5996 44.7001 35.1396C59.4001 36.8896 64.8501 55.3496 85.0201 44.5396C97.4501 37.3096 96.5501 17.3696 83.7201 11.0196C73.5901 5.16961 58.7601 11.0996 58.3901 23.5896C58.3901 26.1196 58.5701 28.9096 59.7901 30.9496C60.1201 23.6796 68.2701 18.8996 74.9701 22.4796C89.1501 33.3396 71.3601 50.7096 58.4001 35.5096C49.9401 26.8196 35.4501 23.5196 25.8101 32.1596C19.5701 37.5996 15.5801 45.6796 8.58008 50.0396C15.7701 54.3296 19.4701 62.4196 25.8101 67.8196C37.2501 77.9496 52.4501 71.3696 61.7501 61.6696C68.1501 55.4596 80.2401 58.8796 80.0001 68.5596C79.6701 82.5496 61.0101 81.2696 59.6101 69.2096C51.4401 103.22 104.36 94.4396 92.2901 63.5296L92.2801 63.5496Z" fill="#370E62"/>
<path d="M64.4405 49.8597C57.4906 47.7997 52.7205 40.1297 45.1705 39.2397C39.1205 38.5897 33.9305 43.8397 34.1805 49.8597C33.9705 55.8497 39.1605 60.9397 45.1705 60.4697C52.7505 59.5397 57.3005 51.7697 64.4405 49.8597Z" fill="#B6007D"/>
</svg>
