<svg width="100" height="100" viewBox="0 0 100 100" fill="none" xmlns="http://www.w3.org/2000/svg">
<path d="M44.8052 29.2121L42.5687 17.3773L34.7242 21.2866L41.5393 13.5058L40.8407 2.07701L44.5592 12.6967L53.6869 16.8289L45.2779 16.7185L47.8789 30.1784L42.7568 32.4259L44.8052 29.2121Z" fill="#929294"/>
<path d="M61.1998 31.4362L67.8556 21.398L59.5086 18.7248L69.8196 17.9065L77.2937 9.23215L72.5474 19.434L76.2026 28.763L70.256 22.8164L62.7274 34.2731L57.4901 32.3091L61.1998 31.4362Z" fill="#929294"/>
<path d="M69.9362 44.4894L82.3781 41.9588L78.1495 33.7139L86.4441 40.8159L98.4795 39.9179L87.3387 43.9996L83.11 53.7139V44.8159L68.9603 47.7547L66.5207 42.3669L69.9362 44.4894Z" fill="black"/>
<path d="M68.5817 60.7563L78.4659 67.6387L81.3282 59.3547L81.9118 69.6816L90.4139 77.3511L80.3226 72.374L70.9129 75.816L76.9932 70.0063L65.7108 62.219L67.7934 57.0277L68.5817 60.7563Z" fill="#929294"/>
<path d="M55.2934 70.5601L57.5996 82.3816L65.4209 78.4261L58.6518 86.2469L59.4178 97.6714L55.6368 87.0738L46.4848 82.9955L54.8943 83.0564L52.214 69.612L57.3228 67.3343L55.2934 70.5601Z" fill="#929294"/>
<path d="M39.2162 68.1663L32.5604 78.2045L40.9074 80.8778L30.5964 81.6961L23.1223 90.3704L27.8687 80.1685L24.2135 70.8396L30.16 76.7861L37.6886 65.3295L42.926 67.2935L39.2162 68.1663Z" fill="#929294"/>
<path d="M28.9355 54.4771L17.1156 56.8812L21.1328 64.7139L13.2529 57.9669L1.81934 58.82L12.4031 54.9424L16.4203 45.7139V54.1669L29.8625 51.3751L32.1802 56.4935L28.9355 54.4771Z" fill="#929294"/>
<path d="M31.9206 38.8866L21.8824 32.2308L19.2092 40.5778L18.3908 30.2668L9.71652 22.7928L19.9184 27.5391L29.2474 23.8839L23.3008 29.8304L34.7575 37.359L32.7935 42.5964L31.9206 38.8866Z" fill="#929294"/>
</svg>
