<svg width="100" height="100" viewBox="0 0 100 100" fill="none" xmlns="http://www.w3.org/2000/svg">
<path d="M100 50C100 22.2414 77.931 0 50 0C22.069 0 0 22.069 0 50C0 77.931 22.069 100 50 100C77.931 100 100 77.931 100 50Z" fill="#2DCCD3"/>
<path d="M62.8306 12.5274C63.1204 12.2858 63.7166 11.9905 64.0601 12.334C64.7753 13.0821 65.7555 14.2697 66.52 15.9229C68.5636 20.3332 67.5272 24.685 67.1294 26.2578C66.2043 29.9145 64.8836 30.3563 61.5991 37.5401C60.8182 39.248 60.2322 40.6713 59.8618 41.5928C59.8618 41.5928 58.5099 44.4696 57.4097 45.6651C57.1925 45.9003 57.0844 46.019 56.9185 46.1524C56.5461 46.455 56.3438 46.4885 56.0884 46.8037C55.9368 46.9956 55.8429 47.189 55.8325 47.2149C55.7379 47.4266 55.7452 47.5978 55.6392 47.7695C55.5098 47.9866 55.2782 48.1402 55.0337 48.2002C54.319 48.3747 53.7223 48.7757 53.3853 49.4395C53.0968 50.0177 53.1026 50.5378 53.2612 51.167C53.3834 51.6577 53.7469 52.3495 54.2593 52.5322C54.6698 52.6765 54.968 52.596 55.4097 52.8955C55.7011 53.094 55.707 53.2513 55.9458 53.3242C56.2888 53.4281 56.4622 53.1411 56.9859 53.0098C57.4894 52.8842 58.0203 52.9705 58.3999 53.1582C58.6859 53.3027 58.8898 53.5293 59.3394 54.0371C59.6426 54.379 59.9172 54.7496 60.1978 55.1104C60.6539 55.5883 60.9748 55.682 61.4253 56.1123C61.741 56.4116 62.0437 56.8058 62.5454 57.957C62.881 58.7269 63.1392 59.4398 63.3306 60.0401C65.4272 64.3372 69.4903 70.949 69.2368 78.1748C69.047 83.5971 68.1261 87.4433 67.5239 87.6865C65.2212 88.6208 62.9217 87.3876 60.7486 85.043C55.2581 79.1182 54.2565 70.0092 52.8296 63.8672C52.6855 63.2432 52.472 62.0534 53.4683 60.0371C53.8132 59.341 54.2005 58.6798 54.6284 58.0332C55.0163 57.4593 55.0733 56.8473 55.0786 56.7744C55.0521 56.8417 54.7412 57.3622 54.397 57.7901C54.0056 58.2772 53.666 58.7988 53.2984 59.3027C52.7181 60.0819 52.5826 60.7574 48.9077 64.5947C48.041 65.4998 45.6484 67.8666 44.7378 68.6768C42.3086 70.8389 39.8001 72.8653 36.978 74.5068C34.7884 75.7824 32.1076 77.2157 26.9273 77.4805C25.3854 77.5589 21.3653 77.656 19.5132 75.9463C19.1175 75.5814 18.8806 75.3327 18.9116 74.6631C19.0415 71.8075 22.2949 67.9178 24.2691 66.3486C28.3687 63.0941 33.0465 60.7584 37.857 58.7539C40.1466 57.7997 41.749 57.141 42.9204 56.6631C45.7667 55.3275 46.5207 54.982 47.8179 54.71C48.2011 54.6298 48.2639 54.5828 49.1196 54.333C49.5022 54.2188 49.4765 53.9326 49.4751 53.9209C49.4716 53.9578 47.9617 54.3227 47.9204 54.333C47.8723 54.3452 43.0192 55.2746 36.2876 54.125C30.2023 53.0849 23.9126 51.4769 18.7945 47.875C16.4499 46.2237 14.5487 44.1528 12.9448 41.7881C11.746 40.0218 9.68219 36.9396 11.0288 34.7627C11.7815 33.5514 13.7053 33.5171 15.5337 33.5147C18.2337 33.511 20.2469 34.1731 20.3872 34.2207C25.2482 35.8629 29.1264 38.1728 33.9253 40.6143C37.6221 42.4955 40.481 43.7533 43.0484 44.8809C45.7051 46.0487 47.3717 46.7163 48.3443 47.083C47.4739 46.7071 46.2404 46.083 45.0288 45.125C43.2626 43.7289 42.2261 42.0586 41.4302 40.8213C40.9566 40.0903 40.4176 39.4015 39.813 38.7734C38.7362 37.6564 35.8607 34.1882 34.2241 32.0225C32.5114 29.7549 31.653 28.6209 31.104 27.4072C30.4456 25.9605 28.8796 22.5162 30.1411 18.8994C30.3181 18.3958 31.5188 14.9556 33.9146 14.6416C35.6644 14.4118 37.1295 15.9667 38.6001 17.5723C39.6402 18.7054 41.1183 20.5561 45.3736 30.2891C46.8955 33.7693 48.2587 37.3155 49.7749 40.7969C50.9938 43.5942 52.2492 46.2004 52.5523 46.6328C52.6014 46.587 51.9485 45.2786 51.5689 43.7041C50.9012 40.938 51.3678 38.5421 51.9097 36.3526C52.9534 32.1357 53.8844 30.2701 55.9536 24.5752C55.9791 24.5052 59.2573 15.4993 62.8306 12.5274ZM77.2603 31.5459C81.0556 31.2193 85.6123 33.197 85.9097 35.5381C86.1922 37.7605 82.5697 39.8056 78.2271 42.2598C69.9411 46.9401 61.5042 49.1236 61.5005 49.1133C60.7448 49.3871 60.0272 49.6786 59.3823 50.1709C60.8882 49.3522 62.7629 49.1801 64.4507 49.2705H64.4546C67.0949 49.411 71.1714 49.7869 76.4429 52.0313C79.5613 53.3559 82.6985 54.629 85.2964 56.874C85.7898 57.3003 86.5902 58.1935 87.73 59.9453L88.2388 60.7471C88.737 61.5539 89.8554 63.5026 89.2241 64.6611C87.6147 67.064 80.631 65.1753 79.8872 64.9014C79.8872 64.9014 63.6889 59.8294 59.5503 53.7568C59.5503 53.7517 59.5397 53.7358 59.5191 53.71C59.382 53.5145 58.8951 52.8707 58.2876 52.7373C57.7986 52.6287 57.687 52.6084 57.687 52.6084C57.1692 52.4393 57.2201 51.7605 57.6236 51.499C58.0051 51.257 58.2862 51.3822 58.4595 51.2363C58.6172 51.105 58.6634 50.8453 58.6323 50.7559C58.545 50.517 58.5247 50.5226 58.439 50.2783C58.3655 50.072 58.4852 49.9419 58.4439 49.794C58.3599 49.5028 58.2047 49.6701 57.8931 49.3731C57.6777 49.2107 57.4274 48.6357 57.3032 48.4971C56.9328 48.0921 56.4934 48.1226 56.3765 47.9219C56.0997 47.4456 57.1114 46.5879 57.3726 46.3252C57.6353 46.0643 58.7542 44.2636 59.9585 42.9443C61.8051 40.9189 62.6447 40.6857 66.3286 37.8301C70.447 34.6369 71.1062 33.6054 73.7593 32.5215C74.8356 32.0818 75.8501 31.668 77.2603 31.5459Z" fill="white"/>
</svg>
