<svg width="100" height="100" viewBox="0 0 100 100" fill="none" xmlns="http://www.w3.org/2000/svg">
<path d="M100 50C100 22.2414 77.931 0 50 0C22.069 0 0 22.069 0 50C0 77.931 22.069 100 50 100C77.931 100 100 77.931 100 50Z" fill="#00D66C"/>
<path d="M72.2415 57.6705H69.4828C66.7242 57.6705 65.5173 59.2069 65.0001 62.1089C64.3104 67.4008 60.0001 70.9857 54.4828 70.9857C48.1035 70.9857 43.9656 66.3766 43.9656 59.5483V43.5018C43.9656 42.819 43.7931 42.3069 43.7931 41.7948C44.3104 42.1362 45.1725 42.1362 45.8621 42.1362H60.6897C63.4484 42.1362 65.1725 40.5998 65.1725 37.6978V36.3321C65.1725 33.6008 63.6208 31.8938 60.6897 31.8938H52.4139V23.017C52.4139 20.2857 50.8621 18.5786 47.9311 18.5786H45.8621C43.1035 18.5786 41.3793 20.115 41.3793 23.017V37.6978C41.3793 38.3806 41.3793 38.8928 41.5518 39.4049C40.8621 39.0635 40.1724 39.0635 39.3104 39.0635H24.4828C21.7241 39.0635 20 40.5998 20 43.5018V44.8675C20 47.5988 21.5517 49.3059 24.4828 49.3059H32.7586V59.5483C32.7586 72.3513 41.0345 81.3988 54.138 81.3988C66.207 81.3988 74.3104 73.717 75.8622 62.2796C76.7242 59.0362 74.6553 57.6705 72.2415 57.6705Z" fill="white"/>
</svg>
