<svg width="100" height="100" viewBox="0 0 100 100" fill="none" xmlns="http://www.w3.org/2000/svg">
<path d="M100 50C100 77.6142 77.6142 100 50 100C22.3858 100 0 77.6142 0 50C0 22.3858 22.3858 0 50 0C77.6142 0 100 22.3858 100 50Z" fill="#DA1800"/>
<path d="M33.1873 25.5933C33.1873 23.2141 35.1148 21.2866 37.4939 21.2866H45.357C47.7361 21.2866 49.6636 23.2141 49.6636 25.5933V35.337H53.8222C55.4511 35.337 56.7739 36.6599 56.7739 38.2912V43.0816C56.7739 44.7105 55.4511 46.0308 53.8222 46.0308H49.6636V68.5785C49.6636 71.3179 51.3888 72.2879 53.8222 72.2879C55.4511 72.2879 56.7739 73.6107 56.7739 75.2421V80.22C56.7739 81.8489 55.4511 83.1692 53.8222 83.1692C51.5221 83.3393 49.1404 83.426 47.3956 83.426C38.1603 83.426 33.1873 77.7743 33.1873 67.1693V46.0308H29.9517C28.3228 46.0308 27 44.7105 27 43.0816V38.2912C27 36.6599 28.3228 35.337 29.9517 35.337H33.1873" fill="white"/>
<path d="M77.2093 22.6295L77.0119 22.2273C75.4052 19.125 72.1697 17 68.4331 17C63.1023 17 58.7783 21.3215 58.7783 26.6548C58.7783 29.7423 60.2295 32.4892 62.4853 34.2563C65.2371 36.3911 68.0555 40.4188 61.4067 46.6752C60.153 47.9857 61.0489 49.0123 61.8904 49.5578C63.9241 50.8782 65.2741 50.6832 67.441 49.5578C73.0186 46.6604 83.1128 34.93 77.2093 22.6295Z" fill="#79A23D"/>
</svg>
