<svg width="100" height="100" viewBox="0 0 100 100" fill="none" xmlns="http://www.w3.org/2000/svg">
<path d="M100 50C100 77.6142 77.6142 100 50 100C22.3858 100 0 77.6142 0 50C0 22.3858 22.3858 0 50 0C77.6142 0 100 22.3858 100 50Z" fill="#FC4C01"/>
<path d="M76.2145 24.1156C76.9901 22.3382 79.0726 21.5208 80.8659 22.2894C82.6589 23.0583 83.484 25.1223 82.7086 26.8998C78.4486 36.665 71.1577 50.6167 62.4147 61.5531C58.0496 67.0132 53.1823 71.9018 47.9918 75.099C42.8567 78.262 37.1019 79.9401 31.1784 78.4506L30.8971 78.3773C25.0543 76.8099 21.3253 73.2324 19.4645 68.476C17.6885 63.9363 17.713 58.5993 18.5582 53.3871C20.2529 42.9363 25.5171 31.4261 29.8356 23.7924C30.7912 22.1032 32.9479 21.5014 34.652 22.4486C36.356 23.3959 36.9621 25.5338 36.0065 27.223C31.8608 34.5514 27.0472 45.2277 25.5436 54.5004C24.7896 59.1499 24.9345 63.0598 26.0612 65.9398C27.103 68.603 29.0596 70.6182 32.7448 71.6068L32.9098 71.6498C36.3696 72.521 40.1309 71.6837 44.2575 69.142C48.4758 66.5436 52.7549 62.3448 56.8698 57.1976C65.0866 46.9194 72.0889 33.5727 76.2145 24.1156ZM42.4996 30.0004C44.9849 30.0004 46.9996 32.2389 46.9996 35.0004C46.9995 37.7617 44.9849 40.0004 42.4996 40.0004C40.0145 40.0002 37.9997 37.7616 37.9996 35.0004C37.9996 32.239 40.0145 30.0005 42.4996 30.0004ZM57.9996 30.0004C60.7611 30.0004 62.9996 32.2389 62.9996 35.0004C62.9995 37.7617 60.761 40.0004 57.9996 40.0004C55.2384 40.0002 52.9998 37.7616 52.9996 35.0004C52.9996 32.239 55.2383 30.0005 57.9996 30.0004Z" fill="white"/>
</svg>
