<svg width="100" height="100" viewBox="0 0 100 100" fill="none" xmlns="http://www.w3.org/2000/svg">
<path d="M98.2603 13.5779C98.7958 13.2746 99.3858 13.0615 100 13C99.6619 13.5334 99.1832 13.9586 98.8609 14.5025C98.0136 15.8609 97.5621 17.4249 97.2472 18.9847C96.9406 20.4639 96.824 21.9845 96.3568 23.4266C95.7374 25.4657 94.74 27.3913 93.4119 29.0508C91.7173 31.1366 89.5923 32.8151 87.3802 34.306C84.6956 36.1542 81.8598 37.836 79.5364 40.1571C77.8807 41.8155 76.5494 43.8323 75.8239 46.0803C74.4107 50.2296 73.2139 54.4816 71.2432 58.4114C69.8342 61.25 67.9717 63.8553 65.7417 66.0948C62.8513 69.0373 59.3877 71.3203 55.8569 73.3976C48.0624 77.8999 39.5057 80.9251 30.7831 82.9875C21.0348 85.2514 11.024 86.3309 1.02365 86.316C0.681386 86.3213 0.339118 86.3086 0 86.2683C8.84017 85.0627 17.6111 82.9865 25.8517 79.4883C33.3963 76.3115 40.4779 71.9003 46.392 66.1754C47.6949 64.9125 48.9517 63.5976 50.1202 62.2064C52.7775 58.9744 54.661 55.1963 56.4564 51.432C57.3887 49.4926 58.2863 47.5299 59.3761 45.6721C61.0276 42.8547 63.2807 40.3968 65.959 38.5475C69.198 36.2931 72.9188 34.9062 76.5998 33.5818C78.7489 32.8077 80.9044 32.0485 83.0115 31.162C84.4079 30.565 85.8116 29.9606 87.0946 29.1346C89.5314 27.5949 91.7047 25.5049 92.9499 22.8551C93.8056 21.0652 94.215 19.1045 94.9458 17.2637C94.1457 17.6285 93.5798 18.3771 93.3153 19.2074C92.9667 20.2943 91.8759 20.9379 90.8092 21.1108C91.289 20.6898 91.7142 20.1776 91.8937 19.5499C92.3326 18.1131 93.6176 16.9022 95.1432 16.8163C95.8665 15.4802 96.9311 14.3127 98.2603 13.5779V13.5779ZM96.2949 16.0496C95.9453 16.2596 95.9075 16.8237 96.2319 17.0739C96.5826 17.3878 97.2409 17.127 97.2482 16.6402C97.3081 16.1557 96.6939 15.7665 96.2949 16.0496V16.0496Z" fill="#DC001C"/>
<path d="M61.2124 37.9879C63.8854 36.8936 66.6635 36.0856 69.4625 35.3921C68.9733 35.6667 68.4368 35.8364 67.9318 36.0728C64.7674 37.4895 61.9841 39.6802 59.6554 42.2495C57.0422 45.1454 54.9644 48.4982 53.2751 52.0166C50.9244 57.2866 47.1489 61.8494 42.5903 65.321C36.2142 70.1934 28.5153 73.1179 20.6463 74.3373C18.9465 74.5823 17.2362 74.7943 15.5186 74.8389C17.737 74.1327 19.9596 73.4254 22.1088 72.5198C27.9147 70.1277 33.3228 66.6221 37.6179 61.9819C40.0275 59.3236 42.289 56.5125 44.1893 53.4565C45.2098 51.8437 46.1736 50.1874 47.34 48.6753C48.6839 46.9077 50.2409 45.3161 51.8777 43.8252C54.6054 41.327 57.795 39.3621 61.2124 37.9879Z" fill="#01742F"/>
<path d="M79.8234 42.2557C80.3725 41.2844 80.9489 40.3078 81.7185 39.4966C81.3248 41.3003 80.9006 43.105 80.7421 44.949C80.4502 47.8396 80.6287 50.7471 80.7305 53.6419C80.9195 57.0817 80.6854 60.6308 79.352 63.8405C78.0207 67.0153 76.0826 69.9652 73.5156 72.2567C70.0005 75.3784 65.4733 77.1513 60.8811 77.8385C59.0175 78.1046 57.1256 78.2679 55.2441 78.1396C56.2258 77.5023 57.2883 76.9976 58.2952 76.3985C61.3168 74.6669 64.267 72.7593 66.8382 70.3851C69.4241 67.994 71.5848 65.1501 73.3025 62.0676C74.9917 59.0381 75.7813 55.6174 76.5519 52.2592C77.333 48.8374 78.1152 45.3498 79.8234 42.2557V42.2557Z" fill="#FF3C00"/>
</svg>
