<svg width="100" height="100" viewBox="0 0 100 100" fill="none" xmlns="http://www.w3.org/2000/svg">
<path d="M80.3463 77.9937H77.2327C75.0087 77.9937 73.2295 79.8071 73.2295 81.9969C73.2295 84.2209 75.0087 86.0001 77.2327 86.0001C79.4567 86.0001 81.2359 84.1867 81.2359 81.9969V77.9937H80.3463ZM75.0087 81.9969C75.0087 80.7651 76.0009 79.7729 77.2327 79.7729C77.2327 79.7729 78.5671 79.7729 79.4567 79.7729C79.4567 80.6625 79.4567 81.9969 79.4567 81.9969C79.4567 83.2286 78.4645 84.2209 77.2327 84.2209C76.0009 84.2209 75.0087 83.2286 75.0087 81.9969Z" fill="#95B748"/>
<path d="M91.0216 70.9112C91.0216 72.9983 89.345 74.6749 87.2578 74.6749C85.1707 74.6749 83.4941 72.9983 83.4941 70.9112C83.4941 68.824 85.1707 67.1475 87.2578 67.1475C89.345 67.1475 91.0216 68.824 91.0216 70.9112Z" fill="#A66D24"/>
<path d="M73.4014 70.5004C73.4014 72.2454 74.8384 73.6825 76.5834 73.6825C78.3284 73.6825 79.7654 72.2796 79.7654 70.5004C79.7654 68.7554 78.3626 67.3184 76.5834 67.3184C74.8384 67.3184 73.4014 68.7554 73.4014 70.5004ZM75.1806 70.5004C75.1806 69.7477 75.7964 69.1318 76.5492 69.1318C77.3019 69.1318 77.952 69.7477 77.952 70.5004C77.952 71.2531 77.3361 71.869 76.5492 71.869C75.7964 71.9032 75.1806 71.2531 75.1806 70.5004Z" fill="#7CA6BF"/>
<path d="M75.3855 66.0868C69.2267 66.0868 69.0557 59.7569 69.0557 59.7569V55.959H72.5799C72.5799 55.959 79.1835 55.9248 79.1835 62.0151C79.1835 64.0339 79.1835 66.7369 79.1835 66.7369C79.1835 66.7369 76.5831 66.0868 75.3855 66.0868Z" fill="#7CA6BF"/>
<path d="M67.7896 56.0273V60.0306C67.7896 62.2546 66.0104 64.0338 63.7864 64.0338C61.5624 64.0338 59.7832 62.2546 59.7832 60.0306C59.7832 57.8065 61.5624 56.0273 63.7864 56.0273H67.7896Z" fill="#7AC5C0"/>
<path d="M69.0557 55.2403V51.2371C69.0557 49.0131 70.8349 47.2339 73.0589 47.2339C75.2829 47.2339 77.0621 49.0131 77.0621 51.2371C77.0621 53.4611 75.2829 55.2403 73.0589 55.2403H69.0557Z" fill="#305D83"/>
<path d="M54.8902 40.5962H53.4189V47.9183C53.4189 51.9557 56.7036 55.2404 60.7411 55.2404H68.029V47.9183C68.029 43.8809 64.7443 40.5962 60.7069 40.5962H54.8902ZM60.7411 43.5729C63.1362 43.5729 65.0864 45.5232 65.0864 47.9183C65.0864 47.9183 65.0864 50.6213 65.0864 52.2637C63.4441 52.2637 60.7411 52.2637 60.7411 52.2637C58.346 52.2637 56.3957 50.3134 56.3957 47.9183C56.3957 47.9183 56.3957 45.2153 56.3957 43.5729C58.038 43.5729 60.7411 43.5729 60.7411 43.5729Z" fill="#4686BF"/>
<path d="M54.4114 53.3243C54.4114 54.1797 53.7271 54.8298 52.9059 54.8298C52.0505 54.8298 51.4004 54.1455 51.4004 53.3243C51.4004 52.5032 52.0847 51.8188 52.9059 51.8188C53.7271 51.8188 54.4114 52.469 54.4114 53.3243Z" fill="#B34061"/>
<path d="M52.3924 49.287C52.3924 50.5188 51.4001 51.511 50.1683 51.511C48.9366 51.511 47.9443 50.5188 47.9443 49.287C47.9443 48.0552 48.9366 47.063 50.1683 47.063C51.4001 47.063 52.3924 48.0552 52.3924 49.287Z" fill="#B34061"/>
<path d="M52.1874 42.5463C52.1874 44.3256 50.7504 45.7626 48.9711 45.7626C47.1919 45.7626 45.7549 44.3256 45.7549 42.5463C45.7549 40.7671 47.1919 39.3301 48.9711 39.3301C50.7504 39.3301 52.1874 40.7671 52.1874 42.5463Z" fill="#B34061"/>
<path d="M53.4189 39.2278V35.6351C53.4189 33.6506 55.0271 32.0083 57.0458 32.0083C59.0303 32.0083 60.6384 33.6164 60.6384 35.6351C60.6384 37.6197 59.0303 39.262 57.0458 39.262H53.4189V39.2278Z" fill="#908DB8"/>
<path d="M45.4812 26.876H41.1016V31.4951C41.17 33.8559 42.6755 38.2013 47.8078 38.2013C48.3553 38.2013 49.7239 38.5093 50.545 38.7146L52.3927 39.1936V33.3769C52.3927 31.5293 51.811 30.0238 50.6477 28.8947C48.6974 26.9102 45.7891 26.876 45.4812 26.876ZM45.4812 29.8527C46.1312 29.8527 49.4159 30.0238 49.4159 33.3769C49.4159 33.3769 49.4159 34.4034 49.4159 35.4299C48.8343 35.3272 48.2526 35.2246 47.8078 35.2246C44.3863 35.2246 44.1125 32.0767 44.0783 31.4266C44.0783 31.4266 44.0783 30.6397 44.0783 29.8185C44.7968 29.8527 45.4812 29.8527 45.4812 29.8527Z" fill="#DF261F"/>
<path d="M38.6377 26.9097H28.6468C22.3169 26.9097 17.1846 32.042 17.1846 38.3719C17.1846 44.7017 22.3169 49.8683 28.6468 49.8683C34.9766 49.8683 40.1432 44.7017 40.1432 38.3719V26.9097H38.6377ZM20.1271 38.4061C20.1271 33.7186 23.9592 29.8864 28.6468 29.8864C28.6468 29.8864 35.0109 29.8864 37.1664 29.8864C37.1664 32.042 37.1664 38.4061 37.1664 38.4061C37.1664 43.0936 33.3343 46.9258 28.6468 46.9258C23.9592 46.8915 20.1271 43.0936 20.1271 38.4061Z" fill="#F7C200"/>
<path d="M8.3916 34.1977C8.3916 35.9427 9.79444 37.3455 11.5736 37.3455C13.3186 37.3455 14.7557 35.9427 14.7557 34.1977C14.7557 32.4527 13.3186 31.0156 11.5736 31.0156C9.79444 31.0498 8.3916 32.4527 8.3916 34.1977ZM10.1708 34.1977C10.1708 33.4449 10.7867 32.7948 11.5736 32.7948C12.3264 32.7948 12.9423 33.4107 12.9423 34.1977C12.9423 34.9504 12.3264 35.5663 11.5736 35.5663C10.7867 35.6005 10.1708 34.9846 10.1708 34.1977Z" fill="#5B9849"/>
<path d="M30.1182 21.2303C30.1182 24.0018 32.3422 26.2258 35.1136 26.2258H40.1091V21.2303C40.1091 18.4589 37.8509 16.2349 35.1136 16.2349H30.1182V21.2303Z" fill="#F29B1B"/>
<path d="M26.9018 26.6361C28.149 26.6361 29.16 25.625 29.16 24.3779C29.16 23.1307 28.149 22.1196 26.9018 22.1196C25.6546 22.1196 24.6436 23.1307 24.6436 24.3779C24.6436 25.625 25.6546 26.6361 26.9018 26.6361Z" fill="#DC7B88"/>
<path d="M21.4619 17.6033C21.4619 19.8273 23.2411 21.6065 25.4651 21.6065H29.4684V17.6033C29.4684 15.3793 27.6549 13.6001 25.4651 13.6001C23.2411 13.6001 21.4619 15.4135 21.4619 17.6033ZM23.2411 17.6033C23.2411 16.3716 24.2334 15.3793 25.4651 15.3793C26.6969 15.3793 27.6891 16.3716 27.6891 17.6033C27.6891 17.6033 27.6891 18.9377 27.6891 19.8273C26.7653 19.8273 25.4651 19.8273 25.4651 19.8273C24.2334 19.8615 23.2411 18.8351 23.2411 17.6033Z" fill="#E57025"/>
</svg>
