<svg width="100" height="100" viewBox="0 0 100 100" fill="none" xmlns="http://www.w3.org/2000/svg">
<path d="M70.7071 12.9265C63.369 15.4121 53.7058 19.5054 43.7422 23.2785C49.2673 25.8344 54.7085 28.234 59.0377 30.1813C73.0776 24.446 83.8422 21.2269 83.8422 21.2269C83.8422 21.2269 82.0917 25.7592 74.5207 37.1679C78.173 38.7914 82.7025 40.7052 85.6262 41.6227C96.3092 26.9365 103.128 13.5209 98.5561 8.93392C97.7671 8.13854 96.7623 7.27002 93.7838 7.27002C90.1336 7.27002 83.5192 8.57536 70.7071 12.9265" fill="url(#paint0_linear_526_1812)"/>
<path d="M54.4307 69.5264C58.1761 72.4097 60.967 70.8943 63.9035 68.707C63.6219 68.9754 63.3362 69.2393 63.0464 69.4988C66.9424 66.2022 71.7729 61.126 78.6601 52.636C75.0241 50.4487 71.3944 48.2812 68.4337 46.52L54.4307 69.5264Z" fill="url(#paint1_linear_526_1812)"/>
<path d="M4.14684 10.3969C3.88124 10.4111 3.65327 10.4323 3.41821 10.4181C3.11994 10.4039 2.571 10.8535 2.571 10.8535C-10.1729 18.3422 27.7342 79.0532 44.5601 90.2894C46.8952 91.8475 51.1518 93.5363 54.9001 92.3063C55.3354 92.1628 56.2849 91.447 56.3275 91.3966C60.0595 87.0698 63.7848 82.7374 67.5034 78.3992C67.3635 77.3716 66.3259 77.983 66.2009 78.0724C61.8668 81.2249 58.071 79.4609 46.3866 67.5884C33.9424 54.9596 21.8789 32.8579 21.8789 32.8579L77.9357 58.1063C81.6534 59.7794 83.7405 58.8278 84.8228 58.1276C85.1211 57.9345 95.2722 45.7082 95.2722 45.7082C95.3397 44.8589 94.3951 45.3297 94.3951 45.3297C91.1262 47.3793 88.6357 45.851 83.3493 43.7269C79.7821 42.2938 42.2052 25.6839 28.8193 19.3329C11.6405 11.1852 6.9179 10.3706 4.8286 10.3706C4.601 10.3679 4.37342 10.3774 4.14684 10.3989" fill="url(#paint2_linear_526_1812)"/>
<defs>
<linearGradient id="paint0_linear_526_1812" x1="14.2066" y1="68.471" x2="87.6252" y2="16.0787" gradientUnits="userSpaceOnUse">
<stop stop-color="#20294E"/>
<stop offset="0.5001" stop-color="#005695"/>
<stop offset="1" stop-color="#26B5E3"/>
</linearGradient>
<linearGradient id="paint1_linear_526_1812" x1="35.2235" y1="77.1913" x2="109.006" y2="30.8448" gradientUnits="userSpaceOnUse">
<stop stop-color="#20294E"/>
<stop offset="1" stop-color="#005F9B"/>
</linearGradient>
<linearGradient id="paint2_linear_526_1812" x1="74.9349" y1="73.7403" x2="9.16623" y2="4.43451" gradientUnits="userSpaceOnUse">
<stop stop-color="#20294E"/>
<stop offset="0.2951" stop-color="#005695"/>
<stop offset="0.9039" stop-color="#26B5E3"/>
<stop offset="1" stop-color="#26B5E3"/>
</linearGradient>
</defs>
</svg>
