<svg width="100" height="100" viewBox="0 0 100 100" fill="none" xmlns="http://www.w3.org/2000/svg">
<path d="M41.8265 31.8888C38.6685 31.8747 35.3505 32.0968 32.0213 32.4131C31.1855 32.4925 30.4607 32.9716 29.6173 33.5341C28.613 34.2039 27.5628 34.9351 27.252 36.2014C27.0026 37.2175 27.7385 37.3847 28.3377 37.2451C28.7065 37.1591 29.3817 37.0517 29.8717 37.03C34.8516 36.81 39.6395 37.6691 43.7701 39.1779C45.3017 39.7373 45.789 40.8253 45.3598 41.9997C42.8677 48.8196 38.7403 54.0098 33.8268 60.4072C33.4 60.9628 32.6437 61.4907 32.0601 61.5596C27.5161 62.0961 22.7522 61.7751 18.3726 59.4722C17.167 58.8382 17.0237 57.2376 17.7522 55.7999C19.1009 53.1381 20.357 50.5878 22.6378 48.2233C24.1079 46.6993 25.4926 46.6441 27.0969 47.025C29.5164 47.5995 31.9492 48.3388 31.7111 50.3107C31.5922 51.2953 31.2988 51.5242 31.0907 51.9343C30.8767 52.3561 30.5767 52.7913 30.1213 53.3645C29.7542 53.8267 30.1703 54.3178 30.8193 54.4856C31.8478 54.7514 32.3991 54.5357 32.9519 54.4856C33.7873 54.4098 34.2201 53.8518 34.658 53.0166C35.9181 50.6131 37.2592 48.4068 37.6049 46.2519C37.7821 45.1469 38.2992 43.3985 35.4335 43.314L21.0093 42.8888C19.412 42.8417 17.9845 43.7778 16.8604 44.7056C10.1316 50.2599 5.78774 57.1855 1.85453 64.3428C0.888768 66.1002 1.86122 66.6743 3.48307 66.8941C7.96011 67.5008 12.4766 68.2403 16.8604 68.0924C21.7226 67.9284 22.6572 68.5487 32.9907 67.0101C35.3684 66.656 37.1532 65.2307 38.4967 63.531C45.3599 54.8481 53.106 46.5612 56.4882 37.1291C56.8446 36.1351 57.128 35.403 55.5964 34.5778C51.9088 32.5912 47.0898 31.9123 41.8265 31.8888ZM75.3448 33.2684C73.3361 33.2924 71.0624 33.4372 68.8186 35.0707C55.8014 44.5469 53.8878 52.6995 49.024 61.4219C47.8047 63.6086 47.8126 65.7848 51.983 65.9035C61.8489 66.1845 71.4137 65.5132 80.7176 64.4829C81.7304 64.3708 82.3585 64.0502 82.9665 63.4996C84.077 62.494 85.4534 61.4611 85.5426 59.9457C85.5794 59.3203 85.7954 58.5286 84.1176 58.6338C77.5501 59.0459 70.656 59.6123 64.3764 57.4862C59.8212 55.9439 61.6738 54.0398 62.1275 52.5649C63.479 48.1713 67.2599 41.4122 71.5061 37.4214C72.3205 36.6561 72.9567 35.7284 74.4118 35.7278C79.0266 35.7261 83.0836 36.4627 86.3666 38.1317C86.9998 38.4537 88.3351 38.4547 87.1881 41.5214L85.9813 44.7467C85.0629 47.202 83.8596 50.2028 80.9914 49.7212C78.4947 49.3021 75.5482 48.3454 76.9346 45.3483C77.2189 44.7337 77.8345 44.0462 77.7028 43.2174C77.6123 42.648 77.4215 42.5792 77.2642 42.3428C77.0724 42.0545 76.5232 41.871 75.9483 42.0698C75.4005 42.2592 75.1407 42.5587 74.5209 43.3261C73.043 45.1558 71.5557 46.9385 70.6822 49.0665C69.9133 50.9395 71.4513 52.1685 73.0402 52.4561C78.6233 53.4669 82.7601 53.3887 86.97 52.9466C88.4595 52.7902 89.5876 51.7475 90.9735 49.9411C94.022 45.9676 96.1434 42.0372 98.1008 38.0786C99.2313 35.7924 97.9441 35.4263 96.402 35.0707C89.3888 33.4535 82.3682 33.1845 75.3448 33.2684Z" fill="#E20025"/>
</svg>
