<svg width="100" height="100" viewBox="0 0 100 100" fill="none" xmlns="http://www.w3.org/2000/svg">
<path d="M0 25C0 11.1929 11.1929 0 25 0H75C88.8072 0 100 11.1929 100 25V75C100 88.8072 88.8072 100 75 100H25C11.1929 100 0 88.8072 0 75V25Z" fill="#E30613"/>
<path d="M100 75C100 88.8072 88.8072 100 75 100H28.0322C42.8822 98.8533 58.8825 93.6227 73.8301 84.1865C84.2849 77.5865 93.1034 69.6361 100 61.0352V75Z" fill="#FEF102"/>
<path d="M46.1768 48.3325C46.0774 49.8875 45.6539 51.2615 44.9648 52.3628L48.1914 51.8589L51.1953 67.104L47.7881 67.6372L47.2881 64.2133L42.585 64.9497L41.2217 68.6645L37.8574 69.1909L44.3643 53.1762C43.4815 54.1904 42.3112 54.865 40.916 55.0835C37.8676 55.5605 35.8898 53.834 35.8076 51.7212C37.5918 53.2308 40.4 52.797 41.8457 51.0708C42.3773 50.4415 42.7467 49.5036 42.8428 47.3794C43.0138 43.7585 43.3677 37.2713 43.3682 37.2632L46.7812 36.729L46.1768 48.3325ZM54.543 63.0796L51.1338 63.6128L51.7734 51.2983L55.1826 50.7641L54.543 63.0796ZM62.3213 51.9594C61.4535 51.778 60.5622 51.895 60.0273 52.2251L59.54 62.3012L56.1465 62.8315L56.7285 51.2046C58.0381 50.204 60.62 49.3305 62.7529 49.3706L62.3213 51.9594ZM43.4785 62.5434L46.9473 62.0005L46.0303 55.6889L43.4785 62.5434ZM62.4492 59.6128C63.0164 59.524 63.4876 59.8554 63.5703 60.3842C63.6792 61.0811 63.0988 61.8623 62.3594 61.978C61.7975 62.0659 61.3356 61.7187 61.2549 61.2026C61.1461 60.5058 61.712 59.7282 62.4492 59.6128ZM68.1279 51.6372C69.1282 51.4807 70.0311 51.7115 70.3711 51.9614L69.7578 53.4419C69.5698 53.3339 69.2009 53.223 68.7881 53.2876C68.1115 53.3936 67.5657 53.8689 67.2314 54.7485C66.9141 55.5558 66.8175 56.7525 66.9512 57.6069C67.1218 58.6973 67.6547 59.2032 68.3652 59.0923C68.827 59.02 69.2958 58.7782 69.5137 58.561L69.9766 60.1069C69.6034 60.5369 68.8906 60.9497 67.8672 61.1098C66.1391 61.3802 64.6991 60.2563 64.3721 58.1665C64.1681 56.863 64.4175 55.2194 64.9922 54.0503C65.6861 52.6608 66.8436 51.8382 68.1279 51.6372ZM74.1494 50.6958C76.2583 50.3658 77.5731 51.5255 77.875 53.4546C78.0788 54.757 77.8335 56.4498 77.293 57.6147C76.6601 58.9617 75.5254 59.9114 73.8467 60.1743C71.7388 60.5041 70.4375 59.3269 70.1357 57.3989C69.9321 56.0976 70.1588 54.4074 70.7188 53.2417C71.3622 51.8711 72.5184 50.9511 74.1494 50.6958ZM88.3271 48.477C90.1434 48.1928 91.1871 48.982 91.3955 50.313C91.4288 50.5257 91.4458 50.7466 91.4307 50.9702L91.123 57.3882L88.5303 57.7944L88.8584 51.2866C88.8553 51.1695 88.8585 51.0687 88.8398 50.9497C88.7592 50.4348 88.3849 50.1181 87.6191 50.2378C87.1553 50.3103 86.7202 50.5828 86.4443 50.9028L86.0859 58.1762L83.4941 58.5825L83.8174 52.0581C83.8175 51.9405 83.8203 51.8377 83.8047 51.7378C83.7188 51.1887 83.2632 50.9198 82.4854 51.0415C82.0662 51.1071 81.725 51.2272 81.415 51.3989L81.0479 58.9653L78.457 59.3706L78.8984 50.6313C79.8909 50.0357 81.0666 49.6133 82.5615 49.3794C83.7457 49.1941 84.7677 49.4442 85.2646 49.8755C85.7908 49.3157 86.8536 48.7077 88.3271 48.477ZM75.3438 53.479C75.2249 52.7193 74.89 52.2152 74.1836 52.3257C73.4942 52.4335 73.0827 53.04 72.8613 53.8823C72.6141 54.7822 72.5208 56.3485 72.6631 57.2583C72.7811 58.0127 73.0917 58.5056 73.8174 58.3921C74.5299 58.2803 74.9117 57.7155 75.1318 56.8725C75.368 55.9711 75.4853 54.3834 75.3438 53.479ZM14.4404 57.5053L11.3242 57.9926L7.4541 42.8833L10.8643 42.3491L13.1221 52.6811L16.2822 41.5014L19.8037 40.9507L14.4404 57.5053ZM23.1836 52.6362L19.7783 53.1694L20.4141 40.8549L23.8232 40.3217L23.1836 52.6362ZM30.2998 38.9692C32.9366 38.5566 34.6588 39.871 35.0742 42.5258C35.1784 43.1919 35.221 44.6928 35.0449 45.769L28.002 46.8716C28.1774 48.4312 28.9726 49.4484 30.7432 49.1714C32.0061 48.9737 33.208 48.3984 33.8184 47.9868L34.4902 50.0815C33.5914 50.7192 32.1014 51.3624 30.333 51.6391C27.324 52.1099 25.2862 50.6812 24.8359 47.8042C24.5625 46.0569 24.8467 43.97 25.6455 42.394C26.542 40.599 28.1303 39.3087 30.2998 38.9692ZM40.0918 37.7758L41.9355 37.4819L41.8184 39.7729L39.9736 40.062L39.6504 46.5063C39.6351 46.6949 39.5974 47.8111 40.7002 47.7007C41.0128 47.6713 41.4562 47.5177 41.6436 47.3979C41.6421 47.4203 41.478 49.8946 39.0674 50.2719C37.1894 50.5658 36.115 49.2888 36.2275 47.1108L36.7803 36.4077C36.7991 36.3787 37.8207 34.8247 40.25 34.8559C40.141 36.8765 40.0918 37.7758 40.0918 37.7758ZM53.2178 35.3833C55.8544 34.9707 57.5796 36.2843 57.9951 38.9389C58.0993 39.6051 58.1419 41.1068 57.9658 42.1831L50.9199 43.2856C51.0933 44.8455 51.8919 45.862 53.6592 45.5854C54.9211 45.3879 56.1237 44.8122 56.7383 44.3999L57.4102 46.4946C56.5114 47.1323 55.0237 47.7756 53.25 48.0532C50.2421 48.5237 48.2091 47.0943 47.7588 44.2173C47.4854 42.4701 47.7661 40.3842 48.5596 38.8091C49.4624 37.013 51.0493 35.7227 53.2178 35.3833ZM63.0068 34.1899L64.8604 33.895L64.7363 36.187L62.8906 36.476L62.5703 42.9194C62.555 43.1071 62.5148 44.2242 63.6182 44.1137C63.9275 44.0849 64.3732 43.9317 64.5605 43.812C64.5591 43.8339 64.3963 46.3084 61.9844 46.686C60.1105 46.9792 59.0337 45.7023 59.1475 43.5239L59.7002 32.8217C59.7002 32.8217 60.7169 31.2378 63.1699 31.269C63.061 33.2688 63.0079 34.1713 63.0068 34.1899ZM31.9648 42.6518C31.7779 41.4569 31.1446 40.9006 30.1943 41.0493C29.1997 41.2051 28.4685 42.0238 28.0713 43.2817C27.9131 43.8305 27.8934 43.9765 27.8301 44.6303L31.9854 43.9809C32.0265 43.617 32.0239 43.0296 31.9648 42.6518ZM54.8857 39.0649C54.6988 37.8702 54.0654 37.3145 53.1133 37.4633C52.1205 37.6187 51.3841 38.4378 50.9932 39.6948C50.8274 40.2451 50.811 40.3909 50.752 41.0444L54.9004 40.395C54.9447 40.0305 54.9448 39.4427 54.8857 39.0649Z" fill="white"/>
</svg>
