<svg width="100" height="100" viewBox="0 0 100 100" fill="none" xmlns="http://www.w3.org/2000/svg">
<path d="M21.764 78.9598C21.764 78.9598 21.5408 75.3897 23.772 70.9625C23.772 70.9625 30.6932 62.5168 13.0583 48.0081C13.0583 48.0081 2.8284 39.9924 1.78783 34.8768L9.57939 41.4816L9.3944 40.3644C9.3944 40.3644 0.652126 32.2722 0.652126 31.9022L0.56062 29.6697L9.02307 38.3175C9.02307 38.3175 8.52106 36.7548 7.7208 35.9562L0 27.2514L0.22517 24.8319L8.37062 34.8768L8.27877 33.853C8.27877 33.853 1.56299 25.4643 0.225496 22.3393L0.745618 20.1831C0.745618 20.1831 10.7905 40.9046 28.5538 45.0151C28.5538 45.0151 35.8075 47.0792 38.8759 47.675C38.8759 47.675 44.7368 49.237 41.3886 54.2594" fill="#949599"/>
<path d="M22.8379 79.8169L45.1385 53.4976C45.1385 53.4976 47.1679 50.03 53.4818 49.8739C59.7956 49.7162 72.0717 47.646 74.9929 46.8424C77.9158 46.0376 96.8728 40.1688 99.9994 36.6494C99.9994 36.6494 95.8154 40.706 94.0665 41.3947C94.0665 41.3947 82.4073 46.3957 79.2809 47.1104L78.1439 48.2701C78.1439 48.2701 90.3661 44.6095 90.8009 44.0743L87.6361 46.4461C87.6361 46.4461 78.5018 49.202 76.3317 49.6994L74.8142 51.1288C74.8142 51.1288 84.2556 48.5381 84.8037 48.2701C84.8037 48.2701 82.5603 50.0194 82.1255 50.3499C82.1255 50.3499 73.8836 52.4172 73.2973 52.647L72.047 53.7195L80.4407 51.5758C80.4407 51.5758 67.4272 59.6126 62.4907 60.5953C62.4907 60.5953 51.2765 63.8486 45.841 64.5248C40.407 65.2013 38.3657 68.5435 36.2721 70.2405C34.1801 71.9358 27.3155 78.9923 22.8379 79.8169" fill="#949599"/>
</svg>
