<svg width="100" height="100" viewBox="0 0 100 100" fill="none" xmlns="http://www.w3.org/2000/svg">
<path d="M62.9574 67.7912C45.7922 69.0469 22.0384 72.8273 4.97559 71.902C6.77637 75.5502 9.02321 78.9835 11.6798 82.1294C13.1667 83.8741 14.7725 85.5396 16.5072 87.0894C25.7721 95.4167 37.6969 100 50.081 100C62.5411 100 74.4527 95.4927 83.6284 87.3075C87.4216 83.927 90.4912 80.2954 92.933 76.3102C94.5851 73.6104 95.9431 70.752 97.0335 67.6888C89.685 66.2282 77.106 66.7536 62.9574 67.7912Z" fill="#1A428A"/>
<path d="M22.4472 8.52881C22.1333 8.45942 21.8095 8.52221 21.5484 8.70726C20.6398 9.3318 19.7278 10.0092 18.8522 10.7065C18.4062 11.0567 18.2839 11.6813 18.5648 12.1704L27.073 26.9083L27.5125 27.4998L27.4927 27.5296L26.9012 27.0868L12.1513 18.5711C11.6689 18.2902 11.0378 18.4059 10.6909 18.852C9.99371 19.731 9.32626 20.6397 8.69847 21.5518C8.52004 21.8161 8.45726 22.1433 8.52665 22.4473C8.59934 22.7579 8.79429 23.0256 9.06854 23.1875L34.2299 37.7074L34.7982 37.8594C35.1154 37.8594 35.4326 37.7272 35.6573 37.4694C36.2223 36.8251 36.8303 36.2104 37.468 35.652C37.881 35.2918 37.9802 34.6937 37.7059 34.2244L23.1873 9.07405C23.0254 8.79317 22.7611 8.59821 22.4472 8.52881Z" fill="#1A428A"/>
<path d="M91.4715 22.4402C91.5409 22.1362 91.4814 21.8091 91.2997 21.5447C90.6686 20.6327 89.9945 19.724 89.2941 18.845C88.9471 18.3989 88.3226 18.2832 87.8369 18.5641L73.0936 27.0731L72.5022 27.5093L72.4824 27.4928L72.9218 26.9013L81.4334 12.1501C81.7143 11.661 81.5953 11.0299 81.1492 10.6862C80.2736 9.99227 79.3617 9.32146 78.4497 8.69361C78.192 8.51187 77.8682 8.44578 77.5543 8.52178C77.2437 8.59117 76.9794 8.78614 76.8174 9.06041L62.2955 34.224L62.1436 34.7924C62.1436 35.1129 62.2823 35.4269 62.5368 35.6516C63.1811 36.2133 63.799 36.8246 64.3508 37.4657C64.7109 37.8755 65.3123 37.9779 65.7848 37.7036L90.9329 23.1805C91.2072 23.0185 91.4021 22.7575 91.4715 22.4402Z" fill="#1A428A"/>
<path d="M72.1431 5.39927C72.044 5.09526 71.8292 4.84743 71.5417 4.70864C70.5406 4.23279 69.5031 3.78669 68.4556 3.37363C67.9303 3.16545 67.3388 3.37363 67.0513 3.85939L58.5398 18.6007L58.2457 19.2781L58.216 19.2649L58.3019 18.5379V1.5066C58.3019 0.938226 57.8855 0.455772 57.3205 0.376465C56.2136 0.214545 55.0935 0.0922797 53.9932 0.00305872C53.676 -0.0200726 53.3588 0.0889752 53.1308 0.307071C52.8929 0.518558 52.7607 0.822569 52.7607 1.1398L52.7674 30.1928L52.9193 30.7612C53.0746 31.0354 53.3522 31.2436 53.6859 31.313C54.5252 31.4782 55.3644 31.6963 56.1641 31.9739C56.6828 32.1457 57.2544 31.9309 57.5221 31.4617L72.0407 6.30801C72.1993 6.03043 72.2389 5.70329 72.1431 5.39927Z" fill="#1A428A"/>
<path d="M99.6994 46.8808C99.9175 46.6461 100.02 46.3289 99.9968 46.015C99.9076 44.9113 99.7787 43.7845 99.6135 42.6709C99.5342 42.1157 99.0551 41.7026 98.4901 41.7026L81.4669 41.696L80.7367 41.7819L80.7301 41.7522L81.4041 41.4614L96.1474 32.9458C96.6364 32.6583 96.8512 32.0602 96.6364 31.5315C96.2234 30.4938 95.7707 29.4595 95.2949 28.4616C95.1595 28.1741 94.9083 27.956 94.6043 27.8635C94.3004 27.771 93.9733 27.8073 93.7023 27.9626L68.5409 42.4924L68.1279 42.9088C67.9693 43.183 67.923 43.5267 68.0321 43.8506C68.3129 44.6602 68.5409 45.4962 68.6995 46.3289C68.8086 46.8642 69.2778 47.2476 69.8163 47.2476H98.8601C99.1773 47.2476 99.4813 47.1121 99.6994 46.8808Z" fill="#1A428A"/>
<path d="M5.39809 27.8566C5.09411 27.9558 4.84299 28.1739 4.70752 28.4581C4.23171 29.4593 3.78565 30.4969 3.37263 31.5444C3.15785 32.0666 3.37263 32.6614 3.85834 32.9488L18.5983 41.4579L19.2724 41.752L19.2592 41.785L18.5355 41.6991H1.50576C0.940745 41.6991 0.458333 42.1122 0.379033 42.6772C0.217128 43.7842 0.0915689 44.9045 0.00235591 46.0115C-0.0174692 46.3287 0.0882646 46.6426 0.303037 46.8739C0.517809 47.1019 0.821794 47.2407 1.139 47.2407L30.1861 47.2341L30.7577 47.0854C31.032 46.9202 31.2401 46.6492 31.3095 46.3155C31.4681 45.4728 31.6895 44.6401 31.9671 43.8371C32.1455 43.3183 31.9274 42.7499 31.4615 42.4757L6.30674 27.9558C6.0325 27.8005 5.70208 27.7641 5.39809 27.8566Z" fill="#1A428A"/>
<path d="M46.8662 0.307C46.6349 0.0955129 46.3177 -0.0135354 46.0005 0.00959593C44.8969 0.0988169 43.7734 0.227692 42.6632 0.392916C42.1015 0.478833 41.6885 0.95468 41.6885 1.51975L41.6852 18.5444L41.7711 19.2714L41.7414 19.278L41.4473 18.6072L32.9357 3.85601C32.6549 3.36695 32.0502 3.15546 31.5215 3.37356C30.484 3.78662 29.4498 4.23272 28.4519 4.71187C28.1678 4.84736 27.9431 5.09519 27.8506 5.40581C27.7548 5.70322 27.7977 6.03036 27.953 6.30793L42.4782 31.4682L42.8978 31.8879C43.1787 32.0432 43.5124 32.0895 43.8362 31.9804C44.6491 31.7029 45.4817 31.4749 46.3177 31.3129C46.8529 31.2039 47.2395 30.7346 47.2395 30.1927L47.2329 1.14634C47.2329 0.822501 47.1008 0.518486 46.8662 0.307Z" fill="#1A428A"/>
<path d="M96.8247 53.5226C86.3373 53.5226 78.3048 56.0737 57.4818 60.4951C28.0217 66.7538 7.09626 61.5856 2.29858 60.9676C1.58487 60.8784 1.11568 61.2419 1.35689 62.0449C1.87564 64.4406 3.64999 69.5725 4.98488 71.9021C22.051 72.8274 45.8048 69.0471 62.9667 67.7914C77.1186 66.7538 89.6943 66.2284 97.0461 67.6889C98.2356 64.3448 99.1112 60.7727 99.6895 56.913C100.023 54.7056 99.7556 53.5226 96.8247 53.5226Z" fill="#EE5F2A"/>
<path d="M1.03674 57.1011C2.02139 57.4877 15.6412 62.1272 36.7847 62.4279C42.7851 62.5171 50.4409 61.6249 55.0139 60.627C52.6118 61.007 47.5068 61.7736 41.176 61.7505C28.9935 61.7075 10.5131 57.4348 1.74384 53.5223C1.38368 53.3571 0.957443 53.4199 0.633632 53.6545C0.309822 53.8924 0.131396 54.2758 0.167742 54.6789C0.214001 55.2407 0.270172 55.8024 0.329647 56.3642C0.382514 56.6385 0.465119 56.8731 1.03674 57.1011Z" fill="#EE5F2A"/>
</svg>
