<svg width="100" height="100" viewBox="0 0 100 100" fill="none" xmlns="http://www.w3.org/2000/svg">
<path fill-rule="evenodd" clip-rule="evenodd" d="M42.8584 14.2865H57.1439V0H42.8584V14.2865Z" fill="#EEEFEF"/>
<path fill-rule="evenodd" clip-rule="evenodd" d="M42.8584 28.5718H57.1439V14.2866H42.8584V28.5718Z" fill="#B5D5F0"/>
<path fill-rule="evenodd" clip-rule="evenodd" d="M42.8584 42.8569H57.1439V28.5718H42.8584V42.8569Z" fill="#6CADDE"/>
<path fill-rule="evenodd" clip-rule="evenodd" d="M28.5723 42.8569H42.8578V28.5718H28.5723V42.8569Z" fill="#B5D5F0"/>
<path fill-rule="evenodd" clip-rule="evenodd" d="M28.5723 71.4297H42.8578V57.1445H28.5723V71.4297Z" fill="#D6A6CC"/>
<path fill-rule="evenodd" clip-rule="evenodd" d="M57.1436 42.8569H71.4291V28.5718H57.1436V42.8569Z" fill="#B5D5F0"/>
<path fill-rule="evenodd" clip-rule="evenodd" d="M57.1436 71.4297H71.4291V57.1445H57.1436V71.4297Z" fill="#DAE7A2"/>
<path fill-rule="evenodd" clip-rule="evenodd" d="M42.8584 57.1433H57.1439V42.8555H42.8584V57.1433Z" fill="#231F20"/>
<path fill-rule="evenodd" clip-rule="evenodd" d="M42.8584 71.4297H57.1439V57.1445H42.8584V71.4297Z" fill="#91268F"/>
<path fill-rule="evenodd" clip-rule="evenodd" d="M42.8584 85.7148H57.1439V71.4297H42.8584V85.7148Z" fill="#D6A6CC"/>
<path fill-rule="evenodd" clip-rule="evenodd" d="M42.8584 100H57.1439V85.7148H42.8584V100Z" fill="#EEEFEF"/>
<path fill-rule="evenodd" clip-rule="evenodd" d="M0 57.1433H14.2855V42.8555H0V57.1433Z" fill="#EEEFEF"/>
<path fill-rule="evenodd" clip-rule="evenodd" d="M14.2852 57.1433H28.572V42.8555H14.2852V57.1433Z" fill="#D6A6CC"/>
<path fill-rule="evenodd" clip-rule="evenodd" d="M28.5723 57.1433H42.8578V42.8555H28.5723V57.1433Z" fill="#91268F"/>
<path fill-rule="evenodd" clip-rule="evenodd" d="M57.1436 57.1433H71.4291V42.8555H57.1436V57.1433Z" fill="#8DC63F"/>
<path fill-rule="evenodd" clip-rule="evenodd" d="M71.4287 57.1433H85.7142V42.8555H71.4287V57.1433Z" fill="#DAE7A2"/>
<path fill-rule="evenodd" clip-rule="evenodd" d="M85.7148 57.1433H100V42.8555H85.7148V57.1433Z" fill="#EEEFEF"/>
</svg>
