<svg width="100" height="100" viewBox="0 0 100 100" fill="none" xmlns="http://www.w3.org/2000/svg">
<path d="M0 25C0 11.1929 11.1929 0 25 0H75C88.8072 0 100 11.1929 100 25V75C100 88.8072 88.8072 100 75 100H25C11.1929 100 0 88.8072 0 75V25Z" fill="#1B4982"/>
<path fill-rule="evenodd" clip-rule="evenodd" d="M45.53 10.0024C52.5814 9.89824 56.1922 13.1597 57.8179 18.5126C58.4221 20.5023 58.6224 22.8831 58.271 24.9409C58.0535 26.4991 57.8361 28.0575 57.6186 29.616C57.0942 32.6558 57.6157 36.4228 58.4885 39.3681C61.7876 50.5007 69.2383 57.9889 80.672 60.9175C82.3237 61.3404 84.0866 61.4516 86.0004 61.6297V61.6479C85.404 63.4373 84.7618 65.1775 84.0068 66.9075C83.8205 67.3342 83.4145 68.4543 83.1369 68.7337C81.355 68.7631 79.572 68.2996 77.8266 67.9849C76.0423 67.5317 74.3332 67.0494 72.7519 66.4144C64.7952 63.2194 59.0436 58.0346 54.8819 51.0193C53.7852 49.1708 52.9555 47.1834 52.1271 45.0293C51.8407 44.285 51.5012 43.4372 51.3659 42.6005C51.3477 42.6127 51.3296 42.6248 51.3115 42.637C49.8375 45.5522 48.3635 48.4681 46.8893 51.3846C45.513 53.7632 44.3032 56.2051 43.4458 59.0912C42.0748 63.7055 42.2619 69.5059 44.0076 74.0297C45.7937 78.6585 48.3285 82.4702 51.9096 85.2792C53.5235 86.5453 55.4441 88.1398 57.4373 88.7856V88.8221C53.2932 89.5846 49.5326 90.0891 45.3306 89.8448C44.7015 89.4221 44.0791 88.9911 43.4639 88.5482C41.9565 87.4627 40.3034 86.2158 39.1323 84.7496C35.4825 80.9256 32.7952 76.2542 31.5022 71.1078C30.8548 66.7462 30.6491 62.2043 31.919 57.9225C32.4641 56.0847 33.0535 54.388 33.7677 52.7543C34.6147 50.8165 35.7592 49.0969 36.8306 47.3852C39.3025 43.436 42.2119 39.8882 44.7688 36.0261C46.5727 33.3013 48.299 30.5768 49.2816 27.0228C49.8962 24.7999 49.871 22.4075 49.0279 20.4849C47.7783 17.6351 44.2963 15.4689 39.9841 16.5768C37.8479 17.1257 36.2385 18.0214 34.7645 19.2066C33.7697 20.0065 32.0248 22.0614 32.4265 24.0826C32.8244 26.0847 34.4 26.9943 36.305 27.4794C37.3991 27.758 38.7376 27.7977 39.8391 27.5889C41.6706 27.2418 43.1702 26.7381 44.6601 26.0914C45.3426 25.7871 46.0253 25.4827 46.708 25.1783L47.6505 24.6852C48.0508 24.5438 48.3401 24.858 48.3936 25.1418C48.4653 25.5236 47.9368 26.0725 47.7774 26.2923C47.0285 27.3241 46.1884 28.2565 45.1856 29.0316C43.3516 30.4493 41.3878 31.4359 38.7517 32.0997C34.4424 33.1848 29.3077 31.7376 27.4062 29.3421C25.4498 26.8774 25.7887 23.5325 26.9894 20.7771C29.0553 16.0363 33.6487 12.7574 38.8061 11.1164C40.9569 10.4321 43.2748 10.0782 45.53 10.0024Z" fill="white"/>
</svg>
